<svg viewBox="0 0 327.5097 62.5838" fill="none" xmlns="http://www.w3.org/2000/svg" xmlns:xlink="http://www.w3.org/1999/xlink" id="7ec478c5" x="0" y="0"><g id="Veevillexp" data-node-id="297:2915" clip-path="url(#clip0_297_2915)"><g id="Group_14" data-node-id="297:3779">
<path id="Vector_817" data-node-id="297:3780" d="M30.3886,27.6257c0,-2.9559 -0.6194,-5.5928 -1.8581,-7.9109c-1.2387,-2.3181 -2.9864,-4.1211 -5.2431,-5.4212c-2.2628,-1.2939 -4.869,-1.944 -7.8309,-1.944c-2.9618,0 -5.5742,0.6501 -7.837,1.944c-2.2689,1.294 -4.0228,3.1031 -5.2615,5.4212c-1.2387,2.3181 -1.858,4.955 -1.858,7.9109c0,2.9559 0.6193,5.5683 1.858,7.8864c1.2387,2.3181 2.9926,4.1211 5.2615,5.4212c2.2628,1.2939 4.8813,1.944 7.837,1.944c2.2322,0 4.2742,-0.3803 6.1262,-1.1407c1.858,-0.7604 3.4463,-1.8336 4.7709,-3.2257c1.3245,-1.3921 2.3241,-3.0294 2.9986,-4.9121l-4.5869,-1.0426c-0.8279,1.7723 -2.042,3.1583 -3.6487,4.1518c-1.6066,0.9996 -3.4954,1.4963 -5.6662,1.4963c-1.8642,0 -3.5138,-0.3557 -4.9549,-1.0793c-1.441,-0.7237 -2.6123,-1.7355 -3.5199,-3.0418c-0.9014,-1.3062 -1.4779,-2.827 -1.7293,-4.5564h25.1423v-1.9072zM5.2463,25.4916c0.2698,-1.6864 0.8585,-3.1705 1.7722,-4.4399c0.9138,-1.2695 2.0911,-2.2507 3.5322,-2.9559c1.4411,-0.6991 3.0723,-1.0487 4.8997,-1.0487c1.8274,0 3.4525,0.3496 4.8874,1.0487c1.435,0.7052 2.6001,1.6864 3.5015,2.9559c0.9015,1.2694 1.4902,2.7535 1.76,4.4399z" fill="currentColor"/>
<path id="Vector_818" data-node-id="297:3781" d="M48.8058,27.5703l11.038,-14.5586h-6.1138l-7.9842,10.4682l-8.0455,-10.4682h-6.1384l11.0687,14.5586l-11.0994,14.5831h6.1384l8.07,-10.5479l8.0149,10.5479h6.1691l-11.124,-14.5831z" fill="currentColor"/>
<path id="Vector_819" data-node-id="297:3782" d="M92.9923,19.727c-1.251,-2.3242 -3.004,-4.1394 -5.261,-5.4334c-2.263,-1.2939 -4.863,-1.944 -7.825,-1.944c-2.036,0.0184 -3.961,0.3864 -5.764,1.0978c-1.809,0.7052 -3.336,1.6864 -4.587,2.9374v-3.287h-5.0163v43.191h5.0163v-17.4406c1.226,1.251 2.747,2.2322 4.556,2.9375c1.803,0.7114 3.735,1.0793 5.795,1.0977c2.962,0 5.568,-0.65 7.825,-1.944c2.257,-1.294 4.01,-3.1031 5.261,-5.4211c1.245,-2.3181 1.871,-4.9428 1.871,-7.8865c0,-2.9436 -0.626,-5.5683 -1.871,-7.8986zM88.9513,33.1143c-0.846,1.6067 -2.054,2.8516 -3.618,3.747c-1.57,0.8953 -3.379,1.3369 -5.433,1.3369c-2.054,0 -3.869,-0.4416 -5.439,-1.3369c-1.564,-0.8954 -2.772,-2.1403 -3.618,-3.747c-0.847,-1.6006 -1.27,-3.4342 -1.27,-5.4947c0,-2.0605 0.423,-3.9126 1.27,-5.507c0.846,-1.5945 2.054,-2.8394 3.618,-3.7347c1.57,-0.8954 3.379,-1.3369 5.439,-1.3369c2.06,0 3.863,0.4415 5.433,1.3369c1.564,0.8892 2.772,2.1341 3.618,3.7347c0.846,1.5944 1.27,3.4342 1.27,5.507c0,2.0728 -0.43,3.888 -1.27,5.4947z" fill="currentColor"/>
<path id="Vector_820" data-node-id="297:3783" d="M127.0563,27.6257c0,-2.9559 -0.619,-5.5928 -1.858,-7.9109c-1.239,-2.3181 -2.986,-4.1211 -5.243,-5.4212c-2.263,-1.2939 -4.863,-1.944 -7.825,-1.944c-2.962,0 -5.574,0.6501 -7.843,1.944c-2.269,1.294 -4.023,3.1031 -5.261,5.4212c-1.239,2.3181 -1.858,4.955 -1.858,7.9109c0,2.9559 0.625,5.5683 1.858,7.8864c1.238,2.3181 2.992,4.1211 5.261,5.4212c2.269,1.2939 4.881,1.944 7.843,1.944c2.226,0 4.268,-0.3803 6.126,-1.1407c1.859,-0.7604 3.447,-1.8336 4.771,-3.2257c1.325,-1.3921 2.324,-3.0294 2.999,-4.9121l-4.587,-1.0426c-0.828,1.7723 -2.042,3.1583 -3.649,4.1518c-1.6,0.9996 -3.495,1.4963 -5.666,1.4963c-1.864,0 -3.52,-0.3557 -4.961,-1.0793c-1.441,-0.7237 -2.612,-1.7355 -3.52,-3.0418c-0.901,-1.3062 -1.478,-2.827 -1.729,-4.5564h25.136v-1.9072zM101.9203,25.4916c0.27,-1.6864 0.859,-3.1705 1.772,-4.4399c0.914,-1.2695 2.091,-2.2507 3.539,-2.9559c1.441,-0.6991 3.072,-1.0487 4.899,-1.0487c1.828,0 3.453,0.3496 4.888,1.0487c1.429,0.7052 2.6,1.6864 3.501,2.9559c0.902,1.2694 1.49,2.7535 1.76,4.4399h-20.353z" fill="currentColor"/>
<path id="Vector_821" data-node-id="297:3784" d="M145.4733,12.2881c-1.785,0 -3.471,0.3434 -5.059,1.0425c-1.589,0.693 -2.925,1.6497 -4.023,2.8823v-3.1153h-5.016v29.062h5.016v-17.0913c0,-1.4657 0.368,-2.7903 1.098,-3.98c0.729,-1.1897 1.747,-2.1525 3.06,-2.8823c1.208,-0.7114 2.593,-1.0671 4.151,-1.0671c0.791,0 1.674,0.1472 2.655,0.4293l2.048,-4.6975c-1.269,-0.3863 -2.575,-0.5765 -3.924,-0.5765z" fill="currentColor"/>
<path id="Vector_822" data-node-id="297:3785" d="M152.2983,13.0915v29.0619h5.016v-29.0619zM156.8543,1.7218c-0.558,-0.5274 -1.22,-0.7911 -1.987,-0.7911c-0.766,0 -1.392,0.2637 -1.931,0.7911c-0.54,0.5274 -0.804,1.1468 -0.804,1.8581c0,0.7114 0.27,1.386 0.804,1.9134c0.539,0.5274 1.183,0.7911 1.931,0.7911c0.792,0 1.454,-0.2637 2.006,-0.7911c0.545,-0.5274 0.821,-1.1713 0.821,-1.9134c0,-0.742 -0.276,-1.3307 -0.834,-1.8581z" fill="currentColor"/>
<path id="Vector_823" data-node-id="297:3786" d="M191.7053,27.6257c0,-2.9559 -0.626,-5.5928 -1.858,-7.9109c-1.239,-2.3181 -2.987,-4.1211 -5.25,-5.4212c-2.256,-1.2939 -4.862,-1.944 -7.824,-1.944c-2.962,0 -5.575,0.6501 -7.844,1.944c-2.268,1.294 -4.022,3.1031 -5.255,5.4212c-1.239,2.3181 -1.858,4.955 -1.858,7.9109c0,2.9559 0.619,5.5683 1.858,7.8864c1.239,2.3181 2.993,4.1211 5.255,5.4212c2.269,1.2939 4.882,1.944 7.844,1.944c2.232,0 4.268,-0.3803 6.126,-1.1407c1.858,-0.7604 3.446,-1.8336 4.771,-3.2257c1.324,-1.3921 2.324,-3.0294 2.998,-4.9121l-4.587,-1.0426c-0.821,1.7723 -2.042,3.1583 -3.648,4.1518c-1.601,0.9996 -3.496,1.4963 -5.666,1.4963c-1.865,0 -3.52,-0.3557 -4.962,-1.0793c-1.441,-0.7237 -2.612,-1.7355 -3.513,-3.0418c-0.902,-1.3062 -1.484,-2.827 -1.73,-4.5564h25.143v-1.9072zM166.5693,25.4916c0.269,-1.6864 0.858,-3.1705 1.772,-4.4399c0.913,-1.2695 2.091,-2.2507 3.532,-2.9559c1.441,-0.6991 3.072,-1.0487 4.9,-1.0487c1.827,0 3.452,0.3496 4.887,1.0487c1.429,0.7052 2.6,1.6864 3.502,2.9559c0.901,1.2694 1.49,2.7535 1.76,4.4399z" fill="currentColor"/>
<path id="Vector_824" data-node-id="297:3787" d="M220.9433,18.2428c-1.104,-1.8336 -2.619,-3.2809 -4.544,-4.3357c-1.883,-1.0793 -3.98,-1.619 -6.28,-1.619c-1.772,0 -3.452,0.3434 -5.046,1.0425c-1.595,0.693 -2.944,1.6497 -4.042,2.8823v-3.1153h-5.016v29.062h5.016v-17.0913c0,-1.4412 0.362,-2.7658 1.086,-3.9678c0.723,-1.1958 1.741,-2.1647 3.072,-2.8945c1.19,-0.7114 2.576,-1.0671 4.152,-1.0671c1.576,0 2.943,0.3434 4.206,1.0242c1.27,0.6807 2.269,1.6312 2.999,2.8393c0.711,1.1897 1.067,2.545 1.067,4.0659v17.0913h4.992v-17.9008c0,-2.1771 -0.552,-4.1763 -1.656,-6.016z" fill="currentColor"/>
<path id="Vector_825" data-node-id="297:3788" d="M246.1033,36.7082c-1.607,0.9996 -3.495,1.4964 -5.666,1.4964c-2.171,0 -3.9,-0.4416 -5.464,-1.3369c-1.57,-0.8954 -2.772,-2.1403 -3.618,-3.747c-0.846,-1.6006 -1.27,-3.4342 -1.27,-5.4947c0,-2.0605 0.424,-3.9126 1.27,-5.507c0.846,-1.5945 2.048,-2.8394 3.618,-3.7347c1.564,-0.8953 3.385,-1.3369 5.464,-1.3369v0.0245c2.171,0 4.059,0.5029 5.666,1.5025c1.6,0.9996 2.821,2.3856 3.649,4.1517l4.587,-1.0364c-0.675,-1.8827 -1.668,-3.52 -2.987,-4.9183c-1.312,-1.392 -2.907,-2.4714 -4.771,-3.244c-1.87,-0.7666 -3.912,-1.1652 -6.138,-1.1836c-2.962,0 -5.574,0.65 -7.843,1.944c-2.269,1.2939 -4.023,3.103 -5.262,5.4211c-1.239,2.3181 -1.858,4.9551 -1.858,7.911c0,2.9558 0.626,5.5683 1.858,7.8864c1.239,2.3181 2.993,4.121 5.262,5.4211c2.269,1.294 4.881,1.944 7.843,1.944c2.226,0 4.268,-0.3802 6.126,-1.1406c1.858,-0.7605 3.446,-1.8337 4.771,-3.2257c1.324,-1.3921 2.324,-3.0295 2.999,-4.9122l-4.587,-1.0425c-0.828,1.7723 -2.042,3.1582 -3.649,4.1517z" fill="currentColor"/>
<path id="Vector_826" data-node-id="297:3789" d="M286.7283,27.6257c0,-2.9559 -0.625,-5.5928 -1.858,-7.9109c-1.239,-2.3181 -2.986,-4.1211 -5.249,-5.4212c-2.257,-1.2939 -4.863,-1.944 -7.825,-1.944c-2.962,0 -5.574,0.6501 -7.843,1.944c-2.263,1.294 -4.023,3.1031 -5.255,5.4212c-1.239,2.3181 -1.859,4.955 -1.859,7.9109c0,2.9559 0.62,5.5683 1.859,7.8864c1.238,2.3181 2.992,4.1211 5.255,5.4212c2.269,1.2939 4.881,1.944 7.843,1.944c2.232,0 4.274,-0.3803 6.126,-1.1407c1.858,-0.7604 3.447,-1.8336 4.771,-3.2257c1.325,-1.3921 2.324,-3.0294 2.999,-4.9121l-4.587,-1.0426c-0.822,1.7723 -2.036,3.1583 -3.649,4.1518c-1.607,0.9996 -3.495,1.4963 -5.666,1.4963c-1.864,0 -3.52,-0.3557 -4.961,-1.0793c-1.441,-0.7237 -2.612,-1.7355 -3.514,-3.0418c-0.901,-1.3062 -1.478,-2.827 -1.729,-4.5564h25.142v-1.9072zM261.5923,25.4916c0.27,-1.6864 0.859,-3.1705 1.772,-4.4399c0.914,-1.2695 2.091,-2.2507 3.532,-2.9559c1.441,-0.6991 3.073,-1.0487 4.9,-1.0487c1.827,0 3.453,0.3496 4.887,1.0487c1.429,0.7052 2.601,1.6864 3.502,2.9559c0.901,1.2694 1.49,2.7535 1.754,4.4399h-20.353z" fill="currentColor"/>
<path id="Vector_827" data-node-id="297:3790" d="M300.6763,12.2881c-1.962,0 -3.79,0.3557 -5.494,1.0671c-1.699,0.7113 -3.073,1.6987 -4.109,2.9742c-1.073,1.3431 -1.619,2.9068 -1.619,4.6975c0,3.5017 1.864,5.9302 5.593,7.2977c1.919,0.693 3.759,1.1713 5.506,1.4412h-0.03l0.693,0.1165c1.116,0.2024 2.048,0.4109 2.784,0.6132l1.545,-4.0474c-1.625,-0.5826 -3.201,-0.9996 -4.734,-1.2388l-0.693,-0.1165c-1.349,-0.2514 -2.416,-0.4967 -3.213,-0.7359c-0.797,-0.2392 -1.478,-0.6255 -2.048,-1.1529c-0.565,-0.5274 -0.853,-1.2511 -0.853,-2.1771c0,-0.926 0.35,-1.76 1.043,-2.3916c0.693,-0.6317 1.551,-1.0978 2.581,-1.3921c1.031,-0.3005 2.042,-0.4477 3.042,-0.4477c1.938,0 3.581,0.3864 4.93,1.1529c1.11,0.6378 1.877,1.435 2.288,2.3856l1.876,-4.906c-1.085,-0.9567 -2.379,-1.711 -3.894,-2.2507c-1.643,-0.5826 -3.379,-0.8769 -5.2,-0.8769zM300.6523,38.1796c-1.938,0 -3.582,-0.3864 -4.931,-1.1529c-1.343,-0.7666 -2.177,-1.7662 -2.508,-2.9988l-4.182,1.5024c0.368,1.4412 1.11,2.6983 2.244,3.7715c1.135,1.0793 2.527,1.9072 4.164,2.4959c1.251,0.4477 2.563,0.7237 3.925,0.8279l1.698,-4.4522c-0.134,0 -0.257,0.0062 -0.392,0.0062h-0.031z" fill="currentColor"/>
</g><path id="Vector_828" data-node-id="297:3791" d="M322.7633,0.5h4.015l-23.994,61.5838h-4.097z" fill="currentColor"/></g><defs><clipPath id="clip0_297_2915">
<rect width="393" height="5214" fill="white" x="-34.2227" y="-44.6572"/>
</clipPath></defs></svg>