<svg viewBox="0 0 121.7028 25.9773" x="0" y="0" fill="none" xmlns="http://www.w3.org/2000/svg"><g id="Group" xmlns="http://www.w3.org/2000/svg">
<path id="Vector" d="M24.0937,2.116l-0.2453,1.085c-0.2882,0.012 -0.6439,0.074 -1.067,0.178c-0.4293,0.11 -0.8034,0.251 -1.1222,0.429c-0.4722,0.264 -0.8524,0.57 -1.1468,0.92c-0.2882,0.35 -0.5948,0.767 -0.9137,1.251c-1.1406,1.748 -2.8821,4.477 -5.2308,8.199c-2.3425,3.723 -4.7525,7.586 -7.236,11.591h-1.3675c-0.5274,-3.698 -1.0977,-7.715 -1.7048,-12.045c-0.6071,-4.329 -1.0057,-7.101 -1.1958,-8.309c-0.0552,-0.362 -0.1594,-0.669 -0.3189,-0.914c-0.1594,-0.245 -0.3924,-0.484 -0.6991,-0.717c-0.2514,-0.184 -0.5457,-0.325 -0.8891,-0.417c-0.3373,-0.092 -0.6562,-0.154 -0.9567,-0.172l0.2453,-1.086h9.4621l-0.2453,1.086c-1.1651,0.055 -1.9868,0.165 -2.459,0.337c-0.4722,0.172 -0.7175,0.417 -0.7175,0.748c0,0.111 0,0.227 0.0184,0.356c0.0123,0.123 0.0184,0.215 0.0184,0.27c0.141,1.073 0.3925,2.851 0.742,5.323c0.3495,2.477 0.8524,5.954 1.5024,10.443c1.5269,-2.379 3.0784,-4.85 4.6666,-7.408c1.5883,-2.557 2.7289,-4.427 3.428,-5.611c0.6561,-1.098 1.0609,-1.87 1.208,-2.318c0.1472,-0.448 0.2208,-0.73 0.2208,-0.84c0,-0.221 -0.1043,-0.405 -0.3127,-0.558c-0.2085,-0.153 -0.4722,-0.282 -0.7911,-0.38c-0.3189,-0.111 -0.6684,-0.19 -1.0548,-0.246c-0.3863,-0.055 -0.7113,-0.092 -0.9873,-0.116l0.2453,-1.086h8.8979z" fill="currentColor"/>
<path id="Vector_2" d="M35.2415,12.283c0,1.165 -0.3679,2.165 -1.0977,2.999c-0.7297,0.834 -1.7906,1.503 -3.1826,1.993c-1.0241,0.374 -2.0543,0.675 -3.0968,0.908c-1.0425,0.233 -2.1954,0.423 -3.4586,0.576c0,1.736 0.3189,3.06 0.9628,3.98c0.6438,0.914 1.5821,1.374 2.8208,1.374c1.0977,0 2.0666,-0.276 2.9067,-0.822c0.8401,-0.546 1.668,-1.367 2.4774,-2.453l0.9383,0.693c-0.877,1.337 -1.9746,2.41 -3.2931,3.214c-1.3184,0.803 -2.6859,1.202 -4.1024,1.202c-1.944,0 -3.428,-0.546 -4.4521,-1.632c-1.0241,-1.085 -1.5392,-2.631 -1.5392,-4.63c0,-1.386 0.2147,-2.704 0.6501,-3.961c0.4353,-1.258 1.067,-2.41 1.901,-3.453c0.8094,-1.024 1.809,-1.846 2.9864,-2.471c1.1774,-0.626 2.4835,-0.939 3.9123,-0.939c1.5822,0 2.7534,0.325 3.5138,0.963c0.7604,0.644 1.1468,1.466 1.1468,2.465zM32.2122,11.879c0,-0.43 -0.0614,-0.767 -0.184,-1.012c-0.1227,-0.246 -0.276,-0.43 -0.4599,-0.552c-0.1963,-0.129 -0.4048,-0.215 -0.6255,-0.246c-0.2208,-0.03 -0.4477,-0.049 -0.6746,-0.049c-1.3184,0 -2.5326,0.724 -3.6487,2.171c-1.116,1.448 -1.8212,3.251 -2.1156,5.403c0.7665,-0.11 1.6373,-0.264 2.6001,-0.466c0.9628,-0.202 1.7661,-0.466 2.4038,-0.797c0.9137,-0.472 1.5883,-1.073 2.0359,-1.815c0.4416,-0.743 0.6685,-1.619 0.6685,-2.637z" fill="currentColor"/>
<path id="Vector_3" d="M51.1477,12.283c0,1.165 -0.3679,2.165 -1.0976,2.999c-0.7298,0.834 -1.7907,1.503 -3.1827,1.993c-1.0241,0.374 -2.0543,0.675 -3.0968,0.908c-1.0424,0.233 -2.1953,0.423 -3.4586,0.576c0,1.736 0.3189,3.06 0.9628,3.98c0.6439,0.914 1.5821,1.374 2.8208,1.374c1.0977,0 2.0666,-0.276 2.9067,-0.822c0.8402,-0.546 1.668,-1.367 2.4775,-2.453l0.9382,0.693c-0.8769,1.337 -1.9746,2.41 -3.293,3.214c-1.3185,0.803 -2.6859,1.202 -4.1025,1.202c-1.9439,0 -3.4279,-0.546 -4.452,-1.632c-1.0241,-1.085 -1.5392,-2.631 -1.5392,-4.63c0,-1.386 0.2146,-2.704 0.65,-3.961c0.4354,-1.258 1.067,-2.41 1.901,-3.453c0.8095,-1.024 1.809,-1.846 2.9864,-2.471c1.1774,-0.626 2.4836,-0.939 3.9124,-0.939c1.5821,0 2.7534,0.325 3.5138,0.963c0.7604,0.644 1.1467,1.466 1.1467,2.465zM48.1184,11.879c0,-0.43 -0.0613,-0.767 -0.184,-1.012c-0.1226,-0.246 -0.2759,-0.43 -0.4599,-0.552c-0.1962,-0.129 -0.4047,-0.215 -0.6255,-0.246c-0.2207,-0.03 -0.4476,-0.049 -0.6745,-0.049c-1.3185,0 -2.5326,0.724 -3.6487,2.171c-1.1161,1.448 -1.8213,3.251 -2.1156,5.403c0.7665,-0.11 1.6373,-0.264 2.6,-0.466c0.9628,-0.202 1.7661,-0.466 2.4039,-0.797c0.9137,-0.472 1.5882,-1.073 2.0359,-1.815c0.4415,-0.743 0.6684,-1.619 0.6684,-2.637z" fill="currentColor"/>
<path id="Vector_4" d="M68.9131,11.903c0,1.668 -0.251,3.367 -0.76,5.084c-0.503,1.723 -1.196,3.226 -2.073,4.507c-0.8893,1.331 -1.9502,2.411 -3.1767,3.238c-1.2326,0.828 -2.5817,1.245 -4.0534,1.245c-1.4717,0 -2.5878,-0.398 -3.4402,-1.196c-0.8585,-0.797 -1.2816,-1.864 -1.2816,-3.207c0,-0.251 0.0306,-0.54 0.0919,-0.858c0.0614,-0.319 0.1043,-0.534 0.1227,-0.644l1.4349,-5.274c0.1104,-0.43 0.2024,-0.847 0.2883,-1.264c0.0797,-0.41 0.1226,-0.772 0.1226,-1.079c0,-0.613 -0.1043,-1.024 -0.3189,-1.239c-0.2146,-0.208 -0.6316,-0.312 -1.2571,-0.312c-0.233,0 -0.5458,0.049 -0.9382,0.141c-0.3925,0.098 -0.693,0.165 -0.8892,0.22l0.2453,-1.048c0.8585,-0.38 1.6189,-0.675 2.2812,-0.883c0.6623,-0.209 1.1958,-0.313 1.5882,-0.313c0.877,0 1.527,0.202 1.9501,0.613c0.4231,0.405 0.6316,0.994 0.6316,1.766c0,0.221 -0.0184,0.485 -0.0552,0.798c-0.0368,0.312 -0.1042,0.656 -0.2085,1.03l-1.5821,6.151c-0.1104,0.417 -0.1901,0.821 -0.2453,1.202c-0.0552,0.38 -0.0797,0.631 -0.0797,0.742c0,0.57 0.092,1.036 0.2698,1.392c0.1779,0.355 0.4109,0.638 0.6807,0.834c0.2637,0.184 0.5519,0.319 0.8647,0.392c0.3127,0.08 0.6316,0.117 0.9627,0.117c0.7482,0 1.5147,-0.233 2.3119,-0.712c0.7972,-0.472 1.4901,-1.085 2.0849,-1.845c0.6501,-0.822 1.1716,-1.742 1.5636,-2.76c0.393,-1.018 0.595,-2.14 0.595,-3.373c0,-0.662 -0.092,-1.165 -0.27,-1.527c-0.178,-0.362 -0.38,-0.668 -0.601,-0.932c-0.221,-0.276 -0.417,-0.564 -0.6007,-0.865c-0.184,-0.3 -0.2699,-0.73 -0.2699,-1.275c0,-0.626 0.2085,-1.104 0.6256,-1.435c0.417,-0.331 0.858,-0.497 1.318,-0.497c0.65,0 1.153,0.264 1.521,0.785c0.368,0.521 0.552,1.275 0.552,2.263z" fill="currentColor"/>
<path id="Vector_5" d="M79.0181,23.69l-0.246,1.055c-1.011,0.405 -1.815,0.687 -2.422,0.846c-0.601,0.16 -1.122,0.24 -1.545,0.24c-0.877,0 -1.539,-0.227 -1.975,-0.681c-0.441,-0.454 -0.656,-1.018 -0.656,-1.693c0,-0.251 0.025,-0.515 0.068,-0.791c0.043,-0.276 0.116,-0.619 0.214,-1.036l1.742,-7.003c0.086,-0.387 0.171,-0.798 0.257,-1.233c0.08,-0.442 0.123,-0.816 0.123,-1.122c0,-0.614 -0.104,-1.024 -0.307,-1.227c-0.202,-0.202 -0.619,-0.306 -1.238,-0.306c-0.24,0 -0.565,0.036 -0.963,0.116c-0.399,0.08 -0.705,0.141 -0.914,0.196l0.245,-1.054c0.859,-0.387 1.626,-0.669 2.306,-0.859c0.681,-0.184 1.221,-0.282 1.613,-0.282c0.901,0 1.551,0.214 1.956,0.644c0.405,0.429 0.607,1.005 0.607,1.729c0,0.196 -0.024,0.466 -0.067,0.81c-0.043,0.343 -0.111,0.68 -0.196,1.024l-1.748,7.003c-0.11,0.429 -0.202,0.846 -0.288,1.257c-0.08,0.411 -0.123,0.748 -0.123,1.012c0,0.626 0.141,1.055 0.417,1.288c0.276,0.233 0.73,0.343 1.355,0.343c0.209,0 0.503,-0.024 0.896,-0.079c0.386,-0.056 0.686,-0.123 0.895,-0.197zM80.1891,2.625c0,0.626 -0.202,1.172 -0.607,1.638c-0.405,0.466 -0.914,0.699 -1.515,0.699c-0.558,0 -1.042,-0.221 -1.447,-0.669c-0.405,-0.447 -0.607,-0.95 -0.607,-1.521c0,-0.601 0.202,-1.128 0.607,-1.582c0.405,-0.447 0.889,-0.674 1.447,-0.674c0.626,0 1.135,0.214 1.533,0.631c0.393,0.423 0.595,0.914 0.595,1.472z" fill="currentColor"/>
<path id="Vector_6" d="M89.8761,0.239l-4.606,19.827c-0.098,0.417 -0.19,0.834 -0.282,1.251c-0.092,0.417 -0.135,0.76 -0.135,1.018c0,0.625 0.141,1.054 0.417,1.287c0.282,0.233 0.73,0.344 1.355,0.344c0.221,0 0.546,-0.025 0.975,-0.08c0.436,-0.055 0.761,-0.123 0.976,-0.196l-0.246,1.055c-0.987,0.392 -1.747,0.674 -2.281,0.84c-0.533,0.165 -1.134,0.245 -1.803,0.245c-0.877,0 -1.545,-0.227 -1.999,-0.681c-0.454,-0.453 -0.681,-1.018 -0.681,-1.686c0,-0.251 0.025,-0.515 0.074,-0.791c0.049,-0.276 0.116,-0.619 0.208,-1.036l4.011,-17.349c0.08,-0.344 0.129,-0.577 0.159,-0.712c0.025,-0.129 0.043,-0.294 0.043,-0.496c0,-0.399 -0.067,-0.7 -0.196,-0.914c-0.129,-0.215 -0.319,-0.374 -0.564,-0.485c-0.233,-0.098 -0.521,-0.165 -0.877,-0.196c-0.356,-0.031 -0.711,-0.074 -1.073,-0.116l0.233,-1.006l6.126,-0.362l0.166,0.245z" fill="currentColor"/>
<path id="Vector_7" d="M99.4891,0.239l-4.605,19.827c-0.099,0.417 -0.191,0.834 -0.283,1.251c-0.092,0.417 -0.134,0.76 -0.134,1.018c0,0.625 0.141,1.054 0.417,1.287c0.282,0.233 0.729,0.344 1.355,0.344c0.22,0 0.546,-0.025 0.975,-0.08c0.435,-0.055 0.76,-0.123 0.975,-0.196l-0.245,1.055c-0.988,0.392 -1.748,0.674 -2.282,0.84c-0.533,0.165 -1.134,0.245 -1.803,0.245c-0.876,0 -1.545,-0.227 -1.999,-0.681c-0.453,-0.453 -0.68,-1.018 -0.68,-1.686c0,-0.251 0.024,-0.515 0.073,-0.791c0.049,-0.276 0.117,-0.619 0.209,-1.036l4.01,-17.349c0.08,-0.344 0.129,-0.577 0.16,-0.712c0.024,-0.129 0.043,-0.294 0.043,-0.496c0,-0.399 -0.068,-0.7 -0.197,-0.914c-0.128,-0.215 -0.319,-0.374 -0.564,-0.485c-0.233,-0.098 -0.521,-0.165 -0.877,-0.196c-0.355,-0.031 -0.711,-0.074 -1.073,-0.116l0.233,-1.006l6.126,-0.362l0.166,0.245z" fill="currentColor"/>
<path id="Vector_8" d="M114.4601,12.283c0,1.165 -0.368,2.165 -1.098,2.999c-0.729,0.834 -1.79,1.503 -3.182,1.993c-1.024,0.374 -2.054,0.675 -3.097,0.908c-1.042,0.233 -2.195,0.423 -3.459,0.576c0,1.736 0.319,3.06 0.963,3.98c0.644,0.914 1.582,1.374 2.821,1.374c1.098,0 2.067,-0.276 2.907,-0.822c0.84,-0.546 1.668,-1.367 2.477,-2.453l0.938,0.693c-0.877,1.337 -1.974,2.41 -3.293,3.214c-1.318,0.803 -2.686,1.202 -4.102,1.202c-1.944,0 -3.428,-0.546 -4.452,-1.632c-1.024,-1.085 -1.539,-2.631 -1.539,-4.63c0,-1.386 0.214,-2.704 0.65,-3.961c0.435,-1.258 1.067,-2.41 1.901,-3.453c0.809,-1.024 1.809,-1.846 2.986,-2.471c1.178,-0.626 2.484,-0.939 3.912,-0.939c1.583,0 2.754,0.325 3.514,0.963c0.761,0.644 1.147,1.466 1.147,2.465zM111.4251,11.879c0,-0.43 -0.062,-0.767 -0.184,-1.012c-0.123,-0.246 -0.276,-0.43 -0.46,-0.552c-0.196,-0.129 -0.405,-0.215 -0.626,-0.246c-0.22,-0.03 -0.447,-0.049 -0.674,-0.049c-1.319,0 -2.533,0.724 -3.649,2.171c-1.116,1.448 -1.821,3.251 -2.116,5.403c0.767,-0.11 1.638,-0.264 2.601,-0.466c0.962,-0.202 1.766,-0.466 2.403,-0.797c0.914,-0.472 1.589,-1.073 2.036,-1.815c0.442,-0.743 0.669,-1.619 0.669,-2.637z" fill="currentColor"/>
<path id="Vector_9" d="M121.7011,23.592c0,0.613 -0.221,1.14 -0.669,1.57c-0.447,0.429 -0.975,0.65 -1.588,0.65c-0.613,0 -1.147,-0.215 -1.588,-0.65c-0.442,-0.436 -0.669,-0.957 -0.669,-1.57c0,-0.614 0.221,-1.147 0.669,-1.589c0.448,-0.447 0.975,-0.668 1.588,-0.668c0.613,0 1.147,0.221 1.588,0.668c0.442,0.442 0.669,0.975 0.669,1.589z" fill="currentColor"/>
</g></svg>