<svg viewBox="0 0 132 112" x="0" y="0" fill="none" xmlns="http://www.w3.org/2000/svg"><defs><clipPath id="clip2_297_2915" xmlns="http://www.w3.org/2000/svg">
<rect width="132" height="112" fill="white" transform="translate(0, 0)"/>
</clipPath></defs><g id="Isolation_Mode_2" clip-path="url(#clip2_297_2915)" xmlns="http://www.w3.org/2000/svg">
<path id="Vector_1255" d="M43.723,64.54l14.423,11.9l2.472,-3.16l-9.133,-9.17l-5.456,-2.67z" fill="#5500D8"/>
<path id="Vector_1256" d="M46.257,75.92l15.886,-9.82l-2.14,-3.38l-11.605,5.69l-4.281,4.31z" fill="#5500D8"/>
<g id="Group_40">
<path id="Vector_1257" d="M72.435,0.71c0.075,0.09 0.437,0.19 0.256,0.44c-0.03,0.05 -0.241,-0.06 -0.196,0.13h0.317c-0.241,0.34 -0.075,0.71 -0.121,1.06c-0.045,0.35 -0.286,1.35 -0.392,1.67c0,0.03 -0.376,0.38 -0.376,0.41c-0.061,0.21 0.075,0.44 -0.151,0.85c-0.091,0.15 -0.256,0.16 -0.271,0.18c-0.031,0.04 0.286,0.71 -0.633,0.61l0.045,0.21l0.362,-0.05c-0.151,0.11 -0.227,0.47 -0.332,0.55c-0.045,0.03 -0.211,-0.09 -0.286,0.09l0.211,0.26c-0.211,-0.05 -0.362,-0.18 -0.513,0.04c0.498,0.16 0.091,0.76 -0.105,1.05c-0.076,0.11 -0.257,0.12 -0.302,0.17c-0.03,0.04 -0.12,0.74 -0.331,1.02c0,0 -0.136,-0.1 -0.181,-0.08c-0.256,0.14 -0.136,0.33 -0.196,0.47c-0.558,1.26 -1.281,1.79 -2.065,2.87c-0.362,0.5 -0.558,1.03 -0.98,1.46c-0.422,0.42 -0.844,0.34 -0.618,1.13c0.091,0.31 0.392,0.55 0.211,0.9l0.453,0.11c0.12,-0.05 0.135,-0.23 0.18,-0.28c0.076,-0.06 1.071,-0.29 1.251,-0.36c0.98,-0.4 1.945,-0.9 2.819,-1.31c0.045,-0.01 0.271,0.02 0.362,-0.03l-0.106,-0.21c0.301,0.11 0.377,0.11 0.618,-0.11l0.105,0.22c0,-0.14 0.061,-0.23 0.181,-0.29c0.317,-0.18 1.221,-0.49 1.598,-0.59c0.226,-0.06 0.467,0.03 0.482,0.03c0.121,-0.08 0.166,-0.49 0.739,-0.29l-0.106,-0.2c0.332,-0.09 0.422,-0.3 0.724,0c0.03,-0.39 0.693,-0.26 1.01,-0.38c0.12,-0.04 0.105,-0.21 0.331,-0.3c0.181,-0.08 0.437,-0.03 0.633,-0.15c0,0.01 -0.03,0.57 0.211,0.31c0.03,-0.03 -0.286,-0.56 0.317,-0.31l-0.106,-0.31c0.211,-0.03 0.452,0.05 0.648,0c0.076,-0.01 0.076,-0.16 0.151,-0.19c0.618,-0.19 0.904,-0.23 1.522,-0.22c0.045,0 0.407,-0.68 0.844,-0.21l0.046,-0.3l0.512,0.1l-0.106,-0.21c0.272,0.12 0.543,-0.17 0.573,-0.18c0.829,-0.24 1.839,-0.26 2.683,-0.56c0.106,0.15 0,0.27 0.271,0.21v-0.32l0.377,0.09l0.091,-0.2c0.331,0.03 0.678,0.22 0.964,0.29c0.241,0.06 0.497,-0.19 0.648,0.23l-0.211,0.11c0.528,-0.08 0.045,0.16 0.407,0.25l-0.301,1.11l-0.302,-0.1c0,0.83 -0.557,0.57 -0.768,0.72c-0.166,0.13 -0.151,0.34 -0.332,0.51c-0.166,0.15 -0.723,0.42 -0.965,0.42l0.106,0.21l-0.829,0.11l-0.06,0.29c-0.528,-0.17 -0.618,0.97 -1.297,0.54c0.181,0.51 -0.316,0.31 -0.391,0.35c-0.076,0.05 -0.407,0.38 -0.543,0.43c-0.241,0.09 -0.286,-0.26 -0.301,0.23c-0.407,-0.1 -0.453,0.16 -0.603,0.25c-0.709,0.41 -1.538,0.78 -2.11,1.13c-0.196,0.1 -0.468,-0.17 -0.407,0.32c-0.317,-0.05 -0.588,0.22 -0.92,0.28c-0.286,0.05 -0.331,-0.24 -0.316,0.25c-0.483,-0.12 -0.709,0.32 -0.95,0.45c-1.04,0.56 -2.818,1.58 -3.783,1.95c-0.392,0.15 -0.919,-0.02 -0.949,0c-0.226,0.19 0.271,0.18 0.211,0.3l-1.447,0.73c0.362,-0.06 0.648,0.06 0.934,-0.22l0.106,0.22l0.045,-0.2l0.271,0.09l-0.105,-0.21c0.15,0 0.316,-0.03 0.452,0c0.105,0.01 0,0.3 0.271,0.21l-0.105,-0.3l0.301,0.21v-0.18c0.437,0 0.814,-0.23 1.221,-0.32c0.829,-0.2 1.733,-0.29 2.638,-0.49c1.612,-0.35 3.406,-0.82 5.169,-0.95c0.287,-0.02 0.121,-0.35 0.498,0.15v-0.37c0.602,0.08 0.964,-0.51 1.341,-0.62c0.106,-0.03 0.271,0.08 0.317,0.05c0,0 -0.121,-0.15 0.03,-0.32c0.211,-0.23 0.467,-0.21 0.693,-0.36c0.226,-0.16 -0.075,-0.43 0.512,-0.05l-0.211,-0.32c0.242,-0.09 0.754,-0.26 0.935,-0.36c0.151,-0.09 0.166,-0.29 0.286,-0.37c0.256,-0.18 0.889,-0.27 1.191,-0.32c0.211,-0.04 0.663,-0.5 0.603,0.23h0.286c0.121,0.94 -0.437,0.7 -0.919,1.11l0.512,-0.05c-0.15,0.26 -0.271,0.57 -0.618,0.52l0.166,0.18l3.602,-0.5l0.256,0.32l0.061,-0.32l0.708,-0.11l0.166,0.22c0.136,-0.79 1.04,0.19 1.145,0.1l-0.06,-0.32c0.347,-0.34 0.724,0 0.995,-0.03c0.226,-0.01 0.512,-0.16 0.769,-0.21c0.301,-0.06 0.949,0.06 0.889,-0.26l0.105,0.41l0.106,-0.32c0.301,0.31 0.316,0.07 0.542,0.04c0.498,-0.07 1.613,0.31 1.884,-0.04c0.347,0.2 0.709,0.2 1.055,0l0.091,0.2c0.331,-0.04 0.919,-0.12 1.251,-0.1c0.603,0.03 0.527,0.16 1.04,0.01c0.15,-0.04 2.607,0.37 2.879,0.43c0.422,0.1 0.828,0.59 1.386,0.18l0.106,0.21l0.301,-0.11l0.106,0.2c0.18,-0.24 0.738,0.38 0.783,0.4c0.061,0.03 0.287,-0.16 0.528,0.01c0.362,0.24 0.166,0.06 0.362,0.14c0.12,0.04 1.205,1.18 1.281,1.36c0.256,0.66 -0.106,0.58 -0.121,0.66c-0.03,0.18 0.136,0.41 0,0.59c-0.015,0.03 -0.437,0.33 -0.467,0.35c-0.151,0.07 -0.498,-0.12 -0.256,0.23c-0.377,0.09 -0.709,0.25 -1.131,0.36c-1.386,0.39 -2.728,0.41 -4.084,0.62c-0.226,0.03 -0.709,0.28 -0.98,0.31c-0.166,0.01 -0.331,-0.28 -0.573,0.04l-0.06,-0.18l-0.196,0.08l0.106,-0.32c-0.468,-0.13 -0.211,0.22 -0.377,0.32c-0.302,0.18 -0.633,-0.14 -0.663,-0.11v0.32h-0.317l-0.105,-0.32c-0.03,0.26 -0.302,0.15 -0.106,0.45c-0.271,0.31 -0.196,0.37 -0.723,0.38l0.105,0.31c-0.151,0 -0.271,0.12 -0.407,0.15c-0.271,0.06 -0.301,-0.26 -0.316,0.21l-4.552,1.88c-0.121,0.47 0.528,0.14 0.512,0.58l0.211,-0.21c0,0 0,0.16 0.076,0.21c0.286,0.2 1.251,0.67 1.537,0.7c0.437,0.04 1.311,-0.35 1.387,0.44l-0.317,0.11c0.92,0.13 1.718,0.71 2.578,1.06v0.39l0.271,-0.2c0.226,0.35 1.145,0.44 1.371,0.64c0.106,0.09 0.106,0.38 0.136,0.4c0.03,0.01 0.332,-0.08 0.739,0.12c0.813,0.39 1.688,1.2 2.622,1.76c0.136,0.07 0.271,-0.02 0.422,0.09c0.226,0.15 0.226,0.44 0.362,0.59c0.135,0.15 0.316,0.06 0.362,0.08c0.06,0.04 0.527,0.38 0.542,0.41c0.121,0.36 -0.151,0.47 0.362,0.56c0.12,0.32 0.015,1.32 -0.226,1.49c-0.015,0 -0.151,-0.09 -0.302,-0.05c-0.105,0.05 -0.422,0.24 -0.467,0.37l-0.256,-0.52l0.316,-0.21c-0.241,0.16 -0.557,0.04 -0.768,0.12c-0.211,0.07 -0.061,0.44 -0.422,0.2l-0.121,0.21c-0.573,-0.05 -1.07,-0.34 -1.552,-0.47c-0.392,-0.11 -1.553,-0.05 -1.492,-0.69h-0.211c-0.031,0.46 -0.347,0.04 -0.392,0c-0.709,-0.27 -1.553,-0.65 -2.065,-0.83c-0.302,-0.11 -0.633,-0.21 -0.95,-0.21l0.106,-0.41c-0.166,0.13 -0.362,0 -0.452,0c-0.076,0 -0.03,0.35 -0.272,0.19c0,0 0,-0.13 -0.03,-0.16c-0.377,-0.21 -1.236,-0.52 -1.643,-0.61c-0.241,-0.06 -0.452,-0.2 -0.723,-0.17v-0.36l-1.763,-0.47l0.618,0.47l-0.211,0.15c0.15,0 0.316,-0.03 0.452,0c0.286,0.09 0.874,0.76 1.251,1c0.165,0.11 0.542,0.14 0.663,0.28c0.105,0.1 0.105,0.36 0.135,0.39c0.016,0 0.181,-0.14 0.302,-0.06c0.09,0.06 0.362,0.5 0.452,0.55c0.106,0.06 0.286,0 0.362,0.04c0.075,0.06 0.06,0.31 0.135,0.38c0,0 0.136,-0.06 0.242,0.02c0.18,0.13 0.346,0.29 0.527,0.42c0.256,-0.2 -0.06,-0.88 -0.03,-0.92c0,-0.03 0.196,0.01 0.181,-0.28l0.633,-0.04l-0.091,0.19c0.739,0.29 0.754,0.85 0.995,1.45c0.181,0.44 0.437,0.79 0.482,1.27c0.513,0.61 1.96,1.23 2.367,1.78c0.723,0.97 1.582,1.38 2.622,2.21c0.422,0.35 0.754,0.87 1.176,1.25c0.12,0.1 0.633,0.38 0.723,0.54l-0.211,0.16c0.588,-0.03 1.176,0.65 1.04,1.24l-0.211,-0.11c-0.045,0.13 0.106,0.52 0.091,0.58c-0.015,0.08 -0.287,0 -0.091,0.26c-0.437,0.15 -0.904,0.2 -1.356,0.06c-0.226,-0.08 -0.196,-0.24 -0.226,-0.24c-0.663,-0.29 -1.703,-0.56 -2.502,-0.96c-0.287,-0.14 -0.573,-0.48 -0.709,-0.55c-0.376,-0.16 -0.844,-0.09 -1.115,-0.54c-0.06,-0.09 0.03,-0.64 -0.241,-0.05l-0.874,-0.51c-0.03,0.53 0.572,0.59 0.316,1.13c0.452,-0.22 0.468,0.31 0.724,0.58l-0.407,0.26h0.467c-0.09,0.36 0.301,0.53 0.512,0.83c0.483,0.76 0.935,1.37 1.432,2.11c0.166,0.23 0.121,0.51 0.272,0.73c0.12,0.2 0.452,0.09 0.211,0.59l0.286,-0.09c0.196,0.32 0.573,0.61 0.437,1.04h0.558l0.542,1.06c0.241,0.57 0.739,1.23 1.055,1.82c0.015,0.03 0.181,0.73 0.166,0.77c-0.06,0.94 -1.055,0.93 -1.582,0.35c-0.392,-0.42 -1.086,-1.45 -1.372,-1.96c-0.105,-0.19 -0.075,-0.54 -0.301,-0.72c0.271,-0.11 0.482,-0.08 0.407,-0.47h-0.769c-0.211,-0.23 -0.076,-0.46 -0.06,-0.73l-0.151,0.21l-0.362,-0.26l0.211,-0.21c-0.271,-0.08 -0.226,-0.2 -0.211,-0.47c-0.392,0.23 -0.633,-0.35 -0.663,-0.62h-0.256l0.105,-0.31h-0.301c0.181,-0.71 -0.513,-0.57 -0.844,-0.98c-0.136,-0.17 -0.121,-0.41 -0.256,-0.58c-0.287,-0.36 -0.694,-0.67 -0.98,-1.05c-0.121,0.11 0.151,1.06 -0.317,1.05c0.181,0.11 0.136,0.61 0.076,0.77c-0.061,0.14 -0.256,0.12 -0.287,0.23c-0.12,0.43 0.121,1.63 0.618,1.78l-0.105,0.45h0.316l-0.09,0.41l0.286,0.18c-0.211,0.49 0.091,0.29 0.196,0.54c0.076,0.16 0.015,0.59 0.045,0.63c0.709,1.13 0.573,1.19 0.98,2.39c0.106,0.28 0.422,0.5 0.332,0.86l-0.407,-0.04l0.407,0.25l-0.211,0.31h0.316l0.106,0.47l-0.196,0.06v0.2c0.437,0 0.301,0.69 0,0.79l0.256,0.25c-0.136,0.53 0.03,0.88 -0.166,1.49c-0.03,0.11 -0.271,0.05 -0.09,0.29c-0.498,-0.08 -0.256,0.7 -0.98,0.5c-0.06,-0.02 -0.09,-0.33 -0.573,-0.08v-0.31l-0.512,0.1l0.211,-0.15l-0.935,-1.05l0.211,-0.1l-0.301,-0.06l-0.045,-0.49l-0.588,-0.44l0.633,2.85l-0.317,0.22l0.528,0.31c-0.271,0.87 0.317,1.37 0.407,2.17l-0.211,0.07l0.211,0.25l-0.211,0.16h0.316c0.061,0.22 -0.226,0.69 -0.211,0.72c0.016,0.03 0.453,0.09 0.422,0.37l-0.422,0.06l0.106,0.41c0.377,-0.26 0.136,0.12 0.09,0.32l-0.196,-0.11c0.151,0.38 0.046,0.68 -0.361,0.81c-0.829,-0.29 -0.694,-1.29 -0.844,-1.96c-0.181,-0.82 -0.407,-1.61 -0.543,-2.45l0.211,-0.24l-0.301,-0.04c0.075,-0.17 -0.076,-0.29 0.196,-0.26v-0.11c-0.106,0 -0.226,-0.04 -0.272,-0.15c-0.135,-0.26 -0.271,-1.81 -0.377,-2.23c0,-0.02 -0.135,-0.02 -0.15,-0.08c-0.091,-0.3 -0.045,-0.76 -0.332,-1.04l0.302,-0.22l-0.468,-0.67l-0.361,0.78l0.211,0.12c0,0.41 -0.136,1.18 -0.106,1.55c0.03,0.3 0.437,0.51 0,0.64c0.332,0.25 0.121,0.56 0.151,0.82c0.136,1.12 0.452,2.23 0.452,3.38c0.407,0.53 0.935,1.17 1.251,1.76c0.211,0.38 0.181,0.46 0.437,0.84c0.709,1.1 1.326,2.59 1.673,3.97c0.181,0.7 0.271,1.85 0.513,2.6c0,0.03 0.241,0 0.18,0.29c-0.03,0.09 -0.256,-0.02 -0.211,0.15l0.317,0.06c-0.045,0.55 0.362,1.17 0.467,1.76c0.045,0.23 -0.105,0.52 0.045,0.79l0.151,-0.21c0.347,0.21 0.151,0.57 0.226,0.8c0.226,0.74 0.513,1.82 0.799,2.61c0,0.03 0.121,0.03 0.136,0.08c0.075,0.38 -0.287,0.65 0.226,0.57c-0.151,0.34 0.15,0.63 0.256,0.93c0.03,0.11 -0.06,0.27 0,0.42c0.09,0.29 0.648,0.76 0.166,0.89c0.12,0.15 0.346,0.36 0.392,0.54c0.075,0.31 -0.136,0.79 0.226,0.76c-0.302,0.3 -0.076,0.33 -0.03,0.59c0.09,0.72 0.195,1.25 0.256,1.96c0.045,0.53 0.316,0.61 0.301,0.64c-0.03,0.04 -0.151,0.1 -0.166,0.21c-0.03,0.23 0.347,0.46 -0.03,0.58l-0.105,-0.22l-0.106,0.31c0.633,0.03 0.528,0.56 0.814,0.77l-0.105,0.31l0.211,0.06l-0.211,0.16c0.226,0.37 -0.076,0.82 -0.046,1.04c0,0.13 0.196,0.28 0.181,0.63c-0.015,0.25 -0.241,0.06 -0.211,0.26c0.256,-0.04 0.302,0.76 0.317,0.99c0,0.3 -0.241,0.97 0.105,1.05l-0.196,0.36c0.392,0 0.166,0.35 0.211,0.45c0.03,0.08 0.166,0.05 0.181,0.13c0.121,0.5 -0.181,0.48 -0.181,0.51c0,0.23 0.302,0.61 0.317,0.64c0.045,0.23 -0.271,0.62 0.105,0.56l-0.211,0.17l0.091,0.51c-0.287,0.14 -0.241,0.76 -0.437,1.07c-0.046,0.06 -0.226,-0.05 -0.181,0.12l0.829,0.42l-0.211,-0.41c0.331,-0.16 0.814,-0.06 1.07,-0.1c0.166,-0.03 0.256,-0.19 0.422,-0.2c0.241,-0.05 0.693,0.17 0.98,0l-0.106,0.26l0.256,0.04l-0.045,-0.25l0.151,-0.16l0.256,0.31l0.121,-0.41c0.633,0.13 1.507,-0.28 2.08,0c0.12,0.06 0.015,0.24 0.18,0.19v-0.41c0.166,-0.16 0.875,-0.04 1.086,-0.07c0.241,-0.03 0.678,-0.23 0.723,-0.23c0.573,-0.14 1.688,0.24 2.276,-0.23l0.045,0.22h0.196l0.075,-0.22c0.558,0.23 1.01,-0.28 1.538,0l0.09,-0.21l0.663,0.32c-0.09,-0.62 0.543,-0.29 0.784,-0.33c0.497,-0.11 0.588,-0.13 1.176,-0.14c0.271,0 0.964,-0.18 1.19,-0.15c0.257,0.03 0.257,0.32 0.573,0l0.106,0.32c0.03,-0.17 -0.121,-0.29 0.135,-0.29c0.287,0 0.377,-0.08 0.648,-0.14l-0.045,0.21c0.467,-0.21 0.739,0.03 1.176,0.11l0.166,-0.41c0.813,0.09 1.688,0 2.471,-0.21l0.106,0.32l0.06,-0.32c0.467,-0.03 0.754,-0.03 1.085,0.32c0.121,-0.6 1.176,-0.2 1.658,-0.32l0.106,0.41l0.135,-0.5c0.166,-0.16 1.01,-0.03 1.161,0.18l0.105,-0.21c0.588,0.13 0.95,-0.08 1.493,0.32l-0.302,0.3v0.2c0.196,-0.06 0.422,0.42 0.422,0.56c0,0.03 -0.407,0.26 -0.316,0.57c-0.392,-0.24 -0.95,-0.42 -0.935,0.22c-0.241,0 -0.347,-0.23 -0.588,-0.29c-0.422,-0.11 -1.552,-0.11 -2.019,-0.09c-0.468,0.01 -0.603,0.33 -0.905,-0.15c0,0.07 0,0.19 -0.075,0.21c-0.09,0.01 -0.874,-0.08 -1.1,-0.06c-2.095,0.13 -4.235,0.16 -6.346,0.33c-0.346,0.03 -0.678,-0.06 -1.07,0.14l-0.06,-0.52l-0.151,0.38c-0.708,0 -1.416,0.44 -2.125,0.15l-0.105,0.2c-0.362,-0.14 -0.844,-0.05 -1.191,0.12l-0.105,-0.32c0,0.08 0.015,0.19 -0.076,0.22c-0.512,0.16 -1.748,-0.08 -2.08,0.07c-0.105,0.05 -0.135,0.12 -0.135,0.24l-0.106,-0.21l-0.301,0.21l-0.046,-0.21c-0.286,0.38 -1.281,-0.15 -1.446,0.31c-0.362,-0.34 -0.528,0 -0.829,0c-0.181,0 -0.347,-0.1 -0.513,-0.1c-0.347,0 -0.618,0.26 -0.98,-0.12l-0.06,0.32l-1.748,0.08l-0.151,-0.18c0.045,0.36 -0.512,0.13 -0.769,0.31l-0.105,-0.21l-0.256,0.21l0.105,-0.41l-0.573,0.32l0.151,-0.26c-0.06,-0.3 -0.618,0.34 -0.693,0.46c-0.106,0.14 -0.03,0.3 -0.045,0.32c-0.076,0.06 -0.633,0.15 -0.694,0.23c0,0.01 0.091,0.16 0.046,0.29c-0.272,0.72 -1.176,1.06 -1.643,1.45c-0.603,0.52 -0.814,0.81 -1.598,1.29c-0.874,0.55 -1.914,1.43 -2.969,1.37c-0.392,-0.03 -0.166,0.2 -0.181,0.24c-0.226,0.43 -1.206,0.17 -1.311,0.74l-0.211,-0.21c0.045,0.32 -0.302,0.17 -0.513,0.26c-0.211,0.09 -0.497,0.27 -0.693,0.33c-0.482,0.16 -1.085,0.05 -1.522,0.55l-0.106,-0.21c-0.316,0.35 -0.814,0.36 -1.19,0.47c-0.287,0.09 -0.648,0.51 -0.784,0.04l-0.106,0.11c0.181,0.38 -0.693,0.27 -0.979,0.21c0.181,0.6 -0.452,0.29 -0.663,0.35c-0.136,0.03 -0.211,0.2 -0.317,0.23c-0.211,0.06 -0.889,0.23 -1.055,0.24c-0.181,0.02 -0.241,-0.24 -0.452,-0.19c0.151,0.74 -0.513,0.39 -0.859,0.53c-0.106,0.03 -0.076,0.18 -0.196,0.22c-0.528,0.17 -1.206,0.41 -1.733,0.29l0.105,0.2l-0.467,0.21l-0.045,-0.21l-0.151,0.21l-0.362,-0.21c0,0.44 -0.588,0.2 -0.663,0.52c-0.558,-0.13 -1.432,0.47 -2.05,0.66c-0.196,0.06 -0.467,-0.04 -0.693,0.08l0.105,0.21c0,0 -0.211,-0.07 -0.316,-0.04c-0.739,0.18 -1.402,0.57 -2.11,0.71c-0.166,0.03 -0.467,0.21 -0.633,0.15c-0.091,-0.03 0.015,-0.23 -0.151,-0.18l0.106,0.41c-0.603,-0.27 -1.01,0.11 -1.598,0.21l-0.166,-0.21c0,0.38 -0.482,0.38 -0.753,0.3c-0.031,0 -0.468,-0.29 -0.528,-0.32c-0.151,-0.1 -0.241,-0.39 -0.482,-0.45c-0.362,-0.09 -0.513,0.27 -0.679,-0.38c-0.437,0.06 -0.497,-0.21 -0.874,-0.33c-0.241,-0.08 -0.753,-0.2 -0.994,-0.2c-0.242,0 -0.106,-0.12 -0.136,-0.29l-0.106,0.32c-0.361,-0.2 -0.753,-0.11 -1.085,0.11l-0.09,-0.22c-0.347,0.09 -0.166,0.28 -0.256,0.37c-0.196,0.18 -1.161,0.51 -1.432,0.71c-0.226,0.17 -0.241,0.62 -0.844,0.38c0.181,0.49 0.075,0.94 -0.513,0.73l0.211,0.32h-0.316c-0.045,0.18 0.211,0.04 0.211,0.15c0,0.2 -0.241,0.36 -0.287,0.61c-0.045,0.24 0.257,0.72 0.166,0.88l-0.663,0.33c-0.181,-0.14 -0.075,-0.39 -0.362,-0.32l-0.045,0.32c-0.241,-0.21 -0.633,-0.49 -0.784,-0.79c-0.09,-0.17 -0.075,-0.53 -0.135,-0.65c-0.03,-0.05 -0.211,0.01 -0.181,-0.08c0.256,-0.15 0.105,-0.39 0.211,-0.6c0.226,-0.46 0.678,-0.95 1.025,-1.28c0.075,-0.06 0.09,-0.24 0.15,-0.26c0.377,-0.07 0.257,0.28 0.468,0.32c0.015,-0.26 0.075,-0.38 -0.211,-0.47l0.512,-0.41l-1.085,-0.11l-0.633,0.16l-0.091,-0.2c-0.301,0.38 -0.783,-0.08 -1.19,0.21l-0.045,-0.32c-0.091,0 -0.046,0.2 -0.196,0.28c-0.181,0.09 -1.869,0.19 -1.824,-0.28l-0.151,0.22l-0.361,-0.41c0.422,-0.34 1.009,-0.07 1.401,-0.13c0.06,0 0.03,-0.16 0.121,-0.18c0.045,0 0.949,0 1.01,0c0.105,0.03 0.03,0.23 0.12,0.2c0.377,-0.49 0.92,-0.17 1.326,-0.23c0.196,-0.03 0.377,-0.29 0.603,-0.14c0.121,0.08 0.031,0.37 0.302,0.26l-0.106,-0.3c0.347,0.14 0.89,-0.18 0.98,0.21c0.332,-0.35 0.603,-0.04 0.723,-0.04c0.468,0 1.417,-0.58 1.899,-0.67c0.136,-0.03 1.251,-0.03 1.327,0c0.09,0.03 0,0.2 0.105,0.2l0.106,-0.2l0.663,0.09v0.29c0.271,0.01 0.543,0 0.799,0.09c0.03,0 0.557,0.3 0.588,0.33c0.316,0.25 0.452,0.73 0.844,0.94c0.256,-0.41 1.311,-0.76 1.778,-0.8c0.151,-0.02 0.377,0.11 0.422,0.08c0.045,-0.04 0.045,-0.22 0.121,-0.26c0.015,0 0.211,-0.05 0.361,-0.12c0.709,-0.32 1.131,-0.23 1.658,-0.37c0.091,-0.01 0.498,-0.71 0.98,-0.29v-0.32c0.241,0.16 0.377,0 0.588,-0.06c0.151,-0.03 0.211,0.19 0.286,-0.13l0.106,0.21c0.211,-0.49 0.783,-0.41 1.145,-0.73l0.196,0.2c0.151,-0.58 1.131,-0.29 1.176,-0.34c0.03,-0.03 0.045,-0.18 0.105,-0.24c0.061,-0.04 0.211,0.03 0.317,0c0.407,-0.15 0.618,-0.39 1.04,-0.04c0.15,-0.25 -0.437,-0.22 -0.106,-0.37c0.467,-0.21 1.161,-0.1 1.553,-0.21c0.361,-0.09 0.678,-0.49 1.145,-0.37l-0.105,-0.21l0.361,0.09c0.196,-0.45 0.709,-0.21 1.04,-0.51l0.151,0.21c0.03,-0.43 0.437,-0.23 0.739,-0.35c0.678,-0.26 1.055,-0.41 1.778,-0.61c0.422,-0.1 0.663,-0.47 1.191,-0.19l-0.106,-0.2c0.482,-0.02 0.95,-0.61 1.342,-0.21l0.06,-0.32c0.512,0.09 0.723,-0.28 1.13,-0.4c0.287,-0.09 0.663,0 0.754,-0.03c0.015,0 0.211,-0.35 0.256,-0.36c0.075,-0.03 0.618,-0.06 0.739,-0.03l-0.046,-0.21l0.407,0.1v-0.29l0.784,-0.33l0.106,0.21c0.12,-0.32 0.587,-0.3 0.678,-0.38c0.241,-0.18 0.437,-0.88 0.874,-0.35l0.166,-0.41l0.181,0.08c0.829,-0.59 1.356,-1.34 2.065,-1.94c0.18,-0.15 0.572,-0.31 0.617,-0.35c0.076,-0.08 0.046,-0.31 0.151,-0.43c0.166,-0.21 0.437,-0.47 0.709,-0.38l-0.211,-0.21l0.406,-0.32l-0.211,-0.1l0.106,-0.16l0.407,0.06c-0.528,-0.3 0.256,-1.15 0.196,-1.24c0,0 -0.166,0.02 -0.241,-0.14c-0.106,-0.25 0.015,-0.45 -0.015,-0.62c-0.242,-1.02 -0.498,-2.4 -0.558,-3.47c-0.03,-0.57 0.181,-1.22 -0.317,-1.78l0.211,-0.11c-0.165,-0.24 -0.06,-0.74 -0.316,-0.68l0.316,-0.47l-0.195,-0.09c-0.061,-0.38 -0.227,-2.25 -0.302,-2.43c-0.075,-0.18 -0.377,-0.06 -0.151,-0.39l-0.196,-0.05c-0.045,-0.17 0.181,-0.05 0.211,-0.17c0.121,-0.47 -0.195,-0.45 -0.211,-0.53c-0.09,-0.41 -0.09,-0.47 -0.195,-0.83c-0.091,-0.29 -0.257,-0.73 0,-0.91l-0.211,-0.13c0,-1.03 -0.603,-1.97 -0.905,-2.89c-0.06,-0.19 -0.331,-1.17 -0.316,-1.37c0,-0.15 0.165,-0.24 0.165,-0.3c0,-0.06 -0.241,-0.26 -0.301,-0.4c-0.09,-0.21 -0.09,-0.54 -0.105,-0.58c-0.513,-0.8 -0.724,-1.77 -0.905,-2.68c-0.392,-2.04 -0.949,-4.21 -1.477,-6.24c-0.015,-0.08 -0.286,0.03 -0.075,-0.36l-0.317,-0.11c-0.015,0.33 0.151,0.8 -0.316,0.83l0.407,0.05c-0.302,0.46 -0.015,0.5 0,0.93c0.03,0.65 -0.076,1.6 -0.151,2.29c-0.03,0.3 -0.03,0.42 -0.377,0.36l0.196,0.35c-0.331,0.32 -0.738,0.49 -1.175,0.58l-0.211,-0.4l-0.106,0.22c-0.03,-0.17 -0.452,-0.57 -0.467,-0.6c-0.03,-0.1 0.03,-0.25 0,-0.36c-0.03,-0.11 -0.377,-0.03 -0.106,-0.49h-0.316c0.06,-0.39 -0.03,-0.8 -0.091,-1.21c-0.015,-0.11 0.076,-0.24 0.076,-0.3c0,-0.03 -0.287,-0.4 -0.392,-0.37l0.316,-0.15c0,-0.43 -0.361,-0.52 -0.392,-0.64c0,-0.04 -0.09,-0.88 -0.09,-0.92c0.015,-0.17 0.181,-0.34 0.166,-0.37c0,0 -0.136,0.03 -0.196,-0.09c-0.151,-0.29 -0.211,-0.61 -0.317,-0.91l0.181,-0.09c-0.105,-1.11 -0.527,-1.88 -0.603,-3.04c0,-0.03 0.513,-0.15 0,-0.45c-0.331,0.68 -0.346,1.56 -0.211,2.29c-1.597,0.55 -0.196,0.88 -0.12,1.11c0.075,0.23 -0.076,0.53 -0.302,0.62l0.302,0.7l-0.287,0.48l0.317,-0.1v1.77l-0.106,-0.21l-0.211,0.15c0.166,0.28 0.362,1.64 0.302,1.87c-0.03,0.12 -0.196,0.15 -0.302,0.17c0.211,0.13 0.091,0.42 0.136,0.48c0.06,0.11 0.392,0.08 -0.136,0.4c0,0.09 0.196,0.06 0.272,0.15c0.03,0.05 0.06,1.14 0.045,1.18c-0.015,0.09 -0.286,0.03 -0.211,0.32c0,0.05 0.211,0.05 0.211,0.11c0,0.24 -0.151,0.79 -0.151,1.03c-0.015,0.76 -0.03,1.15 -0.105,1.88c-0.015,0.14 0.196,0.55 0.15,0.72c-0.015,0.07 -0.18,0.09 -0.241,0.19c-0.105,0.19 -0.075,0.35 -0.226,0.5c-0.346,-0.36 -0.723,0.06 -0.256,0.11c0.151,0.21 -0.739,0.26 -1.01,-0.03c-0.075,-0.09 -0.075,-0.24 -0.151,-0.32c-0.527,-0.65 -0.407,-0.82 -0.708,-1.58l0.211,-0.1c-0.181,-0.4 -0.271,-0.44 0,-0.84c-0.392,-0.13 -0.271,-0.61 -0.422,-0.94l0.317,-0.15c-0.166,-0.03 -0.287,0.12 -0.272,-0.11c0.03,-0.38 0,-1.35 -0.045,-1.7c0,-0.07 -0.181,-0.04 -0.211,-0.13c-0.03,-0.17 0.075,-0.5 0.06,-0.72c-0.03,-0.51 -0.331,-1.62 0.046,-1.86l-0.211,-0.52l0.211,-0.06l-0.211,-0.17c0,-0.33 0.15,-0.64 -0.091,-0.92l0.211,-0.09c-0.196,-0.13 -0.136,-0.45 -0.407,-0.37c-0.015,0.12 -0.045,0.26 -0.12,0.35c-1.839,2.28 -4.13,4.42 -6.361,6.24c-0.663,0.54 -0.949,0.64 -1.552,1.05c-0.241,0.16 -0.317,0.63 -0.754,0.48l0.091,0.2c-0.377,0.26 -0.648,0.41 -1.116,0.38v0.36c-0.572,-0.09 -0.798,0.5 -0.949,0.61c-0.106,0.06 -0.648,0.2 -0.799,0.29c-0.166,0.1 -0.196,0.32 -0.317,0.41c-0.241,0.16 -0.844,0.29 -1.13,0.16l0.106,0.37c-0.422,0.01 -0.618,0.18 -0.935,0.42l-0.316,-0.16c-0.121,0.73 -0.558,0.51 -1.04,0.68c-0.483,0.17 -0.694,0.52 -1.146,0.36l0.106,0.22h-0.618l0.211,0.21l-1.191,0.41l-0.362,-0.41l0.106,0.35l-0.106,0.1c-0.392,0.37 -1.311,0.23 -1.447,0.69h-0.196l-0.06,-0.22c-0.346,0.4 -0.738,0.31 -1.206,0.57c-0.828,0.44 -0.844,0.27 -1.673,0.38c-0.075,0 -0.06,0.18 -0.15,0.19c-0.377,0.12 -0.905,0.29 -1.266,0.22l0.211,0.21c-0.422,0.06 -0.89,0.21 -1.236,-0.11v0.32c-1.266,-0.15 -2.472,1.05 -3.723,0.41l0.106,0.21c-0.377,0.05 -0.829,0.2 -1.191,0.25c-1.507,0.19 -3.03,0.24 -4.552,0.27c-0.482,0 -1.492,0.33 -1.718,-0.21l-0.301,0.21l-0.046,-0.2c-0.346,0.12 -1.401,0.11 -1.748,0c-0.467,-0.17 -0.844,-0.12 -1.462,-0.21c-0.286,-0.05 -1.236,-0.21 -1.206,-0.52l-0.151,0.22c-0.437,-0.2 -0.994,-0.4 -1.461,-0.49c-0.106,-0.02 -0.272,0.09 -0.392,0.06c-0.136,-0.04 -0.166,-0.26 -0.287,-0.35c-0.738,-0.51 -2.11,-0.98 -2.909,-1.52c-0.12,-0.07 -0.271,-0.38 -0.301,-0.39c-0.075,-0.02 -0.211,0.09 -0.347,0.08c-0.376,-0.05 -0.768,-0.73 -1.07,-1.04c-0.633,-0.63 -1.01,-1.09 -1.643,-1.76c-0.587,-0.62 -0.437,-0.29 -0.889,-1.09c-0.105,-0.18 -0.392,-0.35 -0.452,-0.49c-0.06,-0.13 0.06,-0.28 0.06,-0.3c-0.015,-0.01 -0.256,0 -0.361,-0.11c-0.136,-0.1 -0.151,-0.38 -0.302,-0.53c-0.151,-0.15 -0.407,-0.27 -0.482,-0.38c-0.256,-0.38 -0.302,-1.2 -0.467,-1.59c-0.121,-0.29 -0.739,-1.02 -0.814,-1.26c-0.226,-0.64 -0.332,-1.49 -0.498,-2.11c-0.105,-0.41 -0.377,-0.53 -0.527,-1.21c-0.076,-0.35 -0.272,-0.64 -0.166,-1.05h-0.256c0.075,-0.29 -0.151,-0.49 -0.196,-0.75c-0.106,-0.71 0.075,-1.62 -0.271,-2.32l0.211,0.05c-0.106,-0.21 0.045,-0.5 0,-0.67c0,-0.05 -0.227,-0.41 -0.272,-0.7c-0.06,-0.38 0.136,-0.86 -0.256,-1.18l0.317,-0.05l-0.211,-0.57l0.211,-0.11c-0.121,-0.24 -0.091,-0.43 0.105,-0.62l-0.196,-0.09c0.166,-0.46 -0.407,-1.39 0.075,-1.67l-0.09,-0.9l0.317,0.11c0.165,-0.15 -0.633,-0.47 -0.106,-0.58l-0.211,-0.32l0.211,-0.04l-0.151,-0.22c-0.226,0.31 -0.241,0.73 -0.678,0.84l0.211,0.15l-0.422,0.56l-0.196,-0.09v0.56l-0.316,0.06c0.256,0.5 -0.362,0.6 -0.211,1.14l-0.407,-0.1c-0.106,0.19 0.03,0.51 0,0.65c-0.061,0.27 -0.905,1.03 -1.07,1.33c-0.136,0.25 -0.121,0.64 -0.166,0.72c0,0 -0.181,-0.12 -0.302,0.04c-0.181,0.25 -0.361,0.82 -0.512,1.07c-0.151,0.24 -0.603,0.25 -0.528,0.66l-0.18,-0.09c-0.121,0.46 -0.543,0.65 -0.438,1.13l-0.271,-0.31l-0.452,0.11c0.181,0.51 0.633,-0.06 0.512,0.51c-0.572,-0.06 -0.618,0.9 -0.859,1.22c-0.15,0.2 -0.603,0.2 -0.376,0.65l-0.211,-0.11l-0.423,1.14l-0.406,-0.09c0.271,0.55 -0.181,0.44 -0.106,0.94l-0.211,-0.1l-0.105,0.83h-0.407c0.15,0.68 -0.181,0.61 -0.392,0.87c-0.03,0.03 -0.181,0.65 -0.241,0.83c-0.046,0.11 -0.317,0 -0.091,0.43l-0.211,0.06l0.211,0.21c-0.105,0 -0.181,0.05 -0.241,0.12c-0.196,0.29 -0.769,1.15 -0.874,1.41c-0.196,0.47 -0.317,1.08 -0.498,1.58c-0.075,0.21 -0.331,0.33 -0.331,0.37c-0.015,0.06 0.09,0.25 0.075,0.31c0,0.03 -0.362,0.19 -0.196,0.58l-0.211,-0.11c-0.12,0.23 -0.045,0.57 -0.105,0.76c-0.045,0.14 -0.633,0.66 -0.407,1.02h-0.317c0.241,0.36 -0.181,0.68 -0.271,0.87c-0.075,0.16 -0.03,0.41 -0.06,0.51c-0.061,0.23 -0.256,0.43 -0.181,0.7l-0.211,-0.11c-0.03,0.25 0.045,0.53 0,0.76c0,0.06 -0.181,0.11 -0.271,0.28c-0.257,0.53 -0.332,0.98 -0.483,1.5c-0.135,0.44 -0.482,0.82 -0.181,1.32l-0.316,0.06v0.41l-0.196,-0.05c0.105,0.31 0.09,0.76 -0.211,0.88c0.482,0.2 0.105,0.41 -0.211,0.05c-0.015,0.27 -0.06,0.38 0.211,0.47c-0.528,0.55 -0.392,1.44 -0.829,1.99v0.1l0.211,0.07l-0.196,0.1l0.091,0.31h-0.407c0.105,0.22 0.105,0.54 0.075,0.78c-0.106,1.04 -0.724,2.25 -0.95,3.24c-0.045,0.21 0.091,0.53 0.031,0.71c-0.046,0.15 -0.287,0.14 -0.302,0.24c-0.03,0.16 0.091,0.37 0.091,0.58c-0.031,0.46 -0.347,0.82 -0.362,1.29c0,0.18 0.166,0.3 0.166,0.58c0,0.53 -0.407,0.57 -0.392,0.76c0,0.16 0.316,0.36 0.105,0.68l0.211,-0.05c-0.09,0.19 -0.03,0.47 -0.09,0.64c-0.06,0.2 -0.302,0.12 -0.226,0.41c0,0.05 0.181,0.03 0.211,0.12c0.045,0.18 0,0.41 0.075,0.64c0.045,0.12 0.211,0.12 0.211,0.14c0.045,0.12 -0.166,0.8 -0.136,0.92c0.046,0.2 0.573,0.82 0.573,1.19c0,0.07 -0.331,0 -0.211,0.25l0.407,-0.1c0.211,0.94 1.04,1.35 1.733,1.9l-0.075,0.18c0.407,-0.12 0.603,0.35 0.919,0.5c0.468,0.24 0.754,0.29 1.221,0.58c0.196,0.12 1.206,0.22 1.673,0.34c0.467,0.13 0.889,0.46 1.462,0.35v0.41c0.317,0.06 0.332,-0.09 0.467,-0.32c0.211,0.34 0.347,0.05 0.603,0.03c0.347,-0.01 0.694,0.25 1.055,0.19l-0.045,0.21c0.302,0.09 0.121,-0.2 0.362,-0.21c0.588,-0.03 1.386,0.15 1.989,0.18c0.453,0.01 1.04,0.09 1.432,0.09c0.513,0 1.191,-0.11 1.703,-0.15l0.046,0.32l0.12,-0.22c0.452,0.11 0.799,0 1.221,-0.1l-0.045,0.21l0.256,-0.2c0.407,0.25 0.874,0.14 1.296,0l0.06,0.2l0.106,-0.21c0.241,0.15 0.482,-0.03 0.708,0c0.226,0.03 0.483,0.21 0.603,0.2c0.091,-0.02 0.181,-0.17 0.332,-0.19c0.105,0 0.226,0.11 0.301,0.11c0.076,0 0,-0.35 0.271,-0.21l0.046,0.32c0.105,-0.28 0.226,-0.29 0.512,-0.32c1.025,-0.09 2.186,0.03 3.21,-0.05c1.478,-0.1 3.301,-0.44 4.658,-0.54c0.407,-0.03 1.326,-0.19 1.447,0.18l0.723,-0.32l0.106,0.2h0.527c0.271,-0.58 0.181,0.1 0.302,0.12l0.361,-0.11l-0.105,-0.2c0.572,0.08 1.823,-0.42 1.869,0.41l0.105,-0.31c0.271,0.18 0.498,-0.14 0.558,0.19l0.573,-0.09l-0.106,0.21l0.317,0.05l-0.211,0.15l0.407,-0.11l-0.091,0.26c0.724,0.46 -0.799,1.52 -1.311,0.88l-0.106,0.22l-0.361,-0.41l-0.151,0.41c-0.332,-0.37 -0.633,0.15 -1.085,0c0,-0.14 0.256,-0.32 -0.046,-0.32c-0.12,0 0.061,0.18 -0.165,0.16c-0.061,0 -0.151,-0.07 -0.241,-0.07c-0.076,0 0,0.2 -0.211,0.23c-0.422,0.04 -0.86,-0.19 -1.251,0.09l-0.091,-0.2l-0.105,0.21h-1.447l-0.106,-0.32c-0.392,0.55 -1.07,0.29 -1.628,0.34c-1.868,0.16 -3.752,0.42 -5.606,0.42c-0.211,0 -0.437,0.21 -0.724,0.17c-0.286,-0.05 -0.166,-0.3 -0.361,-0.32l-0.121,0.35c-0.407,0.21 -1.191,-0.29 -1.372,0.18l-0.256,-0.1l0.045,-0.22c-0.226,-0.07 -0.12,0.19 -0.226,0.22c-0.045,0 -0.949,0 -1.01,0c-0.075,-0.02 -0.075,-0.22 -0.12,-0.22c-0.121,0 -0.332,0.17 -0.528,0.22c-0.572,0.1 -1.582,0.12 -2.155,0c-0.301,-0.07 -0.241,-0.4 -0.512,-0.43c-0.392,-0.05 -0.377,0.36 -0.543,0.43c-0.588,0.21 -0.98,-0.05 -1.432,-0.07c-1.522,-0.06 -3.059,0.02 -4.567,-0.31c-0.482,-0.11 -0.407,-0.32 -0.437,-0.34c-0.045,-0.03 -0.361,0.4 -0.572,0.29l-0.257,-0.38c0.106,0.32 -0.964,0.23 -1.19,0.18c-0.317,-0.06 -0.558,-0.35 -0.618,-0.36c-0.166,-0.05 -0.663,0.07 -0.724,0.06c-0.075,-0.02 -1.115,-0.74 -1.311,-0.85c-0.105,-0.06 -0.271,-0.06 -0.392,-0.08l0.106,-0.21c-0.392,0.2 -0.272,-0.06 -0.392,-0.11c-0.392,-0.13 -1.251,-0.22 -1.055,-0.83l-0.317,0.11c0.091,-0.4 -0.256,-0.35 -0.437,-0.52c-0.196,-0.2 -0.723,-0.79 -0.784,-0.96c-0.03,-0.09 0.272,-0.36 -0.18,-0.35c-0.317,0 -0.483,0.67 -0.875,0.58l0.106,0.41l-0.347,0.12l-0.06,-0.21l-0.151,0.2c-0.271,-0.05 -1.236,-0.37 -1.462,-0.29c-0.06,0.01 -0.03,0.18 -0.12,0.2c-0.437,0.09 -1.447,-0.35 -1.96,0l-0.09,-0.2c-0.588,0.3 -1.568,0.14 -2.276,0.15c-0.226,0 -0.769,0.18 -1.04,0.14l-0.151,-0.2c-0.075,0.58 -0.753,0.03 -1.13,0.18l-0.121,-0.18l-0.045,0.3c-0.301,-0.06 -1.04,-0.04 -1.356,0.03c-0.091,0.02 0,0.2 -0.106,0.19l-0.045,-0.22c-0.362,-0.15 -0.437,0.22 -0.467,0.22c-0.136,-0.02 -0.347,-0.22 -0.633,-0.22c-0.392,0 -0.905,0.05 -1.357,0.05c-0.512,0 -1.386,0.3 -1.477,-0.35c-0.467,0.44 -0.588,0.08 -1.025,-0.15l0.211,-0.11v-0.26l-0.211,0.22v-0.41l0.181,0.07c0.211,-0.51 1.04,-0.29 1.477,-0.35c0.905,-0.1 1.749,-0.12 2.638,-0.16c0.045,0 -0.045,-0.25 0.467,-0.12c0.075,0.01 0.121,0.12 0.151,0.13c0.06,0.03 0,-0.15 0.196,-0.21c0.588,-0.17 1.989,0 2.471,-0.09c0.076,-0.02 0.061,-0.21 0.136,-0.21c0.151,-0.02 0.362,0.12 0.603,0.1c0.648,-0.04 1.673,-0.35 2.396,-0.42c0.844,-0.08 1.809,0.04 2.683,-0.05c0.287,-0.03 0.678,-0.42 0.829,0.05h0.151c-0.045,-0.37 0.618,-0.2 0.784,0l0.361,-0.62h-0.361c0.105,-0.25 -0.121,-0.19 -0.181,-0.34c-0.076,-0.17 0.06,-0.41 -0.166,-0.55l0.211,-0.1l-0.196,-0.32l-0.12,-2.44l0.406,-0.05c-0.075,-0.18 -0.301,-0.05 -0.301,-0.06c-0.196,-0.36 0.09,-1.49 -0.105,-1.91c0.406,-0.75 0.301,-1.78 0.527,-2.7c0.015,-0.1 0.392,-0.9 0.407,-0.96c0.015,-0.11 -0.106,-0.49 -0.06,-0.62c0.075,-0.19 0.557,-0.14 0.06,-0.63c0.497,-0.19 0.226,-0.44 0.316,-0.81c0.016,-0.08 0.181,-0.07 0.181,-0.13c0.03,-0.27 -0.211,-0.91 0.332,-0.79c-0.136,-0.33 0.09,-0.88 0.211,-1.27c0.03,-0.09 0.196,-0.08 0.181,-0.12c-0.045,-0.7 -0.015,-0.87 0.407,-1.43c0.015,-0.03 -0.091,-0.42 0,-0.68c0.09,-0.26 0.256,-0.43 0.316,-0.62c0.226,-0.72 0.452,-1.45 0.588,-2.11c0.075,-0.34 0.407,-0.4 0.06,-0.73h0.407c0.061,-0.2 -0.196,-0.25 -0.165,-0.43c0.03,-0.19 0.271,-0.73 0.482,-0.79c-0.226,-0.47 0.03,-0.3 0.09,-0.42c0.136,-0.26 0.076,-0.47 0.121,-0.61c0.467,-1.4 1.085,-3.08 1.733,-4.45c0.06,-0.12 0.226,-0.12 0.286,-0.24c0.106,-0.26 0.136,-0.86 0.332,-1.21c0.06,-0.09 0.196,-0.06 0.211,-0.08c0.045,-0.07 -0.211,-0.15 -0.166,-0.32c0.106,-0.41 1.04,-1.06 0.935,-1.64c0.542,-0.29 0.211,-0.35 0.271,-0.68c0,-0.03 0.377,-0.15 0.211,-0.49l0.211,0.11c0,-0.2 0.09,-0.52 0.211,-0.67c0.151,-0.18 0.332,-0.12 0.422,-0.24c0.06,-0.08 0.045,-0.52 0.106,-0.68c0.241,-0.72 1.024,-1.48 1.311,-2.05c0.12,-0.25 0.045,-0.46 0.151,-0.67c0.135,-0.26 0.708,-0.88 0.844,-1.12c0.105,-0.19 0.03,-0.47 0.271,-0.52l0.211,0.21c0.075,-0.27 0.286,-0.74 0.422,-0.98c0.196,-0.32 0.588,-0.63 0.784,-0.82c0.135,-0.14 -0.046,-0.49 0.648,-0.29c0.135,-0.26 -0.196,-0.18 -0.211,-0.26c-0.061,-0.45 0.768,-0.71 0.633,-1.2h0.392c-0.046,-0.77 0.346,-0.7 0.648,-1.02c0.075,-0.09 0.587,-1.09 0.512,-1.16l0.829,-0.43l-0.211,-0.3c0.332,0.01 0.286,-0.44 0.467,-0.64c0.091,-0.09 0.241,0 0.241,0c0.106,-0.18 -0.075,-0.29 0.422,-0.46l-0.316,-0.15c0.407,-0.15 0.618,-0.74 0.98,-1.04l0.15,0.31c0.076,-0.24 -0.045,-0.44 0.151,-0.62c0.256,-0.26 0.467,-0.07 0.558,-0.12c0.06,-0.03 0.407,-0.47 0.422,-0.58c0.045,-0.28 0,-0.36 0.166,-0.72c0.015,-0.05 0.165,-0.04 0.165,-0.08c-0.03,-0.21 -0.346,-0.44 0,-0.73l-0.211,-0.11c0.241,-0.12 0.076,-0.42 0.196,-0.6c0.136,-0.2 0.317,0.1 0,-0.53c0.03,-0.16 0.332,-0.2 0.452,-0.29c0.543,-0.4 -0.708,-0.79 0.046,-1.05l0.12,-1.23l0.196,0.11l0.196,-1.03l-0.196,-0.11h0.724l-0.513,-0.73c0.091,0 0.211,-0.03 0.256,-0.11c0.257,-0.39 0.181,-0.82 0.302,-1.26c0.06,-0.19 0.226,-0.18 0.241,-0.22c0.015,-0.05 0,-0.57 0.06,-0.69c0.015,-0.03 0.256,0.05 0.166,-0.22l-0.211,-0.11l0.317,-0.15l-0.211,-0.11c0.045,-0.29 0.859,-0.8 0.361,-0.99c-0.196,-0.07 -0.166,0.19 -0.256,0.25c-0.301,0.2 -0.392,0.36 -0.633,0.53c-0.377,0.26 -0.829,0.33 -1.251,0.15c-0.377,-0.15 -0.166,-0.58 -0.347,-0.61l-0.256,0.09l0.091,-0.48l-0.091,-0.15c0,0 0.03,0.15 -0.045,0.18c-0.844,0.38 -1.507,0.94 -2.095,1.59c-0.136,0.15 -0.377,0.22 -0.558,0.11l0.106,0.32c-0.166,0 -0.739,0.26 -0.799,0.33c-0.317,0.35 -0.693,0.84 -1.176,1.17c-0.723,0.52 -1.627,0.93 -2.411,1.32c-0.196,-0.41 -0.467,0.08 -0.829,-0.53c-0.302,-0.52 0.166,-0.7 0.316,-1.08c0.046,-0.1 -0.075,-0.3 -0.045,-0.35c0.091,-0.12 0.528,-0.18 0.588,-0.24c0.015,-0.01 -0.09,-0.29 0.045,-0.47c0.091,-0.12 0.558,-0.36 0.694,-0.5c0.361,-0.38 0.798,-1.02 1.251,-1.46c0.286,-0.29 1.085,-0.67 0.919,-0.98c0.362,0.03 0.618,-0.46 0.859,-0.7c0.241,-0.25 0.663,-0.23 0.588,-0.76h0.346c-0.015,-0.41 0.603,-0.49 0.754,-0.65c0.106,-0.13 0.075,-0.41 0.392,-0.49l0.151,0.21c-0.061,-0.5 0.648,-0.94 0.994,-1.29c0.181,-0.18 0.347,-0.33 0.558,-0.53c0.528,-0.48 0.829,-1.23 1.643,-1c-0.151,-0.41 0.075,-0.67 0.362,-0.94c0.241,-0.23 0.723,-0.55 1.055,-0.87c0.105,-0.1 0.09,-0.27 0.165,-0.35c0.211,-0.21 0.603,-0.01 0.392,-0.75h0.407c-0.105,-0.35 0.317,-1.31 0.724,-1.25l-0.317,-0.11l0.106,-0.31l0.316,0.1c-0.211,-0.35 0.151,-0.58 0.181,-0.65c0.03,-0.06 -0.09,-0.2 -0.03,-0.29c0.121,-0.17 0.362,0.08 0.166,-0.52c0.12,-0.09 0.105,0.43 0.256,0.11c0.075,-0.15 0.121,-0.44 0.151,-0.62c-0.226,0.26 -0.452,0.24 -0.694,0.35c-0.376,0.18 -0.904,0.68 -1.281,0.85c-0.316,0.12 -0.768,-0.2 -0.512,0.36c-0.347,0 -0.663,0.38 -0.95,0.56c-1.16,0.75 -2.411,1.43 -3.527,2.19c-0.165,0.12 -0.346,0.09 -0.452,0.38c-0.618,-1.28 -1.612,-0.64 -0.874,0.51c-0.226,0.08 -0.844,0.38 -0.995,0.52c-0.135,0.12 -0.105,0.32 -0.181,0.4c-0.09,0.1 -0.572,0.16 -0.663,0.27c-0.045,0.06 0,0.23 -0.09,0.29c-0.151,0.1 -0.422,0.04 -0.588,0.1c-0.105,0.03 -0.226,0.31 -0.377,0.4c-0.361,0.23 -1.085,0.44 -1.386,0.74c-0.106,0.11 -0.076,0.27 -0.181,0.37c-0.136,0.12 -0.95,0.27 -1.025,0.38l0.105,0.19l-0.618,0.11l0.211,0.21l-1.039,0.21l0.316,0.22c-0.226,0.19 -0.633,0.07 -0.754,0.12c-0.12,0.04 -0.135,0.23 -0.256,0.29c-0.166,0.07 -0.437,0.04 -0.588,0.21l-0.105,-0.41l-0.256,0.21l-0.317,-0.99c0.618,-0.12 0.302,-0.44 0.467,-0.78c0.181,-0.41 0.739,-0.19 0.784,-0.22c-0.045,-0.19 -0.166,-0.27 0.045,-0.41l0.257,0.22c-0.015,-0.32 0.301,-0.26 0.422,-0.38c0.12,-0.13 0.196,-0.46 0.346,-0.57c0.181,-0.13 0.317,0.03 0.467,-0.04c0.211,-0.09 0.935,-0.87 1.146,-0.94c0.181,-0.06 0.347,0.09 0.407,0.04l-0.106,-0.21c0.422,0.11 0.257,-0.24 0.377,-0.32c0.106,-0.07 0.347,-0.03 0.437,-0.12c0.061,-0.06 0.015,-0.24 0.196,-0.38c0.136,-0.1 0.889,-0.18 1.07,-0.1l-0.211,-0.11v-0.21c0.528,0.1 0.347,-0.76 0.92,-0.52v-0.32c0.316,0.18 0.633,-0.12 0.738,-0.41l0.287,0.08c0.391,-0.7 1.311,-0.97 1.944,-1.38c0.286,-0.19 0.467,-0.76 0.964,-0.49l-0.105,-0.32c0.362,0.23 0.121,-0.09 0.226,-0.18c0.482,0.02 0.452,-0.49 0.814,-0.23c0,-0.44 0.226,-0.35 0.407,-0.48c0.136,-0.11 0.075,-0.34 0.377,-0.26l0.15,0.21c0.031,-0.24 0.242,-0.33 -0.105,-0.32v-0.1c0.362,0.1 0.316,-0.22 0.467,-0.32c0.075,-0.05 0.663,-0.43 0.708,-0.44c0.242,-0.09 0.649,0.19 0.799,-0.29l-0.361,0.21c-0.196,-0.32 0.286,-0.26 0.437,-0.35c0.06,-0.04 0.392,-0.39 0.482,-0.45c0.075,-0.06 0.226,0 0.256,-0.05c0.076,-0.07 -0.06,-0.32 0.076,-0.41c0.12,-0.09 0.527,-0.12 0.693,-0.2c0.181,-0.09 0.347,-0.57 0.799,-0.3l-0.061,-0.42c0.528,-0.17 0.875,-0.61 1.281,-0.95c0.091,-0.07 0.272,-0.1 0.392,-0.21c0.272,-0.23 0.151,-0.38 0.166,-0.41c0.121,-0.12 0.558,-0.1 0.769,-0.57c0.151,-0.34 0.211,-0.54 -0.166,-0.55l0.407,-0.37l-0.407,0.11l-0.211,-0.52l0.211,-0.1c-0.347,0.04 -0.196,-0.34 -0.256,-0.43c-0.196,-0.22 -1.04,-0.27 -0.769,-0.83l-0.301,0.11v-0.72l0.407,-0.12l-0.106,0.21l0.256,0.11c0.377,0 -0.211,-1.44 -0.467,-1.5c0.136,-0.11 0.256,0.01 0.211,-0.26c-0.784,0 -0.482,-0.73 -0.648,-1.2c-0.03,-0.08 -0.271,-0.26 -0.347,-0.55c-0.09,-0.36 0.166,-0.74 -0.15,-0.82v-0.19c0.497,-0.98 1.1,-0.84 1.703,-0.05c0.377,0.49 0.497,1.31 0.784,1.82c0.195,0.37 0.663,0.49 0.633,1.02l-0.317,0.23l0.618,0.04v0.73l0.211,-0.11l0.528,1.14c0.211,-0.12 0.271,-0.74 0.286,-0.98c0.015,-0.41 -0.211,-1.04 -0.181,-1.35c0.045,-0.49 0.196,-3.15 0.09,-3.44c-0.015,-0.06 -0.195,-0.03 -0.195,-0.1c0,-0.05 0.03,-0.71 0.045,-0.81c0.105,-0.82 1.175,-1.01 1.658,-0.38c0.482,0.64 0.407,1.07 0.572,1.7c0.031,0.11 0.317,0 0.211,0.28l-0.316,0.04c0.151,0.46 0.753,0.38 0.211,0.11l0.301,-0.43c-0.165,-0.07 -0.256,0 -0.196,-0.25h0.211c-0.18,-0.26 -0.316,-0.34 0,-0.58c0.046,-0.09 -0.165,-0.02 -0.196,-0.11c-0.03,-0.07 0.046,-1.24 0.091,-1.33c0.136,-0.29 0.949,-0.37 1.236,-0.4l-0.106,0.22l0.513,0.16l-0.091,0.46c0.181,-0.06 0.679,0.03 0.874,0.09c0.92,0.3 1.447,1.03 2.08,1.7c0.031,0.03 -0.03,0.15 0,0.18c0.076,0.11 0.226,0 0.242,0.02c0.105,0.1 0.06,0.6 0.452,0.88c0.603,0.41 1.085,0.85 1.522,1.26c0.136,0.13 0.708,0.8 0.874,0.76l0.256,-0.48c0,0 -0.15,-0.03 -0.196,-0.12c-0.18,-0.36 -0.467,-1.04 -0.572,-1.42c-0.136,-0.46 -0.136,-1.23 -0.272,-1.67c-0.03,-0.09 -0.196,0 -0.196,-0.11l0.422,-0.21c-0.075,-0.17 -0.256,-0.06 -0.316,-0.11c-0.09,-0.07 0,-0.18 -0.03,-0.23c-0.03,-0.03 -0.166,-0.04 -0.211,-0.15c-0.091,-0.22 0.015,-0.45 -0.045,-0.7l0.18,-0.12l-0.211,-0.04c0.227,-0.31 0.407,-0.64 0.86,-0.58c0.06,0 0.075,0.15 0.09,0.17c0.06,0.03 0.151,-0.03 0.226,0.04c0.136,0.16 0.497,0.85 0.603,1.08c0.105,0.2 -0.09,0.59 0.392,0.59l-0.498,-2.03l0.302,-0.2l-0.407,-0.15l0.211,-0.26l-0.407,-0.42l0.317,-0.32l-0.317,-0.05c-0.03,-0.32 0.226,-1 0.558,-1.04c0.316,-0.05 1.236,-0.05 1.085,0.42c0.196,-0.15 0.271,-0.2 0.512,-0.11c-0.497,-0.42 -0.241,-1.19 -0.03,-1.74c0.045,-0.12 0.302,-0.18 0.256,-0.53c0.046,-0.05 0.558,-0.11 0.588,-0.09c0.03,0 0.015,0.16 0.151,0.21c0.136,0.04 0.271,-0.06 0.437,0.06c0.286,0.2 0.859,1.49 0.256,1.62l0.317,0.11c-0.045,0.27 0.166,0.8 0.166,0.94c0,0.14 -0.211,0.3 -0.166,0.37c0,0.01 0.211,0 0.346,0.31c0.031,0.08 -0.045,0.2 -0.03,0.25c0.03,0.09 0.181,0.06 0.181,0.1c0,0.26 -0.211,0.37 0.121,0.69c-0.573,0.06 0.045,0.27 0.09,0.33c0.03,0.05 -0.105,0.73 0.226,0.87l-0.211,0.04c-0.09,0.27 0.151,0.18 0.181,0.26c0.045,0.1 -0.03,0.45 -0.075,0.58l0.361,-0.11c-0.015,-0.41 0.453,-0.84 0.046,-1.09c0.437,-0.11 -0.076,-1.1 0.407,-1.1l-0.211,-0.36l0.211,-0.15l-0.211,-0.05l0.407,-0.42l-0.212,-0.11c0.212,-0.32 0.181,-0.42 0,-0.77l0.196,-0.06l-0.211,-0.22c0.106,-0.24 0.242,-0.66 0.287,-0.92c0.09,-0.56 0.105,-0.99 0.271,-1.63c0.045,-0.15 -0.181,-0.36 0.166,-0.32l-0.211,-0.21h0.512c-0.105,-0.35 -0.392,-0.2 -0.407,-0.21c-0.211,-0.17 0,-0.99 0.302,-1.09l-0.211,-0.11c-0.06,-0.23 0.181,-0.11 0.181,-0.2c0.03,-0.24 -0.015,-0.66 0,-0.94l0.316,-0.06l-0.211,-0.17v-1.07l0.211,0.1l0.211,-0.68c-0.452,-0.2 0,-0.39 0,-0.42c0,-0.23 -0.105,-0.6 -0.06,-0.92c0.03,-0.24 0.241,-0.59 0.211,-0.91h0.256l-0.105,-0.41c0.346,0.14 0.527,-0.42 0.572,-0.41c0.332,0.06 1.402,0.63 0.784,0.88c0.196,0.2 0.271,0.98 0.256,1.26c0,0.32 -0.467,1.17 0.046,1.36c-0.483,0.53 -0.257,1.29 -0.362,1.83c-0.03,0.12 -0.196,0.21 -0.211,0.35c-0.06,0.38 0.196,1.32 -0.241,1.43c0.075,0.18 0.105,0.21 -0.121,0.19l0.317,0.16c0,0.24 0,0.57 -0.302,0.57c0.377,0.61 0.03,1.34 -0.105,1.98h0.211c0.03,-0.38 0.286,-0.66 0.437,-0.97c0.12,-0.25 0.045,-0.2 0.241,-0.52c0.166,-0.29 0.196,-0.71 0.663,-0.49l-0.211,-0.41l0.317,-0.06c-0.061,-0.36 0.03,-1.17 0.512,-1.09c-0.241,-0.32 0.075,-0.46 0.106,-0.68c0.015,-0.12 -0.106,-0.26 -0.076,-0.34c0.03,-0.07 0.482,-0.25 0.498,-0.29c0.09,-0.13 -0.031,-0.33 0,-0.42c0.015,-0.03 0.15,-0.05 0.18,-0.11c0.302,-0.57 0.814,-1.03 0.724,-1.7l0.196,0.11c0.09,-0.08 0.256,-0.76 0.331,-0.87c0.558,-0.86 1.432,-2.5 2.156,-3.24c0.286,-0.29 0.663,-0.43 0.814,-0.73l-0.091,-0.24c0.347,-0.31 0.513,-0.11 0.769,-0.13c0.06,0 0.045,-0.18 0.135,-0.21c0.272,-0.07 0.905,0.15 1.116,0.32c0.166,0.14 0.12,0.27 0.196,0.36zM84.613,11.16c-0.271,-0.09 -0.166,0.15 -0.271,0.21c-0.226,0.14 -0.528,0.06 -0.693,0.09c-1.357,0.27 -2.849,0.82 -4.04,1.21c-0.12,0.05 -0.286,0.05 -0.407,0.14l-0.06,-0.45l-0.301,-0.17l0.211,0.73c-0.226,0 -0.633,-0.06 -0.679,0.21h-0.256l0.045,-0.21h-0.15c0,0.13 -0.422,0.59 -0.498,0.62c-0.226,0.11 -0.889,0.21 -1.055,0c0,0.39 -0.557,0.58 -0.678,0.21l-0.256,0.11l0.211,0.21c-0.769,0.02 -1.251,0.8 -2.065,0.62l0.211,0.22l-0.889,0.12l-0.045,0.3l-0.211,-0.21l-0.362,0.51l-0.045,-0.41c-0.196,-0.03 -0.362,0 -0.407,0.22l0.211,0.15c-0.257,0.44 -0.588,0.04 -0.618,0.06c-0.015,0 -0.106,0.3 -0.287,0.41c-0.181,0.1 -1.733,0.71 -1.823,0.7c-0.121,0 -0.181,-0.23 -0.362,-0.17c0.211,0.26 -0.528,0.61 -0.739,0.68c-0.256,0.09 -0.482,-0.04 -0.497,-0.03c-0.03,0.02 -0.045,0.23 -0.241,0.34c-0.181,0.09 -0.362,-0.05 -0.377,-0.03c-0.03,0.01 -0.03,0.24 -0.105,0.35c-0.076,0.1 -0.242,0 -0.211,0.16l0.617,0.26l-0.316,0.15c0.497,0.21 0.588,0.97 1.055,1.34l0.844,-0.11l0.06,-0.29c0.528,0.25 0.332,-0.04 0.588,-0.18c0.769,-0.44 1.718,-0.79 2.442,-1.09c0.166,-0.08 0.316,-0.24 0.467,-0.28c0.181,-0.03 0.407,0.1 0.437,0.08c0.03,-0.01 0.166,-0.32 0.467,-0.52c0.377,-0.24 1.161,-0.25 1.191,-0.31c0.121,-0.23 -0.045,-0.35 0.467,-0.52c0.091,0.15 0,0.26 0.256,0.21v-0.36c0.257,-0.24 0.98,-0.18 1.146,-0.31c0.151,-0.12 -0.075,-0.16 0.301,-0.33c0.694,-0.33 1.447,-0.68 1.96,-0.96c0.15,-0.07 0.768,-0.42 0.814,-0.44c0.15,-0.03 0.361,0.11 0.452,0.06c0.135,-0.07 0.12,-0.37 0.271,-0.48c0.181,-0.14 0.558,-0.09 0.663,-0.15c0.287,-0.18 0.859,-0.79 1.251,-0.97c0.407,0.18 0.241,-0.08 0.528,-0.26c0.392,-0.26 1.055,-0.47 1.477,-0.73c0.105,-0.06 0.196,-0.27 0.422,-0.27l-0.06,-0.43zM65.381,18.53c0,0 0.061,-0.22 -0.12,-0.18c-0.045,0.52 -0.377,0.3 -0.467,0.33c-0.076,0.03 -0.031,0.17 -0.106,0.17c-0.06,0 -0.151,-0.1 -0.241,-0.07c-0.06,0.01 -0.769,0.86 -0.739,0.92c0,0 0.151,-0.03 0.211,0.08c0.166,0.26 -0.06,0.47 0.362,0.44l0.98,1l0.889,-0.37l0.256,0.31l-0.105,-0.41l0.301,0.1c0.136,-0.42 0,-0.51 -0.316,-0.78l0.211,-0.16c-0.498,0.06 -0.181,-0.13 -0.226,-0.18c-0.287,-0.38 -0.648,-0.18 -0.407,-0.94c-0.196,-0.03 -0.241,-0.24 -0.317,-0.3c-0.03,-0.02 -0.151,0.07 -0.166,0.06zM95.555,19.05c-0.075,0.06 -1.763,0.06 -1.974,0c-0.362,-0.08 -0.332,-0.18 -0.332,-0.5l-0.256,0.26l0.211,0.25l-0.557,0.13l-0.166,-0.22c0.03,0.31 -0.392,0.25 -0.588,0.41l-0.241,-0.29c-0.302,0.1 -0.648,0.38 -0.98,0.37c-0.286,0 -0.467,-0.05 -0.814,-0.05c-0.09,0 0,-0.32 -0.271,-0.21l0.105,0.32h-0.723l0.106,-0.21h-0.211c0.045,0.35 -0.302,-0.02 -0.468,0.32l-0.15,-0.22c0.045,0.37 -0.332,0.15 -0.573,0.2c-0.618,0.12 -2.05,0.24 -2.487,0.4c-0.121,0.04 -0.166,0.07 -0.151,0.22l-0.105,-0.21c-0.272,-0.09 -0.181,0.15 -0.256,0.18c-0.302,0.11 -0.453,-0.1 -1.056,0.28c-0.12,0.07 -0.557,0.45 -0.633,0.51c-0.18,0.17 -0.542,0.65 -0.648,0.73c-0.226,0.15 -0.829,0.09 -0.723,0.58c0.301,-0.14 0.784,-0.22 1.055,-0.32c0.09,-0.03 0.075,-0.15 0.121,-0.18c0.18,-0.08 0.482,0.1 0.633,-0.35c0.617,0.32 0.331,0.15 0.527,0c0.422,-0.31 0.528,-0.15 0.919,-0.12c0.046,0 0.046,-0.17 0.121,-0.19c0.181,-0.04 0.754,-0.13 0.904,-0.09c0.498,0.12 0.965,0.79 0.452,1.08l0.106,0.26l0.769,-0.21l0.196,0.19l0.316,-0.19l0.106,0.21c0.18,-0.31 0.391,-0.09 0.618,-0.12c0.557,-0.06 1.175,-0.19 1.733,-0.06c0.151,0.03 0.407,0.27 0.557,0.28c0.061,0 0.046,-0.16 0.121,-0.21c0.829,-0.39 2.562,-0.15 3.482,-0.24c0.181,-0.02 0.422,-0.26 0.633,-0.24c0.12,0 0.331,0.19 0.557,0.21c0.181,0 0.317,-0.26 0.633,0.04v-0.31c0.664,0.12 1.477,-0.02 2.126,-0.2l0.452,0.41v-0.31c0.346,-0.03 0.738,0.11 0.979,-0.21l0.362,0.52v-0.52c0,0 0.769,0.11 0.889,0.09c0.061,0 0.046,-0.18 0.121,-0.19c0.181,-0.03 0.904,0.04 0.919,0.31c0.136,-0.07 0.211,-0.66 0.407,-0.1c0.211,-0.55 0.272,-0.4 0.784,-0.46c0.317,-0.04 0.528,-0.06 0.859,-0.1c0.829,-0.13 2.05,-0.22 2.638,-0.78c-0.543,0.17 -1.025,-0.36 -1.342,-0.45c-0.15,-0.05 -0.437,0.04 -0.678,0c-0.332,-0.08 -2.155,-0.64 -2.276,-0.64c-0.135,0 -0.346,0.38 -0.618,-0.05l-0.09,0.2l-1.462,-0.3l-0.106,0.21l-0.316,-0.21l-0.045,0.21l-0.166,-0.21l-2.155,0.1l-0.121,-0.21c-0.377,0.4 -0.784,0.05 -1.04,0.05c-0.181,0 -0.754,0.33 -0.678,-0.05h-0.106c0,0 0,0.15 -0.015,0.18zM81.614,20.75c-0.121,-0.41 -0.633,0.06 -0.874,0.21c-0.287,0.18 -0.151,0.11 -0.407,0.32c-0.256,0.21 -0.558,0.32 -0.754,0.44c-0.075,0.05 -0.105,0.33 -0.362,0.29l-0.075,0.32c0.95,0.04 0.603,-0.17 1.055,-0.61c0.015,-0.02 0.121,0.06 0.151,0.05c0.422,-0.34 0.814,-0.72 1.266,-1.01zM61.538,20.75l-0.211,0.06l0.211,1.71l-0.256,-0.09l-0.106,0.2c-0.361,0.11 -0.331,-0.15 -0.437,-0.2c-0.603,-0.28 -1.055,-0.51 -1.567,-0.94l0.105,1.46l-0.316,0.11c0.362,-0.06 0.603,0.56 0.829,0.83l0.105,-0.21c0.302,-0.09 0.181,0.23 0.407,0.35c0.437,0.24 1.583,0.33 2.08,0.54c0.226,0.09 0.693,0.4 0.724,0.66l0.105,-0.2h0.136c0.211,0.04 0.708,0.5 0.753,0.5c0.211,0.05 0.709,0 0.935,0.15c0.09,0.06 0.316,0.43 0.361,0.46c0.061,0.03 0.965,0.22 1.282,0.35c0.286,0.1 0.648,-0.08 0.572,0.41l0.151,-0.22l0.151,0.22l0.045,-0.31l-1.176,-1.09l0.211,-0.15c-0.361,0.03 -0.708,-0.17 -0.844,-0.5l-0.18,0.07c0.045,-0.68 -0.739,-0.62 -0.739,-1.14c-0.754,0.25 -1.01,-1.04 -1.372,-1.42c-0.075,-0.08 -0.497,-0.26 -0.678,-0.5c-0.09,-0.12 -0.06,-0.34 -0.135,-0.43c-0.227,-0.29 -1.04,-0.07 -1.116,-0.65zM77.077,21.98c0.091,0.03 1.281,-0.26 1.131,-0.65c-0.046,-0.32 -0.754,0.16 -0.935,0.21c-0.271,0.07 -0.573,-0.17 -0.723,0.26c0.135,0.04 0.361,0 0.467,0.03c0.06,0 0.045,0.16 0.06,0.16zM69.3,22.62l0.558,0.09c0.437,-0.32 0.196,-0.64 -0.287,-0.63zM89.572,23.77c-0.618,0.01 -1.266,0.03 -1.869,0.06c-0.407,0.03 -0.919,0.2 -1.281,0.15c-0.256,-0.03 -0.06,-0.24 -0.256,-0.21l-0.106,0.3c0.422,0.23 0.935,0.11 1.372,0.22c0.03,0 0.301,0.3 0.618,0.27c0.226,0 0.391,-0.23 0.557,-0.26c0.106,-0.01 0.317,0.11 0.347,0.08c0,-0.02 -0.045,-0.2 0.06,-0.32c0.136,-0.15 0.513,-0.11 0.558,-0.31zM69.18,24.21c0,0 -0.769,-0.27 -0.799,-0.24c-0.03,0.45 0.467,0.63 0.783,0.94c0.317,0.3 0.407,0.74 0.98,0.73c0.211,-0.78 -0.573,-0.69 -0.799,-0.96c-0.015,-0.02 0.076,-0.12 0.046,-0.17c-0.061,-0.07 -0.181,-0.29 -0.196,-0.3zM73.46,24.16l-0.06,-0.18c-0.618,0.47 -1.719,-0.06 -2.427,0.26c0.106,0.17 0.302,0.08 0.452,0.17c0.769,0.48 0.98,1.51 1.658,1.89c0.136,0.08 0.256,-0.12 0.332,0.19l0.06,-0.2l0.196,0.09l-0.106,-0.62l0.407,-0.05l-0.316,-0.1c0.09,-0.25 0.392,-0.25 0.211,-0.47c0.422,0.09 0.256,-0.19 0.332,-0.29c0.09,-0.11 0.527,-0.29 0.693,-0.14l-0.317,-0.21l0.211,-0.26c-0.165,-0.32 -1.281,-0.03 -1.326,-0.08zM77.168,24.5v-0.41c-0.528,0.04 -0.92,0.45 -1.447,0.42l0.06,0.22c-0.452,0.03 -0.256,0.24 -0.316,0.31c-0.121,0.14 -0.453,0.03 -0.362,0.26c0.12,0.29 0.407,-0.09 0.588,-0.01l0.196,-0.25l0.346,0.11c-0.015,-0.42 0.528,-0.79 0.935,-0.62zM81.403,24.8c-0.633,-0.3 -1.07,-0.3 -1.764,-0.32v0.32l-0.316,-0.1c-0.226,0.22 0.965,0.6 1.1,0.62c0.302,0.04 0.618,-0.25 0.558,0.1l0.105,-0.32l0.106,0.32l0.512,-0.25l-0.407,0.04zM95.058,24.5c-0.392,0 -0.844,0.32 -1.221,0.36c-0.286,0.03 -0.829,-0.26 -1.025,0c-0.045,0.06 0.03,0.2 -0.09,0.29c-0.091,0.06 -0.452,0.11 -0.603,0.21l-0.151,-0.21l-0.211,0.41c-0.241,0.15 -0.196,-0.41 -0.407,-0.21c-0.18,0.18 0.061,0.54 0.287,0.6c0.286,0.08 0.512,-0.15 0.753,-0.04c0.226,0.09 0.226,0.42 0.422,0.47c0.061,-0.32 -0.331,-0.43 -0.105,-0.68c0.06,-0.08 0.588,-0.35 0.693,-0.37c0.513,-0.06 0.211,0.06 0.693,-0.12c0.211,-0.07 0.468,-0.09 0.694,-0.09l-0.211,-0.21l0.512,-0.41zM52.646,25.33c-0.347,0.06 -0.377,-0.29 -0.513,-0.36c-0.06,-0.05 -0.211,0.04 -0.301,0c-0.196,-0.09 -0.287,-0.46 -0.633,-0.37l0.211,0.26l-0.618,0.79l-0.106,-0.21c-0.256,0.07 0,0.3 -0.316,0.36c0.105,0.29 1.115,0.28 1.432,0.34c0.768,0.18 1.416,0.41 2.2,0.51c0.106,0 0.392,-0.09 0.407,-0.06v0.32l1.146,-0.11l-0.106,0.22h1.552c0.031,-0.46 -0.376,-0.2 -0.467,-0.23c-0.06,-0.02 -0.045,-0.18 -0.12,-0.2c-0.226,-0.04 -0.754,0.17 -0.995,0.11c-0.075,-0.02 -0.06,-0.18 -0.136,-0.2c-0.12,-0.03 -0.633,0.03 -0.889,-0.03c-0.437,-0.09 -0.588,-0.47 -1.01,-0.29l0.106,-0.21h-0.513v-0.32l-0.407,0.11l0.106,-0.41zM82.247,25.21l-0.121,-0.2c0.181,0.43 -0.527,0.28 -0.603,0.55c-0.09,0.36 0.407,0.2 0.679,0.26c0.693,0.17 1.612,0.8 2.336,0.61c0.241,-0.07 0.377,-0.38 0.693,-0.17c0.091,-0.79 -0.557,-0.56 -0.98,-0.65c-0.045,0 -0.045,-0.17 -0.12,-0.19c-0.106,-0.03 -0.362,0.08 -0.558,0.03c-0.437,-0.1 -0.316,-0.42 -0.693,-0.27l-0.06,-0.18l-0.558,0.2zM59.85,25.88c-0.271,-0.14 -0.543,0.03 -0.738,-0.24l-0.423,0.3l-0.09,-0.21c-0.211,0.22 -0.407,0.13 -0.678,0.1v0.32l0.151,-0.21l0.979,0.94l-0.211,0.21c0.467,-0.04 0.272,0.93 0.045,1.05l-0.211,-0.21c-0.18,0.07 -0.015,0.27 -0.105,0.32c-0.226,0.12 -1.176,0.22 -1.432,0.19c-0.603,-0.09 -1.206,-0.22 -1.778,-0.3c-0.905,-0.12 -1.794,-0.15 -2.668,-0.41l-0.06,-0.32c-0.362,0.03 -0.061,0.28 -0.649,0.18c-0.241,-0.03 -0.783,-0.18 -1.009,-0.24c-0.076,-0.01 -0.151,-0.21 -0.272,-0.23c-0.196,-0.04 -0.497,0.29 -0.557,-0.22l-0.106,0.31c-0.181,-0.04 -0.738,-0.22 -0.874,-0.19c-0.105,0.03 -0.437,0.63 -0.678,0.6l0.301,0.22l-0.407,0.04c0.257,0.46 -0.572,0.38 -0.331,0.88l-0.302,-0.1c-0.135,0.27 0.377,0.16 0.211,0.41c-0.015,0.03 -0.135,-0.06 -0.211,-0.05c-0.814,0.24 -0.316,0.15 -0.452,0.56c-0.105,0.31 -0.693,0.82 -0.753,1.02c-0.166,0.55 0.361,0.79 0.346,1.23c0,0.11 -0.286,0.8 -0.362,0.94c-0.316,0.59 -0.813,0.76 -1.07,1.2c-0.06,0.11 -0.241,0.7 -0.286,0.73l-0.407,-0.11c0.256,0.26 -0.482,1.23 -0.618,1.31c-0.136,0.07 -0.362,-0.11 -0.407,-0.06c0.256,0.56 -0.633,1.15 -0.859,1.59c-0.151,0.27 -0.211,0.61 -0.286,0.91l-0.106,-0.32c-0.437,0.24 -0.331,0.87 -0.467,1.25c-0.166,0.51 -0.513,1.09 -0.678,1.5c-0.151,0.38 -0.317,0.77 -0.317,1.2l-0.211,-0.11c0.106,0.23 -0.075,0.85 -0.316,0.84l0.211,0.21h-0.181c0.045,0.47 -0.498,1.82 -1.055,1.46c-0.136,0.3 0.452,0.25 0.407,0.36c-0.211,0.2 -0.136,0.47 -0.211,0.7c-0.121,0.39 -0.377,1.29 -0.588,1.56c-0.03,0.05 -0.091,0.93 -0.136,1.05c-0.03,0.12 -0.196,0.09 -0.256,0.18c-0.045,0.06 0.045,0.2 0.03,0.2c-0.151,0.09 -0.557,-0.02 -0.723,0.47l0.407,0.17v0.24l-0.814,3.28l-0.513,-0.11c-0.09,0.37 0.302,0.14 0.407,0.21c-0.135,0.14 0.076,0.31 0.076,0.37c0,0.1 -0.211,0.18 -0.257,0.33c-0.09,0.32 -0.331,1.47 -0.407,1.88c-0.06,0.31 0.211,0.41 -0.241,0.6v0.25l0.211,-0.21c0,0.12 -0.075,0.24 -0.045,0.37c0.091,0.6 0.06,2.24 -0.09,2.89c-0.046,0.23 -0.272,0.46 -0.272,0.64c0,0.15 0.196,0.26 0.211,0.43c0.031,0.32 -0.075,0.13 0.061,0.48c0.165,0.44 -0.03,0.47 -0.03,0.67c0,0.26 0,1.06 0.286,0.99l-0.302,0.21l0.211,0.11v0.21l-0.211,0.04c0.332,0.4 -0.045,0.72 0.422,1.05l-0.211,0.05l0.211,0.3c-0.512,0.15 -0.211,1.09 -0.09,1.49c0.241,0.85 0.482,1.91 0.739,2.79c0.165,0.53 0.12,0.88 0.587,1.31l-0.301,0.21l0.407,0.04l0.151,0.95l0.376,0.1l-0.211,0.15c0.257,0.14 0.196,0.43 0.272,0.58c0.03,0.06 0.181,0.08 0.241,0.18c0.09,0.17 0.181,0.9 0.241,1.05c0,0.04 0.497,0.35 0.543,0.44c0.045,0.11 -0.046,0.21 -0.031,0.29c0.166,0.5 1.146,1.38 1.568,2c0.12,0.18 0.422,0.96 0.467,0.99c0.121,0.06 0.302,0.04 0.422,0.1c0.106,0.07 0,0.26 0.091,0.31c0.12,0.07 0.316,0.06 0.482,0.15c0.211,0.12 0.136,0.39 0.392,0.58c0.648,0.45 1.522,0.74 2.08,1.18c0.12,0.11 0.09,0.18 0.045,0.32h0.497l0.015,0.32l0.302,-0.21l0.045,0.3h1.191c-0.061,0.59 0.603,0.44 0.964,0.55c0.136,0.04 0.648,0.31 0.905,0.36c0.557,0.09 1.281,-0.26 1.145,0.67c0.211,0.01 0.045,-0.29 0.121,-0.41c0.12,-0.2 2.125,0.16 2.547,0.18c0.181,0 1.01,-0.12 1.07,-0.09c0,0 -0.136,0.23 0.045,0.3c0.211,0 0.392,-0.29 0.422,-0.29c0.045,0 0.829,0.2 1.04,0.19c0.302,-0.03 0.995,-0.46 1.146,0.01c0.422,-0.12 0.919,-0.44 1.341,-0.23l0.09,-0.19l0.362,0.21l0.151,-0.3l0.256,0.21c-0.045,-0.32 0.302,-0.18 0.543,-0.23c0.226,-0.05 0.331,-0.3 0.542,0.02c0.106,-0.35 0.618,-0.17 0.874,0c-0.135,-0.58 0.709,-0.28 0.98,-0.34c0.513,-0.11 1.357,-0.56 1.975,-0.68c0.542,-0.11 0.286,-0.08 0.648,-0.2c0.301,-0.09 0.994,-0.18 1.296,-0.15l0.06,-0.21l0.211,0.21l0.045,-0.3c0.151,0 0.618,0 0.709,-0.02c0.301,-0.08 0.904,-0.39 1.236,-0.53c0.241,-0.11 0.527,-0.14 0.753,-0.29l0.091,0.21c0.165,-0.22 0.407,-0.22 0.678,-0.21c0.09,-0.11 -0.422,-0.11 -0.106,-0.26c0.362,-0.16 0.905,-0.12 1.191,-0.36l0.151,0.21l0.105,-0.41l0.347,0.12c0.151,-0.44 0.437,-0.24 0.693,-0.36c0.256,-0.12 0.407,-0.34 0.678,-0.46c0.543,-0.26 1.161,-0.26 1.643,-0.63l0.106,0.21c0.075,-0.12 0.271,-0.55 0.392,-0.59c0.09,-0.03 0.527,0.07 0.572,0.04c0.091,-0.06 0.257,-0.47 0.633,-0.39l-0.105,-0.22c0.121,0 0.271,-0.01 0.392,-0.07c0.286,-0.15 0.588,-0.38 0.844,-0.52c0.256,-0.13 0.708,-0.13 0.633,-0.54l0.407,0.1l-0.076,-0.18l0.347,-0.33l-0.045,0.3h0.316l-0.105,-0.41c0.151,0.08 0.573,0 0.678,-0.11c0.136,-0.12 0.06,-0.27 0.151,-0.36c0.181,-0.18 0.769,-0.36 1.055,-0.58c0.331,-0.24 0.648,-0.79 0.949,-1c0.196,-0.14 0.679,-0.27 0.89,-0.35c-0.287,-0.48 0.256,-0.26 0.482,-0.54c0.015,-0.03 -0.045,-0.17 0.015,-0.25c0.226,-0.23 0.678,-0.35 0.739,-0.67l0.301,0.22c-0.241,-0.35 0.301,-0.55 0.528,-0.78c0.09,-0.09 0.06,-0.27 0.135,-0.33c0.196,-0.2 0.965,-0.47 1.206,-0.7c0.03,-0.03 0.136,-0.12 0.105,-0.17l-0.211,-0.06l0.211,-0.04l-0.105,-0.32c0.437,0.07 0.347,-0.3 0.527,-0.47c0.091,-0.08 0.649,-0.29 0.694,-0.38c0.015,-0.03 -0.091,-0.17 -0.03,-0.29c0.09,-0.21 0.572,-0.49 0.587,-0.83l0.302,0.1c0.015,-0.27 0.286,-0.8 0.618,-0.73l-0.211,-0.3l0.723,-0.32l-0.301,-0.15l0.211,-0.47l0.301,0.11l0.106,-0.48l-0.407,0.05c-0.06,-0.18 0.166,-0.24 0.166,-0.36c0.015,-0.29 -0.347,-1.04 -0.272,-1.34c0.226,-0.76 -0.045,-1.49 -0.06,-2.4c0,-0.24 0.256,-0.38 -0.045,-0.64c0.422,-0.1 -0.045,-0.47 0,-0.94c0.015,-0.25 0.241,-0.06 0.211,-0.25l-0.317,-0.07c0.241,-0.31 -0.06,-0.5 -0.075,-0.69c0,-0.29 0.211,-1.01 0.181,-1.26c0,-0.08 -0.181,-0.06 -0.196,-0.14c-0.076,-0.36 0.105,-0.88 -0.211,-1.23c0.407,-0.14 0.316,-0.44 0.196,-0.8c-0.03,-0.09 -0.211,-0.08 -0.196,-0.13c0,-0.06 0.151,-0.16 0.166,-0.3c0,-0.35 -0.377,-1.93 -0.151,-2.12c0.03,-0.02 0.452,0.04 0.512,-0.32l-0.512,0.21c-0.045,-0.36 -0.045,-0.73 -0.091,-1.11c-0.06,-0.51 -0.045,-0.21 -0.105,-0.44c-0.121,-0.38 0.09,-0.74 0.06,-1.14c0,-0.16 -0.196,-0.48 -0.181,-0.71l0.317,0.05c0.105,-0.26 -0.136,-0.19 -0.166,-0.25c-0.181,-0.3 -0.407,-0.56 -0.512,-0.73c-0.196,-0.36 0.135,-0.68 -0.452,-0.69c0,-0.17 0.406,-0.23 0.406,-0.37c0,-0.09 -0.226,-0.2 -0.361,-0.15c-0.151,0.05 -0.091,0.33 -0.256,0.3c-0.106,-0.44 -0.498,-0.66 -0.769,-0.95c-0.091,-0.11 0.03,-0.4 -0.377,-0.31l0.211,-0.41c-0.422,0 -0.678,-0.31 -0.723,-0.72c-0.242,0.21 -0.272,-0.11 -0.422,-0.34c-0.091,-0.13 -0.362,-0.03 -0.106,-0.48c-0.663,0.16 -0.392,-0.41 -0.527,-0.63c0,0 -0.151,0.11 -0.242,0c-0.422,-0.41 -1.22,-1.73 -1.642,-2.26c-0.347,-0.42 -0.98,-0.89 -1.282,-1.21c-0.09,-0.11 -0.256,-0.62 -0.376,-0.78c-0.618,-0.76 -2.427,-2.05 -3.346,-2.62c-0.166,-0.11 -0.603,-0.23 -0.633,-0.26c-0.061,-0.06 -0.03,-0.27 -0.121,-0.35c-0.06,-0.04 -0.196,0.08 -0.286,0.03c-0.03,0 -0.196,-0.32 -0.317,-0.38c-0.256,-0.13 -0.859,-0.18 -1.01,-0.26c-0.196,-0.1 -0.045,-0.41 -0.497,-0.18l-0.166,-0.3l-0.15,0.21l-0.965,-0.45c-0.513,-1.26 -1.794,-1.6 -2.954,-2.16c-0.091,-0.05 -0.091,-0.15 -0.106,-0.17c-0.165,-0.06 -0.587,0.2 -0.497,-0.35l-0.302,0.22c-0.105,-0.43 -0.708,-0.37 -1.115,-0.61c-0.437,-0.26 -0.271,-0.2 -0.753,-0.4c-0.211,-0.09 -0.724,-0.27 -0.573,-0.45l-0.106,-0.11l-0.09,0.2l-1.296,-0.42l0.09,-0.4c-0.316,0.11 -1.175,-0.15 -1.507,-0.3c-0.528,-0.23 -0.965,-0.41 -1.462,-0.59c-0.739,-0.29 -1.251,-0.82 -1.944,-1.08l-0.196,0.21c-0.226,-0.14 -0.467,-0.21 -0.709,-0.32c-0.06,-0.03 -0.075,-0.15 -0.105,-0.17zM46.542,26.36l0.06,-0.31c-0.136,0.31 -0.498,0.07 -0.558,0.12c-0.045,0.03 -0.045,0.19 -0.12,0.26c-0.091,0.06 -0.242,-0.05 -0.317,0c-0.075,0.04 -0.06,0.24 -0.166,0.25c-0.241,0.06 -0.497,-0.27 -0.768,0.03c-0.468,0.55 0.06,0.81 0.15,1.13c0.061,0.21 0.015,0.5 -0.045,0.71h0.392c0.03,-0.56 0.437,-0.56 0.588,-0.73c0.12,-0.13 0,-0.44 0.467,-0.41l-0.106,-0.21h0.407l-0.211,-0.11v-0.21c0.377,0.11 0.332,-0.29 0.513,-0.52h-0.317zM77.062,26.36c-0.437,-0.16 -0.723,0.2 -1.085,0.41l-0.151,-0.21c0.091,0.43 -0.301,0.35 -0.618,0.41l0.106,0.21l-0.317,-0.1c0,0.64 -0.392,0.2 -0.723,0.53l0.769,1.03l-0.151,0.15l0.512,0.05c-0.045,0.55 0.814,0.62 0.905,1.12c0.015,0.12 -0.151,0.55 0.075,0.55c0.226,0 0.03,-0.4 0.045,-0.41c0.151,0.09 0.739,0.14 0.859,0.07c0.196,-0.07 0.196,-0.34 0.377,-0.44c0.422,-0.21 0.814,-0.34 1.266,-0.6c0.241,-0.14 0.633,-0.28 0.904,-0.4c-0.286,-0.13 -0.271,-0.44 -0.316,-0.5c-0.03,-0.03 -0.603,-0.24 -0.754,-0.35c-0.452,-0.29 -0.859,-0.62 -1.281,-0.94l0.076,-0.18l-0.618,-0.12l0.105,-0.31zM81.388,26.71c0,0 -0.498,0.06 -0.678,0c-0.362,-0.12 -0.649,-0.45 -1.161,-0.35l1.341,0.84l-0.316,0.21c0.377,-0.03 0.633,0 0.738,0.41l0.362,-0.09c0.106,0.44 0.302,-0.03 0.482,-0.15c0.181,-0.12 0.347,-0.08 0.483,-0.23c0,-0.1 -0.92,-0.36 -1.116,-0.44c-0.105,-0.04 -0.135,-0.2 -0.15,-0.21zM88.622,26.94c-0.12,-0.06 -0.482,-0.17 -0.603,-0.14c-0.105,0.04 -1.326,0.54 -1.115,0.72l0.678,0.21l0.106,-0.2l0.573,0.09l-0.106,-0.21c0.377,0.09 0.452,-0.07 0.724,-0.21c0.03,-0.05 -0.227,-0.26 -0.242,-0.26zM91.019,28.23c0,0 0.151,-0.32 0,-0.36c-0.241,0.01 -0.935,-0.28 -1.085,-0.28c-0.061,0 -0.046,0.19 -0.136,0.22c-0.347,0.12 -0.769,0.07 -1.055,0.38c0.603,0.44 0.995,-0.03 1.507,-0.05c0.196,0 0.648,0.18 0.754,0.09zM84.613,28.57l-0.512,-0.22c-0.03,0.44 -0.287,0.2 -0.347,0.22c-0.075,0.04 -0.06,0.13 -0.151,0.18c-0.12,0.06 -0.331,-0.02 -0.437,0.16c0.287,0.37 0.724,-0.07 1.085,0.16l0.061,-0.31c0,0 0.527,0.02 0.301,-0.21zM92.089,28.93l-0.136,-0.17c0.076,0.34 -0.588,0.08 -0.723,0.41l1.447,0.64c-0.196,0.77 0.226,0.12 0.422,0.14c0.618,0.33 1.356,0.5 1.974,0.79c0.151,0.07 0.271,0.39 0.709,0.3l-0.106,0.3l0.618,-0.3c0,0.24 0.543,0.42 0.769,0.52c0.753,0.31 1.627,0.54 2.381,0.82c0.286,0.1 0.482,0.37 0.859,0.33v0.29c0.392,-0.26 0.573,-0.11 0.965,0c0.135,0.04 0.588,0.27 0.814,0.33c0.241,0.06 0.648,0.05 0.934,0.17c-0.588,-0.58 -1.552,-0.71 -2.02,-1.46l-0.256,0.21c0.045,-0.28 -0.241,-0.18 -0.407,-0.27c-0.467,-0.24 -0.919,-0.55 -1.401,-0.77c-0.347,-0.17 -1.598,-0.53 -1.794,-0.76c-0.06,-0.08 0,-0.23 -0.03,-0.28c0,0 -0.166,0.07 -0.271,0.03c-0.227,-0.07 -0.438,-0.21 -0.679,-0.24l-0.075,-0.32l-0.151,0.22c-0.286,-0.31 -0.768,-0.22 -0.874,-0.73l-0.151,0.21c-0.181,-0.24 -0.678,-0.21 -0.678,-0.52l-0.362,0.22c-0.196,-0.57 -0.648,-0.22 -0.949,0.09l-0.829,-0.25zM86.06,29.7l-1.04,0.22c0.136,0.57 0.437,0.36 0.588,0.44c0.136,0.06 0.618,0.76 0.663,0.79c0.015,0 0.211,-0.08 0.377,-0.02c0.045,0 0.618,0.4 0.708,0.46c0.181,0.12 0.422,0.6 0.874,0.51c0.151,-0.13 -0.874,-0.95 -1.024,-1.06l0.09,-0.29l-0.301,0.09c-0.151,-0.39 -0.709,-0.51 -0.95,-0.86c-0.09,-0.12 0.015,-0.26 0,-0.26zM83.483,31.05c-0.588,-0.01 -0.995,-0.63 -1.613,-0.57c-0.211,0.01 -1.356,0.85 -1.492,0.68l-0.106,-0.32c0.166,0.61 -0.723,0.64 -1.145,0.52l0.106,0.21l-0.573,0.21l-0.151,-0.21v0.2c-0.377,-0.11 -0.512,0.12 -0.814,0.24l0.256,0.61l0.257,-0.31v0.82l0.467,0.11l0.211,-0.3l0.045,0.41c0.136,0.1 0.407,0 0.467,0.03c0.076,0.01 0.046,0.16 0.121,0.18c0.105,0.03 0.708,-0.08 0.949,-0.03c0.483,0.07 0.98,0.2 1.462,0.29c0.332,0.06 1.086,0.47 1.161,-0.05c0.362,0.23 0.271,-0.09 0.362,-0.1c0.196,-0.07 1.718,0.21 1.929,0.31c0.12,0.06 0.105,0.23 0.226,0.28c0.452,0.16 1.703,0.26 2.155,0.48c0.151,0.08 0.166,0.28 0.302,0.32c0.271,0.11 0.512,-0.27 0.799,0.06c0.045,-0.36 -0.377,-0.29 -0.543,-0.41c-0.332,-0.24 -0.784,-0.82 -1.176,-1.03c-0.422,-0.23 -1.673,-0.83 -1.974,-1.18c-0.015,-0.03 0.09,-0.19 -0.015,-0.25c-0.106,-0.06 -0.739,-0.24 -0.814,-0.28c-0.226,-0.17 -0.271,-0.67 -0.844,-0.54v-0.36zM90.612,31.98c0,0 0.181,-0.35 -0.106,-0.41l0.046,0.73l0.572,0.32c0.121,-0.55 -0.437,-0.53 -0.512,-0.64zM92.375,33.15l-0.105,-0.32c-0.287,0.21 0.361,1.79 0.437,1.85c0.075,0.06 0.241,0 0.301,0.03c0.498,0.28 1.101,1.22 1.658,1.55c0.407,-0.18 0.226,0.03 0.452,0.21c0.211,0.17 0.468,0 0.347,0.53l0.106,-0.31l0.256,0.21l0.135,-0.24c-0.196,-0.2 -0.12,-0.35 -0.09,-0.6l-0.407,0.11c-0.045,-0.43 -0.437,-0.79 -0.693,-1.14c-0.091,-0.14 -0.061,-0.29 -0.181,-0.42c-0.558,-0.64 -1.161,-0.81 -1.809,-1.31c-0.06,-0.04 -0.09,-0.15 -0.12,-0.24l-0.302,0.09zM82.443,34.59c0,0 0.181,-0.3 -0.06,-0.41c-0.242,-0.1 0,0.37 -0.317,0.41c-0.181,-0.12 -0.965,-0.3 -1.07,-0.2c0.181,0.25 0.271,0.34 0.105,0.63c0.86,-0.14 1.04,0.56 1.538,0.95l-0.091,0.29c0.513,-0.18 0.513,0 0.935,0.11l-0.407,0.3c0.467,0.02 0.618,-0.11 0.98,0.32l-0.362,0.32c0.151,0.38 0.377,0.29 0.678,0.1l0.151,0.2l-0.211,0.21c0.768,-0.21 0.588,0.06 0.934,0.44c0.166,0.19 0.603,0.51 0.709,0.67c0.105,0.15 0.075,0.4 0.12,0.46c0,0.01 0.181,-0.09 0.392,0.06c0.241,0.17 0.362,0.47 0.573,0.68c0.301,0.29 0.663,0.56 0.979,0.84l-0.09,-0.79l0.196,-0.09c-0.151,-0.25 -0.121,-0.46 0.105,-0.64l-0.301,-0.26l0.317,-0.05l-0.317,-0.21c0.497,-0.24 0.181,-0.21 0.211,-0.51c0,-0.2 0.121,-0.37 0.106,-0.58c-0.106,0 -0.211,0 -0.302,-0.08c-0.542,-0.39 -1.371,-1.01 -1.974,-1.33c-0.603,-0.32 -1.553,-0.35 -1.854,-1.09h-0.196l-0.06,0.21c-0.332,-0.26 -0.377,-0.73 -0.875,-0.62l0.106,-0.22c-0.377,0.08 -0.241,-0.36 -0.618,-0.1zM97.816,36.93c-0.166,-0.15 -0.392,-0.26 -0.527,-0.46l-0.347,0.22l0.045,0.19h0.347c-0.136,0.47 0.256,0.2 0.316,0.23c0.091,0.05 0.136,0.47 0.633,0.29c-0.15,-0.15 -0.301,-0.33 -0.452,-0.49zM91.998,38.01c-0.06,-0.11 -0.06,-0.25 -0.135,-0.34c-0.06,-0.06 -1.311,-0.44 -1.432,-0.45c-0.181,-0.02 -0.211,-0.03 -0.332,0.13c0.407,1.08 1.357,1.32 2.126,2.04c0.15,-0.28 -0.287,-1.14 -0.227,-1.23c0.016,-0.03 0.121,-0.02 0.181,-0.02c0.046,-0.16 -0.12,-0.06 -0.165,-0.13zM89.677,39.28c-0.391,-0.09 -0.06,0.46 -0.105,0.65c-0.015,0.08 -0.181,0.08 -0.196,0.16c-0.226,0.6 0.06,0.48 0.136,0.66c0.105,0.31 0.18,1.07 0.06,1.37c-0.045,0.11 -0.181,0.06 -0.196,0.08c-0.151,0.21 0.136,0.19 0.151,0.24c0.196,0.3 0.331,0.44 0.512,0.7c0.181,0.25 0.075,0.71 0.678,0.71c-0.135,-0.21 0,-0.52 -0.03,-0.65c-0.03,-0.17 -0.271,-0.35 -0.316,-0.58c-0.046,-0.18 0.09,-0.5 -0.061,-0.74c0.136,0.03 0.89,0.1 0.829,-0.15c-0.18,-0.61 -0.482,0.15 -0.934,0.04c-0.06,-0.71 0.136,-1.58 1.04,-1.24c-0.091,0.45 0.166,1.04 0.271,1.53c0.136,0.61 0.181,1.44 0.302,2.06c0.03,0.15 0.271,0.26 0.316,0.46c0.075,0.3 0.015,1.02 0.121,1.41c0.105,0.43 0.392,0.64 0.708,0.9l0.362,-0.41l-0.211,-0.06c0.181,-0.34 -0.181,-1.04 0.316,-1.08c0.061,-0.32 -0.301,-0.12 -0.211,-0.52l0.317,-0.04c-0.513,-0.19 -0.091,-0.76 -0.151,-1.1c-0.09,-0.57 -0.377,-1.48 -0.573,-1.95c-0.15,-0.38 -0.241,-0.67 -0.542,-1.01c-0.347,-0.39 -0.829,-0.63 -1.191,-1h-0.196c-0.09,0.27 -0.12,0.18 -0.377,0.15l-0.196,0.43l0.211,0.04v0.22l-0.512,0.21c0.181,-0.53 -0.377,-0.9 -0.317,-1.46zM96.023,40.62c0,0 -0.03,-0.28 -0.121,-0.34l-0.422,-0.04l0.317,0.88l-0.317,0.15c0.467,-0.09 0.513,0.65 0.302,0.99l0.211,0.1l-0.317,0.22c0.106,0.21 0.422,0.1 0.512,0.15c0.031,0 -0.09,0.29 0.031,0.54c0.135,0.31 0.512,0.35 0.286,0.72l0.316,-0.11c0.121,0.47 0.528,0.97 0.845,1.4c0.09,0.12 0.105,0.21 0.286,0.16l-0.106,-0.41l0.151,0.22l0.151,-0.16c-0.392,-0.27 0,-0.62 0.045,-0.97c0,-0.07 0.015,-0.8 0,-0.85c-0.09,-0.42 -0.784,-0.74 -0.693,-1.24c-0.061,0.1 -0.558,-0.32 -0.663,-0.43c-0.422,-0.39 -0.453,-0.79 -0.483,-0.82c-0.06,-0.06 -0.286,-0.03 -0.377,-0.15zM85.955,41.48l-0.196,0.15l0.723,0.73c0.075,0.52 0.784,0.55 0.513,1.1c0.542,-0.11 0.738,0.5 0.829,0.94l0.256,-0.11c0,0 0.09,0.43 0.271,0.21c0.09,-0.1 -0.603,-1.15 -0.633,-1.44c-0.543,-0.21 -1.176,-0.91 -1.658,-1.38c-0.06,-0.06 -0.09,-0.12 -0.075,-0.2zM32.51,43.94c0.452,0.3 0.783,0 0.497,-0.45l-0.513,-0.14v0.59zM97.439,46.37l-0.829,-0.11l0.302,0.11l0.181,0.77l-0.377,0.41l0.573,0.26l0.045,-0.62l0.211,0.21c0.045,-0.32 -0.075,-0.58 -0.317,-0.77c-0.03,-0.08 0.347,0 0.211,-0.26zM93.852,47.37c-0.09,-0.12 -0.06,-0.35 -0.241,-0.38c-0.06,0.17 -0.045,0.41 -0.105,0.55c-0.061,0.13 -0.241,0 -0.196,0.18l0.407,-0.11l-0.106,0.41l0.317,0.11c-0.196,-0.27 0.12,-0.7 0.105,-0.73c0,0 -0.135,0.02 -0.166,-0.03zM90.325,48.95c-0.075,-0.06 -0.135,-0.38 -0.331,-0.39c-0.015,0.5 0.377,0.89 -0.106,1.3c0.603,0.29 -0.331,0.88 -0.316,0.94c0.075,0.29 0.301,-0.03 0.422,0c0.075,0.02 0.286,0.15 0.301,0.21c-0.512,0.22 0.046,0.34 0.046,0.67c0,0.18 -0.181,0.84 -0.151,1.09c0,0.08 0.181,0.08 0.211,0.14c0.12,0.26 0.03,1.25 0.06,1.61c0.045,0.59 0.377,1.52 0.045,2.02c0.422,0.14 -0.06,0.64 0.317,0.99c-0.121,0.1 -0.844,-0.49 -1.07,0.13c-0.287,0.79 0.135,0.67 0.452,1.11l0.618,-0.2c-0.121,0.23 0.045,0.32 0.211,0.47l-0.211,0.11l0.211,0.11c-0.287,0.68 -0.106,1.51 -0.045,2.24c0.105,-0.26 0.527,-0.59 0.618,-0.73c0.075,-0.1 -0.061,-0.57 0.467,-0.63l-0.091,-0.25l0.181,-0.1c0.061,-0.76 -0.181,-2.19 0.317,-2.72c-0.347,-1.41 -0.196,-2.87 -0.422,-4.14c-0.076,-0.47 -0.287,-0.96 -0.302,-1.48h0.181l0.226,-0.21c-0.105,-0.15 -0.346,-0.13 -0.467,-0.26c-0.136,-0.15 0.211,-1.29 -0.467,-1.15l0.105,-0.3h-0.618c-0.135,-0.26 0.211,-0.2 0.211,-0.26c-0.015,-0.4 -0.557,-0.26 -0.603,-0.29zM99.218,50.82c-0.06,-0.12 0.06,-0.28 0,-0.4c-0.136,-0.35 -0.422,-0.65 -0.452,-1.05l-0.302,0.11c0.257,0.43 -0.286,1 -0.271,1.4c0,0.13 0.347,0.82 0.271,0.88l-0.512,0.21l0.603,-0.09c0,0 0.211,0.86 -0.091,0.77c-0.045,-0.16 -0.12,-0.57 -0.346,-0.56c-0.558,0.05 -0.935,0.78 -0.332,1.12c0.302,-0.27 0.799,-0.59 1.1,-0.15c0.091,0.14 0.061,0.31 0.106,0.4c0.286,0.47 0.995,2.06 1.115,2.46c0.06,0.21 -0.015,0.73 0.377,0.76c0.06,0 0.045,-0.16 0.075,-0.17c0.091,-0.05 0.196,0.06 0.287,-0.09l-0.317,-0.11l0.317,-0.36c-0.121,0 -0.257,-0.05 -0.302,-0.17c-0.166,-0.49 -0.105,-1.49 -0.241,-1.97c-0.015,-0.06 -0.271,-0.03 -0.181,-0.32l0.211,-0.15c-0.467,0.01 -0.196,-0.75 -0.226,-0.82c0,0 -0.151,-0.02 -0.181,-0.09c-0.12,-0.23 -0.181,-0.49 -0.316,-0.72l0.211,-0.1c-0.437,-0.19 -0.302,-0.4 -0.422,-0.7c-0.03,-0.09 -0.166,-0.08 -0.181,-0.11zM93.807,50.86h-0.618c-0.045,0.25 -0.211,0.43 0.045,0.61l0.151,-0.21c-0.09,0.53 0.121,1.3 -0.211,1.71l0.211,0.11l-0.211,0.26c0.362,0.06 0.226,0.88 0.407,1.21c-0.512,0.18 -0.03,0.24 0,0.3c0,0.03 0.106,0.58 0.121,0.64c0.03,0.31 -0.076,0.7 -0.061,0.84c0.061,0.36 0.483,-0.09 0.483,-0.12c0,-0.13 -0.121,-0.28 -0.106,-0.4c0,-0.08 0.226,-0.12 0.302,-0.23c0.18,-0.24 0.195,-0.8 0.18,-1.12c-0.015,-0.32 -0.361,-0.87 0.031,-0.96c-0.332,-0.22 -0.166,-0.47 -0.106,-0.79l-0.211,0.11l-0.196,-1.52l0.302,-0.26h-0.181l0.075,-0.21h-0.256l-0.151,0.21v-0.19zM94.757,61.27c-0.588,0 -0.031,0.61 -0.031,0.78c0,0.15 -0.241,0.36 -0.165,0.58c0.392,0.07 0.482,-0.95 0.407,-1.04h-0.302l0.106,-0.32zM92.194,63.85c-0.075,-0.13 0.046,-0.33 -0.075,-0.39c-0.618,0.15 -0.437,0.87 -0.98,0.84v0.31l0.211,-0.1c-0.105,0.47 0.302,0.82 -0.316,1.09l0.211,0.36l-0.211,0.11l0.196,0.05c-0.226,0.32 0.075,0.22 0.105,0.33c0.106,0.33 0.076,1.32 0.015,1.65l0.196,0.1l-0.301,1.04l0.347,0.26c0.18,-0.23 -0.031,-0.61 -0.046,-0.79c0,-0.04 0.166,-0.03 0.181,-0.09c0.045,-0.21 -0.271,-0.73 0.121,-0.94c0.03,-0.09 -0.166,-0.02 -0.196,-0.11c-0.045,-0.15 0.09,-2.3 0.12,-2.73c0,-0.17 0.136,-0.29 0.136,-0.39c0,-0.14 -0.211,-0.34 -0.06,-0.58c0.211,0.15 0.256,0.21 0.512,0.11c0.045,-0.17 -0.151,-0.06 -0.181,-0.13zM125.262,94.5c-0.603,0 -0.768,0.11 -0.618,0.73l0.468,-0.11l0.15,-0.64z" fill="black"/>
<path id="Vector_1258" d="M66.103,83.66l-0.105,0.31c0.618,0 1.296,0.42 1.447,1.09l-0.196,0.09c0.301,0.39 -0.076,0.5 -0.091,0.53c-0.09,0.41 0.121,0.94 0.076,1.25c-0.03,0.21 -0.498,1.27 -0.407,1.41h0.557l0.121,0.21l0.106,-0.21c0.391,0.25 0.572,-0.08 0.618,-0.09c0.045,0 0.979,-0.02 1.024,0c0.347,0.03 0.603,0.45 0.422,0.72c-0.06,0.1 -0.271,0.08 -0.256,0.16c0.03,0.16 0.287,0.27 0.302,0.33c0,0.05 0.015,0.76 0,0.8c-0.015,0.07 -0.543,0.16 0,0.32l-0.302,0.43l0.317,0.04c-0.166,0.4 0.181,0.52 0.196,0.61c0.045,0.15 0.015,0.49 0.045,0.52c0.09,0.15 0.98,1.07 1.191,1.26c0.12,0.1 0.437,0.21 0.497,0.32c0.09,0.15 -0.181,0.37 0.09,0.51l0.211,-0.21c0.136,0.17 0.076,0.35 0.302,0.48c0.226,0.14 0.346,-0.13 0.166,0.35l0.301,-0.21c0.166,0.47 0.452,0.94 0.723,1.38c0.106,0.17 0.211,0.34 0.317,0.52c0.105,0.15 0.603,0.65 0.497,0.8c-0.03,0.05 -0.226,-0.06 -0.196,0.12h0.302c-0.015,0.79 0.377,1.51 0.211,2.3l-0.256,-0.22c-0.272,0.35 0.286,0.35 0.316,0.57c0.03,0.19 -0.015,1.16 -0.271,1.15c0.527,0.45 0.573,2.67 0.286,3.25c-0.03,0.06 -0.588,0.45 -0.588,0.5c0.181,0.16 0.377,0.45 0.317,0.71c-0.015,0.08 -0.211,0.06 -0.211,0.12c0,0.11 0.136,0.25 0.09,0.4c-0.045,0.18 -0.618,0.45 -0.814,0.38l0.317,-0.11v-0.32l-0.407,-0.04c0.151,-0.35 0,-0.58 0.407,-0.73l-0.211,-0.05l0.06,-0.42l-0.377,-0.11l0.211,-0.41l-0.452,0.09c-0.467,-0.48 -0.135,-1.2 -0.12,-1.71c0.015,-0.72 -0.618,-0.14 -0.573,-0.58l-0.166,0.21l-0.663,-0.1l0.106,0.21c-0.196,-0.03 -0.468,0.04 -0.664,0c-0.09,-0.02 -0.06,-0.21 -0.12,-0.21c-0.151,0 -0.226,0.16 -0.302,0.18c-0.075,0.01 -0.678,-0.32 -0.874,-0.27l0.106,-0.22c-0.181,-0.1 -0.468,0.03 -0.603,-0.01c-0.045,-0.02 -0.724,-0.64 -0.754,-0.69c-0.105,-0.16 -0.105,-0.5 -0.256,-0.66c-0.075,-0.09 -0.241,0 -0.241,0c-0.076,-0.09 -0.06,-0.5 -0.121,-0.64c-0.06,-0.12 -0.226,-0.12 -0.271,-0.23c-0.136,-0.27 0.06,-1.91 0.181,-2.27c0.045,-0.13 0.301,0 0.09,-0.4l0.317,0.11c-0.272,-0.37 0.181,-1.1 0.512,-1.05l-0.105,-0.21l0.618,-0.11l-0.211,0.21l0.211,0.26c-0.302,0.23 -0.437,0.09 -0.513,0.52c-0.06,0.32 0.287,-0.12 0.211,0.21c-0.135,0.47 -0.512,0.8 -0.316,1.31l-0.407,0.16l0.512,-0.04l-0.03,0.41l-0.181,0.06c0.347,0.1 0.211,0.47 0.407,0.73l-0.211,0.15c0.543,0.24 0.678,1.26 1.432,1.17l0.075,0.3c0.468,0 0.89,0.17 1.221,0.3c0.076,-0.36 0.211,-0.1 0.392,-0.15c0.452,-0.09 0.799,-0.15 1.206,-0.38l-0.211,-0.73l0.316,-0.04l-0.316,-0.11l0.301,-0.32c-0.045,-0.16 -0.331,-0.47 -0.346,-0.59c-0.031,-0.2 0.165,-0.88 0.12,-1.15c0,-0.12 -0.211,-0.37 -0.196,-0.38l0.513,-0.15c-0.302,-0.4 -0.121,0.15 -0.362,0.04l-0.166,-0.15v-0.36h-0.286c0.135,-0.29 -0.181,-0.37 -0.317,-0.57c-0.09,-0.13 -0.497,-0.88 -0.618,-0.94c-0.12,-0.06 -0.361,0.22 -0.316,-0.15c-0.166,0.05 -0.121,0.24 -0.362,0.3c-0.196,0.05 -0.166,-0.03 -0.075,-0.15l-0.181,-0.04v0.41l-0.513,0.12c-0.135,-0.38 0.151,-0.4 0.196,-0.49c0.015,-0.03 -0.075,-0.16 -0.03,-0.24c0.076,-0.18 0.678,-0.47 0.663,-0.94c-0.437,0.2 -0.361,-0.12 -0.557,-0.29c-0.196,-0.17 -0.558,-0.12 -0.377,-0.65l-0.256,0.21c-0.347,-0.71 -1.176,-1.11 -1.161,-2.03l0.482,-0.31l-0.512,-0.04l0.211,-0.58l-0.196,-0.09c0.211,-0.52 0.286,-1.21 -0.151,-1.62c-0.407,0.34 -0.783,0.31 -1.251,0.1l-0.09,0.18l-1.673,-0.06l-0.256,0.53l0.301,0.05l-0.196,0.11c0,0.16 0.106,1 0.091,1.06c-0.015,0.06 -0.151,0.06 -0.166,0.09c-0.03,0.08 0.166,0.17 -0.136,0.23c0.287,0.07 0.226,0.23 0.211,0.5l-0.211,0.17l0.211,0.04c-0.286,0.3 -0.226,1.05 -0.618,1.09l0.211,0.16c-0.271,0.41 -0.452,0.92 -0.723,1.33c-0.091,0.14 -0.287,0.14 -0.362,0.29c-0.151,0.3 -0.166,0.41 -0.407,0.68c-0.075,0.08 -0.331,0.26 -0.331,0.28c-0.121,0.25 0.15,0.1 -0.226,0.62c-0.046,0.06 0.105,0.26 -0.016,0.44c-0.075,0.12 -0.271,0.17 -0.286,0.18c-0.015,0.03 0.091,0.2 0.06,0.33c-0.045,0.19 -0.256,1.13 -0.301,1.22c0,0 -0.241,-0.11 -0.301,0.06l0.301,0.11c-0.317,0.24 -0.03,0.56 -0.045,0.68c-0.045,0.23 -0.362,0.67 -0.362,0.99l0.196,0.09l-0.211,0.1l0.211,0.52c-0.392,0.51 -0.106,1.23 -0.302,2.09c-0.06,0.25 0.121,0.43 -0.211,0.52c0.242,0.06 0.181,0.3 0.317,0.52l-0.211,0.1c0.211,0.21 0.271,1.34 0.196,1.55c-0.045,0.14 -0.226,0.14 -0.302,0.24c-0.211,0.29 -0.09,0.56 -0.723,0.44l0.106,-0.21l-0.528,0.06c0.015,-0.23 -0.256,-0.44 -0.286,-0.53c-0.03,-0.14 0.135,-0.35 0.15,-0.52c0.091,-0.8 -0.211,-1.62 0.242,-2.38l-0.211,-0.2c0.15,-0.62 0.497,-1.53 0.211,-2.09l0.211,-0.11c-0.257,-0.68 0.301,-1.41 0.406,-1.97c0,-0.03 -0.376,-0.11 -0.211,-0.47c0.121,-0.06 0.121,0.44 0.302,0.21c0.045,-0.06 -0.075,-0.39 -0.06,-0.51c0.03,-0.28 0.196,-0.54 0.256,-0.79c0.105,-0.37 0.03,-0.79 0.331,-1.19l0.196,0.11l-0.075,-0.27c0.467,-0.22 0.166,-0.34 0.241,-0.64c0.03,-0.12 0.332,-0.26 0.407,-0.37c0.151,-0.21 0,-0.73 0.663,-0.5l-0.316,-0.36c0.392,-0.46 0.527,-1.08 0.512,-1.67l0.317,0.04l-0.317,-0.21l0.03,-1.83c0.302,-0.61 0.166,-1.34 0.844,-1.61l1.086,0.21l0.12,-0.52c0.513,0.05 0.874,0.23 1.236,-0.27c-0.09,-0.52 -0.437,0.15 -0.467,0.15c-0.076,0.02 -0.407,-0.2 -0.467,-0.29c-0.227,-0.39 0.12,-2.46 -0.106,-2.62c-0.648,0.53 -0.904,-0.12 -1.311,-0.4c-0.724,-0.48 -1.492,-0.68 -1.387,-1.79l0.302,0.21l-0.106,-0.41c1.115,-0.5 2.08,0.26 3.105,0.63z" fill="black"/>
<path id="Vector_1259" d="M55.614,102.56c0.166,0.26 0.844,0.38 0.965,0.67c0.136,0.3 0.09,0.82 0.136,1.12c0,0.06 0.165,0 0.195,0.2c0.046,0.45 -0.15,1 -0.678,1c-0.738,0 -0.663,-0.76 -0.874,-1.21c-0.151,-0.32 -0.543,-0.61 -0.784,-0.88l-0.211,0.21c-0.904,-0.65 -0.708,0 -0.979,0.47c-0.046,0.09 -0.648,0.67 -0.724,0.56l0.106,-1.05l0.211,0.22c-0.106,-0.34 0.196,-0.32 0.256,-0.41c0.06,-0.1 -0.075,-0.23 -0.03,-0.29c0.045,-0.08 0.783,-0.44 0.919,-0.47c0.332,-0.08 0.362,0.25 0.482,-0.29l1.04,0.15z" fill="black"/>
<path id="Vector_1260" d="M55.342,64.39c-0.738,0.33 0.211,1.36 -0.286,1.88c-0.09,0.09 -0.678,0.27 -0.814,0.39l-0.603,-0.6c-0.437,0.16 -0.799,0.57 -1.296,0.41l0.106,0.41l-0.513,-0.11c0.196,0.42 -0.316,0.79 -0.723,0.73l0.105,0.21c-0.105,0 -0.211,0 -0.301,0.06c-0.709,0.38 -1.583,1.28 -2.261,1.81c-0.347,0.27 -0.091,-0.19 -0.437,-0.11l0.105,0.52c-0.482,0.1 -0.904,0.79 -1.296,1.15l-0.045,-0.21h-0.317l-0.015,0.29h-0.286c0.166,0.33 -0.226,0.74 -0.512,0.54l0.105,0.31h-0.512c0.271,0.48 -0.422,0.48 -0.573,0.72c-0.106,0.19 0.316,0.69 -0.256,0.73v0.11c0.346,-0.03 0.196,0.29 0.271,0.42c0.075,0.14 0.241,0.23 0.331,0.38c0.181,0.28 0.046,0.57 0.588,0.66c0.317,0.04 0.513,-0.32 0.724,0c0.12,-0.32 0.286,-0.6 0.663,-0.43c-0.03,-0.44 0.407,-0.45 0.754,-0.65c0.226,-0.14 0.195,-0.4 0.602,-0.27l-0.09,-0.2c0.723,-0.34 1.341,-1.11 2.155,-1.17l-0.105,0.3h0.211l0.211,-0.25l-0.317,-0.26c0.347,-0.03 0.588,-0.41 0.935,-0.22v-0.31c0,0 0.226,0.12 0.301,0.09c0.045,-0.02 0.633,-0.78 0.709,-0.82c0.226,-0.12 0.964,-0.21 1.07,-0.28c0.135,-0.07 0.15,-0.28 0.226,-0.33c0.271,-0.17 0.799,-0.39 1.085,-0.58c0.105,-0.06 0.196,-0.44 0.256,-0.47c0.03,-0.01 0.166,0.09 0.286,0.03c0.649,-0.28 1.598,-1.17 2.291,-1.45c0.166,-0.08 0.437,0.16 0.513,-0.16l-0.211,-0.1c0.347,-0.03 0.407,0.03 0.573,-0.32l0.15,0.21v-0.3c0.618,0.04 0.663,-0.59 1.236,-0.44l0.106,-0.37l0.512,0.06c-0.151,-0.36 0.211,-0.44 0.211,-0.47c-0.015,-0.06 -0.135,-0.13 -0.151,-0.25c-0.015,-0.13 0.076,-0.31 0.046,-0.32c-0.061,-0.05 -0.347,0.1 -0.317,-0.11c0.407,0.05 -0.105,-0.35 0.317,-0.36c-0.106,-0.19 -0.422,-0.2 -0.513,-0.32c-0.12,-0.14 -0.06,-0.31 -0.135,-0.44c-0.091,-0.17 -0.347,-0.31 -0.287,-0.7l0.211,-0.17c-0.588,-0.06 -0.603,-0.04 -0.874,-0.48c-0.045,-0.08 -0.286,-0.03 -0.105,-0.35c0.316,-0.56 0.678,0.38 0.874,0.21c-0.106,-0.23 -0.196,-0.45 0.045,-0.62c0.377,0.23 0.738,0.36 1.025,0.73c0.12,0.16 0.105,0.36 0.211,0.48c0.256,0.31 0.919,0.58 0.678,1.08l0.317,-0.11c0.211,0.43 0.105,1.04 0.512,1.2l-0.211,0.11c0.256,0.14 0.407,0.3 0.392,0.62c-0.03,0.81 -0.693,0.85 -1.266,1.12c-0.287,0.14 -0.678,0.34 -0.965,0.49c-0.377,0.2 -0.784,0.36 -1.115,0.64c-0.121,-0.41 -0.362,-0.24 -0.151,0.1c-0.588,0.08 -0.995,0.99 -1.658,0.63l0.091,0.3h-0.181c-0.091,0.12 0.769,0.82 0.799,0.87c0.03,0.04 -0.091,0.16 -0.076,0.18c0.121,0.15 0.196,-0.06 0.543,0.57c0.166,0.32 0.603,0.69 0.814,1.13c0.135,0.29 0.15,0.68 0.392,0.97c0,0.15 -0.648,0.48 -0.317,0.77c0.106,0.09 0.437,-0.36 0.618,-0.32l0.106,0.73l-0.407,0.17l0.512,0.26c-0.181,0.5 -0.437,0.42 -0.829,0.57c-0.151,0.07 -0.286,0.23 -0.392,0.25c-0.226,0.04 -0.422,-0.25 -0.467,0.09l-0.181,-0.08c0.03,0.53 -0.346,0.4 -0.512,0.47c-0.347,0.17 -1.236,0.72 -1.538,0.76c-0.422,0.06 -0.678,-0.26 -1.055,-0.18l0.106,-0.43l0.301,0.11l-0.06,-0.53h-0.558l0.211,0.38l-0.301,0.15c-0.03,-0.18 -0.121,-0.38 -0.211,-0.55c-0.271,-0.45 -0.513,-0.94 -0.965,-1.39c-0.241,-0.24 -0.618,-0.14 -0.482,-0.67l-0.301,0.11c0.211,-0.5 -0.272,-0.67 -0.211,-1.14c0.678,-0.31 0.482,0.45 0.678,0.51l0.09,-0.21c0.241,0 0.392,0.31 0.498,0.34c0.165,0.06 0.527,-0.03 0.678,0.09c0.06,0.04 0.241,0.51 0.467,0.66c0.196,0.14 0.377,-0.15 0.166,0.35l0.196,-0.09c0.12,0.52 0.738,0.64 0.738,1.14c0.211,-0.11 0.452,-0.11 0.648,-0.21c0.031,0 0.347,-0.24 0.437,-0.29c0.513,-0.24 1.056,-0.47 1.598,-0.67c0.091,-0.57 -0.226,-0.53 -0.407,-0.79c-0.166,-0.22 -0.196,-0.48 -0.301,-0.68c-0.076,-0.14 -0.437,0.03 0,-0.49c-0.663,0 -0.663,-0.69 -0.844,-0.92c0,0 -0.136,0.07 -0.302,-0.06c-0.271,-0.21 -0.346,-0.59 -0.422,-0.67c0,0 -0.181,0.05 -0.271,0c-0.181,-0.06 -0.422,-0.21 -0.573,-0.21c-0.377,0 -0.588,0.5 -0.995,0.39c0.181,0.08 -0.09,0.38 -0.12,0.4c-0.106,0.04 -0.226,-0.11 -0.271,-0.08c-0.543,0.37 -1.402,1.28 -2.035,1.25c-0.091,0.24 -0.211,0.21 -0.467,0.19l0.105,0.31c-0.527,-0.14 -0.467,0.13 -0.753,0.33c-0.332,0.24 -1.417,0.88 -1.764,1.03c-0.316,0.14 -0.723,0.06 -0.859,0.32c-0.03,0.05 0.075,0.17 0.075,0.18c-0.03,0.02 -0.18,-0.03 -0.271,0.03c-0.377,0.26 -0.678,0.75 -1.281,0.49l0.106,0.41c-0.498,-0.02 -0.588,0.62 -1.116,0.44v0.2l-0.226,-0.22c0.045,0.4 -0.256,0.47 -0.588,0.52c-0.799,0.09 -1.1,-0.21 -1.597,-0.77c-0.347,-0.4 -0.679,-0.91 -0.965,-1.31c-0.181,-0.24 -0.332,-0.52 -0.603,-0.67l0.211,-0.41l-0.211,-0.1l0.106,-0.56l0.211,0.1v-0.42l0.256,0.1c0.181,-0.06 0.06,-0.27 0.075,-0.29c0.061,-0.04 0.799,-0.38 0.95,-0.45c0.482,-0.23 0.557,-0.49 0.919,-0.88c0.196,-0.21 0.859,-0.55 1.131,-0.76c0.196,-0.15 0.422,-0.55 0.708,-0.68c0.226,-0.11 0.377,0.3 0.618,0.1c0.286,-0.29 -0.045,-0.26 -0.211,-0.42c0,-0.06 0.814,-0.38 0.422,-1.03c-0.045,-0.08 -0.136,0.04 -0.256,-0.06c-0.166,-0.16 -0.272,-0.48 -0.302,-0.49c-0.075,-0.08 -0.663,-0.26 -0.889,-0.47c-0.015,-0.02 0.06,-0.11 0.045,-0.17c-0.03,-0.04 -0.241,0.03 -0.06,-0.23l-0.301,0.1c-0.392,-0.44 -0.829,-0.87 -1.251,-1.29c-0.121,-0.13 -0.317,-0.11 -0.422,-0.22c-0.166,-0.16 -0.121,-0.57 -0.407,-0.54c0.286,-0.31 0.391,-0.16 0.211,-0.63c0.331,-0.15 0.452,0.22 0.482,0.22c1.01,0.1 1.191,0.24 1.899,0.79c0.784,0.6 1.763,0.82 2.336,1.6c0.075,0.11 0.226,0 0.241,0c0.121,0.14 0.061,0.48 0.483,0.66c0.482,0.21 0.286,-0.11 0.316,-0.15c0.256,-0.41 0.588,-0.35 0.859,-0.47c0.106,-0.05 0.648,-0.4 0.814,-0.49c0.075,-0.05 0.09,-0.26 0.181,-0.29c0.181,-0.04 0.332,0.44 0.678,0.21l-0.301,-0.21c0,-0.29 0.271,-0.45 0.512,-0.41l-0.105,0.3c0.467,-0.04 0.211,-0.18 0.165,-0.41c-0.015,-0.07 0.031,-0.19 0.031,-0.19c-0.046,-0.05 -0.242,-0.05 -0.332,-0.11c-0.588,-0.5 -0.497,-0.23 -0.98,-0.5c-0.196,-0.11 -0.422,-0.52 -0.452,-0.53c-0.557,-0.17 -0.301,-0.17 -0.723,-0.41c-0.181,-0.11 -0.166,-0.05 -0.528,-0.3c-0.211,-0.16 -0.557,-0.32 -0.784,-0.46l0.091,-0.3c-0.482,0.19 -0.452,-0.15 -0.678,-0.31c-0.422,-0.27 -1.538,-0.29 -1.854,0.2h-0.106l-0.045,-0.21h-0.211c0.091,0.41 -0.151,0.26 -0.271,0.35c-0.317,0.24 -0.633,0.59 -0.874,1h-0.196l-0.061,-0.21l-0.361,0.1c0.12,-0.24 0.09,-0.51 0.211,-0.76c0.015,-0.03 0.497,-0.56 0.527,-0.57c0.076,-0.03 0.256,0.13 0.302,0.09l0.06,-0.41c0.181,-0.14 0.151,0.33 0.256,0.21c0.121,-0.14 0.106,-0.33 0.422,-0.55c0.92,-0.62 2.261,-0.66 3.195,-0.1c1.266,0.76 2.487,1.49 3.919,2l1.507,0.85c0.136,-0.21 0.468,-0.5 0.468,-0.1c0.165,-0.08 0.331,-0.13 0.512,-0.11l-0.317,-0.3c0.829,-0.17 0.724,0.1 0.302,0.62l-0.151,-0.21c-0.181,0.21 -0.226,0.48 -0.573,0.41c0.166,-0.23 0.211,-0.05 0.211,-0.41z" fill="black"/>
<path id="Vector_1261" d="M51.574,52.56c0,0 0.03,0.11 0.06,0.12c0.423,0.2 1.04,0.47 1.251,0.99c0.106,0.24 0.302,1.4 -0.15,1.18c-0.317,-0.13 0.196,-0.15 0.105,-0.25c-0.452,-0.06 -0.814,-0.7 -1.16,-1.02c-0.317,0.09 -1.327,0.14 -1.523,0.41c-0.015,0.03 0.091,0.14 0.061,0.17c-0.091,0.13 -0.573,0.27 -0.648,0.33c-0.257,0.26 -0.287,0.68 -0.407,0.91c-0.046,0.08 -0.362,0.24 -0.377,0.3c-0.03,0.25 0.256,0.63 0,0.93l0.166,0.06l-0.061,0.17c0.211,0.06 0.407,0.17 0.588,0.29c0.513,0.38 0.889,0.76 1.387,1.13c0.03,0.02 0.286,0 0.422,0.14c0.241,0.26 0.075,0.64 -0.196,0.73c-0.226,0.08 -0.422,-0.09 -0.588,-0.06c-0.542,0.09 -0.708,0.18 -1.371,0.04c-0.302,-0.06 -0.739,-0.44 -0.995,-0.54c-0.106,-0.05 -0.241,0.04 -0.287,0.01c-0.195,-0.1 -0.693,-0.97 -0.798,-1.23c-0.121,-0.28 -0.317,-1.44 -0.257,-1.7c0.015,-0.07 0.181,-0.07 0.181,-0.09c0.03,-0.06 -0.105,-0.21 -0.075,-0.33c0.03,-0.12 0.226,-0.12 0.271,-0.2c0.076,-0.1 0.091,-0.44 0.211,-0.67c0.151,-0.25 0.648,-0.72 0.724,-0.89c0.045,-0.09 -0.061,-0.2 -0.091,-0.29c0.588,-0.09 1.085,-0.67 1.658,-0.21c0,-0.76 1.372,-0.64 1.824,-0.49z" fill="black"/>
<path id="Vector_1262" d="M68.547,53.28c0.075,0.12 0,0.42 0.241,0.54l-0.211,0.05c-0.045,0.26 0.03,0.17 0.196,0.26c-0.015,0.57 -0.709,1.44 -1.342,1.3l0.091,0.26c-0.136,0.03 -0.377,0.26 -0.452,0.27c-0.452,0.12 -0.694,-0.24 -1.161,-0.24c-0.151,-0.23 -0.151,-0.47 -0.03,-0.71l-0.317,0.1v-0.73l0.407,-0.1c0.091,-0.26 -0.165,-0.17 -0.195,-0.28c-0.091,-0.28 0.226,-0.4 0.331,-0.63l0.181,0.07l-0.09,-0.3c0.331,-0.3 0.693,-0.05 0.964,-0.11c0.075,-0.01 0.06,-0.18 0.121,-0.19c0.15,-0.03 0.527,0.22 0.467,-0.13h0.105c-0.015,0.37 0.588,0.37 0.694,0.55z" fill="black"/>
<path id="Vector_1263" d="M45.004,51.79l0.181,-0.09l0.226,0.35l-0.301,0.15l0.316,0.3l-0.407,0.11l0.317,0.1c-0.091,0.17 -0.061,0.46 -0.317,0.43l0.211,0.21c-0.814,0.36 -1.04,1.02 -2.004,0.52c-0.106,-0.06 0.075,-0.17 0.045,-0.22c-0.226,-0.19 -0.211,0.32 -0.317,0.22c-0.226,-0.28 -0.678,-1.31 -0.105,-1.41c-0.558,-0.22 0,-0.26 0.06,-0.35c0.06,-0.1 -0.105,-0.28 -0.045,-0.41c0.135,-0.25 0.633,-0.25 0.557,-0.55c0.453,-0.27 1.643,-0.05 1.598,0.64z" fill="black"/>
<path id="Vector_1264" d="M58.857,62.62c0.347,0.89 -0.271,0.43 -0.678,0.61c-0.211,0.09 -0.136,0.44 -0.452,0.08c0.226,-0.62 0.602,-0.49 1.13,-0.67z" fill="black"/>
</g>
</g></svg>