<svg viewBox="0 0 127 122" x="0" y="0" fill="none" xmlns="http://www.w3.org/2000/svg"><defs><clipPath id="clip1_297_2915" xmlns="http://www.w3.org/2000/svg">
<rect width="127" height="122" fill="white" transform="translate(0, 0)"/>
</clipPath></defs><g id="Isolation_Mode" clip-path="url(#clip1_297_2915)" xmlns="http://www.w3.org/2000/svg">
<path id="Vector_982" d="M63.3049,0.01v0.32h0.3086l-0.1964,-0.2c0.3507,-0.1 0.3507,0.23 0.505,0.34c0.3506,0.23 0.2384,0.09 0.533,0.44c0.1122,0.13 0.3787,0.16 0.3647,0.39c-0.0281,0.27 -0.4349,0.33 -0.0842,0.78c0.0561,0.04 0.3367,-0.58 0.6733,0.39c0.0421,0.1 -0.0701,0.24 -0.014,0.34c0.028,0.06 0.2244,0.07 0.2946,0.23c0.0981,0.23 -0.0421,0.4 0,0.52c0.014,0.09 0.3226,0.48 0.4067,0.69c0.0982,0.24 0,0.58 0.2806,0.77c-0.2104,0.1 -0.2385,0.08 -0.1964,0.36c0.4068,-0.18 0.3787,0.32 0.4068,0.61l-0.3086,0.1c0.7294,-0.13 0.4348,0.8 0.8135,1.18c-0.1542,0.1 -0.2524,0 -0.2104,0.26h0.2806c0.2665,0.28 0,1.17 0.0421,1.23c0.028,0.02 0.1823,0.02 0.2384,0.11c0.0702,0.11 0.0281,0.27 0.0842,0.38c0.028,0.05 0.1683,0.03 0.1683,0.03c0.0421,0.07 -0.1683,0.16 -0.1683,0.26c0,0.1 0.4068,1 0.4769,1.18c-0.1964,0 -0.3647,-0.08 -0.3086,0.22l0.3507,0.1l-0.1684,0.57l0.2245,0.11l-0.0982,0.34c0.0982,0.05 0.2525,0.08 0.2946,0.18c0.1402,0.31 -0.2104,0.18 -0.1964,0.35c0.5049,0.04 0.0421,0.4 0.4068,0.47c0.1122,0.44 -0.2525,0.12 -0.3086,0.36c0.4909,0.04 0.2244,0.37 0.4629,0.61l0.3508,-0.1l-0.1965,-0.2c0.3225,0.02 0.0701,-0.43 0.5045,-0.31l-0.308,-0.1v-0.16c0.28,-0.24 0.056,-0.5 0.28,-0.85c0.113,-0.17 0.225,-0.12 0.239,-0.13c0.028,-0.07 -0.154,-0.14 -0.168,-0.26c0,-0.04 0.168,-0.77 0.182,-0.81c0.112,-0.24 0.393,-0.04 0.182,-0.49h0.309c0.126,-0.27 -0.295,-0.22 -0.309,-0.35c0,-0.05 0.267,-0.64 0.309,-0.79c0.028,-0.08 0.154,-0.08 0.182,-0.17c0.126,-0.3 -0.028,-0.77 0.435,-0.97c0.617,-0.27 1.206,-0.06 1.347,0.64c0,0.05 0.028,0.55 0.028,0.57c0,0.06 -0.155,0.05 -0.169,0.12c-0.084,0.51 -0.126,1.07 0,1.58l-0.294,0.06l0.084,0.95l-0.393,0.17c0.365,0.25 0.267,0.49 0.154,0.86c-0.126,0.41 -0.07,0.77 -0.168,1.1c-0.028,0.08 -0.196,0.07 -0.196,0.13c0,0.13 0.098,0.27 0.098,0.4c0,0.17 -0.253,0.31 -0.112,0.54h-0.183l0.183,0.13c-0.084,0.14 0.028,0.35 0.014,0.44c-0.014,0.08 -0.323,0 -0.084,0.41c-0.309,0.12 -0.113,0.16 -0.155,0.37c-0.028,0.12 -0.182,0.25 -0.154,0.36c0,0.03 0.295,0.34 0.309,0.34c0.042,0 0.659,-0.1 0.799,-0.08v0.31c0.491,-0.5 0.772,0.24 1.22,0l-0.098,0.31h0.309l-0.098,-0.2l0.505,0.1l-0.099,0.32c0.786,-0.43 1.038,0.04 1.726,0.31l-0.309,0.1v0.31l0.309,-0.1c-0.084,0.15 0,0.39 -0.028,0.48c0,0.07 -0.155,0.04 -0.155,0.07c-0.042,0.11 0.085,0.21 0.071,0.27c0,0.03 -0.337,0.11 -0.295,0.33l-0.098,-0.32l-0.295,0.12l0.098,0.2c-0.392,0 -0.098,-0.5 -0.462,0.1l-0.253,-0.32l0.042,0.32c-0.266,-0.08 -0.519,-0.03 -0.785,0.01c-0.674,0.11 -0.59,0.23 -1.263,0.1c-0.449,-0.07 -0.673,0.03 -1.094,0.03c-0.182,0 -0.519,-0.23 -0.757,-0.16l0.21,0.36l-0.196,0.15l0.196,0.06c-0.463,0.33 -0.168,0.67 -0.238,1.01c-0.057,0.29 -0.365,1.05 -0.477,1.54c-0.028,0.1 -0.337,0 -0.127,0.46c0.014,0.03 0.407,0.46 0.435,0.43c0.183,-0.63 0.617,-0.03 0.66,-0.02c1.08,0.2 1.963,0.26 2.973,0.62c0.169,0.05 0.407,-0.22 0.435,0.23l0.154,-0.22c0.295,0.12 0.575,0.06 0.884,0.12c0.07,0.01 0.07,0.15 0.126,0.17c0.211,0.04 0.842,0 1.038,0.1c0.183,0.08 0.07,0.27 0.225,0.24l0.056,-0.19l1.374,0.2l-0.406,0.42c0.224,0.03 0.308,-0.2 0.505,-0.26c0.561,-0.19 1.094,0.17 1.627,0.3c0.603,0.16 1.893,0.23 2.693,0.31c0.379,0.05 0.631,-0.2 0.814,0.26c0.336,-0.34 0.967,0.03 1.318,0.06c0.295,0.03 0.715,-0.26 0.814,0.15l0.098,-0.21c0.477,0.24 1.29,0.43 1.725,0.11l0.056,0.2l0.351,-0.21l0.098,0.2c0.379,-0.26 0.337,0.07 0.435,0.1c0.252,0.07 0.884,0.14 1.15,0.11l-0.056,0.32l0.365,0.1l-0.309,0.25l0.309,0.16c0.084,0.27 -0.141,0.17 -0.183,0.26c-0.084,0.2 0.183,0.51 -0.378,0.28l-0.211,0.29l-0.701,-0.32l-0.196,0.3c-0.197,-0.02 -0.463,-0.22 -0.618,-0.25c-0.224,-0.03 -0.771,-0.05 -1.15,-0.09c-0.308,-0.04 -1.01,0.1 -1.024,-0.27l-0.449,0.21c-0.42,-0.41 -1.501,0.13 -1.935,-0.51l-0.295,0.21l-0.519,-0.21l-0.098,0.2l-0.407,-0.21h-2.286l0.098,-0.3l-0.253,-0.1l-0.196,0.31l-0.309,-0.21c0,0 -0.028,0.2 -0.112,0.21c-0.336,0.06 -1.332,-0.26 -1.655,-0.41l-0.056,0.31l-0.154,-0.31c-0.421,0.54 -0.912,-0.07 -1.066,-0.07c-0.197,0 -0.463,0.5 -0.716,-0.15c-0.084,-0.04 0,0.17 -0.098,0.19c-0.491,0.1 -1.164,-0.1 -1.655,-0.13c-0.379,-0.01 -1.683,0.03 -1.908,-0.1c-0.042,-0.03 -0.028,-0.16 -0.042,-0.17c-0.056,-0.03 -0.154,0.14 -0.252,0.16c-0.183,0.04 -0.351,-0.12 -0.547,0c-0.183,0.1 -0.309,0.48 -0.407,0.67c0.322,0.07 0.561,0.45 0.785,0.6c0.141,0.08 0.547,0.15 0.617,0.24c0.014,0.01 -0.098,0.27 0.113,0.44c0.056,0.04 0.35,0.03 0.533,0.16c0.238,0.17 0.364,0.42 0.757,0.61c0.533,0.26 0.379,0.29 0.772,0.7c0.084,0.08 1.22,1.14 1.318,1.18c0.14,0.07 0.379,0.05 0.491,0.13c0.112,0.09 0.07,0.27 0.126,0.33c0.099,0.1 0.477,0 0.281,0.34h0.393c-0.028,0.37 0.378,0.4 0.406,0.7c0.014,0.24 -0.266,0.44 -0.182,0.54c0.224,0.29 0.281,-0.48 0.309,-0.51l0.294,0.11l-0.098,0.2l0.309,0.1l-0.407,0.16c0.196,0.36 0.449,-0.09 0.603,0c0.084,0.04 0.252,0.36 0.351,0.47c0.14,0.17 0.35,-0.04 0.154,0.41l0.407,0.1l-0.197,0.42h0.604l-0.099,0.31c0.519,-0.09 0.323,0.07 0.449,0.27c0.155,0.24 0.351,0.51 0.575,0.71l-0.196,0.16c0.533,-0.13 0.407,0.77 0.799,0.64l0.113,0.5l0.308,-0.1l-0.098,0.42h0.253c-0.099,0.32 0.21,0.38 0.238,0.48c0.042,0.13 -0.042,0.31 0.056,0.44c0.028,0.05 0.463,0.27 0.673,0.56c0.141,0.21 0.099,0.51 0.113,0.54c0.378,0.87 1.066,2 1.557,2.8c0.084,0.12 0.014,0.34 0.07,0.4h0.28c-0.126,0.45 0.155,0.82 0.267,1.24c0.028,0.11 -0.042,0.27 0,0.41c0.112,0.51 0.393,0.36 0.463,0.47c0.098,0.16 -0.042,0.48 0.196,0.61c-0.561,0.27 0.028,0.2 0.056,0.25l0.463,1.49l-0.21,0.16l0.308,0.16l-0.308,0.2l0.406,0.15l-0.196,0.32l0.407,0.15l-0.295,0.16v0.2l0.309,0.06c-0.056,0.43 0.351,0.33 0.084,0.77c0.589,-0.12 0.659,0.85 0.828,1.01c0.126,0.13 0.855,0.63 1.094,0.81c0.168,0.13 0,0.35 0.421,0.15l-0.099,0.2c0.688,0.11 1.066,0.79 1.599,1.15l-0.084,0.4c0.365,-0.14 0.547,0.03 0.407,0.41l0.253,-0.2l0.308,0.63h0.253l-0.099,0.3l0.309,-0.1c0,0.34 0.196,0.63 0.365,0.91c0.238,0.42 0.926,1.12 1.122,1.49c0.168,0.32 0.21,0.47 0.575,0.79c0.21,0.2 0.126,-0.02 0.323,0.3c0.659,1.06 1.388,1.54 2.062,2.46c0.294,0.41 0.448,1.05 0.911,1.25l-0.196,0.16l0.799,0.8l-0.084,0.4c0.295,-0.17 0.351,0 0.575,0.24c0.379,0.41 0.519,0.95 0.772,1.38c0.112,0.19 0.645,0.46 0.379,0.74c0.406,0.02 0.715,0.42 0.617,0.83l0.196,-0.2c0.126,0.73 0.659,1.2 1.038,1.78c0.084,0.12 0.098,0.36 0.169,0.43c0.084,0.1 0.266,0.04 0.294,0.07c0.056,0.06 -0.014,0.26 0.042,0.37c0.084,0.15 0.435,0.53 0.477,0.7c0,0.05 -0.449,0.16 -0.309,0.46c0.183,0.03 0,-0.37 0.309,-0.16c0.267,0.19 0.323,0.63 0.435,0.74c0.098,0.1 0.294,0.09 0.351,0.15c0.014,0.01 -0.057,0.14 -0.014,0.18c0.056,0.07 0.196,0.09 0.21,0.13c0.028,0.06 0,0.47 0.028,0.6l0.309,-0.1c-0.267,0.47 0.266,0.67 0.378,0.84c0.028,0.04 -0.112,0.49 -0.028,0.6c0.211,0.27 0.141,-0.11 0.197,-0.1c0.322,0.06 0.154,0.43 0.463,0.57l-0.197,0.1c0.449,0.21 0.477,0.87 0.898,0.98l-0.098,0.25c0.308,0.08 0.35,0.87 0.421,0.97c0.07,0.1 0.35,0.1 0.378,0.12c0,0.02 -0.112,0.2 -0.028,0.39c0.084,0.2 0.351,0.01 0.14,0.44h0.407c-0.168,0.3 -0.07,0.39 0.098,0.61l-0.308,0.1c0.14,0 0.322,0.19 0.393,0.3c0.392,0.62 1.585,3.01 1.571,3.61c0,0.23 0.098,0.09 0.266,0.12l-0.308,0.15c0.505,0.19 0.631,0.55 0.603,1.09l0.294,0.05l-0.196,0.36c0.323,0.09 0.421,0.73 0.701,0.98l-0.196,0.16c0.266,-0.03 0.631,0.87 0.196,0.83v0.1c0.449,0.01 0.084,0.8 0.477,0.98l0.168,1.4c0.618,0.03 1.123,0.07 1.67,0.4l-0.099,-0.31c0.309,0.18 0.491,-0.06 0.674,-0.08c0.196,-0.01 0.435,0.16 0.603,0.13c0.126,-0.01 0.182,-0.23 0.351,-0.15l0.056,0.31c0.224,-0.36 0.589,-0.16 0.813,-0.41c0.07,0.32 0.491,0.02 0.8,0.21c0.084,-0.34 0.884,-0.19 0.827,0.2l0.309,-0.3c0.561,0.34 0.884,-0.2 1.473,-0.01l-0.197,0.25c0.267,0.23 0.267,-0.34 0.365,-0.37c0.561,0.12 1.178,-0.18 1.613,0.22l0.112,-0.22c0.534,0.04 1.207,0.12 1.726,0.07c0.224,-0.01 0.421,-0.14 0.701,-0.15c0.772,-0.03 0.225,-0.03 0.617,-0.2c0.996,-0.45 0.912,0.27 1.249,0.44c0.421,0.21 0.407,-0.14 0.645,-0.3c0.238,-0.16 0.519,0 0.477,-0.27h0.196l-0.056,0.2h0.154c-0.14,-0.17 0.505,-0.29 0.562,-0.27c0.112,0 0.182,0.22 0.308,0.24c0.056,0 0.968,-0.37 1.192,-0.29l0.323,0.52l0.351,-0.32c0.575,0.8 0.771,1.84 -0.407,1.96l0.098,0.2c-0.238,0 -0.547,0.11 -0.505,-0.2h-0.098c0.07,0.52 -0.267,0.28 -0.491,0.34c-0.014,0 -0.014,0.14 -0.07,0.16c-0.14,0.04 -0.477,-0.1 -0.505,-0.3c-0.351,0.6 -1.178,-0.09 -1.767,0.31c-0.043,-0.04 0.561,-0.88 -0.365,-0.73c-0.183,0.03 -0.197,0.36 -0.547,0.22l0.505,0.2l-0.098,0.25l-0.674,-0.15l-0.098,0.2l-0.295,-0.12l-0.098,0.2c-0.252,-0.17 -0.561,-0.04 -0.799,-0.1c-0.056,0 -0.155,-0.38 -0.575,0l0.056,-0.51c-0.197,0.08 -0.112,0.46 -0.155,0.5c-0.028,0.03 -0.659,0.1 -0.729,0.08c-0.645,-0.08 0,-0.74 -0.631,-0.7l0.056,0.62l-0.365,-0.09c-0.126,0.4 -0.982,0.05 -1.304,0.09c-0.042,0 0.028,0.07 -0.407,0.11c-0.842,0.1 -1.613,0 -2.441,0.07c-0.294,-0.22 -0.182,-0.25 -0.21,-0.6c-0.225,0.22 -0.393,0.29 -0.253,0.62c-0.35,-0.17 -0.645,0.1 -0.981,0.03c-0.267,-0.06 -0.267,-0.23 -0.281,-0.23c-0.14,0.01 -0.365,0.17 -0.631,0.17c-0.323,0.01 -0.926,-0.14 -1.094,-0.14c-0.07,0 -0.155,0.17 -0.295,0.17c-0.07,0 -0.028,-0.19 -0.112,-0.2c-0.267,-0.07 -0.758,0.25 -1.052,0.2l0.196,0.14c-0.112,0.67 -0.07,1.43 -0.294,2.07c-0.042,0.1 -0.674,1.12 -0.73,1.17c-0.098,0.07 -0.463,0.25 -0.589,0.4c-0.168,0.17 -0.308,0.64 -0.505,0.8c-0.112,0.08 -0.954,0.54 -0.996,0.59c-0.168,0.2 -0.098,0.75 -0.729,0.39l0.098,0.41h-0.309c0.239,0.52 -0.883,0.93 -1.318,1.09l-0.421,0.75l-0.28,-0.08c0,0 0.21,0.21 -0.127,0.48c-0.028,0.03 -0.126,-0.06 -0.154,-0.04c-0.238,0.13 -0.281,0.18 -0.631,0.34c-0.211,0.1 -0.267,0.43 -0.477,0.54c-0.154,0.09 -0.393,0.03 -0.407,0.05c-0.07,0.04 -0.112,0.28 -0.266,0.4c-0.099,0.07 -0.239,0 -0.253,0c-0.168,0.28 -0.561,0.74 -0.912,0.98c-0.266,0.18 -0.603,0.33 -0.925,0.6c-0.309,0.25 -0.183,0.54 -0.716,0.35c0.309,0.19 0,0.75 -0.21,0.62c-0.028,0 0.252,-0.26 -0.042,-0.2l-0.253,0.31l-0.098,-0.2c-0.07,0.33 -0.589,0.54 -0.898,0.63l-0.028,0.38c-0.617,-0.1 -0.617,0.28 -0.869,0.43c-1.235,0.82 -2.497,1.66 -3.563,2.6l-0.028,0.28h-1.01c-0.042,0.16 0.378,0.06 0.196,0.32c0,0 -0.14,-0.09 -0.252,0c-0.169,0.11 -0.239,0.38 -0.407,0.52l-0.253,-0.2c0,0.53 -0.224,0.63 -0.701,0.63v0.26l-0.603,0.16c0.252,0.38 -0.8,0.55 -0.898,0.72l0.084,0.19l-0.406,-0.2v0.41l-0.393,-0.08c-0.056,0.1 -0.07,0.21 -0.169,0.3c-0.434,0.37 -0.939,0.82 -1.346,1.15c-0.098,0.07 -0.239,0.44 -0.477,0.37c-0.14,-0.04 -0.084,-0.34 -0.253,-0.31l-0.196,0.57l-0.393,-0.04l-0.154,0.27l-0.252,-0.07l0.056,0.31c-0.113,0.1 -0.618,0.2 -0.646,0.23c-0.224,0.27 -0.154,0.68 -0.701,0.87c-1.164,0.41 -1.683,1.07 -2.721,1.71c-0.225,0.14 -0.168,0.47 -0.687,0.38l0.042,0.32l-0.253,-0.32l-0.365,0.52l-0.294,-0.1c0.056,0.61 -0.337,0.34 -0.407,0.72l-0.098,-0.41l-0.154,0.2l-0.351,-0.21c0.14,0.57 -0.295,0.55 -0.407,0.92l-0.294,-0.2l-0.099,0.2l-0.098,-0.2l0.056,0.42c-0.126,0.1 -0.308,0.1 -0.421,0.2c-0.14,0.11 -0.126,0.45 -0.336,0.3c-0.028,-0.02 0,-0.1 0,-0.13c-0.239,-0.2 -0.477,0.4 -0.505,0.65l-0.182,-0.08c-0.351,0.6 -1.347,0.54 -1.642,1.21l-0.196,-0.2c-0.042,0.49 -0.687,0.49 -0.617,0.93l-0.295,-0.2l-0.813,1.03c-0.099,-0.02 -0.267,-0.53 -0.351,-0.52c-0.463,0.06 -0.126,0.49 -0.154,0.52c-0.533,0.02 -0.365,0.57 -0.912,0.31l0.112,0.36l-0.182,0.07l0.07,0.18l-0.309,-0.2c0.028,0.56 -1.01,0.52 -1.122,1.13l-0.154,-0.2l-0.1544,0.31c-0.4068,-0.47 -0.4348,-0.15 -0.7574,-0.11c-0.0281,0 -0.3227,-0.37 -0.505,-0.4l-0.0982,0.31l-0.0561,-0.51l-0.3086,0.31c-0.2244,-0.3 -0.0982,-0.44 -0.1122,-0.65c0,-0.09 -0.1824,-0.02 -0.2104,-0.22c-0.0281,-0.27 0.0421,-0.59 0,-0.88l0.1964,0.06c0.014,-0.64 0.6733,-0.76 1.052,-1.09c0.9679,-0.84 0.8837,-0.72 1.9079,-1.35c0.35,-0.22 0.561,-0.71 1.08,-0.6c-0.239,-0.8 0.505,-0.53 0.799,-0.67c0.281,-0.13 0.856,-1.03 1.193,-1.07c0.14,-0.01 0.252,0.19 0.28,0.19c0.112,0 0.281,-0.5 0.379,-0.59c0.014,-0.01 0.421,-0.2 0.449,-0.21c0.07,-0.02 0.21,0.08 0.224,0.07c0.028,-0.03 0.098,-0.43 0.351,-0.57c0.323,-0.2 0.827,-0.13 0.856,-0.16c0.056,-0.03 0.645,-0.88 0.827,-0.97c0.126,-0.07 0.267,0.19 0.365,-0.17l0.336,0.1c0.057,-0.53 0.505,-0.37 0.519,-0.4c0.029,-0.07 -0.042,-0.27 0.029,-0.38c0.07,-0.13 0.406,-0.13 0.462,-0.18c0.127,-0.1 0.253,-0.39 0.393,-0.45c0.281,-0.1 0.519,0 0.87,-0.23c0.35,-0.23 0.701,-0.94 0.954,-1.13c0.098,-0.07 0.463,-0.11 0.659,-0.22c0.968,-0.56 1.767,-1.5 2.918,-1.74l-0.085,-0.19c0.099,-0.13 0.646,-0.31 0.674,-0.34c0.056,-0.07 -0.028,-0.27 0.028,-0.37c0.042,-0.06 0.547,-0.2 0.687,-0.29c0.224,-0.14 0.351,-0.4 0.589,-0.54c0.197,-0.11 0.744,-0.16 0.912,-0.26c0.238,-0.13 0.673,-0.61 0.898,-0.82c0.224,-0.2 0.449,-0.95 0.687,-0.37l0.323,-0.42l0.434,0.12l-0.098,-0.32l0.407,0.1l-0.098,-0.3c0.435,0 0.449,-0.43 0.575,-0.53c0.168,-0.14 0.617,-0.27 0.814,-0.52c0.028,-0.03 -0.071,-0.16 -0.057,-0.17c0.085,-0.1 1.656,-0.46 1.515,-0.63l-0.196,-0.1c0.533,0.04 0.603,-0.67 1.052,-0.42c0.182,-0.34 0.533,-0.77 0.968,-0.61l-0.309,-0.31c0.112,0 0.239,0.03 0.337,-0.02c0.084,-0.02 0.631,-0.51 0.743,-0.58c0.323,-0.19 0.702,-0.02 0.898,-0.53l0.351,0.2l-0.056,-0.41c0.126,-0.2 0.448,-0.2 0.561,-0.27c0.336,-0.23 0.392,-0.27 0.785,-0.49c0.183,-0.1 0.365,-0.57 0.463,-0.65c0.042,-0.05 0.828,-0.25 0.968,-0.46l-0.084,-0.19l0.715,-0.1l-0.196,-0.41l0.238,0.1c0,0 0.042,-0.18 0.126,-0.21c0.463,-0.12 0.435,0.21 0.744,-0.47l0.407,0.05l-0.197,-0.3c0.183,-0.21 0.856,-0.3 0.898,-0.32c0.028,-0.03 0.196,-0.52 0.281,-0.6c0.21,-0.19 0.561,-0.23 0.701,-0.35c0.505,-0.39 0.94,-1.11 1.557,-1.29l-0.098,-0.32c0.112,-0.01 0.757,-0.1 0.785,-0.13c0.084,-0.07 0.126,-0.32 0.225,-0.41c0.196,-0.18 0.743,-0.3 0.715,-0.64h0.309v-0.36c0.561,0.13 0.996,-1.52 0.799,-1.75l-0.547,-0.1l-0.042,0.2l-0.449,-0.42c-0.365,0.5 -1.332,0.19 -1.879,0.42l-0.197,-0.42c0.028,0.15 0.126,0.5 -0.098,0.52l-0.309,-0.52l-0.252,0.62l-0.098,-0.2l-1.684,0.2v-0.42c0,0.23 -0.28,0.18 -0.112,0.4l-0.252,0.12c-0.084,-0.23 -0.323,-0.3 -0.561,-0.32l0.098,0.32c-0.239,-0.07 -0.379,0.07 -0.449,-0.2c-0.519,0.51 -1.22,-0.34 -1.627,0.41c-0.673,-0.33 -1.669,-0.04 -2.441,-0.01c-0.21,0 -0.393,0 -0.617,0.01c-0.295,0 -0.561,-0.08 -0.856,0l0.197,-0.2c-0.309,0.07 -0.533,0.06 -0.814,-0.1v0.32c-0.308,0.08 -0.112,-0.32 -0.463,-0.22l-0.21,0.3c-0.365,-0.18 -0.954,0.09 -1.291,0.02c-0.14,-0.03 -0.098,-0.36 -0.322,-0.32l0.056,0.32c-0.561,0.15 -0.519,-0.42 -1.038,-0.3c-0.028,0 -0.379,0.35 -0.533,0.41l-0.098,-0.2c-0.253,0.3 -0.758,0.07 -1.108,0.1c-0.646,0.04 -1.277,0.2 -1.922,0.21l-0.098,-0.41c-0.099,0 0,0.16 -0.099,0.19c-0.266,0.1 -1.458,0.21 -1.725,0.18c-0.182,-0.03 -0.196,-0.36 -0.294,0.04c-0.099,-0.12 -0.477,-0.22 -0.618,-0.18c-0.098,0.03 -0.168,0.33 -0.687,0.18c-0.112,-0.02 0.028,-0.38 -0.421,0c-0.112,-0.42 -0.659,0.08 -0.996,0c-0.098,-0.01 0,-0.32 -0.266,-0.21l-0.056,0.31c-0.365,-0.11 -0.491,-0.2 -0.702,-0.51l0.057,0.41c-0.071,0.08 -1.193,0.06 -1.347,-0.01c-0.253,-0.13 -0.07,-0.39 -0.267,-0.4l-0.056,0.41l-0.252,-0.2v0.32h-1.417l0.196,-0.16l-0.308,-0.16v0.4l-0.253,0.12l-0.154,-0.3l-0.842,0.3c-0.014,-0.27 -0.841,-0.39 -1.023,-0.36c-0.099,0 -0.183,0.2 -0.239,0.16c0,0 0.028,-0.14 -0.084,-0.2c-0.168,-0.07 -0.449,-0.03 -0.631,-0.22c-0.113,0.39 0.449,0.28 0.056,0.62l-0.603,-0.32v0.32l-0.463,-0.32v0.32c-0.519,-0.2 -1.417,0.2 -1.852,0c-0.098,-0.04 -0.14,-0.29 -0.35,-0.29c-0.099,0 -0.618,0.27 -0.87,0.33c-0.281,0.06 -1.1504,0.16 -1.0943,-0.24c-0.1683,-0.03 -0.3366,0.31 -0.3646,0.31c-0.2245,0.02 -0.7856,-0.06 -0.9398,-0.21v0.31c-0.1964,-0.07 -0.477,-0.17 -0.6874,-0.17c-0.3507,0 -1.3886,0.36 -1.5009,-0.03c-0.3927,0.2 -0.7153,0.32 -0.9538,-0.1l-0.0561,0.32h-2.6791l-0.0562,-0.42l-0.3085,0.32l-0.5471,-0.1v0.31c-0.2385,-0.09 -0.3787,-0.14 -0.3507,-0.41c-0.2104,-0.06 -0.1963,0.28 -0.3226,0.31c-0.1823,0.04 -0.8416,0.09 -0.7434,-0.21h-0.0982c-0.1683,0.67 -0.505,-0.16 -0.9118,-0.22v0.42c-0.533,-0.03 -1.052,0.15 -1.585,-0.1c-0.0281,0 -0.1122,0.51 -0.2946,0l-0.3506,0.21c0.0701,-0.58 -0.3647,-0.24 -0.4068,0.1l-0.9539,-0.21l0.0281,0.15l-0.1824,0.05l-0.0561,-0.2c-0.1683,0.35 -0.9959,0.37 -1.3185,0.1l-0.0982,0.21l-0.0982,-0.51l-0.3226,0.51h-2.7352l-0.0982,0.21l-0.6032,-0.21c-0.2104,0.43 -1.0801,0.21 -1.4869,0.26c-0.8416,0.1 -1.6551,0.34 -2.5669,0.35c-0.2525,0 -0.519,-0.05 -0.7574,-0.1l0.0981,0.2c-0.2524,0.09 -0.7153,-0.07 -0.7153,0.32l-0.0982,-0.2l-0.3086,0.2l-0.0982,-0.32v0.42l-0.5611,-0.32l0.0561,0.32h-0.2945l-0.1684,-0.42l-0.1543,0.42c0.0842,-0.37 -0.3085,-0.53 -0.4067,-0.2l0.1963,0.2c-0.1963,0.01 -0.7013,-0.13 -0.8416,-0.1c-0.0982,0.01 -0.0841,0.22 -0.2244,0.28c-0.0561,0.03 -0.5611,-0.07 -0.7154,-0.06c-0.6873,0.09 -0.3506,0.03 -0.8977,-0.02c-0.1964,-0.02 -0.4348,0.15 -0.6593,0.1l0.0982,-0.83c-0.6452,-0.2 -1.2484,-0.23 -1.0099,0.61l-0.2946,0.06l0.1964,0.26c-0.5891,0.32 -0.4629,-0.43 -0.8136,-0.26l0.0982,0.36h-0.3927v-0.23c-0.1403,-0.34 -0.2946,0.27 -0.4489,0.33c-0.1824,-0.4 -0.4909,-0.3 -0.8136,-0.1l-0.1543,-0.22l-0.042,0.2l-0.7575,-0.41l0.1964,0.41c-0.4068,0.2 -1.1222,-0.26 -1.2624,0.22l-0.1543,-0.22l-0.0982,0.2c0.0561,-0.38 -0.5611,-0.2 -0.5892,-0.23c-0.0701,-0.04 -0.0561,-0.37 -0.3226,-0.28l0.1964,0.41c-0.3647,-0.24 -0.5471,0.1 -0.5751,0.1c-0.4629,0.1 -0.8837,-0.04 -1.3045,-0.2l-0.0982,0.32c-0.5891,-0.28 -1.2063,0.11 -1.8235,0l-0.1122,-0.32l-0.0561,0.32c-0.4349,-0.15 -1.0941,0.19 -1.3186,-0.32l0.505,-0.26c-0.1403,-0.27 -0.1964,-0.35 -0.0982,-0.67l-0.1964,-0.1c0.3507,0 0.7294,0.16 1.01,-0.1l0.1543,0.32l0.0982,-0.2l0.3086,0.21c0.3506,-0.68 0.8696,-0.04 1.1923,-0.03c0.2104,0 0.5189,-0.14 0.7855,-0.07v-0.41h0.4067c-0.1543,0.13 -0.042,0.84 0.0982,0.73c0.0421,-0.03 -0.0841,-0.25 0.0982,-0.2l0.1543,0.31l0.2104,-0.4l0.6593,0.09v-0.52h0.3086v0.32l0.6031,-0.1c-0.0982,0.25 -0.0561,0.45 0.2525,0.51c0.2385,-0.21 -0.1543,-0.21 -0.1543,-0.26c0.0281,-0.18 0.2245,-0.31 0.4068,-0.25l-0.1964,-0.2l0.3086,0.31c0.2525,-0.18 0.4629,-0.37 0.8136,-0.31l-0.0982,0.31l0.4489,-0.21l0.4628,0.31v-0.41l0.1403,0.2l0.5611,-0.42c-0.0842,0.23 0.4769,0.37 0.6032,0.36c0.3647,-0.01 0.0561,-0.16 0.1543,-0.36l0.0981,0.62c0.1263,-0.49 0.6453,-0.3 0.8557,-0.42c0,0 -0.1122,-0.22 0.0561,-0.3l0.1543,0.42l0.1964,-0.06l-0.0982,-0.26l0.3927,-0.1c0.1263,0.49 0.5331,0.56 0.8276,0.15c-0.4488,-0.13 -0.1122,-0.32 0.1543,-0.36c0.0281,0 0.1543,0.53 0.3507,0.51c-0.0421,-0.28 0.0421,-0.3 0.2525,-0.41l0.1543,0.2v-0.3h0.3927l0.1122,0.3c0.0141,-0.44 0.4349,-0.11 0.7435,-0.4c0.3226,0.01 0.4629,0.49 0.547,0.5c0.2245,0.06 0.505,-0.11 0.7434,0l-0.3085,-0.26c0.2104,-0.62 0.547,-1.01 1.0099,-0.35v-0.52c0.3366,-0.14 0.4348,0.2 0.4769,0.22c0.3507,0.07 0.6172,-0.45 1.052,-0.22l-0.0982,-0.31l0.3507,0.2c0.2245,-0.51 1.0801,-0.14 1.4308,-0.13c0.1823,0 0.3086,-0.17 0.4769,-0.16c0.1543,0 0.2805,0.25 0.4769,0.19c-0.0982,-0.2 0,-0.29 0.1543,-0.41l0.0982,0.21h0.2104l0.1122,-0.21l0.4068,0.1l0.1403,0.41l0.0981,-0.61l0.5611,0.21l0.1122,-0.21c0.477,0.2 0.9679,-0.28 1.4308,0.02l0.0982,0.47l0.2244,0.13l0.2104,-0.61l0.4349,0.1l0.2104,-0.3l0.1542,0.2l0.1543,-0.31c0.2105,0.34 0.3647,0.01 0.6172,0c0.2946,-0.02 0.6593,0.04 0.9539,0.1v-0.32l0.7013,0.12v0.41l-0.2525,-0.1l-0.0561,0.2c0.1964,0 0.3928,0.27 0.5611,0.27c0.533,0 0.1823,-0.44 0.1964,-0.48c0.1823,-0.28 0.3226,-0.28 0.547,-0.36c0.0281,0 0.0281,-0.13 0.0421,-0.13c0.1683,-0.04 0.6733,0.07 0.8416,0.19l-0.0561,-0.2h0.2525c0.0701,0.21 0.1122,0.24 0.3507,0.2l-0.0982,-0.2c0.3366,-0.19 0.4488,0.07 0.7574,0.1c0.6874,0.05 1.8095,-0.17 2.5249,-0.17c0.6733,0 1.7674,0.38 2.3425,-0.03l0.0982,0.18c0.5751,-0.25 1.1782,-0.08 1.7814,-0.3c0,0.22 -0.2946,0 -0.1964,0.32l0.1683,0.03c0,0.48 0.7154,1.26 0.2245,0.12c-0.014,-0.34 0.8977,-0.42 1.1782,-0.44c0.6874,-0.06 1.3186,0.06 2.034,0.04c0.3366,0 0.8976,-0.18 1.1926,-0.15c0.042,0 0.406,0.51 0.463,0l0.154,0.2c0.07,-0.36 0.491,-0.09 0.757,-0.1l-0.252,0.51l0.757,-0.41l-0.407,-0.1l0.155,-0.2c0.364,0.1 0.575,0.3 0.954,0.1l-0.309,0.25c0.238,0.47 0.842,0.39 0.603,-0.25h0.716l0.056,0.31l0.21,-0.31c0.239,0.18 0.084,0.14 0.056,0.25c-0.084,0.23 -0.224,0.37 0.154,0.47l0.463,-0.27l-0.21,-0.55c0.477,-0.16 0.645,0.28 1.052,0.2c0.07,0 0.084,-0.39 0.266,-0.2c0.057,0.05 -0.266,0.35 0.057,0.31l0.056,-0.41h0.294l0.112,0.44c0.071,0.21 0.463,-0.04 0.407,-0.14l-0.196,-0.2c0.449,0 0.575,0.58 0.856,0h0.196l0.07,0.18l0.547,-0.4c0.323,0.3 0.828,-0.05 0.856,0.42l0.098,-0.42c0.294,0.2 0.673,-0.15 0.757,0.22l0.351,-0.22c0.056,0.45 0.491,0.37 0.814,0.32l-0.099,-0.2h0.197l0.21,0.31l-0.042,-0.31l0.505,-0.12l0.056,0.22l0.253,-0.2l0.196,0.21c0.365,-0.1 0.631,-0.2 1.024,-0.23c0.477,-0.02 0.87,0.13 1.305,0.15c0.182,0 0.378,0.1 0.575,0.07l-0.197,-0.2c0.758,0.17 1.571,-0.17 2.287,0.2l0.14,-0.2l0.056,0.2c0.168,-0.26 0.337,-0.27 0.603,-0.29c0.225,0.06 -0.07,0.36 0.197,0.29c0.168,-0.05 0.252,-0.13 0.35,-0.26l-0.308,-0.16c0.294,0.03 0.575,-0.14 0.659,0.2l0.112,-0.21c0.491,0.21 0.94,-0.03 1.403,0c0.351,0.01 0.729,0.2 1.024,0.2c0.35,0 0.701,-0.24 1.094,-0.1l0.112,0.41l0.351,0.1c-0.084,-0.23 -0.07,-0.74 0.252,-0.71c0.323,0.03 -0.154,0.94 0.407,0.93v-0.63c0.421,-0.27 0.828,-0.19 1.262,-0.2l-0.196,0.31l0.337,0.1c0.182,-0.24 0.322,-0.18 0.168,-0.51h0.505l-0.196,0.1l0.252,0.2l0.098,-0.31l0.056,0.31h0.309l-0.098,-0.31l0.252,0.2l0.056,-0.22l0.253,0.22l0.449,-0.32l0.098,0.32c0.028,-0.46 0.533,-0.23 0.828,-0.26c0.238,-0.03 0.42,-0.17 0.743,-0.16c0.491,0 0.814,0.43 1.22,-0.1l-0.056,0.26l0.197,0.06v-0.32c0,0 1.024,0.19 1.164,0.17c0.126,-0.01 0.196,-0.23 0.294,-0.24c0.085,0 0.295,0.21 0.491,0.19c0.07,0 0.042,-0.19 0.127,-0.2c0.21,-0.06 1.122,0.08 1.29,0.08c0.154,0 0.281,-0.24 0.477,-0.18l-0.084,0.18l0.533,0.32l0.266,-0.26c-0.603,-0.27 0.197,-0.24 0.449,-0.2c0.098,0 0.183,0.16 0.309,0.16c0.028,-0.22 0.799,-0.27 1.024,-0.26c0.07,0 0.14,0.1 0.196,0.14c0.225,0 0.267,-1.28 0.225,-1.47c-0.042,-0.15 -0.253,-0.71 -0.379,-0.75c0.252,-0.57 -0.056,-0.4 -0.14,-0.56c-0.239,-0.44 -0.225,-1.3 -0.365,-1.57c-0.351,-0.67 -0.379,-0.97 -0.631,-1.57c-0.028,-0.07 -0.309,-0.04 -0.169,-0.25c0.028,-0.03 0.295,0.05 0.197,-0.32h-0.281l-0.028,-0.3h-0.393c-0.098,-0.24 0.085,-0.58 -0.21,-0.52l0.309,-0.32l-0.407,-0.05c0.336,0 0.042,-0.39 -0.056,-0.56c-0.084,-0.13 -0.463,-0.44 -0.533,-0.54c-0.07,-0.09 0.35,-0.4 -0.225,-0.46c-0.056,-0.08 0,-0.26 0,-0.3c-0.449,-1.03 -0.954,-2.32 -1.641,-3.31c-0.337,-0.48 -0.828,-0.45 -0.463,-1.38l-0.252,0.2l-0.098,-0.1c-0.057,-0.1 0.042,-0.23 0,-0.31c-0.548,-0.9 -1.038,-1.93 -1.571,-2.9c-0.183,-0.34 -0.548,-0.51 -0.491,-1.01l-0.183,0.08c-0.35,-0.5 -0.673,-1.01 -0.968,-1.54c-0.084,-0.15 0.07,-0.05 -0.196,-0.41c-0.267,-0.36 -0.547,-1.05 -0.589,-1.1c-0.042,-0.04 -0.239,-0.04 -0.337,-0.11c-0.393,-0.32 -0.098,-0.76 -0.154,-0.83l-0.309,0.1l0.098,-0.31c-0.533,0.04 -0.729,-0.9 -0.939,-1.21c-0.449,-0.65 -1.094,-1.12 -1.431,-1.99c-0.042,-0.1 0.07,-0.27 0.042,-0.3l-0.393,-0.17l0.098,-0.35c-0.14,0.24 -0.645,-0.25 -0.687,-0.33c-0.07,-0.14 0.028,-0.36 -0.042,-0.47c-0.028,-0.05 -0.533,-0.17 -0.589,-0.37l0.309,-0.06l-0.183,-0.11l0.084,-0.2c-0.715,0.37 -0.911,-0.7 -1.122,-1.25l-0.308,0.06c-0.127,-0.45 -0.449,-0.71 -0.688,-1.05c-0.869,-1.26 -1.613,-2.87 -2.805,-3.94c-0.168,-0.16 -0.421,-0.17 -0.561,-0.37c-0.098,-0.16 0,-0.31 -0.042,-0.37c-0.042,-0.06 -0.603,-0.34 -0.716,-0.51c-0.196,0.35 0.309,1.01 0.323,1.31c0,0.25 -0.154,1.14 -0.07,1.51c0.014,0.08 0.21,0.07 0.21,0.13c0,0.13 -0.14,0.3 -0.112,0.5c0,0.03 0.252,0.28 0.309,0.31c-0.267,0.41 -0.113,0.88 -0.127,1.37c-0.028,0.66 0,0.3 0.085,0.86c0.098,0.49 0.042,0.85 -0.015,1.34c-0.028,0.22 0.211,0.35 -0.14,0.45c0.379,0.24 0.267,0.94 0.253,1.39c0,0.29 -0.042,0.51 -0.113,0.81c-0.07,0.31 -0.028,0.94 -0.238,1.12l0.084,0.25h-0.182v0.21c0.365,-0.06 0.07,0.46 0.196,0.73h-0.407l0.197,0.1c0.168,0.43 -0.154,0.51 -0.169,0.54c-0.014,0.03 -0.042,0.74 0.183,0.64c-0.253,0.34 -0.337,0.24 -0.197,0.71l-0.21,0.13l0.084,0.2c-0.182,0.37 -0.168,0.46 -0.477,0.9c-0.112,0.16 0.098,1.38 -0.519,1.21v0.2h0.197c-0.393,0.35 0,0.59 0,0.87c0,0.05 -0.477,0.46 -0.617,0.37l0.196,0.26c-0.239,0.1 -0.267,0.5 -0.365,0.59c-0.084,0.05 -0.308,0.07 -0.336,0.09c0,0 0.07,0.15 0.056,0.23c-0.042,0.22 -0.197,0.82 -0.463,0.8l0.196,0.2l-0.421,0.16v0.25l-0.294,-0.19c0.014,0.19 0.014,0.34 -0.197,0.31l0.211,0.16v0.25c-0.449,-0.04 -0.295,0.22 -0.379,0.32c-0.042,0.07 -0.182,0.07 -0.21,0.12c-0.014,0.03 0.056,0.12 0.042,0.16c-0.028,0.06 -0.239,-0.03 -0.112,0.44c-0.632,0 -0.435,0.45 -0.66,0.72c-0.098,0.11 -0.07,-0.37 -0.308,-0.2l0.07,0.25l-0.365,0.53l-0.308,-0.06l-0.099,0.47c-0.617,-0.09 -0.364,0.12 -0.617,0.4c-0.196,0.23 -0.659,0.32 -0.771,0.5c-0.028,0.05 0.07,0.16 0.07,0.17c-0.042,0.05 -0.912,0.57 -1.038,0.63c-0.112,0.06 -0.042,0.23 -0.126,0.2l-0.449,-0.31l0.196,0.25c-0.379,0.2 -0.729,0.48 -0.912,0.87l-0.154,-0.31c-0.295,0.56 -0.954,0.69 -1.487,0.94c-0.14,0.07 -0.154,0.09 -0.351,0.17c-0.238,0.1 -0.294,0.42 -0.392,0.03c-0.183,0.07 -0.042,0.3 -0.056,0.3c-0.071,0.04 -0.267,0 -0.407,0.06c-0.659,0.27 -0.365,0.06 -0.758,0.08c-0.084,0 -0.743,0.53 -0.785,0.56c-1.22,0.57 -4.1942,0.83 -5.7792,1.2c-0.2666,0.05 -0.7715,0.17 -0.8417,0.38l-0.0561,-0.2c-0.3366,-0.14 -0.2805,0.36 -0.5049,0.2c0,0 0,-0.15 -0.0141,-0.17c-0.0701,-0.03 -0.4208,-0.01 -0.533,-0.14l-0.0982,0.2h-0.6592l-0.1123,-0.2c0,0.48 -0.7153,-0.07 -0.9678,0.31l-0.0982,-0.21c-0.2665,0.33 -0.4348,0.04 -0.6593,0.04c-0.7995,-0.01 -1.4027,0.12 -2.1882,-0.14c-0.3086,-0.1 0.0982,0.24 -0.1963,0.2c-0.3928,-0.06 -0.5611,-0.27 -0.6172,-0.29c-0.0702,-0.03 -0.491,0.13 -0.6874,0.09c-0.0701,-0.02 -0.028,-0.16 -0.2244,-0.21c-0.3507,-0.1 -0.7434,-0.05 -1.066,0.11l0.0982,-0.31c-0.3928,0.2 -0.7435,-0.13 -1.0661,-0.2c-0.7154,-0.16 -1.7393,-0.26 -2.3986,-0.53c-0.1122,-0.04 -0.014,-0.34 -0.4208,-0.1c-0.3367,-0.49 -1.4027,-0.4 -1.7394,-0.73c-0.2945,0.21 -0.8696,-0.21 -0.7574,-0.61l-0.3086,0.17c-0.2244,-0.09 -0.3787,-0.36 -0.6032,-0.43c-0.2384,-0.07 -0.4208,0.06 -0.7855,-0.13c-0.3647,-0.18 -0.9678,-0.77 -1.2764,-0.92c-0.0842,-0.05 -0.1824,0.08 -0.2806,0.02c-0.1122,-0.07 0,-0.21 -0.014,-0.24c-0.0701,-0.07 -0.4629,-0.13 -0.6312,-0.24c-0.1823,-0.11 -0.6032,-0.73 -0.8136,-0.63l-0.0561,-0.38l-0.0982,0.31c-0.4348,0 -0.4769,-0.38 -0.7434,-0.57c-0.5611,-0.4 -1.2203,-0.88 -1.6552,-1.2c-0.7013,-0.48 -0.7574,-0.64 -1.2764,-1.27c-0.2665,-0.32 -0.8416,-0.51 -0.6733,-1.07l-0.4068,0.2v-0.41l-0.3086,0.16c-0.1403,-0.73 -0.8837,-0.69 -0.9117,-1.4l-0.1964,0.1l-0.1122,-0.41l-0.3086,0.1c0,0 -0.1824,-0.55 -0.1964,-0.58c-0.0701,-0.1 -0.2946,-0.11 -0.3226,-0.22c-0.0281,-0.16 0.0561,-0.39 -0.014,-0.53c0,-0.03 -0.3647,-0.19 -0.477,-0.3c-0.3506,-0.33 -0.561,-0.93 -1.0239,-0.97l0.1963,-0.16l-0.4067,-0.25l0.1963,-0.32l-0.2945,0.06c-0.3928,-0.43 -0.2946,-0.78 -0.3086,-1.3l-0.0982,0.32h-0.2946c-0.1402,-0.52 -0.547,-1 -0.4068,-1.54l-0.3085,0.1c0,-0.09 0.014,-0.22 -0.0281,-0.28c-0.0701,-0.1 -0.6452,-0.62 -0.6593,-0.67c-0.014,-0.04 0.0982,-0.51 0.0561,-0.58c-0.042,-0.06 -0.2524,-0.1 -0.3366,-0.23c-0.2665,-0.38 -0.3647,-0.77 -0.2385,-1.24l-0.3086,0.31c0,-0.12 -0.014,-0.28 -0.0701,-0.38c-0.2946,-0.6 -0.3787,-0.77 -0.6172,-1.43c-0.0701,-0.2 -0.533,-1.02 -0.7294,-1.07c-0.0561,-0.14 0.3928,-0.08 0.1964,-0.31c-0.0281,-0.04 -0.1403,0.17 -0.1964,0.03c-0.1262,-0.32 -0.1964,-0.24 -0.2805,-0.42c-0.0982,-0.17 -0.2245,-0.62 0.0701,-0.55v-0.2c-0.547,-0.02 -0.3366,-0.29 -0.4208,-0.47c-0.1964,-0.44 -0.5891,-1.13 -0.7715,-1.68c-0.1122,-0.35 -0.2665,-0.6 -0.1122,-0.95l-0.3086,0.1c0.1122,-0.51 -0.4488,-0.79 -0.3226,-1.32h-0.1824l0.1964,-0.23c-0.5611,-0.17 -0.4348,-0.57 -0.5751,-1.03c-0.0561,-0.2 -0.2104,-0.37 -0.2945,-0.57l0.2665,-0.35c-0.4629,0.04 -0.2946,-0.19 -0.4068,-0.36c-0.0561,-0.09 -0.2104,-0.16 -0.2525,-0.26c-0.1122,-0.27 -0.0561,-1.11 -0.4629,-1.14v-0.2l0.1964,-0.05c-0.4208,-0.3 -0.1964,-0.66 -0.3086,-1.02c-0.0281,-0.1 -0.2244,-0.11 -0.3226,-0.33c-0.0842,-0.18 -0.0982,-0.71 -0.1683,-0.95c-0.0702,-0.23 -0.3928,-0.43 -0.2245,-0.76l-0.4068,0.1c0.0561,0.17 0.3647,0.99 0.3647,1.09c-0.0561,0.98 0.1964,0.98 0.2525,1.67c0.0141,0.18 -0.1964,0.08 -0.2104,0.28c-0.0701,0.77 0.1403,1.78 0.1683,2.53c0,0.42 -0.1122,0.79 -0.1122,1.18c0,0.53 0.3226,1.25 0.2665,1.85l-0.2104,0.17c0,0 0.1684,-0.04 0.1964,0.06c0.0281,0.11 -0.0841,1.03 -0.0841,1.23l0.1963,0.11c-0.0841,0.23 -0.6031,0.14 -0.8135,0.16v0.61c0.3366,-0.18 0.4067,0.24 0.7013,-0.1c0.0842,0.43 -0.2244,0.8 0.0982,1.13l-0.1964,0.06c0.0982,0.09 0.1543,0.22 0.1683,0.35c0.0702,0.63 0.0421,0.66 -0.042,1.29c-0.0561,0.49 0.3506,1.19 0,1.34c0.1122,0.28 0.2244,0.62 -0.1122,0.72c0.4348,0.3 -0.0281,0.74 0,0.77c0,0 0.1262,-0.01 0.1683,0.03c0.0701,0.09 0.1543,1.98 0.1262,2.08c-0.028,0.06 -0.1964,0.05 -0.1964,0.12l0.0982,0.34l-0.1963,0.06l0.3085,0.05c0.0842,0.96 0.1543,1.34 -0.8696,1.64c-0.0702,-0.3 -0.2806,-0.15 -0.4208,-0.24c-0.0842,-0.06 -0.2665,-0.41 -0.5331,-0.38l0.1964,-0.2c-0.4488,-0.03 -0.2244,-0.47 -0.2525,-0.82c-0.042,-0.69 -0.2384,-1.61 0.0561,-2.32c-0.2104,-0.01 -0.2384,-0.61 -0.2244,-0.83c0,-0.13 0.2946,-0.18 0.1824,-0.7c-0.0421,-0.2 -0.3507,-0.27 0,-0.28c-0.1403,-0.2 0.1402,-0.47 0.1262,-0.5c0,0 -0.1403,0.03 -0.2104,-0.07c-0.1824,-0.24 0.1122,-1.11 0.0982,-1.41c0,-0.15 -0.1403,-0.29 -0.1403,-0.42c0,-0.23 0.0421,-1.52 0,-1.59c-0.1122,-0.15 -0.1964,-0.08 -0.2384,0.05c-0.0842,0.26 0.042,1.16 -0.0421,1.44c-0.014,0.07 -0.1964,0.03 -0.1824,0.1l0.2104,0.32l-0.1963,0.2l0.1963,0.25l-0.2104,0.06c0.1122,0.24 0.0842,0.41 -0.0982,0.61l0.1964,0.06l-0.1964,0.14c0.1403,0.44 0.3507,0.94 -0.1122,1.19c0.2665,0 0.4068,0.44 0.0982,0.47l0.1964,0.2l-0.3086,0.15c-0.014,0.19 0.1823,0 0.2104,0.25c0.0561,0.51 -0.1262,1.07 -0.7013,1.07c-0.5752,0 -0.7435,-0.89 -0.8697,-1.4c-0.1122,-0.46 -0.014,-0.9 -0.0842,-1.3c0,-0.06 -0.1402,-0.04 -0.1543,-0.1c-0.028,-0.17 -0.1262,-0.84 -0.1122,-0.93c0.0281,-0.1 0.505,-0.25 0.2805,-0.78c-0.3085,-0.1 -0.3226,0.56 -0.4067,0.61l-0.1964,-0.1c0.0982,0.29 -0.014,0.49 -0.1122,0.74c-0.3226,0.9 -0.8697,2.23 -1.4588,3.1c-0.0421,0.06 0.0701,0.28 -0.2525,0.28l0.2104,0.16l-0.3086,0.56l0.1964,0.05c-0.4489,0.29 -0.2806,0.27 -0.3507,0.5c-0.3647,1.21 -0.9398,2.3 -1.4167,3.47c-0.0561,0.13 -0.0702,0.64 -0.0982,0.7c-0.0281,0.07 -0.3928,0.48 -0.4769,0.58l0.1964,0.1l-0.7154,1.24l0.1964,0.16h-0.3086c0.1683,0.47 -0.3086,1 -0.1964,1.44h-0.3086c0.1122,0.11 0.028,0.66 -0.0281,0.77c-0.1122,0.23 -0.3787,0.03 -0.1823,0.47l-0.1964,-0.06c0.1824,0.42 -0.2946,0.57 -0.3086,0.63c-0.028,0.16 0.1122,0.37 0.0982,0.43c-0.014,0.04 -0.533,0.68 -0.5611,0.75c-0.0421,0.1 0.0842,0.69 -0.3366,0.86l0.2104,0.2l-0.1122,0.56h-0.3086c0.2805,0.54 -0.2104,0.59 -0.2946,0.74c-0.0421,0.07 0.0701,0.23 0.0561,0.33c-0.0421,0.28 -0.2104,0.52 -0.0701,0.78h-0.3086c0.2946,0.44 -0.0421,0.48 -0.0701,0.57c-0.2946,0.84 -0.3227,1.88 -0.8417,2.68l0.1964,0.06c0.0421,0.17 -0.1823,0.04 -0.2104,0.17c-0.028,0.13 0.0842,0.3 0.0561,0.46c0,0.05 -0.4488,1.04 -0.4909,1.09c-0.0281,0.05 -0.1543,0 -0.1683,0.03c-0.0421,0.06 0.1683,0.14 0.1543,0.32c-0.0141,0.31 -0.2806,1.22 -0.4209,1.44c-0.0561,0.08 -0.2244,0.08 -0.2384,0.11c-0.0561,0.09 0.2805,0.31 0.0841,0.74c-0.1543,0.36 -0.042,0.17 -0.0981,0.43c-0.1543,0.67 -0.5471,1.54 -0.4068,2.18l-0.1964,0.1c0.3226,0.41 0.0842,0.4 0.0421,0.64c-0.0281,0.23 0.0841,0.57 -0.2385,0.54v0.1c0.2665,-0.05 0.2385,0.28 0.2104,0.48c-0.028,0.18 -0.1683,0.15 -0.1823,0.18c-0.1403,0.53 0.028,1.01 0.5751,1.1c-0.3507,-0.4 -0.0421,-0.59 0.1543,-0.1l0.0421,-0.2h0.9117l-0.1964,-0.31h0.4068v0.25l0.3507,0.06c0.1543,-0.23 0.1683,-0.36 0.4769,-0.24l0.0982,-0.27c0.1964,-0.03 0.0561,0.21 0.1122,0.3c0.014,0.02 0.3367,-0.08 0.505,0.21c0,-0.49 0.7574,-0.06 0.6172,-0.61l0.0982,0.31c0.2665,0.04 0.5049,-0.04 0.6031,-0.31l-0.3086,-0.22l1.01,0.2c0,0 -0.2666,0.54 0.0981,0.42c-0.1683,-0.63 0.5331,-0.4 0.6032,-0.83l0.1543,0.51l0.3507,-0.31l-0.0982,0.31l0.4068,0.1l-0.0982,-0.31l0.5611,0.2l0.1262,-0.23l-0.0421,-0.39c0.3226,-0.47 1.2905,0.47 1.3326,0.83l0.4488,-0.1l-0.6031,-0.45c0.1403,-0.35 0.2525,-0.35 0.5891,-0.35l0.1122,0.4c0.3226,-0.11 0.7014,-0.34 0.9679,0l0.1543,-0.2l-0.1964,-0.2l0.9118,-0.1v0.32l0.1823,-0.07l0.3226,0.17l-0.1963,-0.52l0.3085,0.32l0.2525,-0.42l-0.1543,0.2l0.491,0.09v-0.19l0.2665,0.2c0.2946,-0.54 1.1642,0.17 0.4629,0.46l0.1964,0.67c0,0 -1.4027,-0.29 -1.5711,0.1l-0.0981,-0.21c-0.4209,0.39 -0.9118,-0.03 -1.2064,0c-0.1543,0.01 -0.3506,0.21 -0.561,0.25c-0.1964,0.04 -1.3046,0 -1.4027,-0.08c-0.0421,-0.03 0.0561,-0.22 -0.1123,-0.17l-0.0561,0.31l-0.2524,-0.2v0.18l-0.2946,-0.07v0.19h-0.2104l0.0561,-0.31l-0.1964,0.31l-0.3086,-0.2l-0.0982,0.21l-0.5049,-0.21l0.0561,0.2h-0.2525l-0.1964,-0.41l-0.3226,0.51c-0.2525,0.03 -0.3086,0.01 -0.3928,-0.22c-0.4348,0.55 -1.08,0.16 -1.4027,0.2c-0.0701,0 -0.0561,0.19 -0.1262,0.22c-0.0561,0.01 -1.1362,0 -1.1923,-0.03c-0.1543,-0.04 -0.3507,-0.67 -0.5611,-0.19l0.1964,0.1l-0.3787,0.2l-0.8416,-0.2l-0.0562,0.3c-0.2104,-0.35 -0.3506,0 -0.4067,0c-0.0561,0 -0.1122,-0.2 -0.1824,-0.27c-0.0421,-0.04 -0.1543,-0.01 -0.2244,-0.07c-0.0701,-0.06 0.014,-0.21 -0.1403,-0.17l-0.0982,0.41l0.4068,-0.05l-0.4068,0.31c0.5751,0.34 1.0661,0.46 1.7253,0.57l-0.0981,0.2c0.4628,-0.26 0.7013,0.03 0.9818,0.07c1.2625,0.2 2.9036,0.36 4.166,0.42c0.2666,0 0.5751,-0.03 0.8276,-0.08v0.32c0.2525,0.13 0.1824,-0.2 0.2525,-0.22c0.1964,-0.01 0.2946,0.16 0.4068,0.18c0.0561,0 0.1543,-0.12 0.2525,-0.12c0.2805,0 0.8276,-0.1 0.8556,0.16l0.1122,-0.22c0.3086,-0.08 0.5471,0.18 0.7014,0.18c0.0561,0 0.1403,-0.13 0.2244,-0.13c0.2665,0 0.5611,0.04 0.8416,-0.05l0.0561,0.32c0.3086,-0.64 0.8837,-0.24 1.4308,-0.22c0.2805,0 0.4208,-0.24 0.4909,0.12h0.1964c0.0561,-0.24 0.3928,-0.36 0.6032,-0.29c0.1402,0.05 0.1122,0.19 0.1543,0.22c0.2945,0.31 0.0982,-0.22 0.2665,-0.25c0.8556,0.35 1.8375,0.05 2.7352,0c0.3647,-0.01 0.7294,0.26 1.1222,-0.1l0.0982,0.2c0.0841,0.02 0.028,-0.12 0.0841,-0.17c0.4629,-0.28 2.5249,0.03 3.1561,0c0.2244,0 0.9118,-0.4 1.0099,0.06l0.4068,-0.21l0.1543,0.15l-0.0561,0.36c0.2245,-0.17 0.2385,-0.26 0.1543,-0.51c0.491,0.11 0.9538,-0.13 1.3887,-0.18c0.3366,-0.02 0.6452,0.1 0.9398,0.13c0.3226,0.02 0.9819,-0.21 1.066,0.15c0.2946,-0.42 1.4168,0.15 1.5711,-0.42l0.1963,0.2v-0.18c0.3928,-0.09 0.7435,0.14 1.024,0.15c0.519,0.03 1.4308,-0.22 1.7674,-0.15c0.0982,0.01 0,0.2 0.0982,0.18l0.1543,-0.21l0.0561,0.2c0.2946,-0.44 0.9117,0.07 1.2203,-0.32c0.0982,0.37 0.3227,0.1 0.6032,0.13c0.2104,0.02 0.3927,0.16 0.533,0.17c0.1403,0.02 0.2525,-0.15 0.3928,-0.17c0.4629,-0.07 0.9117,-0.05 1.3606,-0.21v0.31c0.2946,-0.15 0.6873,-0.41 0.9678,-0.1l0.0982,-0.21c0.7996,0.51 1.8235,-0.12 2.609,0.04c0.1123,0.03 0.2105,0.2 0.2666,0.17c0,0 -0.0281,-0.17 0.0701,-0.2c0.3086,-0.08 0.3647,0.2 0.3927,0.2c0.1403,0 0.2245,-0.15 0.3227,-0.17c0.1402,-0.03 1.5149,-0.14 1.599,-0.14c0.0702,0 0.0561,0.17 0.1123,0.18c0.2104,0.08 0.4909,-0.04 0.6592,-0.18v0.31c0.1683,0.05 0.0421,-0.17 0.1683,-0.2c0.1684,-0.04 0.4068,0 0.5892,-0.04l0.8556,0.36v-0.32c0.1824,-0.04 0.0421,0.2 0.1543,0.22c0.1683,0 0.4769,-0.16 0.7575,0l-0.1964,-0.26c-0.014,-0.09 0.0842,-0.06 0.1543,-0.06c0.0842,0 0.7715,0.07 0.7995,0.1c0.1403,0.1 -0.0701,0.4 0.2665,0.33l0.0562,-0.31c0.547,0.31 1.6551,-0.22 2.0198,-0.16c0.0982,0 0.1684,0.16 0.2946,0.17c0.0701,0 0.0281,-0.17 0.0982,-0.18c0.1823,-0.06 0.6733,0.25 0.7574,0.18l-0.0561,-0.21l0.2385,0.08l0.1683,-0.18l0.1543,0.31l0.2946,-0.2v0.32c0.4068,-0.36 0.8276,-0.1 1.2624,-0.12c0.2244,0 0.3086,-0.04 0.6172,-0.04c0.3787,0 0.7434,0.07 1.066,-0.04l0.0561,0.31c0.5752,-0.09 1.1362,-0.14 1.7254,-0.11c0.1262,0 1.0515,0.14 1.1365,0.18c0.266,0.13 0.14,0.29 0.182,0.34c0.084,0.09 0.238,0.07 0.309,0.15c0.491,0.47 0.21,0.59 0.35,1.25c-0.014,0.31 -1.29,0.78 -1.585,0.78c-0.2382,0 -0.4907,-0.21 -0.8835,-0.17c-1.3326,0.13 -2.4126,0.22 -3.8293,0.12c-0.2385,-0.02 -0.6874,-0.26 -0.7294,-0.24c-0.3227,0.05 -0.9118,0.08 -1.024,0.28c-0.4629,-0.36 -0.5611,0.46 -0.8136,-0.07l-2.4827,0.08l0.0561,-0.19l-0.505,0.21c-0.0842,-0.27 -0.3226,-0.26 -0.4208,0l-0.2946,-0.1c-0.7013,0.23 -2.104,0.16 -2.9316,0.16c-0.1543,0 -0.3507,-0.23 -0.5611,-0.16l0.1543,0.2l-0.7574,-0.41c0,0.32 -0.3367,0.25 -0.5611,0.41l-0.0561,-0.2l-0.519,0.04v0.37c-0.2104,-0.05 -0.3086,-0.41 -0.5471,-0.41c-0.1543,0 -0.7855,0.21 -1.024,0.2l-0.0841,-0.19c-0.3647,0.3 -0.8276,-0.22 -0.9258,0.2l-0.6031,-0.2l0.0561,0.2c-0.6874,-0.1 -1.2905,-0.11 -1.9778,-0.1c-0.1403,0 -0.3367,-0.08 -0.4068,-0.08c-0.1263,0.01 -0.0561,0.27 -0.2946,0.28c-0.533,0.06 -0.8556,-0.3 -0.9117,-0.3c-0.0421,0 -0.1684,0.16 -0.3086,0.19c-0.2385,0.03 -0.6312,-0.1 -0.8978,-0.09c-0.2805,0.02 -0.8276,0.22 -1.1081,0.19c-0.1543,-0.02 -0.2665,-0.2 -0.3927,-0.19c-0.1543,0.02 -0.4349,0.29 -0.7435,0.29c-0.2384,0 -0.8135,-0.4 -0.8837,0c-0.6452,-0.29 -1.3466,0.04 -2.0198,0l-0.1543,-0.2c0.0841,0.38 -1.0801,0.03 -1.2204,0.1c0,0 0.1403,0.23 -0.0561,0.3l-0.4068,-0.3c-0.1262,0.54 -0.8556,-0.04 -1.0099,0.01c-0.0561,0.02 -0.0421,0.17 -0.1122,0.2c-0.3086,0.07 -1.0521,-0.5 -1.4027,0c-0.0561,-0.27 -0.2665,-0.35 -0.2525,0l-0.1543,-0.21l-0.0982,0.21c-0.2244,-0.37 -0.3928,0.03 -0.7013,0c-0.3507,-0.04 -0.5331,-0.41 -1.1222,0l-0.1964,-0.23c-0.3086,0.28 -0.4769,0.13 -0.7574,0.16c-0.3647,0.04 -0.8978,0.3 -0.9258,-0.14c-0.1263,0.03 -0.2385,0.13 -0.3787,0.14c-0.2245,0.03 -0.7856,0.1 -0.7715,-0.14l-0.1122,0.21c-0.4068,-0.04 -0.8276,-0.05 -1.2344,-0.05c-1.3887,0.02 -2.2303,0.2 -3.7312,-0.03c-0.2945,-0.05 -0.8837,0.33 -0.9959,-0.15c-0.0561,0 0,0.35 -0.4909,0.22c-0.0982,-0.03 -0.0281,-0.33 -0.2665,-0.2l-0.1543,0.3l-0.3086,-0.29c-0.2245,0.19 -0.519,0.35 -0.6032,-0.03h-0.2525l0.0982,0.22c-0.7013,-0.03 -1.3887,-0.13 -2.076,-0.19c-1.2203,-0.11 -2.7913,-0.27 -4.152,-0.54c-0.4628,-0.1 -1.0099,-0.41 -1.4728,-0.3l0.1964,-0.2c-0.505,0.27 -0.7715,-0.21 -1.0801,-0.28c-0.0841,-0.02 -0.2104,0.07 -0.2805,0.07c-0.0702,0 -0.0561,-0.16 -0.0842,-0.17c-0.533,-0.2 -0.2525,-0.27 -0.2946,-0.33c-0.042,-0.06 -0.2104,-0.07 -0.2805,-0.17c-0.1823,-0.24 -0.1262,-0.59 -0.4068,-0.37l0.1964,-0.32c-0.3226,0.07 -0.3226,-0.17 -0.505,-0.35c0.2946,-0.07 0.3086,-0.32 0,-0.2l-0.1963,-0.77l-0.6032,0.21v-0.31c-0.5471,0.35 -1.3045,0 -1.9077,-0.05c-0.2805,-0.02 -1.0239,0.08 -1.1642,0.03c-0.3928,-0.11 -1.2624,-0.13 -1.8375,-0.14c-0.1964,0 -0.4489,0.14 -0.6593,0.11c-0.2525,-0.02 -0.533,-0.37 -0.505,0.05c-0.4629,-0.4 -0.561,0.37 -0.9538,-0.42c-0.1543,0.49 -0.6312,0.23 -1.0099,0.23c-0.3788,0 -0.7575,0.02 -1.1222,0.06l-0.0982,-0.19c-0.0841,0.27 -0.1823,0.22 -0.4629,0.2l0.0982,-0.25l-0.2104,-0.06v0.3c-0.3366,0.16 -0.4068,-0.16 -0.4629,-0.17c-0.2665,-0.1 -0.6592,0 -0.6312,-0.52c0.0281,-0.55 0.5471,-0.49 0.8556,-0.62c0.1263,-0.05 0.1123,-0.2 0.1824,-0.22c0.0982,-0.04 0.4629,0.1 0.6172,0.09c0.5751,-0.04 1.3185,-0.06 1.9076,-0.14c0.1684,-0.02 0.5752,-0.45 0.5752,0.02h0.1963l0.1543,-0.2c0.4068,0.53 0.6733,0 1.1643,-0.1v0.32c0.6733,-0.37 1.6271,-0.22 2.3284,0l0.0561,-0.32h0.7014l0.0561,0.32c0.8977,-0.33 2.0059,-0.39 2.8896,0l0.1122,-0.1c-0.0702,-0.23 0.0982,-0.36 0.1122,-0.56c0.0701,-0.62 0.0561,-1.24 0.1964,-1.92c0.042,-0.2 0.7153,-0.63 0.1402,-0.42c-0.2244,-0.41 0.2525,-0.81 0.3086,-1.08c0.0421,-0.26 -0.0561,-0.57 0,-0.8c0.1122,-0.48 0.4068,-1.25 0.5611,-1.9c0.0421,-0.15 0.1262,-1.09 0.1683,-1.15c0.1683,-0.21 0.4068,-0.01 0.0702,-0.64c0.2104,0.03 0.3506,0.18 0.5049,-0.06c-0.2945,-0.13 -0.3506,-0.23 -0.3086,-0.57l0.1964,0.1c-0.0561,-0.61 0.2525,-0.56 0.7154,-0.61c-0.0701,-0.39 -0.3367,-0.3 -0.6032,-0.46l0.0982,-0.26l0.3086,0.1c0.1403,-0.32 -0.3507,-0.3 -0.1964,-0.51c0,-0.01 0.1824,0.03 0.1964,-0.07c0.014,-0.1 -0.1262,-0.47 0,-0.66l0.3086,0.1c-0.028,-0.24 -0.1683,-0.5 -0.0982,-0.75c0.0281,-0.12 0.2525,0 0.2104,-0.17l-0.1964,-0.05c0.3928,-0.57 0.477,-1.19 0.7154,-1.82c0.0281,-0.07 0.1683,-0.09 0.1964,-0.16c0.1122,-0.51 -0.2665,-1.03 0.505,-1.42l-0.2104,-0.32c0.3366,-0.08 0.0981,-0.23 0.1823,-0.43c0.1122,-0.3 0.2805,-0.38 0.4348,-0.6c0.1123,-0.14 -0.1683,-0.32 0.2946,-0.25c0.0421,-0.17 -0.1964,-0.04 -0.2104,-0.16c-0.014,-0.27 0.1122,-0.77 0.3086,-0.97l-0.1964,-0.06c0.2104,-0.21 0.3226,-0.49 0.4769,-0.75c0.2666,-0.46 0.1123,-0.51 0.1543,-0.63c0,-0.03 0.2525,-0.31 0.3086,-0.4c0.0421,-0.06 0.1684,-0.03 0.1684,-0.03c0.042,-0.07 -0.2806,-0.23 -0.1964,-0.41l0.1964,0.06l0.0981,-0.67l0.1964,0.2c0.0842,-0.42 -0.1403,-0.72 0.3086,-0.87v-0.16l-0.1964,-0.06c0.2104,-0.34 0.4769,-0.73 0.6453,-1.08c0.0701,-0.16 0,-0.39 0.0701,-0.54c0.0421,-0.12 0.3647,-0.37 0.4489,-0.7c0.0841,-0.29 -0.0281,-0.8 0.3366,-0.93c0.1824,-0.06 0.7154,-0.01 0.7855,-0.11l0.0421,-0.3l-0.6032,-0.17c0.2666,-0.19 0.0562,-0.42 0.1263,-0.7c0.0842,-0.43 0.3507,-0.32 0.4769,-0.4c0,0 -0.0421,-0.13 -0.028,-0.2c0.1542,-0.5 0.5189,-0.73 0.5891,-1.29c0.0421,-0.28 -0.2806,-0.52 0.2525,-0.47c-0.0842,-0.54 0.3927,-1.07 0.5891,-1.52c0.0982,-0.22 0.0421,-0.49 0.1683,-0.76c0.0702,-0.17 0.4068,-0.55 0.5751,-0.65l-0.1963,-0.26c0.3506,-0.03 0.2524,-0.54 0.7013,-0.31l-0.3086,-0.42l0.1964,0.06c-0.0281,-0.09 -0.0842,-0.17 -0.0421,-0.26c0.3086,-0.78 0.7995,-1.58 1.024,-2.31c0.1683,-0.54 -0.2946,-0.23 -0.2806,-0.41l0.2104,-0.31l-0.2104,-0.1c0.2245,-0.26 0.2946,-0.5 0,-0.73l0.4068,-0.06l-0.4068,-0.1l0.3086,-0.47l-0.2104,-0.11l0.1122,-0.56l-0.4488,0.73c0.1122,0.51 -0.1122,0.37 -0.1964,0.51c-0.0842,0.14 -0.1543,0.46 -0.2665,0.61l-0.1964,-0.2l-0.2946,0.46l-0.7153,-0.04c0.2384,-0.5 -0.0982,-0.34 -0.2385,-0.71c-0.0561,-0.16 -0.0982,-0.53 -0.0842,-0.67c0.0141,-0.15 0.5611,-0.66 0.3086,-0.92l0.2104,-0.11l-0.1122,-0.3l0.1964,-0.1c0,-0.64 -1.0801,-1.44 -0.3086,-2.07l-0.0841,-0.26l0.4067,-0.11c-0.1823,-0.28 -0.028,-0.2 0.2104,-0.2l-0.3086,-0.2c0.2245,0 0.1824,-0.3 0.4068,-0.1c0,-0.17 0,-0.33 0.0842,-0.48c0.1262,-0.27 0.5751,-0.75 0.7294,-1.03c0.1543,-0.29 0.1683,-0.83 0.519,-1.11l-0.2104,-0.1v-0.22c0.1823,-0.07 0.2104,-0.05 0.1262,-0.24h0.1824l-0.1964,-0.21c0.0982,0.03 0.3928,-0.36 0.4068,-0.39c0.014,-0.08 -0.0702,-0.21 -0.0421,-0.28c0.1262,-0.4 0.2805,-1.2 0.6593,-1.3l-0.3086,-0.2c0.1964,-0.23 0.2104,-0.33 0.0982,-0.61h0.2805c0.0421,-0.57 0.1122,-0.75 0.6312,-0.93l-0.3086,-0.61h0.3086c-0.2946,-0.4 -0.0421,-0.52 0,-0.79c0.0281,-0.2 0.0281,-0.63 0.0842,-0.77c0.1122,-0.33 0.7855,-0.87 -0.0702,-0.92v0.31l-0.3506,-0.12c-0.0702,0.33 -0.7715,0.35 -0.9539,0.55c-0.1122,0.12 0.1263,0.38 -0.2104,0.2c-0.1122,0.11 -0.2805,0.64 -0.3366,0.68c-0.014,0 -0.1403,-0.08 -0.1683,-0.06c-0.3367,0.26 -0.2104,0.56 -0.2385,0.59c-0.0421,0.03 -0.1824,0 -0.2525,0.04c-0.1683,0.13 -0.7574,0.79 -0.6452,1l-0.4068,-0.1v0.31l-0.1964,-0.1c0.1543,0.32 -0.0421,0.57 -0.2945,0.79c-0.1263,0.11 -0.1964,0.04 -0.2806,0.08c-0.028,0 -0.028,0.16 -0.0982,0.16c-0.2525,0.04 -0.4629,-0.19 -0.6452,0.06l0.3086,0.1v0.15l-0.1824,0.02c0.1403,0.34 -0.0701,0.31 -0.2665,0.51c-0.0701,0.07 -0.028,0.3 -0.2665,0.2c-0.014,0 0.2525,-0.28 -0.0982,-0.2v0.61c-0.3507,0.15 -0.6873,-0.12 -1.0099,-0.25c0.2945,-0.02 0.533,-0.49 0.6312,-0.54c0.0421,-0.03 0.1543,0.08 0.1683,0.07c0.0281,-0.02 0.0421,-0.27 0.1403,-0.39c0.1683,-0.18 0.5751,-0.13 0.4769,-0.54l0.1964,0.1v-0.3l0.3086,-0.01l-0.2525,-0.3c-0.2385,0.27 -0.5611,0.45 -0.8276,0.65c-0.0842,0.07 -0.2385,0.35 -0.3086,0.37c-0.1543,0.08 -0.3086,0 -0.3226,0c-0.0281,0.05 0.028,0.2 -0.0281,0.27c-0.3086,0.39 -0.3647,0.33 -0.6733,0.5c-0.4348,0.23 -1.2484,1.1 -1.6972,1.32l-0.3928,0.79c0.1403,-0.05 0.3086,-0.32 0.3928,-0.37c0.2525,-0.15 1.7674,-0.98 1.8656,-1.09c0.042,-0.06 -0.0281,-0.46 0.3226,-0.22c0.0982,0.07 0.0982,0.3 0.4068,0.3c-0.3367,0.12 -0.5611,0.71 -0.7435,0.84c-0.2244,0.16 -0.6312,0.03 -0.5751,0.54l-0.3086,-0.2l-0.1543,0.42l-0.2525,-0.3c-0.028,0.75 -0.1683,0.48 -0.5049,0.67c-0.0702,0.04 -0.0982,0.2 -0.1824,0.26c-0.3226,0.2 -0.5891,0.14 -0.9398,0.2l0.0982,-0.32l-0.4068,0.1l0.0842,-0.57l-0.1683,-0.06l0.0701,-0.18l-0.4629,0.08l-0.1543,-0.2c0,0.28 0.0561,0.36 -0.2665,0.32c-0.2525,-0.03 -0.0561,-0.23 -0.2525,-0.22l-0.2525,0.32l-0.3506,-0.32l0.1963,-0.2c-0.8276,0 0.1263,-0.51 0.1123,-0.67c-0.0421,-0.32 -0.2525,-0.37 -0.519,-0.25l0.0981,0.41h-0.3085c0.0841,-0.31 -0.0141,-0.57 0.4067,-0.61l-0.1963,-0.16l0.1122,-0.26l0.1963,0.1c0.0702,-0.28 -0.2104,-0.18 -0.3366,-0.42c-0.1403,-0.3 -0.1122,-0.6 0.1683,-0.77c0.1122,-0.07 0.2665,-0.13 0.4489,-0.25c0.1964,-0.12 0.8837,-0.39 0.9258,-0.42c0,0 -0.0702,-0.17 -0.0281,-0.27c0.1403,-0.3 0.6453,-0.3 0.9398,-0.45l-0.3086,-0.41h0.3086l-0.0982,-0.3c0.1403,-0.1 0.7154,-0.37 0.7855,-0.46c0.1684,-0.21 -0.0701,-0.48 0.5331,-0.28l-0.1964,-0.1v-0.31l0.1964,0.1c-0.1263,-0.53 0.4488,-0.48 0.4067,-0.93l0.4068,0.1l-0.0982,-0.42c0.5471,0.12 0.3367,-0.15 0.505,-0.37c0.0421,-0.04 0.4769,-0.38 0.505,-0.4c0.1262,-0.04 0.2525,0.08 0.3086,0.05c0.028,-0.02 -0.0702,-0.15 -0.0421,-0.22c0.0982,-0.25 0.7574,-1.02 0.9819,-1.19c0.1402,-0.1 0.4909,0.04 0.4769,-0.35l0.2946,0.2l0.3226,-0.81l0.2945,0.1c0.0281,-0.47 0.491,-0.87 0.9118,-0.73c-0.0561,-0.24 -0.1262,-0.41 0.0561,-0.61c0.1683,-0.16 0.9398,-0.4 1.038,-0.54c0.0561,-0.09 0,-0.27 0.0701,-0.39c0.1122,-0.21 0.4349,-0.14 0.3507,-0.61l0.1964,0.31c0,-0.23 0.2665,-0.31 0.3787,-0.44c0.014,-0.03 -0.0701,-0.13 -0.0421,-0.16c0.1543,-0.18 0.4629,-0.5 0.6733,-0.32c-0.014,-0.46 0.2946,-0.36 0.3788,-0.45c0.2665,-0.25 0.9538,-0.84 0.8556,-1.09c0.5751,0 0.4909,-0.6 0.8136,-0.79l-0.2946,-0.21l0.0982,-0.44c-0.5751,-0.33 -0.6453,-0.03 -1.038,0.22c-0.1683,0.12 -0.8697,0.46 -1.038,0.59c-0.0842,0.06 -0.4068,0.48 -0.4489,0.63l-0.2525,-0.2l-0.1543,0.31l0.3086,0.1c-0.0981,0.06 -0.3366,0 -0.3787,0.03c-0.505,0.33 -1.2063,1.22 -1.6832,1.62c-0.1122,0.1 -0.2525,-0.02 -0.2525,0c-0.0281,0.06 0.028,0.25 -0.0281,0.39c-0.1262,0.33 -1.1361,0.71 -1.1782,0.77c-0.0421,0.06 0.014,0.26 -0.0421,0.37c-0.0281,0.06 -0.8416,0.86 -0.9819,1c-0.0982,0.1 -0.0701,0.06 -0.2385,0.23c-0.3366,0.35 -0.6873,0.44 -1.0379,0.85c-0.4489,0.52 -1.1082,0.93 -1.6131,1.24c-0.1684,0.12 -0.3507,0.2 -0.519,0.32l0.0561,0.31c-0.4208,-0.03 -0.9118,0.43 -1.1643,0.73c-0.2104,-0.22 -0.9678,-0.16 -0.7574,-0.62h-0.3086c0.1122,-0.42 0.1403,-1.12 0.7154,-0.92l-0.0982,-0.32l0.7013,0.2l0.0561,-0.41l-0.3086,-0.3l0.505,-0.41c0.3366,0.25 -0.3647,0.55 0.2525,0.61l0.0982,-0.98l0.6172,-0.16l-0.1964,-0.2c0.3507,-0.21 0.533,-0.49 1.0099,-0.41l-0.1964,0.2h0.2525l0.0561,-0.4l0.4068,-0.16l-0.3086,-0.06v-0.31l0.1964,0.1c0.0281,-0.13 0.0421,-0.29 0.1403,-0.39c0.1964,-0.18 0.6873,-0.21 0.7855,-0.28c0.0982,-0.07 0.4769,-0.99 1.0099,-0.79c-0.2244,-0.25 0.3788,-0.47 0.6032,-0.51l-0.1964,-0.2c0.505,0.04 0.533,-0.56 0.9118,-0.31v-0.26c0.0841,-0.11 0.2805,-0.1 0.3787,-0.19c0.2525,-0.21 0.8556,-0.95 1.052,-1.04c0.1122,-0.04 0.6172,0.02 0.3928,-0.37l0.6031,-0.1l-0.0982,-0.2c0.3086,0.09 0.3086,-0.17 0.4769,-0.28c0.2245,-0.14 0.6593,-0.16 0.4349,-0.43c0.3507,-0.31 1.2063,-0.57 1.5009,-0.76c0.2525,-0.17 0.3506,-0.68 0.8276,-0.58l-0.0982,-0.2c0.4488,0.01 0.3226,-0.47 0.7013,-0.21l0.0561,-0.33h0.5471c0.0421,-0.17 -0.1684,-0.06 -0.1964,-0.1c-0.1262,-0.16 0.6032,-0.6 0.8136,-0.51l-0.0842,-0.19c0.505,-0.27 0.6733,-0.66 1.3045,-0.64c-0.2244,-0.42 0.0842,-0.37 0.1403,-0.63c0.0701,-0.31 -0.1403,-0.48 0.1543,-0.54l-0.0982,-0.3l0.2104,-0.11l-0.1122,-0.26l-1.2063,-0.12l0.0981,-0.31l-0.4488,0.17c-0.1824,0.06 -0.533,-0.51 -0.4629,-0.58c0.3647,0.14 0.3086,-0.39 0.533,-0.49c0.0842,-0.04 0.3226,0.09 0.4769,-0.13l-0.0982,0.42h0.3086l-0.0982,-0.32c0.2806,0.16 0.491,-0.07 0.6593,-0.1c0.0281,0 0.0842,0.36 0.4769,0.32c0.2385,-0.03 0.3647,-1.16 0.8837,-0.83l-0.0982,-0.2l0.505,-0.1v0.31c0.2665,0.03 0.2665,0 0.3507,-0.2l0.0561,0.42l0.1964,-0.1l0.0982,1.03l0.2104,-0.38l0.4067,0.06c-0.2384,-0.55 0.6313,-0.6 -0.0982,-0.98c0.3367,-0.47 -0.1122,-1.14 0.4068,-1.54l-0.2104,-0.12c0.0561,-0.21 0.1122,-0.35 -0.0982,-0.5l0.2946,-0.05c0.0701,-0.22 -0.1964,-0.36 -0.2385,-0.52c-0.028,-0.12 0.0562,-0.27 0.0141,-0.44c-0.0561,-0.25 -0.3367,-0.64 -0.4349,-0.18l-0.3086,-0.2l-0.1963,0.2c-0.0982,-0.25 -0.3227,-0.09 -0.3928,-0.12c-0.0701,-0.03 -0.1262,-0.33 -0.4769,-0.2l0.0982,-0.41c-0.2665,-0.09 -0.2525,0.3 -0.3647,0.31c-0.1543,0.02 -0.3226,-0.14 -0.491,-0.15c-0.4769,-0.08 -1.4588,0.17 -1.571,-0.26l-0.1543,0.21l-0.7294,-0.08l-0.1823,-0.33c-0.505,0.46 -0.8697,0.23 -1.4308,0.14c-0.1823,-0.03 -0.2945,0.22 -0.3787,-0.13c-1.6973,0.26 -3.4927,-0.48 -5.19,-0.22l-0.0841,-0.19h-1.024l0.0561,-0.21l-0.4629,0.2l-0.0561,-0.32c-0.1683,-0.04 -0.0421,0.2 -0.1683,0.22c-0.2525,0.04 -0.6873,-0.17 -0.8837,-0.19c-0.5611,-0.04 -1.01,0.2 -1.4869,-0.28l0.1964,-0.16l-0.3787,0.04l-0.0702,0.26c-0.2384,-0.27 -0.6171,-0.1 -0.9398,-0.16c-0.4067,-0.08 -0.9538,-0.44 -1.3886,-0.26l-0.0421,-0.18c-0.4068,0.31 -1.0801,-0.09 -1.557,-0.31c-0.1403,-0.08 -0.2946,-0.13 -0.4208,-0.19c-0.2525,-0.13 -0.4769,-0.53 -0.7575,-0.68l0.1964,-0.1c-0.6312,-0.3 -0.1823,-0.6 0,-0.93c0.0561,-0.1 0,-0.2 0.0281,-0.23c0.2805,-0.36 1.052,-0.57 1.5009,-0.75c1.7673,-0.75 3.5207,-0.68 5.3863,-0.96c0.3507,-0.06 0.9538,-0.47 1.024,-0.06c0.3086,-0.18 1.1642,-0.28 1.4167,0c0.0842,-0.3 0.3226,-0.18 0.5611,-0.31l0.1543,0.61c0.1823,-0.81 0.8837,-0.31 1.4167,-0.57c1.3466,0.17 2.6511,0.03 4.0538,0.07c0.2384,0 1.1081,0.2 1.2203,0.19c0.0561,0 0.0421,-0.19 0.1263,-0.22c0.4348,-0.11 2.4407,0.32 2.9316,0.52c0.0842,0 0.014,-0.19 0.1122,-0.22c0.1683,-0.04 1.2484,0.17 1.3466,0.1l-0.0982,-0.2c0.2385,0 0.5751,-0.11 0.7995,-0.05c0.2105,0.04 0.7856,0.35 1.1503,0.47c0.0701,0.03 0.0701,0.18 0.1402,0.2c0.3226,0.05 1.7113,-0.36 1.571,0.31h0.2946l-0.2104,0.63l0.3647,0.11l0.3507,-0.25l-0.505,-0.67c0.1543,0.1 0.3226,-0.03 0.4348,0c0.0421,0 0.3086,0.12 0.6172,0.2c0.0842,0.01 0.0561,0.22 0.1122,0.21c0.1964,-0.07 0.4209,-0.24 0.7154,-0.16c0.2245,0.07 0.4349,0.56 0.6032,0.06c0.0561,0.08 0.5751,0.27 0.6172,0.27c0.1683,0 0.1683,-0.38 0.3086,0.03c0.547,0 1.0239,0.01 1.5149,0.01c0.0701,0 0.028,0.17 0.0982,0.17c0.0561,0 0.1402,-0.1 0.2384,-0.07c0.0281,0 0.2385,0.33 0.2244,0.4c0.2666,-0.04 0.0421,-0.35 0.1964,-0.47c0.2525,0.03 0.3928,-0.13 0.4629,0.16c0.3226,-0.29 1.3466,-0.14 1.5149,0.1c0.6873,-0.39 1.6131,0.33 2.3285,-0.09l2.4407,0.39l0.1403,-0.2c0,0.33 0.8837,0.27 1.1642,0.21l0.0421,0.3c0.2244,0.03 0.2945,-0.24 0.547,-0.21c0.1263,0.01 0.2245,0.15 0.3367,0.18c0.1543,0.05 0.3787,-0.24 0.3366,0.13l0.4068,-0.2l-0.0982,0.32c0.505,-0.4 0.4769,-0.05 0.5611,-0.02c0.2104,0.07 1.543,0.02 1.9357,0.12c0.7575,0.18 0.1824,0.14 0.505,0.62l0.1964,-0.51l0.8696,0.26l0.0982,0.47c0.4208,0.07 -0.0561,-0.29 0.2665,-0.4c0.3226,-0.12 1.2765,0.3 1.6552,0.18l-0.0982,0.52l0.1964,-0.42l0.4629,0.2l0.0982,-0.2c0.4909,0.29 1.1362,0.22 1.6131,0.3c0.0841,0.02 0.0561,0.19 0.1262,0.2c0.2385,0.04 0.8136,-0.34 0.8557,0.22l0.0981,-0.32l1.8235,0.1c0.0842,-0.08 -0.2945,-0.91 -0.3506,-1.08c-0.0421,-0.13 0.0421,-0.33 0.028,-0.42c0,-0.01 -0.2525,-0.28 -0.2665,-0.3c-0.028,-0.21 0.1964,-0.78 -0.2244,-0.77l0.1964,-0.14l-0.2104,-0.87h-0.2946c0.2385,-0.38 -0.1122,-0.33 -0.1964,-0.5c-0.2244,-0.42 -0.2805,-0.54 -0.547,-0.91c-0.0281,-0.04 -0.1123,-0.04 -0.1684,-0.04l0.1964,-0.16c-0.3226,-0.17 -0.4769,-0.71 -0.6452,-1.08c-0.0281,-0.09 0.0421,-0.2 0,-0.27c-0.014,-0.05 -0.3226,-0.22 -0.3507,-0.27c-0.1122,-0.23 0.1263,-0.48 -0.3366,-0.39l0.1963,-0.2c-0.4348,-0.09 -0.2805,-1.14 -0.8135,-1.03l0.1964,-0.2c-0.3227,0 -0.2946,-0.72 -0.4349,-0.99c-0.028,-0.08 -0.3086,-0.23 -0.3366,-0.28c-0.0421,-0.08 0.028,-0.25 -0.0561,-0.41c-0.0842,-0.14 -0.3227,-0.21 -0.3928,-0.43l0.1964,-0.15c-0.0842,0 -0.1964,-0.05 -0.2385,-0.12c-0.1262,-0.17 -0.547,-1.05 -0.3647,-1.18c0.2104,0 0.4349,0.08 0.4068,-0.26l-0.7154,0.06c-0.2104,-0.23 -0.1262,-0.59 -0.2104,-0.81c-0.028,-0.08 -0.3366,-0.4 -0.3647,-0.47c-0.1262,-0.23 -0.1402,-0.55 -0.3366,-0.79l0.1964,0.06c-0.0702,-0.34 -0.2385,-0.81 0.1823,-0.94l-0.0842,-0.19l0.3928,0.09l0.1683,-0.3c0.1683,0.24 0.3086,0.17 0.5611,0.1c-0.1543,0.33 0.3086,0.45 0.4348,0.75c0.0702,0.17 0.0561,0.23 0.1543,0.47c0.2385,0.53 0.491,0.66 0.2104,1.26l0.2525,-0.31l0.0561,0.31l0.1964,-0.1c-0.2104,0.58 0.1403,0.56 0.3507,0.83c0.3647,0.5 0.8977,2.02 1.2764,2.65c0.1263,0.23 0.0281,0.57 0.519,0.54c-0.1262,-0.23 0,-0.46 -0.0701,-0.7c-0.0842,-0.31 -0.4068,-0.41 -0.0421,-0.47l-0.0982,-0.41l0.1964,0.05l-0.1964,-0.25l0.3086,-0.16c-0.2805,-0.33 -0.3927,-0.67 -0.0982,-1.08l-0.2104,-0.1l0.4068,-1.44l-0.1964,-0.1c-0.028,-0.29 0.2385,-0.54 0.2525,-0.6c0.0982,-0.26 0.0421,-0.46 0.0982,-0.7c0,-0.04 0.3367,-0.76 0.3647,-0.8c0.1543,-0.17 0.4348,-0.03 0.4629,-0.06c0.2104,-0.15 0.1823,-0.14 0.4489,-0.28c0.1402,-0.07 0,-0.27 0.2805,-0.2zM63.5994,1.68l-0.2805,-0.11c-0.014,0.37 -0.3647,0.55 -0.6172,0.78c-0.0701,0.23 0.5891,0.57 0.0982,0.92l0.1964,0.09c-0.3226,0.6 -0.1263,0.99 -0.1263,1.59c0,0.34 -0.0982,0.68 -0.0701,0.98c0.028,0.27 0.4208,0.84 0,0.93l0.2104,0.81l-0.2104,0.12l0.1964,0.05v0.62c-0.1403,-0.08 -0.2665,-0.09 -0.3086,0.1c0.7434,0 0.4348,1.04 0.4208,1.49c0,0.03 0.3086,0.32 0.3647,0.56c0.028,0.14 -0.1824,0.47 -0.1543,0.57c0.014,0.04 0.1543,0.04 0.1823,0.13c0.4068,1.77 1.2064,2.91 2.0059,4.56c0.1262,0.26 0.3787,0.43 0.3366,0.83c0.4068,-0.2 0.2245,0.04 0.5471,0.21c0.1262,0.07 1.2203,0.23 1.2624,0.19c0.0561,-0.06 0.0561,-0.3 0.1263,-0.39c0.014,-0.01 0.2665,0.12 0.2805,-0.13l-0.3927,-0.04c0,-0.58 -0.3928,-1.22 0,-1.75c-0.3788,-0.13 -0.5752,-0.8 -0.505,-1.13c0.0421,-0.21 0.2244,-0.27 0.1964,-0.47l-0.3086,0.1c0.0841,-0.24 -0.0141,-0.53 -0.0842,-0.78c-0.0561,-0.25 -0.0982,-0.36 -0.1543,-0.66c-0.1262,-0.61 -0.3787,-1.18 -0.2665,-1.8l-0.2946,-0.05c0.3086,-0.49 -0.2384,-0.89 -0.2665,-1.03c-0.014,-0.13 0.1403,-0.19 0.0982,-0.4c-0.1122,-0.56 -0.5471,-1.54 -0.7013,-2.04c-0.0281,-0.08 -0.0562,-0.16 -0.1403,-0.21l0.3086,-0.06l-0.0982,-0.41c-0.3507,0.4 -0.6593,-0.13 -0.0982,-0.16l-0.505,-0.73l0.1964,-0.1l-0.1964,-0.05v-0.93l-0.3086,0.1c-0.1262,-0.19 0,-0.44 0,-0.56c0,-0.07 -0.6031,-0.91 -0.6873,-1.07c-0.0982,-0.18 -0.2665,-0.6 -0.2244,-0.72zM30.3556,14.06c-0.1824,-0.07 -0.2946,0.14 -0.4349,0.14c-0.2384,0 -1.0099,-0.2 -1.3185,-0.21c-1.3326,-0.07 -2.623,0 -3.9556,-0.1c-0.3367,-0.03 -0.6312,0.18 -0.9679,-0.16v0.32l-0.4909,-0.03l-0.0701,-0.19h-0.1543l-0.0561,0.22c-0.5471,-0.06 -1.3607,-0.25 -1.8095,0.1l-0.0982,-0.22c-0.3787,0.23 -0.7575,0.14 -1.1642,0.17c-1.2484,0.07 -2.7914,0.1 -3.9977,0.56l-0.0421,-0.2l-0.8697,0.31l-0.1964,-0.2l-0.1543,0.2l0.1964,0.1l-0.4629,0.22l-0.0982,-0.2l-1.066,0.61l0.3086,0.21l0.0982,-0.31c0.028,0.19 -0.1122,0.27 0.1262,0.29c0.2806,0 1.4448,0.15 1.6552,0.21c0.7995,0.27 1.3746,0.21 2.2583,0.39c0.2946,0.05 0.505,0.24 0.7154,0.28c0.4068,0.09 1.557,-0.04 1.9077,0.2c0.0421,0.03 0.028,0.11 0.028,0.17c0.3086,-0.31 0.8416,-0.17 0.8136,0.31c0.1964,0 0.1403,-0.29 0.0982,-0.41l0.4629,0.2c-0.0281,-0.21 0.4488,-0.23 0.6031,-0.2c0.0702,0 0.0561,0.17 0.1122,0.19c1.7113,0.28 3.7312,0.42 5.4706,0.54l0.0981,0.2c0.3227,-0.27 0.6313,0.04 0.8276,0.06c0.4068,0.02 1.2064,-0.29 1.2625,0.15l0.1402,-0.2c0.7435,0.44 0.7014,-0.11 0.8978,-0.18c0.2805,-0.1 0.8556,-0.1 1.1642,-0.2c0.1262,-0.05 0.1122,-0.19 0.1543,-0.22c0.014,0 0.2384,0.17 0.3226,-0.24c0,-0.04 -0.1403,-0.91 -0.1543,-0.95c-0.028,-0.09 -0.1262,-0.09 -0.1964,-0.08c0.3227,-0.34 0.3367,-0.47 0.2665,-0.92c-0.042,-0.25 -0.2945,-0.27 0.0421,-0.62l-0.9678,-0.2l-0.0982,0.2c-0.3367,-0.61 -0.7154,0 -1.1222,-0.12c-0.0701,-0.02 -0.0421,-0.15 -0.0701,-0.16zM43.7092,16.84c-0.4068,-0.23 -0.4208,0 -0.6593,0.16c-0.0561,0.03 -0.1823,0 -0.2104,0.01c-0.014,0.02 0,0.52 0,0.54c0.0141,0.09 0.2525,0.03 0.1123,0.26c0.2805,0.23 0.7013,0.3 0.9959,0.04c0.1543,-0.3 0.0561,-0.84 -0.2385,-1.01zM48.1277,18.42l-0.0701,-0.17c-0.4208,0.46 -1.4588,0.13 -1.9217,0.23c-0.0702,0 0,0.19 -0.1964,0.2c-0.3507,0.02 -1.0099,-0.5 -1.066,0.09c0.1262,0 0.2524,-0.09 0.3787,-0.03c0.2384,0.08 0.7294,0.64 0.8276,0.7c0.0701,0.03 0.2525,0 0.3787,0.03c0.2665,0.07 0.3647,0.37 0.5891,0.04l0.0982,0.2c0.505,-0.27 1.0941,0.23 1.529,-0.3c0.0701,0.34 0.2805,-0.04 0.2524,0.31l0.1684,-0.21h0.2805l0.1683,0.21c-0.1402,-0.21 0.6593,-0.31 0.7575,-0.31c0.028,0 0.1262,0.28 0.4629,0.21c-0.0702,-0.77 -0.9258,-0.61 -1.3606,-1.02l-0.1543,0.19v-0.31l-1.0941,-0.03zM40.6093,18.35c-0.3086,-0.07 -0.2385,0.29 -0.3227,0.39c-0.0701,0.08 -1.3465,0.25 -1.4447,0.03l-0.0842,0.2l-0.5611,-0.05c-0.1543,0.07 0.0561,0.46 0.0982,0.5c0.0701,0.09 0.3787,0.09 0.4769,0.36l0.1964,-0.07l0.0561,0.3c0.1543,-0.05 0.1824,-0.2 0.3507,-0.26c0.3927,-0.13 1.3746,-0.06 1.8235,-0.07l0.1122,-0.2c0.4208,0.23 0.3226,-0.07 0.4068,-0.09c0.3086,-0.05 1.1783,0.15 1.557,0.1c-0.0281,-0.21 -0.3787,-0.15 -0.533,-0.21c-0.0281,0 -0.4068,-0.27 -0.4349,-0.27c-0.2384,-0.06 -0.519,-0.09 -0.7574,-0.03l0.0982,-0.31c-0.3788,0.27 -1.01,0.25 -1.01,-0.32zM59.2511,18.55c-0.2806,-0.25 -0.6873,-0.15 -1.0661,-0.15c-0.3927,0 -1.4588,0.11 -1.7954,0.04c-0.1543,-0.03 -0.2104,-0.19 -0.3787,0.07c0.3647,0.23 0.6312,0.56 1.08,0.57c0.1824,0 0.1122,-0.19 0.2104,-0.21c0.2806,-0.06 1.2064,0.25 1.5991,0.1l0.0561,0.31l0.5751,-0.49c0.3647,-0.02 0.3226,0.29 0.3928,0.29l0.0561,-0.31h0.9959l0.0561,0.21l0.1543,-0.21l0.0561,0.31c0.0982,-0.5 0.8276,-0.06 0.9679,-0.36c0.0701,-0.17 0.0841,-0.2 -0.0982,-0.21c-0.2946,0 -0.1683,0.13 -0.2525,0.14c-0.2665,0.03 -1.0801,-0.24 -1.4308,-0.25c-0.2104,0 -0.6312,0.17 -0.8977,0.15c-0.0701,0 0.014,-0.3 -0.2525,-0.18v0.2zM65.437,18.67c-0.6172,-0.05 -0.7996,0.37 -0.6032,0.92c0.6733,-0.08 0.505,-0.44 0.6032,-0.92zM34.3392,19.37v-0.19l-0.1683,0.21l-0.4489,-0.11l0.0982,0.4l-0.2945,0.17c-0.0562,0.23 0.2945,0.2 0.3085,0.33c0.0141,0.18 -0.1683,0.57 0,0.85c0.2525,-0.15 0.491,-0.01 0.7575,-0.1c0.2805,-0.08 0.4068,-0.28 0.5611,-0.35c0.1964,-0.09 1.1502,-0.29 1.2203,-0.39c-0.0841,-0.27 -0.2104,-0.43 -0.5049,-0.41l0.0981,-0.2c-0.1823,0.01 -0.3226,0 -0.3086,-0.2h-0.1963l0.0561,0.2c-0.2104,-0.19 -0.3928,-0.09 -0.533,-0.13c-0.0281,0 -0.0281,-0.16 -0.0702,-0.16c-0.0701,0 -0.519,0.09 -0.547,0.06zM60.9764,20.11c-0.3226,-0.06 -0.1824,0.27 -0.4769,0.38c-0.2245,0.09 -0.9398,-0.1 -1.2484,0.03l0.0982,0.31l0.3086,-0.1l-0.0561,0.22l0.3647,0.14v0.26c0.2244,0.17 0.1823,-0.33 0.2945,-0.2c0.0561,0.07 0.0982,0.38 0.2946,0.45c0.1262,0.05 0.2946,-0.07 0.4488,-0.05c0.0842,0 0.0702,0.18 0.1964,0.24c0.2104,0.09 0.4208,-0.01 0.6312,0.06l0.0561,0.32l0.1403,-0.19l0.9118,0.18l0.0701,0.31c0.2946,-0.17 0.8276,-0.18 0.9258,0.2l0.2384,-0.1l0.0561,0.42l0.0982,-0.32c0.2385,-0.15 0.1684,0.19 0.2665,0.22c0.1263,0.03 0.6453,-0.1 0.8557,0c0.1823,-0.17 -0.6873,-1.09 -0.7575,-1.24c-0.0701,-0.16 0.1543,-0.26 -0.1823,-0.43l-0.3787,-1.11c-0.1543,0.05 -0.1964,0.21 -0.3647,0.27c-0.1684,0.05 -2.1602,0.08 -2.5249,0.08c-0.1122,0 -0.2385,-0.05 -0.3507,-0.04l0.0982,-0.31zM66.6012,21.5c-0.0281,-0.08 -0.3928,-1.39 -0.6452,-1.09c-0.0421,0.41 0.2665,0.72 0.4208,1.07c0.1262,0.28 0.0701,0.14 0.2244,0.37c0.0561,0.1 -0.0421,0.28 0.1683,0.31c0.1543,-0.38 -0.1402,-0.58 -0.1543,-0.66zM44.0599,21.35h-0.1964v0.31l-0.3086,-0.2c0.0421,0.37 -0.2525,0.13 -0.4629,0.16c-0.1543,0.03 -0.7153,0.18 -0.7574,0.36c0.2384,0.01 0.5049,0.04 0.7294,0.11c0.0701,0.03 0.0841,0.16 0.0982,0.16c0.1402,0.04 0.4488,-0.05 0.6312,0.24c0.1543,-0.49 0.3226,0.08 0.3507,0.1c0.0561,0.03 0.1542,-0.16 0.2665,-0.17c0.0561,0 0.9538,-0.02 1.0099,0c0.0561,0 0.0281,0.15 0.0982,0.17c0.2946,0.04 0.6733,-0.12 0.9679,-0.2l-0.0982,-0.93c-0.1263,0.09 -0.3788,0 -0.4349,0c-0.0841,0.03 -0.0561,0.2 -0.1122,0.2c-0.1543,0 -0.3366,-0.26 -0.6172,-0.27c-0.3226,0 -0.7434,0.36 -1.0941,0.16c-0.1122,-0.06 -0.0701,-0.2 -0.0701,-0.2zM48.801,21.68c0,0 -0.9398,0.05 -0.9819,0.08l-0.1122,0.9l0.1823,0.11l-0.5049,0.1l0.0982,0.52c0.2945,-0.1 0.4769,-0.3 0.5049,-0.62l0.1543,0.2l0.0982,-0.2l0.3086,0.2l0.0842,-0.2c0.4488,0 1.0239,0.4 1.1221,0.4c0.2525,0 1.038,-0.14 1.3186,-0.14c0.519,0 0.6452,0.14 0.9117,0.24c0.0842,0.03 0.519,-0.15 0.6873,-0.15c0.4068,0 0.477,0.24 0.5331,0.25c0.2104,0.06 0.5751,-0.17 1.0099,-0.04c0.4348,0.13 1.2905,0.27 1.7393,0.38c0.2245,0.05 0.505,-0.02 0.7435,0c0.1122,-0.61 -0.8416,-0.24 -0.7154,-0.82l-0.1543,0.2c-0.1964,-0.27 -0.7013,-0.07 -0.6593,-0.42l-0.2384,0.22c-0.5751,-0.42 -1.038,-0.17 -1.5991,-0.23c-0.4769,-0.06 -1.1502,-0.46 -1.6552,-0.54c-0.4348,-0.07 -0.4629,0.1 -0.8837,-0.13c-0.2244,-0.11 -0.4629,0.13 -0.3787,-0.34l-0.0982,0.31l-0.3507,-0.31c-0.2104,0.3 -0.6592,0.51 -0.8135,0.1l-0.2946,0.11c0,0 -0.0561,-0.17 -0.0701,-0.18zM37.7758,24.54l-0.4909,0.14l0.1823,0.58l-0.4629,-0.2l-0.0982,0.2l-0.4208,-0.2c-0.0841,0.41 -0.5049,0.01 -0.8276,0.17c-0.1262,0.05 -0.1402,0.2 -0.1963,0.22c-0.3647,0.2 -0.9819,0.32 -0.8416,0.83l-0.3086,-0.1c0.1122,0.46 -0.6593,1.14 -0.6733,1.5c0,0.13 0.1262,0.28 0.1262,0.43c0.0281,0.4 -0.1403,0.61 0.3928,0.85l0.0982,-0.21l0.1963,0.21c0.1543,-0.41 0.4489,-0.21 0.8136,-0.41l0.1543,0.21c0.0701,-0.54 0.7855,-0.03 1.066,-0.41l0.0982,0.21c0.3507,-0.28 0.6873,-0.08 1.0661,0l-0.4068,0.1c0.0701,0.33 0.6733,0.1 0.6032,-0.15c-0.0421,-0.19 -0.4209,-0.07 -0.4068,-0.26l0.7995,-0.1c0.0281,0.19 0.0421,0.44 0.3086,0.4l-0.1964,-0.51l1.1643,0.08c0.1122,-0.44 0.2945,0.03 0.4769,0c0.0841,0 0.1964,-0.16 0.3226,-0.18c0.2665,-0.08 0.6172,-0.02 0.7013,-0.32h0.1543l0.1964,0.32v-0.42l0.2525,0.32l0.6032,-0.42l0.0981,0.2l0.4629,-0.21l0.0982,0.31c0,-0.57 0.7294,-0.07 0.7154,-0.51c0.2244,0.06 0.1122,0.4 0.4068,0.31c-0.0982,-0.55 0.7855,-0.38 1.1502,-0.41c0.1543,0.04 0.014,0.64 0.3647,0.53l0.0561,-0.32l0.1543,0.16l0.3507,-0.57c0.3366,0.11 0.2384,0.28 0.4068,0.51l0.1543,-0.51c0.2244,0.2 0.3366,0.16 0.6031,0.1l-0.1964,-0.2l0.3507,-0.1c0.1543,0.13 -0.1403,0.6 0.2525,0.51l0.0561,-0.51l0.1543,0.2l0.2104,-0.2l-0.0982,0.2c0.2665,0.08 0.2946,0.07 0.505,-0.1l0.0982,0.2v-0.41l0.547,0.1l0.0561,-0.2l0.1964,0.2c-0.0421,-0.39 0.2805,-0.12 0.4629,-0.15c0.1262,-0.01 0.1683,-0.21 0.3507,-0.15l-0.0982,0.31h0.4068l-0.0982,-0.41l0.3506,0.31c0.3928,0.09 0.1824,-0.14 0.2806,-0.29c0.2384,-0.34 0.9258,-0.08 1.1362,-0.14c0.0701,-0.01 0.0561,-0.2 0.1122,-0.18c0.0982,0 0.2384,0.11 0.4068,0.1c0.2945,-0.03 0.561,-0.15 0.8696,-0.12v-0.3l-0.8135,-0.21c0.1963,-0.2 -0.0281,-0.33 -0.1122,-0.13l-0.0562,0.24c-0.4208,0.05 -0.4208,-0.21 -0.7574,-0.21l0.1964,0.2c-0.3086,0.06 -0.3226,-0.09 -0.4489,-0.31l-0.2104,0.28c-0.8136,-0.09 -1.6131,0.04 -2.4267,0.03c-0.3085,0 -0.6873,-0.19 -0.8135,-0.19c-0.1964,0 -0.3086,0.29 -0.6873,-0.03l-0.0561,0.22l-0.3507,-0.22c0,0.2 -0.4068,0.22 -0.6032,0.22c-0.0701,0 -0.0701,-0.27 -0.3226,-0.29c-0.2104,0 -0.6312,0.19 -0.8837,0.19l-0.0561,-0.2c-0.0982,0.21 -0.7294,0.18 -0.7995,0.08c-0.0281,-0.02 -0.0281,-0.49 -0.2666,-0.61l-0.0561,0.61l-0.1963,-0.31l-0.0982,0.31c-0.3227,-0.09 -0.6593,0 -0.9819,-0.02c-0.1403,0 -0.2525,-0.17 -0.3647,-0.16c-0.1263,0 -0.2946,0.21 -0.4208,0.18c-0.1263,-0.02 -0.0702,-0.45 -0.5892,-0.29c-0.0841,0.02 -0.0701,0.2 -0.1402,0.21c-0.533,0.08 -2.2023,-0.01 -2.609,-0.09c-0.2525,-0.04 -0.6874,-0.11 -0.7154,0.19l-0.0982,-0.31l-0.2525,0.31l-0.0982,-0.73zM32.165,25.94c0.1403,-0.23 0.1123,-0.57 -0.1122,-0.59c-0.2244,-0.01 -0.0421,0.35 -0.0701,0.39c-0.0281,0.04 -0.1964,0.07 -0.2805,0.19c-0.0982,0.14 -0.3227,0.65 -0.0562,0.77c0.0421,-0.3 0.3788,-0.53 0.519,-0.76zM62.3791,26.07c-0.1683,0.14 -1.5149,-0.23 -1.6412,-0.19c-0.0841,0.03 -0.0561,0.2 -0.1262,0.2c-0.1263,0 -0.3226,-0.14 -0.5891,-0.1c-0.4068,0.06 -0.8837,0.4 -1.1783,0.47c-0.4068,0.1 -1.3326,-0.07 -1.7534,0.05c-0.3927,0.11 -0.4208,0.07 -0.7715,0.14c-0.3647,0.07 -1.3886,0.47 -1.7673,0.37c-0.1543,-0.04 0.1262,-0.29 -0.5471,-0.06c-0.0281,0 -0.0281,0.12 -0.0701,0.13c-0.4208,0.11 -0.9398,0.07 -1.3747,0.13l0.0982,0.31l0.2525,-0.11l0.1122,0.21l0.2525,-0.2c0,0.25 0.2946,0.16 0.0982,0.42h0.6031c-0.0981,0.28 0.1684,0.48 -0.1963,0.57l0.1963,0.2c-0.1122,0.1 -0.2384,0.48 -0.3226,0.54c-0.028,0.03 -0.6031,0.18 -0.7294,0.24c-0.2525,0.11 -0.4629,0.31 -0.7294,0.41l-0.0421,-0.2h-0.1963c0.0841,0.5 -0.491,0.4 -0.7715,0.6l-0.1824,-0.2c-0.2244,0.37 -0.6452,0.22 -1.0099,0.42l0.028,-0.16l-0.1823,-0.04c-0.0842,0.37 0.1262,0.21 0.1964,0.41l-0.7575,0.2l-0.0421,-0.2h-0.1543l0.0561,0.2l-0.4067,-0.1l0.0701,0.16l-0.1403,0.07l0.0702,0.18l-0.3086,-0.19c0.0701,0.55 -0.1683,0.18 -0.4489,0.22c-0.0841,0 -0.6452,0.43 -0.6733,0.39l-0.1964,-0.32l0.0982,0.4c-0.3647,0.25 -0.3366,0.15 -0.7013,0.02l0.0982,0.31c-0.2946,-0.2 -0.4769,0.04 -0.7575,0.09l-0.1543,-0.19v0.42c-0.6312,-0.16 -1.2063,0.58 -1.9217,0.31c0.1122,0.37 -0.6873,0.56 -0.9678,0.4l0.0561,0.21l-0.4068,-0.1v0.32l-0.4068,-0.2v0.4c-0.6452,0.04 -1.0941,0.3 -1.6692,0.52l-0.1122,-0.21l-0.1543,0.41l-0.3507,-0.1l0.0561,0.22l-0.5049,-0.1c-0.0842,0.11 0.4067,0.1 0.0981,0.25c-0.1823,0.09 -0.4488,0.12 -0.6452,0.16l-0.1543,-0.21c-0.1823,0.5 -1.038,0.55 -1.4728,0.82c-0.519,0.32 -0.9819,1.07 -1.6412,1.44c-0.1823,0.1 -0.2665,0.03 -0.4348,0c0.519,0.59 -0.3647,0.6 -0.3928,0.65c-0.042,0.05 -0.014,0.2 -0.0701,0.27c-0.2385,0.3 -0.3928,0.34 -0.6032,0.53c-0.2805,0.24 -0.4067,0.67 -0.7574,0.62l0.0982,0.37c-0.3086,0.06 -0.0561,0.42 -0.1403,0.72c-0.0421,0.14 -0.1683,0.28 -0.2525,0.41l0.1964,0.06l-0.1964,0.11c0.0561,0.29 0.2104,0.69 0.1964,0.97c0,0.2 -0.2104,0.16 -0.2104,0.2c-0.0982,0.37 0.2805,0.14 0.2104,0.47h-0.3086c0.4489,0.69 -0.1262,1.46 0.2104,2.05h-0.3086c0.3086,0.35 0.0561,0.85 0.0561,1.3c0,0.32 0.1403,0.47 0,0.97c-0.2525,0.96 -0.2384,1.9 -0.4068,2.98c-0.0561,0.37 -0.3787,0.73 -0.1543,1.23l-0.3085,-0.1c0.1402,0.36 0,0.44 -0.0562,0.7c-0.014,0.07 0.0421,0.17 0.0281,0.21c-0.0281,0.09 -0.3787,0.22 -0.2104,0.76c0.0701,0.21 0.2104,0.18 0.2244,0.21c0.0561,0.12 -0.0701,0.26 -0.028,0.4c0.0982,0.3 0.6312,0.83 0.5751,1.11h0.1823l-0.1963,0.17c0.1402,0.16 0.2665,0.39 0.3506,0.59c0.1403,0.31 0.2806,0.73 0.4769,1.14c0.0842,0.19 0.4489,0.26 0.1824,0.68h-0.3928l0.0982,0.33l0.3507,-0.2c0.3928,0.39 0.1122,0.23 0.0982,0.46c-0.0561,0.57 0.1683,0.38 0.2525,0.43c0.3366,0.18 0.3927,0.71 0.4068,1.07l-0.1964,0.04c0.0701,0.31 0.4208,0.33 0.5751,0.5c0.519,0.54 0.5891,1.28 0.8697,1.88c0.1402,0.31 0.5049,0.69 0.6312,0.98c0.1262,0.3 0.1543,0.49 -0.0561,0.73c0.4909,-0.23 0.519,0.34 0.4067,0.73c0.3928,-0.16 0.2806,0.14 0.3507,0.28c0.014,0.05 0.2385,0 0.1683,0.29l-0.2104,0.16c0.3647,-0.06 0.2245,0.32 0.6032,0.1c-0.0701,0.2 -0.0842,0.52 0.1964,0.51v0.14c-0.1964,0.1 -0.2385,0.07 -0.1964,0.36c0.2946,-0.09 0.4909,-0.06 0.7154,0.17v0.64l0.2945,-0.2l0.2104,0.62l0.1964,-0.1c-0.0701,0.37 0.2104,0.44 0.2946,0.59c0.0561,0.09 0.0421,0.26 0.0982,0.36c0.0841,0.14 0.4348,0.16 0.3086,0.59c0.4909,-0.26 0.2384,0.05 0.3506,0.27c0.0141,0.04 0.4349,0.64 0.477,0.68c0.2665,0.34 0.6312,0.56 0.9538,0.97c0.028,0.04 0.1122,0.04 0.1543,0.04l-0.1964,0.4c0.4909,-0.24 0.4348,0.13 0.7294,0.39c0.2665,0.23 0.3928,0.34 0.6733,0.71c0.0701,0.1 0.0842,0.33 0.1262,0.34c0.0561,0.05 0.2525,-0.15 0.3507,0l-0.0561,0.32c0.4629,-0.2 0.6312,0.31 0.9398,0.54c0.1543,0.13 0.4629,0.17 0.4769,0.18c0,0 -0.0982,0.13 -0.0701,0.18c0.0842,0.15 0.3226,0.28 0.1683,0.64c0.4769,-0.23 0.3507,0.04 0.4769,0.1c0.1964,0.07 1.2765,0.48 1.3186,0.54c0.1823,0.23 0.519,0.85 0.7434,1.08c0.0982,0.1 0.7434,0.16 1.024,0.36c0.3086,0.21 0.2665,0.6 0.6592,0.4c0.0421,0.55 0.2525,0.33 0.4349,0.41c0.4067,0.22 0.8837,0.43 1.2343,0.71c0.1123,0.09 0.2525,0.39 0.2806,0.4c0.1543,0.06 0.2525,-0.21 0.5049,-0.15c0.4489,0.08 0.6874,0.47 0.9539,0.6c0.8135,0.38 2.09,0.44 2.8194,0.72c0.0982,0.05 0.4629,0.4 0.6733,0.46c0.1823,0.04 0.505,-0.09 0.7715,-0.06c0.6172,0.07 1.2905,0.26 1.7814,0.36c0.4068,0.09 0.7855,0.3 1.2063,0.17l0.1122,0.19c-0.0561,-0.4 0.7435,0 1.0661,-0.19c0.0982,0.39 0.1262,0.03 0.2945,0.01c0.0842,0 1.4588,0.25 1.7254,0.26c0.0561,0 0.5891,-0.45 1.0099,-0.1l0.0982,-0.2c0.4629,0.14 0.9258,0.23 1.3606,0l0.0561,0.2c0.0982,-0.44 0.4769,0.04 0.7575,-0.31l0.0561,0.2l0.3506,-0.2l0.0982,0.2l0.0561,-0.22c0.491,0.29 0.2946,-0.32 0.8557,-0.2c-0.2385,0.15 0.3647,0.65 0.5049,0.52l-0.3085,-0.52l2.1739,-0.3l0.407,-0.21l0.098,0.21l0.056,-0.41c0.113,-0.11 1.852,-0.33 2.132,-0.21l-0.098,-0.32c0.295,0 0.463,-0.07 0.674,-0.3l0.336,0.2c-0.028,-0.21 0.112,-0.21 0.295,-0.21v-0.4l0.519,0.1v-0.31l0.252,0.08l0.112,-0.2c0.435,-0.13 0.225,0.26 0.547,0.2c-0.224,-0.45 0.141,-0.38 0.379,-0.55c0.379,-0.26 0.617,-0.35 0.94,-0.53c0.056,-0.03 0.379,-0.42 0.491,-0.46c0.098,-0.04 0.266,0.03 0.323,0c0,0 -0.099,-0.14 0,-0.25c0.14,-0.18 0.505,-0.42 0.715,-0.26l-0.098,-0.32l0.505,0.1v-0.51l0.182,0.09c0.07,-0.3 0.239,-0.32 0.519,-0.29l-0.098,-0.31l0.505,-0.1c-0.211,-0.43 0.042,-0.26 0.14,-0.42c0.028,-0.05 -0.014,-0.14 0,-0.18c0.098,-0.13 0.351,-0.21 0.379,-0.43l0.28,0.09l-0.098,-0.52l0.505,-0.1c-0.21,-0.2 0.337,-0.54 0.365,-0.71c0.028,-0.18 -0.112,-0.4 -0.014,-0.53c0.098,-0.14 0.449,-0.11 0.547,-0.23c0.154,-0.17 0,-0.89 0.14,-0.99c0.098,-0.09 0.365,0.15 0.533,-0.33c0.112,-0.32 0.126,-0.64 0.183,-0.84c0.112,-0.37 0.168,-0.66 0.575,-0.8l-0.197,-0.36c0.323,-0.1 0.225,-0.41 0.309,-0.7c0.365,-1.11 0.575,-2.71 0.715,-4.03c0.028,-0.24 0.098,-0.52 0.183,-0.74l-0.197,-0.05v-0.2c0.323,0.09 0.112,-0.64 0,-0.82l0.309,-0.16c-0.309,-0.1 -0.126,-0.16 -0.169,-0.37c-0.084,-0.54 0,-1.33 -0.028,-1.8c-0.028,-0.43 -0.168,-0.93 0,-1.34l-0.294,-0.06c-0.042,-0.15 0.14,-0.05 0.196,-0.18c0.169,-0.33 -0.112,-0.6 -0.084,-0.64l0.196,-0.06l-0.182,-0.29l-0.196,-2.42c-0.435,-0.27 -0.07,-0.2 -0.056,-0.38c0,-0.06 -0.197,-0.29 -0.239,-0.46c-0.056,-0.31 0.028,-0.9 -0.351,-1.08c0.519,-0.95 -0.21,-1.97 -0.49,-2.93c-0.071,-0.23 0.126,-0.61 -0.323,-0.9l0.196,-0.1c-0.308,-0.24 -0.182,-0.68 -0.21,-0.91c0,-0.07 -0.407,-0.74 -0.519,-1.04c-0.126,-0.34 0.14,-0.44 -0.295,-0.61l0.197,-0.06c0.098,-0.27 -0.169,-0.16 -0.197,-0.27c-0.028,-0.13 0.014,-0.3 0,-0.44l-0.308,0.1c0.14,-0.35 -0.112,-0.5 -0.281,-0.77l0.281,-0.36l-0.491,-0.23l0.056,-0.17h-0.168c-0.099,-0.34 0.182,-0.11 0.196,-0.33l-0.407,-0.05c-0.098,-0.09 0.084,-0.3 -0.196,-0.26l0.196,-0.3l-0.407,-0.26l0.197,-0.35c-0.155,-0.08 -0.042,0.38 -0.253,0.1c-0.392,-0.52 -0.729,-1.22 -1.122,-1.76c-0.084,-0.13 -0.393,-0.38 -0.477,-0.54c-0.098,-0.19 -0.196,-0.83 -0.266,-0.93c-0.211,-0.31 -0.926,-0.94 -1.235,-1.37c-0.112,-0.14 0.056,-0.4 -0.406,-0.37c0.21,-0.44 -0.66,-0.77 -0.912,-1.09c-0.14,-0.19 -0.169,-0.42 -0.098,-0.65h-0.407c-0.028,-0.3 0.084,-0.37 -0.211,-0.2l0.197,-0.41l-0.617,-0.04l-0.099,-0.37l-0.308,0.1c0.098,-0.53 -0.098,-0.33 -0.295,-0.47c-0.154,-0.12 -0.308,-0.19 -0.322,-0.2c-0.169,-0.17 0.042,-0.37 -0.351,-0.36l-0.154,-0.63c-0.407,0.27 -0.814,-0.43 -1.165,-0.72c-0.042,-0.05 -0.42,-0.13 -0.533,-0.33c-0.07,-0.15 0,-0.33 -0.028,-0.39c0,-0.03 -0.21,0.1 -0.491,-0.05c-0.631,-0.33 -0.883,-0.76 -1.248,-1.26c-0.014,-0.03 -0.3647,0 -0.519,-0.13c-0.1122,-0.08 -0.0561,-0.24 -0.0982,-0.28c-0.3086,-0.26 -1.0099,-0.37 -1.2904,-0.6c-0.2105,-0.17 0.1122,-0.23 0.0981,-0.36c-0.3086,-0.06 -0.6592,0.09 -0.7294,-0.3c-0.2524,0.14 -0.5049,-0.16 -0.7294,-0.27c-0.3366,-0.17 -0.8275,-0.16 -0.6733,-0.67c-0.4909,0.47 -0.8696,-0.3 -1.1361,-0.47c-0.1403,-0.09 -1.038,-0.44 -1.1502,-0.37l-0.0982,-0.2l-0.2946,0.11l-0.0561,-0.31c-0.1683,-0.04 -0.0561,0.14 -0.1122,0.19zM51.4521,27.42l-0.1543,-0.51l-0.2104,0.26c0.0982,0.47 0.1122,0.48 0.533,0.37c0.1824,-0.05 0.2806,0.07 0.2385,-0.22zM52.5742,27.62l-0.4067,0.16c0.4488,0.1 -0.0842,0.43 0.2525,0.67l0.561,-0.36l-0.4068,-0.15v-0.3zM29.2615,28.45c-0.3367,0.03 -0.2104,-0.31 -0.2946,-0.37l-0.4068,-0.04c0.2104,0.48 -0.028,0.22 -0.2384,0.4c-0.0281,0.02 -0.2806,0.45 -0.491,0.59l-0.7855,0.35c-0.0842,0.12 0.8556,0.87 0.7154,1.24l0.0982,-0.2h0.5049l-0.042,-0.2l-0.3507,-0.06c0.0982,-0.23 0.3507,-0.06 0.3927,-0.07c0.1543,-0.1 0.0561,-0.57 0.3788,-0.6c0.0561,0 0,0.33 0.2524,0.2l-0.3085,-0.41c0.4488,0 0.1823,-0.4 0.2945,-0.56l0.3086,-0.06v-0.2zM49.1236,29.28l-0.0982,-0.2c-0.0701,0.57 -0.8837,-0.3 -1.066,0.41l-0.1964,-0.2c-0.1122,0.46 -0.2525,0.03 -0.4769,0.03c-0.5751,-0.01 -1.5991,0.36 -2.1461,0.37c-0.2665,0 -0.9959,-0.33 -0.9679,0.11l-0.3086,-0.2v0.26c-0.4068,0.1 -1.024,0.57 -1.2203,0.99c-0.4349,-0.43 -0.2245,0.15 -0.6032,0.04v0.35c-0.5611,-0.22 -0.5611,1 -1.2203,0.62c0.2244,0.64 -0.3647,0.38 -0.3928,0.41c-0.0561,0.06 -0.1122,0.64 -0.519,0.67l0.2525,0.26c0.0982,-0.22 0.0842,-0.24 0.3507,-0.2l0.028,0.67l0.2806,0.04l-0.3086,-0.51h0.4068l-0.0982,-0.42c0.2665,0.08 0.4067,-0.25 0.4348,-0.27c0.2244,-0.11 0.9538,-0.25 1.1783,-0.38c0.028,-0.02 0.014,-0.12 0.014,-0.17l0.2525,0.3c0.3647,-0.33 -0.1403,-0.06 -0.0561,-0.42c0.561,0.12 0.7995,-0.18 1.2624,-0.41c0.0842,0.24 0.1262,0.14 0.3366,0.19l0.1684,-0.4c0.2524,0.17 0.1262,0.3 -0.0421,0.45l0.3086,0.16c-0.0842,-0.26 -0.0561,-0.47 0.2104,-0.57l-0.1964,-0.16c0.1683,-0.11 0.7575,0 0.7995,-0.01c0.0421,-0.02 0.0561,-0.24 0.1684,-0.3c0.2104,-0.1 0.3787,0.4 0.6592,0.2l-0.3086,-0.32c0.1543,0.05 0.6593,-0.42 0.6032,-0.05c-0.0281,0.14 -0.2244,0.3 0.0561,0.25l0.3507,-0.25l-0.1964,-0.16c0.0842,-0.31 0.2805,-0.09 0.4348,-0.1c0.0702,0 0.0561,-0.17 0.1403,-0.2c0.3367,-0.1 0.7014,-0.08 1.038,0l0.1543,-0.51l0.3787,0.1c0.2946,-0.6 0.3647,-0.12 0.6032,-0.13c0.1262,0 0.3086,-0.22 0.4769,-0.19c0,-0.42 -0.519,-0.31 -0.7995,-0.38l-0.1123,0.18zM40.3007,30.5l0.1683,-0.3c-0.1543,-0.5 -0.2805,-0.03 -0.2946,-0.01c-0.0841,0.03 -0.547,-0.06 -0.7434,-0.02c-0.2665,0.05 -1.1923,0.42 -1.3466,0.29c-0.1122,-0.09 -0.028,-0.33 -0.2946,-0.26v0.32c-0.4909,-0.26 -1.052,0.08 -1.4728,0.1c-0.1543,0 -0.2946,-0.12 -0.4068,-0.12c-0.042,0 -0.0701,0.29 -0.3086,0.17c-0.028,-0.05 -0.3787,-0.71 -0.547,-0.58l0.3086,0.61l-0.7154,-0.1l0.0561,0.2c-0.519,-0.15 -0.8416,-0.13 -1.2624,0.2l0.4068,0.47c-0.3226,0.06 -0.1684,0.54 -0.2104,0.7c-0.0281,0.09 -0.1824,0.06 -0.1964,0.13c-0.0561,0.34 0.4489,1.37 -0.0982,1.5l0.3928,0.61l-0.0982,-0.41c0.4208,-0.13 0.8416,-0.33 1.2203,-0.56c0.3226,-0.18 0.0842,-0.08 0.2946,-0.33c0.3927,-0.44 0.5049,0.15 0.5611,0.16l0.1543,-0.41l0.1963,0.1c-0.0421,-0.46 0.0842,-0.22 0.1964,-0.29c0.2805,-0.14 0.4489,-0.37 0.8136,-0.28v-0.26c0.4769,0.07 0.533,-0.39 0.8416,-0.56c0.3507,-0.2 1.1923,-0.4 1.3887,-0.53c0.2244,-0.15 0.6873,-0.78 1.0099,-0.58zM32.0949,31.03l-0.7154,-0.1v0.3l-0.3086,0.01c0.1684,0.3 -0.1262,0.49 -0.1823,0.8c-0.0421,0.27 0.014,0.55 -0.0281,0.8c-0.042,0.2 -0.3506,1.24 -0.2945,1.3l0.4067,-0.1l-0.1963,-0.16c0.1683,-0.3 0.547,-0.62 0.4068,-0.98h0.4067l-0.3086,-0.1l0.8136,-1.76zM27.5361,32.98c0.1543,-0.48 0.0842,-0.75 -0.519,-0.57v0.42c0.1263,0.15 0.3227,0.17 0.519,0.14zM37.9722,33.7c-0.0701,-0.16 0,-0.43 -0.2525,-0.42c-0.2384,0.17 -0.547,0.2 -0.7855,0.32c-0.1262,0.05 -0.1403,0.38 -0.4769,0.2l0.0982,0.31l-0.4068,-0.07l-0.0982,0.27l-0.0982,-0.31l-0.2946,0.11c0.0982,0.37 -0.0701,0.71 0.4068,0.81c0.0421,-0.08 0,-0.31 0.0281,-0.35c0.0841,-0.19 1.2203,-0.77 1.4728,-0.86c0.1403,-0.04 0.2806,-0.03 0.4208,-0.03zM26.6244,33.4c-0.5751,-0.02 -0.3086,0.11 -0.4348,0.27c-0.0842,0.11 -0.3367,0.17 -0.477,0.3c-0.2384,0.24 -0.2244,0.61 -0.6031,0.57v0.4c-0.2806,0.14 -0.1543,-0.39 -0.4208,-0.16c-0.1122,0.1 0.014,0.24 -0.0421,0.36c-0.0281,0.04 -0.7294,0.77 -0.7855,0.8c-0.0982,0.05 -0.2104,0.02 -0.3226,0.02l-0.0702,-0.21l-0.3086,0.31l0.3086,0.06c-0.1543,0.12 -0.2244,0.37 -0.3506,0.47c-0.3367,0.29 -0.4489,0.42 -0.7575,0.74c-0.533,0.59 -1.2203,1.1 -1.6552,1.59c-0.3787,0.41 -0.8977,0.92 -1.3746,1.18l0.0982,0.3c-0.9118,0.34 -1.2905,1.45 -2.1041,1.98c0.2245,0.36 -0.3226,0.09 -0.4208,0.39l0.4629,-0.09c0.1964,0.54 0.2104,-0.07 0.3928,0l0.0561,0.42l0.4068,-0.1l-0.1964,-0.38l0.0982,-0.2c0.3647,0.1 0.4909,-0.29 0.7855,-0.34c0.1262,-0.01 0.2945,0.09 0.3226,0.07c0.0982,-0.05 0.014,-0.3 0.519,-0.45c0.2665,-0.09 1.1642,-0.49 1.3325,-0.73c0.0562,-0.09 0,-0.24 0.0281,-0.31c0.0842,-0.15 0.3787,-0.23 0.4629,-0.32c0.1823,-0.18 0.8416,-0.97 0.9398,-1.04c0.0701,-0.04 0.2385,0.13 0.3366,-0.01c-0.1402,-0.69 0.2105,-0.34 0.4349,-0.53c0,0 -0.0561,-0.14 -0.014,-0.19c0.6031,-0.81 1.2764,-1.35 1.9357,-1.98c0.0561,-0.05 0.2525,-0.55 0.3366,-0.7c0.1824,-0.01 0.0561,0.23 0.1964,0.36c0.0281,0.03 0.2385,-0.01 0.3086,0.04v-0.31l-0.2946,-0.06c0,-0.17 0.491,-0.47 0.5751,-0.6c0,0 0.1263,-0.24 0.1263,-0.25c0.0561,-0.19 -0.1263,-0.5 0.2104,-0.45l-0.1964,-0.1l0.1964,-0.39l-0.1964,-0.06l0.1964,-0.67zM32.0949,33.81l-0.0982,-0.37l-0.4068,0.1c0.7996,0.16 0.1263,0.9 0.0982,1.38l0.4068,0.1c-0.1403,-0.35 0.1964,-0.42 0.1964,-0.45c0,-0.16 -0.1543,-0.36 -0.0982,-0.6c0.028,-0.12 0.2946,-0.14 0.3086,-0.23c0.0421,-0.33 -0.3928,0.07 -0.4068,0.06zM31.4076,37.59v-0.18l-0.1122,0.31l-0.4068,-0.22l-0.0561,0.32l-0.2525,-0.1l0.0982,0.3l-0.2946,0.17l0.1964,0.1l-0.0982,1.65h0.4208l0.0982,-0.47l0.3086,0.1c0,-0.54 0.2385,-0.43 0.3928,-0.57c0.0981,-0.08 0.0841,-0.23 0.1542,-0.31c0.0421,-0.06 0.1543,-0.03 0.1543,-0.04c0.0141,-0.03 -0.3506,-0.43 -0.0981,-0.62c0.2524,-0.18 0.2945,0.29 0.4488,0.2l0.2525,-0.35l-0.6032,-0.06v-0.41c-0.2384,-0.03 -0.2805,0 -0.3506,0.21l-0.2385,-0.03zM31.099,40.6l-0.1122,-0.19v0.56l0.3086,0.16c-0.4349,-0.05 -0.6032,0.54 -0.9118,0.78c0.1263,0.63 0,1.31 0.0421,1.94c0,0.14 0.1543,0.34 0.1683,0.61c0.0281,0.6 -0.3086,1.34 0.0982,1.86l-0.1964,0.1c0.3788,0.35 0.0421,0.94 0.2104,1.4c0.2946,-0.09 0.4489,-0.63 0.3788,-0.89c-0.0141,-0.07 -0.1824,-0.04 -0.1824,-0.1c0.0281,-0.24 0.3787,-0.77 0.4068,-1.04c0.0842,-0.76 -0.0281,-1.97 0.0982,-2.77c0.028,-0.15 0.1683,-0.27 0.2104,-0.42l-0.2104,-0.26h0.1823l-0.0561,-0.2l0.1824,-0.11h-0.1964c0.2946,-0.43 -0.0701,-0.83 0.4068,-1.29c0.0421,-0.28 -0.6453,-0.2 -0.7996,-0.17zM21.757,42.35c-0.0981,-0.3 -0.2805,-0.15 -0.5049,-0.1c0.2104,0.3 -0.505,0.4 -0.4068,0.82c0.4629,0 0.2104,-0.2 0.3647,-0.32c0.0701,-0.05 0.2525,-0.07 0.3507,-0.08l-0.0982,-0.26l0.3086,-0.06zM25.923,52.25c-0.2665,0.11 -0.3506,0 -0.5049,-0.04c-0.3647,-0.1 0.1122,1.01 -0.4068,1.02l0.1122,0.25l0.3928,0.11c0.2104,-0.3 0.0982,-0.8 0.2104,-1.05c0.0561,-0.13 0.2805,0 0.1963,-0.29zM27.1294,54.72l-0.6032,-0.1l-0.1122,0.61c0.4489,0.09 0.6172,-0.07 0.7154,-0.51zM109.902,88.8c0.239,-0.41 -0.098,-0.6 -0.477,-0.7l-0.098,0.71l0.589,-0.02z" fill="black"/>
<path id="Vector_983" d="M73.543,64.93c0.029,0.36 0.281,0.84 -0.308,0.41c-0.028,0.42 -0.435,0.3 -0.715,0.42l-0.099,-0.32c0.155,0.25 -0.392,0.52 -0.561,0.52c-0.028,0 -0.112,-0.27 -0.35,-0.22l0.084,0.26c-0.084,0.24 -0.365,0 -0.393,0.04c-0.028,0.03 0.056,0.22 -0.07,0.32c-0.126,0.11 -0.561,0.15 -0.744,0.25c-0.14,0.07 -0.28,0.33 -0.364,0.33c-0.084,0 -0.169,-0.26 -0.351,-0.18l0.196,0.31c-0.392,-0.14 -0.9113,0.46 -0.715,0.73c0.182,0.22 0.168,-0.27 0.309,-0.2c-0.042,0.4 0.21,0.4 0.505,0.51c0,-0.2 -0.085,-0.37 0.196,-0.31l0.056,0.31c0.477,-0.16 0.435,0.3 0.772,0.31c0.336,0.53 -0.435,0.26 -0.73,0.1l0.098,0.32l-0.308,0.1l-0.112,-0.42l-0.183,0.09l-0.112,-0.19c0.042,0.46 -0.21,0.3 -0.309,0.37c-0.154,0.12 -0.098,0.29 -0.5046,0.25l0.1966,0.15c-0.3369,0.36 -0.421,1.09 -1.0101,0.99l0.3085,0.15c-0.5891,0.26 0.0281,0.76 -0.8135,0.77l0.1964,0.26c-0.2946,0.19 -0.3367,0.64 -0.7014,0.57l0.1964,0.2c-0.0842,-0.01 -0.1403,0 -0.1964,0.09c-0.4208,0.62 -0.7574,1.35 -1.1221,2.01c-0.0842,0.15 -0.4489,0.27 -0.4068,0.68l0.6031,0.1l-0.0981,-0.2c0.1122,-0.13 0.7714,0.16 1.0099,0.05c0.2104,-0.1 0.5891,-0.63 0.6172,-0.65c0.0701,-0.03 0.2805,0.09 0.4348,0.09c0.0982,0 0.2244,-0.1 0.3086,-0.1c0.0561,0 0.0561,0.14 0.0842,0.16c0.1262,0.05 0.2945,-0.05 0.3787,0.31c0.0561,0.23 -0.2946,0.04 -0.1964,0.36l0.3086,-0.1c0.1264,0.45 0,0.6 -0.1964,0.91c-0.0982,0.16 0.1543,0.3 -0.3086,0.11l0.1543,0.42c-0.4208,0.15 -0.3647,0.42 -0.8696,0.2l0.0982,0.2c-0.0842,0.04 -0.3227,0 -0.3507,0.02c-0.1403,0.08 0.1262,0.33 -0.4068,-0.02l-0.1683,0.3c-0.2245,-0.08 -0.4629,-0.15 -0.7014,-0.15c-0.2384,0 -0.8837,0.09 -1.038,0.06c-0.0841,-0.01 -0.0982,-0.19 -0.1823,-0.24c-0.4208,-0.29 -0.3647,-0.15 -0.6032,-0.56c0,-0.01 -0.2665,0.06 -0.4208,-0.11c-0.1543,-0.17 -0.3226,-0.83 -0.4068,-1.09c-0.1262,-0.38 -0.2525,-0.62 -0.2384,-1.15c0,-0.34 0.3366,-0.73 -0.0281,-0.8c0.1683,-0.63 0.3647,-1.4 0.8977,-1.75c-0.1542,0.05 -0.2244,-0.35 -0.1963,-0.36c0.0561,-0.03 0.2244,0.03 0.2945,-0.02c0.0421,-0.01 0.0842,-0.72 0.2245,-0.86l0.7013,-0.16c0.0842,-0.1 -0.2946,-0.54 -0.0841,-0.81c0,0 0.1402,0.07 0.2384,0c0.3507,-0.26 0.0421,-0.52 0.7575,-0.32v-0.31l-0.2525,0.2c-0.1403,-0.4 0.533,-0.54 0.7855,-0.72c0.1683,-0.11 0.2384,-0.38 0.6452,-0.41l-0.0561,-0.31c0.3647,0.05 0.3788,-0.46 0.7996,-0.22c0.028,-0.54 0.2524,-0.32 0.5049,-0.47c0.0561,-0.03 0.2806,-0.33 0.4629,-0.45c0.2243,-0.15 0.5333,-0.12 0.7153,-0.4l0.253,0.18l0.07,-0.31l1.108,-0.29l0.154,0.19c-0.07,-0.6 0.701,-0.44 1.052,-0.51c0.084,-0.02 0.084,-0.19 0.14,-0.22c0.197,-0.07 0.435,-0.01 0.59,-0.2l0.098,0.2l0.252,-0.1c-0.042,0.17 0.028,0.2 0.098,0.32c0,-0.08 0,-0.15 0,-0.2c0.225,0.1 0.323,-0.18 0.351,-0.19c0.253,-0.06 0.603,0.07 0.856,-0.03l-0.197,0.62l0.197,0.09c-0.197,0.03 -0.463,-0.15 -0.645,-0.09c-0.169,0.05 -0.099,0.32 -0.267,0.29c0.07,-0.34 -0.21,-0.39 -0.309,-0.51z" fill="black"/>
<path id="Vector_984" d="M79.406,52.99l0.028,0.27c0.814,-0.05 0.758,0.46 1.108,1l-0.21,0.2l0.28,0.31c-0.042,0.15 -0.112,0.26 -0.182,0.39c-0.491,0.97 -0.828,1.1 -1.515,1.88c-0.042,0.06 -0.336,0.53 -0.505,0.62c-0.126,0.05 -0.28,0.04 -0.407,0.05l0.197,0.2c-0.239,0.12 -0.786,0.06 -0.996,0.13c-0.014,0 -0.028,0.21 -0.295,0.26c-0.589,0.08 -0.224,0.1 -0.505,0.21c-0.182,0.07 -0.771,0.09 -1.024,0.09c-0.21,0 -0.238,-0.26 -0.589,0.02l-0.056,-0.31c-0.168,-0.04 -0.056,0.14 -0.14,0.19c-0.126,0.05 -0.786,-0.09 -0.912,-0.17c-0.112,-0.09 -0.042,-0.28 -0.07,-0.3c-0.098,-0.1 -0.757,0.24 -0.814,-0.59c-0.042,-0.61 0.449,-0.81 0.982,-0.78c0.379,0.01 0.197,0.21 0.295,0.21l0.112,-0.21h0.379l0.112,0.21c0.056,0 0.056,-0.41 0.252,-0.2c0.043,0.04 -0.084,0.24 0.099,0.2l0.07,-0.2l1.753,-0.73l-0.098,-0.2c0.449,0.06 0.547,-0.41 0.673,-0.61c0.127,-0.18 0.379,-0.27 0.435,-0.67c0,-0.04 -0.617,-0.26 0,-0.51l-0.21,-0.1l0.659,-0.57l0.056,0.31l0.112,-0.2l0.295,0.1c-0.042,-0.37 -0.295,-0.21 -0.407,-0.41c0.351,-0.12 0.631,-0.22 0.996,-0.09z" fill="black"/>
<path id="Vector_985" d="M71.215,57.4l-0.084,0.26l0.196,0.1l-0.098,0.24c0.098,0.04 0.211,0.05 0.267,0.15c0.028,0.06 -0.07,1.2 0.028,1.4l-0.309,0.06c0,0.08 0.211,0.01 0.267,0.26c0.196,0.84 -0.688,1.61 -0.772,2.38c-0.238,-0.2 -0.182,0.07 -0.266,0.1c-0.449,0.13 -0.365,-0.37 -0.589,-0.32c-0.155,0.1 -0.225,0.6 -0.463,0.26c0.35,-0.04 0.056,-0.44 0.154,-0.57c0.07,-0.1 0.421,-0.09 0.196,-0.3l-0.35,0.21v-1.07l0.196,-0.11l-0.21,-0.11l0.308,-1.34l-0.154,-0.26c-0.449,0.04 -0.7294,0.57 -1.1642,0.41l0.0841,0.3c-0.3647,0.15 -0.4208,0.67 -0.8977,0.64l0.0842,0.19l-0.4769,0.24c0.2244,0.52 -0.1263,0.43 -0.2806,0.64c-0.0561,0.09 -0.3927,0.87 -0.6452,0.69c-0.0141,0 -0.1684,-0.34 -0.1684,-0.36c0,-0.13 0.0281,-0.21 0,-0.51c-0.0701,-0.59 0.3086,-0.63 0.1684,-0.06l0.3086,-0.16c0.0841,-0.18 -0.1964,-0.14 -0.2104,-0.21c-0.0281,-0.61 0.3787,-0.8 0.5751,-1.11c0.0841,-0.13 0.0701,-0.33 0.1823,-0.49c0.2104,-0.27 0.533,-0.5 0.7014,-0.82l0.0982,0.2c0.1542,-0.08 0.0561,-0.23 0.0981,-0.29c0.0421,-0.06 0.6453,-0.6 0.6874,-0.63c0.1122,-0.04 0.1122,0.05 0.4626,-0.11c0.421,-0.19 0.912,-0.3 1.375,-0.2c0.308,0.07 0.393,0.43 0.673,0.28z" fill="black"/>
<path id="Vector_986" d="M59.839,61.14c0.3367,0.47 0.1263,0.98 -0.0701,1.44c-0.2805,0.62 -0.6452,0.88 -0.9819,1.34c-0.0842,0.11 -0.0561,0.34 -0.1823,0.5c-0.0562,0.07 -0.1964,0 -0.2245,0.02c-0.9258,0.9 -2.4407,1.72 -3.8153,1.5c-0.1543,-0.03 -1.2624,-0.54 -1.3466,-0.64c-0.1403,-0.16 -0.0841,-0.5 -0.1543,-0.58c-0.0421,-0.05 -0.2244,0.01 -0.2946,-0.08c-0.0981,-0.12 -0.1402,-0.91 -0.0841,-0.97h0.7013l-0.1963,0.3c0.3506,-0.18 0.3927,0.13 0.6312,0.23c0.7434,0.32 1.0099,0.4 1.7674,0.1c0.1402,-0.06 0.2384,-0.24 0.3226,-0.27c0.2244,-0.08 0.2805,0.26 0.3086,-0.21c0.2384,0.05 0.4769,-0.27 0.6452,-0.43c0.7996,-0.69 0.9118,-0.97 1.3326,-1.78c0.0561,-0.1 0.3647,-0.59 0.4208,-0.63c0.2384,-0.14 0.4068,0.13 0.4909,-0.2c0.0982,0 0.6593,0.26 0.7294,0.34z" fill="black"/>
</g></svg>