<svg width="75" height="75" viewBox="0 0 75 75" fill="none" xmlns="http://www.w3.org/2000/svg">
<path d="M36.7633 0.00713068C57.9719 -0.507301 75.4392 17.0301 74.8312 38.2387C74.27 58.1846 58.5097 73.9917 38.5404 74.5763C18.5711 75.1609 1.59486 59.6344 0.355552 39.7119C-0.977292 18.5033 15.5547 0.521549 36.7633 0.0305011V0.00713068ZM37.2076 4.00566C20.2079 4.14596 5.96758 17.3341 4.42428 34.2402C2.69392 53.1806 17.1448 69.6892 36.0852 70.5777C54.1371 71.4195 69.7804 57.3896 70.8093 39.3377C71.8381 21.2859 57.7147 4.91761 39.1484 4.02905H37.2076V4.00566Z" fill="#808080"/>
<path d="M9.82227 29.003H17.679C20.6954 29.2369 23.4079 31.1543 24.5303 33.9603L32.9951 27.3662L36.0349 29.8215L28.4119 35.7842V35.8543L29.8149 37.0001H29.9085L37.5547 30.9672L40.6648 33.3991L32.9717 39.4553L34.4448 40.6479L42.2081 34.5449V29.0264H47.7499V40.3673H53.3618V45.0673H42.2081V39.5021L32.9951 46.7275L24.5537 40.1335C23.3377 42.9394 20.6019 44.8569 17.5387 45.0439H9.82227V29.0498V29.003ZM15.177 40.4141C16.3462 40.4141 17.4452 40.531 18.474 39.923C20.5785 38.7071 20.4383 35.0359 18.2402 33.9603C17.5154 33.6095 16.089 33.4692 15.2939 33.5628C15.2472 33.5628 15.2004 33.5628 15.177 33.6095V40.4141Z" fill="#808080"/>
<path d="M60.4294 29.002V40.3428H65.9946V45.0195H54.8643V29.002H60.4294Z" fill="#808080"/>
</svg>
