<svg width="25" height="21" viewBox="0 0 25 21" fill="none" xmlns="http://www.w3.org/2000/svg">
<path d="M0.154785 2.40079C0.609505 5.04791 0.365905 7.74374 0.252225 10.4071C0.203505 11.6576 0.154785 12.9081 0.252225 14.1423C0.349665 15.3765 0.771905 16.5945 0.869344 17.845C0.950544 18.8681 0.641985 20.5084 1.92494 20.8981C2.52582 21.0768 3.24038 20.8494 3.80878 20.687C5.02678 20.346 6.26102 20.0537 7.52774 19.9075C11.9775 19.3716 16.6059 19.7289 21.0556 20.1673C22.16 20.281 23.8164 20.5246 24.3199 19.2417C24.8233 17.9587 24.19 16.286 23.8976 15.0842C23.7028 14.256 23.4267 13.4277 23.3455 12.5833C23.2156 11.3653 23.3455 10.0498 23.4104 8.83182C23.4754 7.37022 23.5728 5.90863 23.654 4.44703C23.719 3.27775 23.784 2.09223 23.4429 0.95543C23.1506 -0.0514487 21.5753 0.387031 21.8839 1.39391C22.436 3.26151 21.9813 5.58383 21.8839 7.50014C21.7864 9.41646 21.5104 11.4302 21.8514 13.3303C22.095 14.7269 22.566 16.0911 22.7933 17.4877C22.842 17.7638 22.8745 18.0561 22.8745 18.3322C22.8745 18.4459 22.7771 18.7545 22.8745 18.6245C22.9395 18.5596 22.501 18.6245 22.3386 18.6245C21.9164 18.6245 21.4941 18.5921 21.0719 18.5433C17.2555 18.1698 13.3579 17.91 9.50902 18.1211C7.36534 18.2348 5.3191 18.5921 3.25662 19.1605C2.99678 19.2417 2.7207 19.2741 2.46086 19.3391C2.81814 19.2579 2.41214 19.7451 2.5583 19.3391C2.73694 18.8681 2.50958 17.7963 2.44462 17.2929C2.28222 16.0424 1.9087 14.8731 1.85998 13.5901C1.81126 12.3072 1.85998 10.9593 1.92494 9.64382C2.05486 7.06166 2.16854 4.51199 1.73006 1.96231C1.55142 0.93919 -0.0076146 1.37767 0.171025 2.40079H0.154785Z" fill="#2D2D2D"/>
</svg>
