<svg width="83" height="44" viewBox="0 0 83 44" fill="none" xmlns="http://www.w3.org/2000/svg">
<path d="M28.5771 21.2207L29.0231 16.4413C31.1357 15.0572 31.8163 12.1376 33.1543 10.7103C34.4923 9.28291 36.1824 9.65056 37.5438 8.85038C38.1306 8.50435 38.1776 8.00696 38.5531 7.74744C40.6188 6.32009 46.1584 6.29845 48.0832 7.87719C48.9517 8.59087 51.0642 10.5589 51.8858 11.3807C54.3505 13.8245 53.1768 17.3929 54.6322 20.3773C55.3598 20.2476 56.8621 20.6585 57.3551 20.0962C58.2705 19.0797 58.2235 17.4577 58.4817 16.3764C58.8808 14.7112 59.7493 14.8842 60.7117 13.9326C62.0966 12.5485 62.1435 10.9265 64.2326 9.58567C66.4626 8.13669 67.5189 8.85037 69.8192 8.56922C71.6736 8.35296 72.1195 7.33653 74.3964 8.05021C77.0019 8.85039 77.1428 10.3642 78.6685 11.7051C80.3351 13.1757 81.0862 12.6783 82.1191 15.2735C83.1519 17.8903 82.5416 19.1446 82.612 21.61C82.6589 23.2536 83.9969 27.0599 81.4149 27.3843C80.3117 27.5141 77.9644 27.7087 76.8611 27.7087C75.1945 27.7087 73.1524 26.5409 71.0633 26.5625C70.2417 26.5625 69.4906 27.0815 68.6221 27.1464C67.1198 27.2546 64.0448 26.0651 64.5143 28.6603C65.6879 29.9362 65.7114 31.861 66.7912 33.0288C68.0118 34.3697 70.8755 36.0133 72.8238 35.7538C75.5936 35.3861 79.3727 28.6386 81.9547 32.5314C83.9499 35.5591 82.2599 38.0678 79.6074 40.0142C76.0865 42.5661 70.6407 44.2314 66.4625 42.0471C62.965 40.2305 57.9418 33.6992 57.5428 30.066C57.4254 29.0279 57.6132 27.8817 57.5428 26.8437C55.8058 26.8004 54.2566 27.1464 52.4961 27.1464C50.7356 27.1464 48.9517 26.649 47.0269 26.8437C44.8674 27.0599 43.9989 27.925 41.276 27.6654C39.7268 27.5141 37.849 26.303 36.511 27.3194C36.4171 27.7087 37.0274 30.585 37.2387 31.1257C37.4499 31.6664 38.6235 33.8723 38.9756 34.3048C39.938 35.4943 43.013 35.797 44.4683 35.4294C46.3462 34.9752 49.3742 29.7632 51.4868 31.7529C52.9421 33.137 52.5431 37.5055 51.5337 39.1275C49.9376 41.7227 46.4401 41.528 43.8346 42.1552C42.1445 42.5661 42.3323 43.5177 39.8911 42.7175C39.3512 42.5445 34.5627 40.4683 34.3045 40.2953C32.0981 38.7815 32.4971 36.2296 31.3704 34.6508C31.1591 34.3481 30.6662 34.3264 30.3611 33.829C29.4456 32.2503 30.1968 30.2174 29.4691 28.5954L27.826 28.8333C27.8964 30.5418 26.441 31.9259 26.0655 33.3965C25.2205 36.5972 27.2861 42.6094 21.7465 42.631C18.249 42.631 13.883 42.1768 10.4794 42.3066C7.87393 42.4147 4.84591 44.5557 2.40471 41.9173C0.573818 39.9277 3.13234 37.8516 3.32012 35.7322C3.46096 34.2183 2.70985 33.0505 2.68638 31.7961C2.6629 30.066 2.52207 26.9085 2.68638 25.3514C2.92111 23.4483 4.00086 21.8912 3.93044 19.7285C3.8835 18.6039 3.3201 17.7821 3.29663 16.9171C3.27315 16.052 3.71915 15.4248 3.60179 14.43C3.53137 13.7163 2.19343 8.50434 1.93522 8.09344C1.58313 7.5744 0.785035 7.20677 0.456412 6.66611C-0.482508 5.13063 0.104346 3.18422 1.51273 2.08127C2.80374 1.06482 8.46075 -0.0381368 10.1039 0.286261C11.1836 0.502526 13.4135 3.44376 13.6013 4.37371C14.1881 7.07702 10.7141 7.4879 10.5968 9.65055C11.2071 12.0295 11.2775 14.4517 11.6061 16.8738C11.7469 17.8903 12.4042 19.296 12.4042 20.3341C12.4042 21.9777 11.0662 23.751 10.9019 25.6325C10.7376 27.5141 10.8785 30.9094 10.9019 32.9207C10.9489 37.0946 14.1646 34.9536 17.1692 36.143C18.7654 36.0565 18.6011 33.0288 18.9767 31.688C19.3757 30.239 20.6432 28.617 20.878 27.5573C21.0657 26.649 20.831 25.7407 20.9719 24.8324C21.5118 21.1559 25.4317 21.5235 28.5536 21.3072L28.5771 21.2207ZM47.1208 20.3341C47.778 19.3392 46.2523 18.193 45.9236 17.4577C45.595 16.7224 45.7359 15.879 45.3134 15.2302C45.1725 14.9923 42.6374 13.3703 42.4262 13.3703C41.9567 13.3271 39.3278 15.3383 38.9287 15.7709C38.4593 16.2899 38.4358 16.9387 38.0367 17.4577C37.4969 18.1714 34.7505 20.1611 37.2621 20.4206C39.093 20.6152 42.1915 20.918 43.9754 20.9829C44.6326 21.0045 46.8157 20.8531 47.1443 20.3773L47.1208 20.3341ZM65.7819 20.0745C68.9507 20.5936 71.7675 21.5235 75.0067 20.8964L75.3823 20.6801C75.8987 17.9335 72.3073 14.3651 69.1854 15.533C68.3638 15.8574 65.3124 19.4041 65.7819 20.0745Z" fill="#828383"/>
</svg>
