<svg width="83" height="4" viewBox="0 0 83 4" fill="none" xmlns="http://www.w3.org/2000/svg">
<path fill-rule="evenodd" clip-rule="evenodd" d="M81.4059 3.72547L80.5424 2.18221L80.0312 2.78364V3.72547H79.3949V0.536832H80.0312V1.55811C80.0312 1.55811 80.0312 1.64888 80.0312 1.70562C80.0312 1.75101 80.0312 1.79641 80.0312 1.8418C80.0312 1.88719 80.0312 1.92123 80.0312 1.94392C80.0539 1.90988 80.088 1.85314 80.1448 1.7964C80.2016 1.72832 80.247 1.67159 80.2811 1.6262L81.1787 0.536832H81.9513L81.0196 1.63754L82.1899 3.72547H81.4286H81.4059ZM78.0655 1.55811C78.0655 1.4106 78.0201 1.30847 77.9406 1.24039C77.8611 1.18365 77.7474 1.14961 77.5997 1.14961H76.7589V1.96662H77.5997C77.9065 1.96662 78.0542 1.83044 78.0542 1.54676L78.0655 1.55811ZM77.986 3.72547L77.4179 2.57938H76.7703V3.72547H76.1341V0.536832H77.6225C77.7702 0.536832 77.9179 0.55953 78.0428 0.593573C78.1792 0.638963 78.2928 0.695698 78.3951 0.786478C78.4973 0.86591 78.5768 0.979383 78.6336 1.10421C78.6904 1.22903 78.7246 1.37654 78.7246 1.54676C78.7246 1.78505 78.6791 1.97797 78.5768 2.13683C78.4746 2.29569 78.3269 2.40917 78.1224 2.4886L78.7359 3.72547H77.9974H77.986ZM74.8274 2.12549C74.8274 1.97797 74.8161 1.85314 74.782 1.72832C74.7593 1.6035 74.7138 1.50137 74.657 1.41059C74.6002 1.31981 74.5207 1.25172 74.4298 1.19499C74.3389 1.13825 74.2253 1.11556 74.1003 1.11556C73.9753 1.11556 73.8617 1.13825 73.7708 1.19499C73.6799 1.25172 73.6003 1.31981 73.5435 1.41059C73.4867 1.50137 73.4413 1.6035 73.4186 1.72832C73.3958 1.85314 73.3731 1.98932 73.3731 2.12549C73.3731 2.26166 73.3845 2.39782 73.4186 2.52264C73.4413 2.64746 73.4867 2.74959 73.5435 2.84037C73.6003 2.93115 73.6799 2.99923 73.7708 3.05597C73.8617 3.11271 73.9753 3.13541 74.1003 3.13541C74.2253 3.13541 74.3389 3.11271 74.4298 3.05597C74.5207 2.99923 74.6002 2.93115 74.657 2.84037C74.7138 2.74959 74.7593 2.64746 74.782 2.52264C74.8047 2.39782 74.8274 2.26166 74.8274 2.12549ZM75.475 2.12549C75.475 2.36379 75.441 2.59073 75.3842 2.79499C75.3274 2.99924 75.2364 3.16944 75.1115 3.31696C74.9978 3.46448 74.8501 3.57795 74.6797 3.65739C74.5093 3.73682 74.3161 3.78221 74.0889 3.78221C73.8617 3.78221 73.6799 3.73682 73.4981 3.65739C73.3277 3.57795 73.18 3.46448 73.0663 3.31696C72.9527 3.16944 72.8618 2.99924 72.7937 2.79499C72.7369 2.59073 72.7028 2.37513 72.7028 2.12549C72.7028 1.87584 72.7369 1.66023 72.7937 1.45597C72.8505 1.25172 72.9414 1.08152 73.0663 0.934C73.18 0.786483 73.3277 0.673005 73.4981 0.593573C73.6685 0.514141 73.8617 0.46875 74.0889 0.46875C74.3161 0.46875 74.4979 0.514141 74.6797 0.593573C74.8501 0.673005 74.9978 0.786483 75.1115 0.934C75.2251 1.08152 75.316 1.25172 75.3842 1.45597C75.441 1.66023 75.475 1.87584 75.475 2.12549ZM71.6575 3.72547H71.0326L70.6349 2.08009C70.6122 1.97796 70.5895 1.88718 70.5667 1.7737C70.544 1.67158 70.5327 1.59216 70.5213 1.52407C70.5213 1.58081 70.4986 1.67158 70.4872 1.7737C70.4645 1.87583 70.4417 1.97797 70.419 2.06875L70.0214 3.71413H69.4192L68.7489 0.525491H69.4192L69.7033 2.08009C69.7146 2.15952 69.7373 2.25031 69.7487 2.35243C69.76 2.45456 69.7714 2.534 69.7828 2.60208C69.7941 2.534 69.8169 2.45456 69.8282 2.35243C69.8509 2.25031 69.8737 2.15952 69.885 2.08009L70.26 0.525491H70.8167L71.1917 2.08009C71.2144 2.15952 71.2257 2.25031 71.2484 2.35243C71.2712 2.45456 71.2825 2.534 71.2939 2.60208C71.2939 2.534 71.3053 2.45456 71.328 2.35243C71.3393 2.25031 71.3621 2.15952 71.3734 2.08009L71.6575 0.525491H72.3165L71.6461 3.71413L71.6575 3.72547ZM64.7949 3.72547V0.536832H65.4312V3.10137H67.0332V3.72547H64.7949ZM63.9996 2.31839C63.9996 2.78364 63.886 3.14676 63.6587 3.3964C63.4315 3.64604 63.1134 3.78221 62.7044 3.78221C62.5112 3.78221 62.3408 3.74817 62.1817 3.69143C62.0226 3.62334 61.8863 3.53256 61.7727 3.40774C61.6591 3.28292 61.5682 3.13541 61.5113 2.95385C61.4545 2.77229 61.4205 2.56803 61.4205 2.32973V0.536832H62.0567V2.31839C62.0567 2.57939 62.1135 2.78363 62.2271 2.93115C62.3408 3.07867 62.4998 3.1581 62.7044 3.1581C62.9089 3.1581 63.0679 3.09002 63.1815 2.94251C63.2952 2.79499 63.352 2.59072 63.352 2.34108V0.548191H63.9883V2.32973L63.9996 2.31839ZM59.2163 1.16095V1.76236H60.182V2.38648H59.2163V3.72547H58.58V0.536832H60.8637V1.16095H59.2163ZM57.2847 2.12549C57.2847 1.79641 57.2052 1.55812 57.0575 1.39925C56.9098 1.24039 56.6598 1.16095 56.3303 1.16095H55.9895V3.11271H56.3076C56.4781 3.11271 56.6258 3.09002 56.7394 3.04463C56.8644 2.99924 56.9666 2.93116 57.0462 2.85173C57.1257 2.76095 57.1825 2.65881 57.2279 2.54534C57.262 2.42052 57.2847 2.29569 57.2847 2.14817V2.12549ZM57.9437 2.12549C57.9437 2.40918 57.8983 2.64747 57.8074 2.85173C57.7165 3.05598 57.5915 3.21485 57.4324 3.35102C57.2734 3.47584 57.103 3.57797 56.9098 3.6347C56.7167 3.69144 56.5122 3.72547 56.3076 3.72547H55.3532V0.536832H56.3531C56.5803 0.536832 56.7962 0.559535 56.9894 0.616273C57.1825 0.67301 57.3529 0.763779 57.4893 0.888601C57.6256 1.01342 57.7392 1.18364 57.8187 1.38789C57.8983 1.59215 57.9437 1.8418 57.9437 2.12549ZM53.9557 3.72547L52.7855 1.98931C52.7514 1.93257 52.7059 1.86449 52.6605 1.7964C52.6151 1.72832 52.581 1.67159 52.5582 1.6262C52.5582 1.66024 52.5582 1.70562 52.5582 1.76236C52.5582 1.8191 52.5582 1.88718 52.5582 1.95527C52.5582 2.02335 52.5582 2.09144 52.5582 2.15953C52.5582 2.22761 52.5582 2.28434 52.5582 2.32973V3.73683H51.9333V0.548191H52.5469L53.6831 2.23895C53.7171 2.29569 53.7626 2.36377 53.808 2.43186C53.8535 2.49994 53.8875 2.55669 53.9103 2.60208C53.9103 2.56804 53.9103 2.52264 53.9103 2.4659C53.9103 2.40916 53.9103 2.34108 53.9103 2.27299C53.9103 2.20491 53.9103 2.13683 53.9103 2.06875C53.9103 2.00066 53.9103 1.94392 53.9103 1.89853V0.548191H54.5352V3.73683H53.9671L53.9557 3.72547ZM50.4336 3.72547V0.536832H51.0698V3.72547H50.4336ZM48.9338 3.72547V2.55668C48.9338 2.55668 48.9338 2.45455 48.9338 2.39782C48.9338 2.32973 48.9338 2.26166 48.9338 2.19357C48.9338 2.12549 48.9338 2.0574 48.9338 2.00067C48.9338 1.94393 48.9338 1.89853 48.9338 1.86448C48.9111 1.92122 48.877 2.00066 48.8315 2.10279C48.7861 2.20492 48.752 2.2957 48.7066 2.38648L48.0589 3.80491L47.4113 2.38648C47.3659 2.2957 47.3318 2.20492 47.2863 2.10279C47.2409 2.00066 47.2182 1.92122 47.1841 1.86448C47.1841 1.89853 47.1841 1.94393 47.1841 2.00067C47.1841 2.0574 47.1841 2.12549 47.1841 2.19357C47.1841 2.26166 47.1841 2.32973 47.1841 2.39782C47.1841 2.4659 47.1841 2.52264 47.1841 2.55668V3.72547H46.5592V0.536832H47.1841L47.8431 1.97797C47.8431 1.97797 47.8885 2.06875 47.9112 2.12549C47.9339 2.17088 47.9567 2.2276 47.9681 2.27299C47.9908 2.31838 48.0021 2.36379 48.0248 2.40918C48.0362 2.45457 48.0589 2.4886 48.0589 2.5113C48.0817 2.45456 48.1158 2.36377 48.1498 2.27299C48.1839 2.17087 48.2294 2.08009 48.2748 1.97797L48.9224 0.536832H49.5473V3.72547H48.9111H48.9338ZM43.9232 1.55811C43.9232 1.4106 43.8778 1.30847 43.7982 1.24039C43.7187 1.18365 43.6051 1.14961 43.4574 1.14961H42.6166V1.96662H43.4574C43.7642 1.96662 43.9119 1.83044 43.9119 1.54676L43.9232 1.55811ZM43.8551 3.72547L43.287 2.57938H42.6394V3.72547H42.0031V0.536832H43.4915C43.6392 0.536832 43.7869 0.55953 43.9119 0.593573C44.0482 0.638963 44.1618 0.695698 44.2641 0.786478C44.3663 0.86591 44.4459 0.979383 44.5027 1.10421C44.5595 1.22903 44.5936 1.37654 44.5936 1.54676C44.5936 1.78505 44.5481 1.97797 44.4459 2.13683C44.3436 2.29569 44.1959 2.40917 43.9914 2.4886L44.605 3.72547H43.8664H43.8551ZM40.6851 2.12549C40.6851 1.97797 40.6737 1.85314 40.6397 1.72832C40.6169 1.6035 40.5715 1.50137 40.5147 1.41059C40.4579 1.31981 40.3783 1.25172 40.2874 1.19499C40.1965 1.13825 40.0829 1.11556 39.958 1.11556C39.833 1.11556 39.7193 1.13825 39.6285 1.19499C39.5376 1.25172 39.458 1.31981 39.4012 1.41059C39.3444 1.50137 39.299 1.6035 39.2762 1.72832C39.2535 1.85314 39.2308 1.98932 39.2308 2.12549C39.2308 2.26166 39.2422 2.39782 39.2762 2.52264C39.299 2.64746 39.3444 2.74959 39.4012 2.84037C39.458 2.93115 39.5376 2.99923 39.6285 3.05597C39.7193 3.11271 39.833 3.13541 39.958 3.13541C40.0829 3.13541 40.1965 3.11271 40.2874 3.05597C40.3783 2.99923 40.4579 2.93115 40.5147 2.84037C40.5715 2.74959 40.6169 2.64746 40.6397 2.52264C40.6624 2.39782 40.6851 2.26166 40.6851 2.12549ZM41.3441 2.12549C41.3441 2.36379 41.31 2.59073 41.2532 2.79499C41.1964 2.99924 41.1055 3.16944 40.9805 3.31696C40.8669 3.46448 40.7192 3.57795 40.5488 3.65739C40.3783 3.73682 40.1852 3.78221 39.958 3.78221C39.7307 3.78221 39.5489 3.73682 39.3671 3.65739C39.1967 3.57795 39.049 3.46448 38.9354 3.31696C38.8218 3.16944 38.7309 2.99924 38.6627 2.79499C38.6059 2.59073 38.5718 2.37513 38.5718 2.12549C38.5718 1.87584 38.6059 1.66023 38.6627 1.45597C38.7195 1.25172 38.8104 1.08152 38.9354 0.934C39.049 0.786483 39.1967 0.673005 39.3671 0.593573C39.5376 0.514141 39.7307 0.46875 39.958 0.46875C40.1852 0.46875 40.367 0.514141 40.5488 0.593573C40.7192 0.673005 40.8669 0.786483 40.9805 0.934C41.0941 1.08152 41.185 1.25172 41.2532 1.45597C41.31 1.66023 41.3441 1.87584 41.3441 2.12549ZM36.6857 1.16095V1.76236H37.6515V2.38648H36.6857V3.72547H36.0495V0.536832H38.3332V1.16095H36.6857ZM33.3226 3.72547L32.1524 1.98931C32.1183 1.93257 32.0728 1.86449 32.0274 1.7964C31.982 1.72832 31.9479 1.67159 31.9251 1.6262C31.9251 1.66024 31.9251 1.70562 31.9251 1.76236C31.9251 1.8191 31.9251 1.88718 31.9251 1.95527C31.9251 2.02335 31.9251 2.09144 31.9251 2.15953C31.9251 2.22761 31.9251 2.28434 31.9251 2.32973V3.73683H31.3002V0.548191H31.9138L33.05 2.23895C33.084 2.29569 33.1295 2.36377 33.1749 2.43186C33.2204 2.49994 33.2545 2.55669 33.2772 2.60208C33.2772 2.56804 33.2772 2.52264 33.2772 2.4659C33.2772 2.40916 33.2772 2.34108 33.2772 2.27299C33.2772 2.20491 33.2772 2.13683 33.2772 2.06875C33.2772 2.00066 33.2772 1.94392 33.2772 1.89853V0.548191H33.9021V3.73683H33.334L33.3226 3.72547ZM30.5163 2.31839C30.5163 2.78364 30.4027 3.14676 30.1754 3.3964C29.9482 3.64604 29.6301 3.78221 29.221 3.78221C29.0279 3.78221 28.8574 3.74817 28.6984 3.69143C28.5393 3.62334 28.403 3.53256 28.2893 3.40774C28.1757 3.28292 28.0848 3.13541 28.028 2.95385C27.9712 2.77229 27.9371 2.56803 27.9371 2.32973V0.536832H28.5734V2.31839C28.5734 2.57939 28.6302 2.78363 28.7438 2.93115C28.8574 3.07867 29.0165 3.1581 29.221 3.1581C29.4255 3.1581 29.5846 3.09002 29.6982 2.94251C29.8118 2.79499 29.8686 2.59072 29.8686 2.34108V0.548191H30.5049V2.32973L30.5163 2.31839ZM25.7329 1.16095V1.76236H26.6987V2.38648H25.7329V3.72547H25.0967V0.536832H27.3804V1.16095H25.7329ZM23.097 2.76094C23.097 2.90846 23.0743 3.05597 23.0288 3.18079C22.9834 3.30562 22.9038 3.40774 22.8016 3.49852C22.6993 3.5893 22.563 3.6574 22.4153 3.70279C22.2562 3.74818 22.0744 3.77087 21.8472 3.77087C21.5745 3.77087 21.3359 3.71413 21.12 3.612C20.9042 3.50988 20.7337 3.36235 20.6088 3.19214L21.0746 2.78364C21.1882 2.91981 21.3132 3.01059 21.4495 3.06733C21.5859 3.12407 21.7336 3.14675 21.8926 3.14675C22.0858 3.14675 22.2221 3.12407 22.313 3.06733C22.4039 3.01059 22.4494 2.9198 22.4494 2.80633C22.4494 2.74959 22.4494 2.7042 22.4266 2.67016C22.4039 2.63612 22.3698 2.60208 22.3244 2.56804C22.2789 2.534 22.1994 2.49995 22.1085 2.47726C22.0176 2.44321 21.8926 2.42052 21.7449 2.38648C21.5972 2.35243 21.4609 2.31838 21.3359 2.27299C21.2109 2.2276 21.1087 2.17087 21.0178 2.10279C20.9269 2.0347 20.8587 1.94393 20.8133 1.8418C20.7678 1.73967 20.7451 1.6035 20.7451 1.44463C20.7451 1.29712 20.7792 1.17229 20.836 1.04746C20.8928 0.93399 20.9723 0.831869 21.0746 0.752437C21.1768 0.673004 21.3018 0.604916 21.4382 0.570873C21.5745 0.525483 21.7222 0.502791 21.8813 0.502791C22.1312 0.502791 22.3471 0.548175 22.5403 0.638955C22.7334 0.729735 22.8925 0.854559 23.0515 1.01342L22.5857 1.45597C22.4834 1.35385 22.3698 1.26308 22.2562 1.21769C22.1426 1.16095 22.0062 1.13825 21.8585 1.13825C21.779 1.13825 21.6995 1.13825 21.6427 1.16095C21.5859 1.17229 21.5404 1.19499 21.5063 1.22903C21.4722 1.25172 21.4495 1.28577 21.4268 1.31981C21.4154 1.35385 21.4041 1.38789 21.4041 1.42193C21.4041 1.47867 21.4041 1.51271 21.4382 1.54676C21.4609 1.5808 21.495 1.61484 21.5404 1.63754C21.5859 1.66023 21.654 1.69428 21.7336 1.71698C21.8131 1.73967 21.9153 1.77371 22.0517 1.7964C22.1767 1.83044 22.3017 1.86448 22.438 1.89853C22.563 1.94392 22.6766 2.00066 22.7788 2.06875C22.8811 2.13683 22.9606 2.23896 23.0288 2.35243C23.097 2.46591 23.1197 2.60208 23.1197 2.78364L23.097 2.76094ZM20.1429 2.76094C20.1429 2.90846 20.1202 3.05597 20.0747 3.18079C20.0293 3.30562 19.9498 3.40774 19.8475 3.49852C19.7453 3.5893 19.6089 3.6574 19.4612 3.70279C19.3021 3.74818 19.1203 3.77087 18.8931 3.77087C18.6204 3.77087 18.3818 3.71413 18.1659 3.612C17.9501 3.50988 17.7796 3.36235 17.6547 3.19214L18.1205 2.78364C18.2341 2.91981 18.3591 3.01059 18.4954 3.06733C18.6318 3.12407 18.7795 3.14675 18.9386 3.14675C19.1317 3.14675 19.268 3.12407 19.3589 3.06733C19.4498 3.01059 19.4953 2.9198 19.4953 2.80633C19.4953 2.74959 19.4953 2.7042 19.4726 2.67016C19.4498 2.63612 19.4157 2.60208 19.3703 2.56804C19.3248 2.534 19.2453 2.49995 19.1544 2.47726C19.0635 2.44321 18.9386 2.42052 18.7908 2.38648C18.6431 2.35243 18.5068 2.31838 18.3818 2.27299C18.2568 2.2276 18.1546 2.17087 18.0637 2.10279C17.9728 2.0347 17.9046 1.94393 17.8592 1.8418C17.8137 1.73967 17.791 1.6035 17.791 1.44463C17.791 1.29712 17.8251 1.17229 17.8819 1.04746C17.9387 0.93399 18.0182 0.831869 18.1205 0.752437C18.2228 0.673004 18.3477 0.604916 18.4841 0.570873C18.6204 0.525483 18.7681 0.502791 18.9272 0.502791C19.1771 0.502791 19.393 0.548175 19.5862 0.638955C19.7793 0.729735 19.9384 0.854559 20.0975 1.01342L19.6316 1.45597C19.5294 1.35385 19.4157 1.26308 19.3021 1.21769C19.1885 1.16095 19.0522 1.13825 18.9045 1.13825C18.8249 1.13825 18.7454 1.13825 18.6886 1.16095C18.6318 1.17229 18.5863 1.19499 18.5523 1.22903C18.5182 1.25172 18.4954 1.28577 18.4727 1.31981C18.4614 1.35385 18.45 1.38789 18.45 1.42193C18.45 1.47867 18.45 1.51271 18.4841 1.54676C18.5068 1.5808 18.5409 1.61484 18.5863 1.63754C18.6318 1.66023 18.7 1.69428 18.7795 1.71698C18.859 1.73967 18.9613 1.77371 19.0976 1.7964C19.2226 1.83044 19.3476 1.86448 19.4839 1.89853C19.6089 1.94392 19.7225 2.00066 19.8248 2.06875C19.927 2.13683 20.0066 2.23896 20.0747 2.35243C20.1429 2.46591 20.1656 2.60208 20.1656 2.78364L20.1429 2.76094ZM14.9051 3.72547V0.536832H17.1207V1.16095H15.5414V1.71698H16.4617V2.34108H15.5414V3.11271H17.1888V3.73683H14.9051V3.72547ZM12.076 3.72547V0.536832H12.7123V3.10137H14.3143V3.72547H12.076ZM10.7808 2.12549C10.7808 1.79641 10.7012 1.55812 10.5535 1.39925C10.4058 1.24039 10.1559 1.16095 9.82636 1.16095H9.4855V3.11271H9.80363C9.97406 3.11271 10.1218 3.09002 10.2354 3.04463C10.3604 2.99924 10.4626 2.93116 10.5422 2.85173C10.6217 2.76095 10.6785 2.65881 10.724 2.54534C10.758 2.42052 10.7808 2.29569 10.7808 2.14817V2.12549ZM11.4397 2.12549C11.4397 2.40918 11.3943 2.64747 11.3034 2.85173C11.2125 3.05598 11.0875 3.21485 10.9285 3.35102C10.7694 3.47584 10.599 3.57797 10.4058 3.6347C10.2127 3.69144 10.0081 3.72547 9.80363 3.72547H8.84924V0.536832H9.84909C10.0763 0.536832 10.2922 0.559535 10.4854 0.616273C10.6785 0.67301 10.8489 0.763779 10.9853 0.888601C11.1216 1.01342 11.2352 1.18364 11.3148 1.38789C11.3943 1.59215 11.4397 1.8418 11.4397 2.12549ZM7.4631 3.72547L6.29283 1.98931C6.25874 1.93257 6.2133 1.86449 6.16785 1.7964C6.1224 1.72832 6.08832 1.67159 6.0656 1.6262C6.0656 1.66024 6.0656 1.70562 6.0656 1.76236C6.0656 1.8191 6.0656 1.88718 6.0656 1.95527C6.0656 2.02335 6.0656 2.09144 6.0656 2.15953C6.0656 2.22761 6.0656 2.28434 6.0656 2.32973V3.73683H5.44069V0.548191H6.05424L7.19042 2.23895C7.22451 2.29569 7.26996 2.36377 7.31541 2.43186C7.36085 2.49994 7.39493 2.55669 7.41766 2.60208C7.41766 2.56804 7.41766 2.52264 7.41766 2.4659C7.41766 2.40916 7.41766 2.34108 7.41766 2.27299C7.41766 2.20491 7.41766 2.13683 7.41766 2.06875C7.41766 2.00066 7.41766 1.94392 7.41766 1.89853V0.548191H8.04256V3.73683H7.47447L7.4631 3.72547ZM3.94094 3.72547V0.536832H4.5772V3.72547H3.94094ZM2.42981 3.72547V2.55668C2.42981 2.55668 2.42981 2.45455 2.42981 2.39782C2.42981 2.32973 2.42981 2.26166 2.42981 2.19357C2.42981 2.12549 2.42981 2.0574 2.42981 2.00067C2.42981 1.94393 2.42981 1.89853 2.42981 1.86448C2.40709 1.92122 2.37299 2.00066 2.32754 2.10279C2.2821 2.20492 2.24803 2.2957 2.20258 2.38648L1.55495 3.80491L0.907313 2.38648C0.861866 2.2957 0.827797 2.20492 0.78235 2.10279C0.736903 2.00066 0.714166 1.92122 0.68008 1.86448C0.68008 1.89853 0.68008 1.94393 0.68008 2.00067C0.68008 2.0574 0.68008 2.12549 0.68008 2.19357C0.68008 2.26166 0.68008 2.32973 0.68008 2.39782C0.68008 2.4659 0.68008 2.52264 0.68008 2.55668V3.72547H0.0551758V0.536832H0.68008L1.33907 1.97797C1.33907 1.97797 1.38451 2.06875 1.40724 2.12549C1.42996 2.17088 1.45269 2.2276 1.46405 2.27299C1.48677 2.31838 1.49814 2.36379 1.52086 2.40918C1.53222 2.45457 1.55495 2.4886 1.55495 2.5113C1.57767 2.45456 1.61176 2.36377 1.64584 2.27299C1.67993 2.17087 1.72538 2.08009 1.77082 1.97797L2.41844 0.536832H3.04334V3.72547H2.40708H2.42981Z" fill="#565656"/>
</svg>
