<svg width="26" height="15" viewBox="0 0 26 15" fill="none" xmlns="http://www.w3.org/2000/svg">
<path d="M0.779519 2.91969C8.85079 2.91969 16.9058 2.51369 24.9284 1.70169L24.36 0.321293L18.7897 6.73609L15.9964 9.9516L14.6647 11.4782C14.145 12.079 13.7715 12.6799 12.927 12.209C11.8714 11.6243 10.8808 10.585 9.97135 9.80544C8.98071 8.9772 8.02255 8.11649 7.06439 7.23953C5.11559 5.46937 3.248 3.60177 1.44536 1.66921C0.730799 0.905932 -0.406 2.05897 0.29232 2.82225C2.30608 4.98217 4.40104 7.06089 6.59343 9.04216C7.69775 10.0328 8.80207 10.991 9.95511 11.9329C10.8645 12.6799 11.9689 13.8979 13.1869 14.1253C14.4049 14.3526 15.2169 13.3295 15.9477 12.5013L19.1307 8.83104C21.2581 6.37881 23.3856 3.94281 25.513 1.49057C25.919 1.01961 25.6917 0.0289728 24.9446 0.110173C16.9058 0.889692 8.85079 1.29569 0.779519 1.29569C-0.25984 1.29569 -0.25984 2.91969 0.779519 2.91969Z" fill="#2D2D2D"/>
</svg>
