<svg width="112" height="16" viewBox="0 0 112 16" fill="none" xmlns="http://www.w3.org/2000/svg">
<path fill-rule="evenodd" clip-rule="evenodd" d="M104.994 10.3908L107.641 14.7595H111.379V14.2262L106.869 7.39503L110.891 1.39221V0.858873H107.312L104.983 4.47872H104.88L102.608 0.858873H98.9721V1.39221L102.994 7.39503L98.4949 14.2262V14.7595H102.21L104.88 10.3908H104.994ZM95.9271 11.6503V3.96809H97.5632V0.870232H90.7802V3.96809H92.4163V11.6503H90.6439V14.7709H97.6996V11.6503H95.9271ZM84.0995 8.00778H81.5544V4.03617C82.3725 4.03617 83.2701 4.01347 84.0995 4.03617C86.1674 4.05886 86.0537 8.00778 84.0995 8.00778ZM81.5431 14.7595V11.2078H84.1108C90.7689 11.2078 90.7689 0.881568 84.1108 0.858873H77.9868V14.7595H81.5431ZM67.6248 6.86169L62.1711 0.824832H60.8532V14.7709H64.489V8.57516L67.4317 11.673H67.8293L70.7948 8.57516V14.7709H74.4306V0.824832H73.158L67.6135 6.86169H67.6248ZM57.6491 0.858873H48.9573V14.7595H57.8309V11.6049H52.5022V9.16523H57.2401V6.01063H52.5022V4.04753H57.6491V0.870232V0.858873ZM41.4585 0.858873H37.8795V14.7595H46.5145V11.5595H41.4585V0.858873ZM27.4834 10.5156H24.0408C23.9613 16.6319 35.3004 16.5297 35.3004 10.6971C35.3004 7.2248 32.5963 6.80496 29.8354 6.50993C28.5856 6.37376 27.5516 6.15815 27.6312 5.10283C27.7448 3.45745 31.4942 3.29858 31.4942 5.13687H34.88C34.9595 -0.865937 24.1431 -0.865937 24.2567 5.13687C24.2908 8.1553 26.2905 9.18791 29.3127 9.40352C30.7102 9.48295 31.8578 9.69856 31.8578 10.6744C31.8578 12.3085 27.5062 12.2858 27.5062 10.5156H27.4834ZM20.9163 11.6503V3.96809H22.5524V0.870232H15.7694V3.96809H17.4055V11.6503H15.6331V14.7709H22.6887V11.6503H20.9163ZM9.50903 9.98225H6.32771L7.89565 6.32836L9.50903 9.98225ZM11.4746 14.7595H14.9513V14.2376L8.66824 0.677327H7.13441L0.874023 14.2376V14.7595H4.35074L5.1688 13.012H10.6566L11.4746 14.7595Z" fill="#565656"/>
</svg>
