<svg width="11" height="10" viewBox="0 0 11 10" fill="none" xmlns="http://www.w3.org/2000/svg">
<path fill-rule="evenodd" clip-rule="evenodd" d="M8.29259 3.70129C7.58531 3.70129 6.96929 4.09581 6.6841 4.67068C6.45595 4.92994 6.11371 5.03138 5.74867 5.11029C5.82852 4.7045 5.93119 4.25362 6.26202 3.98309C6.86662 3.71257 7.2773 3.12643 7.2773 2.45011C7.2773 1.51454 6.47876 0.748047 5.48629 0.748047C4.49382 0.748047 3.69528 1.51454 3.69528 2.45011C3.69528 3.12643 4.10596 3.71257 4.71057 3.98309C5.00717 4.18599 5.13265 4.68195 5.22391 5.11029C4.87028 5.04265 4.51664 4.92994 4.29989 4.67068C4.0147 4.09581 3.39868 3.70129 2.6914 3.70129C1.71034 3.70129 0.900391 4.46779 0.900391 5.40336C0.900391 6.33893 1.69893 7.10542 2.6914 7.10542C3.39868 7.10542 4.08314 6.64327 4.36834 6.07967C4.61931 5.82042 4.93872 5.75279 5.30377 5.68516C5.33799 6.15858 5.31518 6.68836 5.24673 6.9927C4.88168 7.97336 3.96907 9.15691 3.48994 9.55143C4.15159 9.01038 6.84381 9.01038 7.50546 9.55143C7.01493 9.15691 6.04527 7.917 5.74867 6.9927C5.65741 6.62073 5.66881 5.93314 5.66881 5.68516C6.04527 5.75279 6.36468 5.80915 6.61565 6.07967C6.90085 6.65454 7.58531 7.10542 8.29259 7.10542C9.27365 7.10542 10.0836 6.33893 10.0836 5.40336C10.0836 4.46779 9.28506 3.70129 8.29259 3.70129Z" fill="white"/>
</svg>
