<svg width="45" height="20" viewBox="0 0 45 20" fill="none" xmlns="http://www.w3.org/2000/svg">
<path d="M0.822266 2.00305H8.679C11.6954 2.23688 14.4079 4.15429 15.5303 6.96028L23.9951 0.366211L27.0349 2.82146L19.4119 8.78417V8.85434L20.8149 10.0001H20.9085L28.5547 3.96723L31.6648 6.39909L23.9717 12.4553L25.4448 13.6479L33.2081 7.54486V2.02642H38.7499V13.3673H44.3618V18.0673H33.2081V12.5021L23.9951 19.7275L15.5537 13.1335C14.3377 15.9394 11.6019 17.8569 8.5387 18.0439H0.822266V2.04981V2.00305ZM6.17705 13.4141C7.34621 13.4141 8.44516 13.531 9.47402 12.923C11.5785 11.7071 11.4383 8.03591 9.24024 6.96028C8.51536 6.60953 7.08896 6.46924 6.29393 6.56277C6.24717 6.56277 6.20043 6.56276 6.17705 6.60953V13.4141Z" fill="#808080"/>
</svg>
