<svg width="55" height="50" viewBox="0 0 55 50" fill="none" xmlns="http://www.w3.org/2000/svg">
<path d="M54.1786 0.435547L52.7054 7.47391L50.3905 7.52066C51.6298 12.7117 52.0274 17.1078 48.5666 21.5506C54.3657 28.4487 56.6806 36.6562 50.4139 44.1856C43.9835 51.902 32.8063 51.5045 26.2824 44.1856L31.7073 38.7607C34.9575 43.0632 41.5283 43.7413 44.9189 39.205C51.4428 30.4362 38.3247 20.2879 31.7073 29.6646L25.3237 25.0581V30.7402H17.2799V11.5894C17.2799 11.2854 15.8067 9.41471 15.3858 9.22765C13.2579 8.26894 8.3007 9.69531 8.3007 12.057V30.7402H0.256861C0.139945 30.3895 0.724483 30.179 0.724483 30.0387V2.11914C0.724483 1.97884 0.116562 1.74502 0.256861 1.41766H8.3007L7.83301 2.84402C12.2291 1.44102 15.5963 -0.149026 20.1326 2.14253C21.6525 2.91418 25.3237 6.70226 25.3237 8.29232V24.6138L28.5506 21.9481C25.1133 16.1257 24.9495 8.19878 30.5615 3.61567C31.8944 2.54004 35.776 0.505694 37.3895 0.505694H54.1786V0.435547ZM37.974 8.57292C32.5725 9.36795 32.362 17.6222 37.8805 18.3939C45.6671 19.4695 45.3398 7.49729 37.974 8.57292Z" fill="#808080"/>
</svg>
