<svg width="35" height="6" viewBox="0 0 35 6" fill="none" xmlns="http://www.w3.org/2000/svg">
<path fill-rule="evenodd" clip-rule="evenodd" d="M33.4012 3.52711C33.3671 3.32286 33.2535 3.14129 33.0831 2.97108C32.9126 2.80087 32.7081 2.72144 32.4468 2.72144C32.2196 2.72144 32.0264 2.78952 31.856 2.93704C31.6969 3.08456 31.5947 3.27748 31.5606 3.51577H33.4012V3.52711ZM33.992 3.94697L31.5379 3.92427C31.5719 4.18526 31.6742 4.41221 31.856 4.58242C32.0264 4.75263 32.2537 4.83207 32.5377 4.83207C32.9354 4.83207 33.2535 4.67322 33.4921 4.36683L33.992 4.59378C33.833 4.84342 33.6171 5.03632 33.3444 5.14979C33.0831 5.26327 32.799 5.33136 32.515 5.33136C32.0719 5.33136 31.6856 5.18385 31.3788 4.91151C31.0607 4.62782 30.913 4.25335 30.913 3.7881C30.913 3.32286 31.072 2.97108 31.3902 2.6874C31.6969 2.40371 32.0605 2.2562 32.4582 2.26754C32.8558 2.27889 33.208 2.41507 33.5262 2.69875C33.8443 2.98244 34.0034 3.4023 34.0147 3.95832L33.992 3.94697ZM27.6976 3.75406C27.6976 4.07179 27.7885 4.32143 27.9589 4.49164C28.1407 4.66185 28.3565 4.75264 28.6179 4.75264C28.8792 4.75264 29.0837 4.66185 29.2769 4.49164C29.47 4.31008 29.5609 4.06045 29.5723 3.74272C29.5836 3.42499 29.4814 3.17535 29.2882 3.01648C29.0951 2.85762 28.8792 2.76684 28.6292 2.76684C28.3679 2.76684 28.152 2.85762 27.9702 3.05052C27.7885 3.24343 27.6976 3.48171 27.6976 3.7654V3.75406ZM30.6516 4.72994V5.24058H29.5495V4.80938C29.2655 5.12711 28.9133 5.27462 28.5042 5.27462C28.1179 5.27462 27.7885 5.13846 27.5044 4.87747C27.2204 4.61647 27.084 4.25335 27.084 3.77676C27.084 3.30017 27.2317 2.92569 27.5385 2.65335C27.8339 2.38102 28.1748 2.24484 28.5497 2.24484C28.9474 2.24484 29.2882 2.40371 29.5836 2.72144V1.57535H29.0269V1.06472H30.1631L30.129 4.72994H30.6516ZM25.6638 4.68456V2.78952H25.2207V2.27889H26.2546L26.2319 4.6732H26.6864V5.18384H25.2093V4.66186H25.6638V4.68456ZM25.607 1.303C25.607 1.21222 25.6411 1.1328 25.7092 1.06472C25.7774 0.99663 25.8569 0.962592 25.9592 0.962592C26.0615 0.962592 26.1296 0.99663 26.1978 1.06472C26.266 1.1328 26.3001 1.21222 26.3001 1.303C26.3001 1.39378 26.266 1.48457 26.1978 1.54131C26.1296 1.60939 26.0501 1.64344 25.9478 1.63209C25.8456 1.62074 25.766 1.59805 25.7092 1.52997C25.6411 1.46188 25.607 1.38244 25.6183 1.29166L25.607 1.303ZM22.4257 5.16115V4.16257H22.9483V4.26469C22.9597 4.40086 23.0392 4.51434 23.1642 4.60512C23.2892 4.6959 23.4482 4.74128 23.6187 4.74128C23.7891 4.74128 23.9481 4.71861 24.0618 4.65052C24.1754 4.59378 24.2322 4.49164 24.2322 4.38952C24.2322 4.28739 24.1868 4.19662 24.0959 4.15123C24.005 4.09449 23.8232 4.0491 23.5505 4.00371C23.1528 3.93562 22.8574 3.82214 22.6984 3.66328C22.5279 3.51576 22.437 3.3115 22.437 3.07321C22.437 2.83491 22.5393 2.63066 22.7211 2.47179C22.9029 2.31293 23.1528 2.2335 23.4596 2.2335C23.7323 2.2335 23.9709 2.29023 24.1754 2.40371V2.27889H24.6867V3.24343H24.164V3.06186C24.0163 2.82357 23.7891 2.69875 23.4937 2.69875C23.346 2.69875 23.221 2.73278 23.1187 2.78952C23.0165 2.8576 22.971 2.93705 22.971 3.05052C22.971 3.164 23.0165 3.23208 23.1074 3.27747C23.1983 3.32286 23.3914 3.36824 23.6868 3.41363C23.9709 3.45902 24.1868 3.51576 24.3345 3.5725C24.4822 3.62923 24.5958 3.73137 24.6867 3.86754C24.7889 4.00371 24.8344 4.16257 24.823 4.34413C24.823 4.61647 24.7208 4.83207 24.5049 4.97959C24.3004 5.13845 24.0277 5.20654 23.6868 5.20654C23.3687 5.20654 23.1301 5.13845 22.9256 4.99093V5.14979H22.4143H22.4257V5.16115ZM19.9033 2.24484V2.59661C20.2669 2.33562 20.6078 2.19946 20.9145 2.2108C21.1077 2.2108 21.2668 2.25619 21.3804 2.34697C21.5054 2.43775 21.5849 2.53988 21.619 2.67605C21.6531 2.80088 21.6758 2.99378 21.6758 3.24343V4.66186H22.153V5.17249H21.085V3.27747C21.1077 3.06187 21.0736 2.91434 21.0054 2.84626C20.9373 2.77817 20.8577 2.74414 20.7668 2.74414C20.5169 2.74414 20.2215 2.85762 19.9033 3.10726V4.66186H20.3919V5.17249L18.8012 5.16115V4.65052H19.3125V2.75548H18.824V2.24484H19.9147H19.9033ZM17.4946 4.61646V2.72144H17.0515V2.2108H18.0854L18.0627 4.60512H18.5172V5.11575H17.0402V4.59378H17.4946V4.61646ZM17.4378 1.23492C17.4378 1.14414 17.4719 1.06472 17.5401 0.996633C17.6082 0.928548 17.6878 0.894493 17.79 0.894493C17.8809 0.894493 17.9605 0.928548 18.0286 0.996633C18.0968 1.06472 18.1309 1.14414 18.1309 1.23492C18.1309 1.3257 18.0968 1.41649 18.0286 1.47322C17.9605 1.54131 17.8809 1.57535 17.7787 1.56401C17.6764 1.55266 17.5969 1.52995 17.5401 1.46187C17.4719 1.39378 17.4378 1.31436 17.4378 1.22358V1.23492ZM15.5518 5.10441V4.36683H16.3016V5.10441H15.5518ZM12.1659 4.57108L12.1887 1.41648H11.666V0.905851H12.7567L12.734 3.51577L13.8361 2.66471H13.3476V2.1881H14.9609V2.67605H14.5178L13.4157 3.5725L14.4383 4.60512H14.9496V5.11575H14.1997L12.7454 3.64058V4.59378H13.2453V5.10441L11.6433 5.09307V4.58242H12.1773L12.1659 4.57108ZM9.22321 2.15406V2.50583C9.58679 2.24484 9.92764 2.10867 10.2344 2.12002C10.4276 2.12002 10.5866 2.16542 10.7003 2.2562C10.8252 2.34698 10.9048 2.4491 10.9389 2.58527C10.9729 2.71009 10.9957 2.903 10.9957 3.15265V4.57108H11.4729V5.08171H10.4048V3.18669C10.4276 2.97108 10.3935 2.82356 10.3253 2.75548C10.2571 2.68739 10.1776 2.65335 10.0867 2.65335C9.82539 2.65335 9.54134 2.76684 9.22321 3.01648V4.57108H9.71177V5.08171L8.12111 5.07037V4.55974H8.6324V2.66471H8.14384V2.15406H9.23457H9.22321ZM6.79178 4.5257V2.63065H6.34867V2.12002H7.38259L7.35987 4.51434H7.81434V5.02497H6.3373V4.503H6.79178V4.5257ZM6.74633 1.14414C6.74633 1.05336 6.78042 0.973936 6.84859 0.905851C6.91676 0.837767 6.99629 0.803711 7.09854 0.803711C7.18944 0.803711 7.26898 0.837767 7.33715 0.905851C7.40532 0.973936 7.4394 1.05336 7.4394 1.14414C7.4394 1.23492 7.40532 1.32571 7.33715 1.38244C7.26898 1.45053 7.18944 1.48457 7.08719 1.47322C6.98493 1.46188 6.9054 1.43917 6.84859 1.37108C6.78042 1.303 6.74633 1.22358 6.74633 1.1328V1.14414ZM3.25825 4.49164L3.28097 1.33704H2.75832V0.826411H3.86042L3.84907 2.43775C4.18992 2.16541 4.53077 2.02924 4.83754 2.02924C5.03069 2.02924 5.18976 2.07463 5.31474 2.15406C5.43972 2.2335 5.51925 2.33562 5.5647 2.47179C5.61014 2.60796 5.63287 2.80088 5.63287 3.05052V4.51434H6.12143V5.02497H5.04205V3.25477C5.05342 3.03917 5.05342 2.89165 5.04205 2.81222C5.04205 2.73279 4.98525 2.67604 4.92844 2.63065C4.86027 2.58526 4.7921 2.56257 4.7012 2.56257C4.48533 2.56257 4.20128 2.6874 3.84907 2.9257V4.51434H4.34898V5.02497L2.7356 5.01363V4.503H3.26961L3.25825 4.49164ZM0.94043 2.58527V2.07464H1.32674V1.63209L1.90618 1.1101V2.07464H2.44019V2.58527H1.89483V3.99236C1.88347 4.21931 1.89482 4.35548 1.91755 4.41222C1.94027 4.46895 2.00845 4.49164 2.09934 4.49164C2.2016 4.49164 2.30385 4.48031 2.41747 4.43492V4.95689C2.26977 5.00228 2.12206 5.02497 1.97436 5.02497C1.80393 5.02497 1.65623 4.97958 1.55397 4.90015C1.44035 4.82072 1.38354 4.72994 1.34946 4.60512C1.32673 4.49165 1.31537 4.28739 1.31537 4.00371V2.56257H0.94043V2.58527Z" fill="#565656"/>
</svg>
