<svg width="51" height="78" viewBox="0 0 51 78" fill="none" xmlns="http://www.w3.org/2000/svg">
<path d="M42.7578 39.1627V40.6393C48.1422 40.6393 50.4922 43.4911 50.4922 48.1126V70.0253C50.4922 75.278 47.4691 77.4986 42.5296 77.4986H6.58391C6.58391 77.4986 6.52687 77.4986 6.49264 77.4986H1.35917C0.88005 77.4986 0.492188 77.1379 0.492188 76.687V1.6497C0.492188 1.21009 0.88005 0.83812 1.35917 0.83812H42.7578C43.1684 0.793032 46.1002 0.511233 48.3932 2.60781C49.8305 3.89281 50.4808 5.85413 50.4808 8.31141V31.6894C50.4808 36.3222 48.1308 39.1627 42.7464 39.1627H42.7578Z" fill="#565656"/>
</svg>
