<svg width="74" height="9" viewBox="0 0 74 9" fill="none" xmlns="http://www.w3.org/2000/svg">
<path fill-rule="evenodd" clip-rule="evenodd" d="M68.3718 8.54566L66.2017 8.52296V6.79814H66.9175L67.7355 5.9244L66.7698 4.75561H66.1108L66.1221 3.01945L68.9172 3.04213L69.917 4.52865L70.9737 3.06483L73.1324 3.08753V4.81233H72.3484L71.6326 5.60667L72.6666 6.85488H73.3028L73.2915 8.59104L70.5533 8.56836L69.4966 7.05914L68.3718 8.54566ZM57.8166 5.68609C57.8166 4.88042 58.1689 4.19958 58.8619 3.6549C59.555 3.11022 60.4753 2.83788 61.6342 2.84922C62.7931 2.86057 63.7589 3.13291 64.486 3.67758C65.2132 4.22226 65.5768 4.92581 65.5654 5.77687C65.5541 6.62793 65.2018 7.29744 64.4974 7.84212C63.793 8.3868 62.8727 8.65913 61.7251 8.64778C60.4867 8.64778 59.5323 8.35275 58.8392 7.79672C58.1575 7.2407 57.8166 6.53715 57.8166 5.68609ZM60.7139 5.72013C60.7139 6.59389 61.0207 7.03644 61.6456 7.04779C62.3159 7.04779 62.6568 6.61659 62.6568 5.73149C62.6568 5.32298 62.5773 5.0166 62.4182 4.78965C62.2478 4.5627 62.0205 4.44922 61.7138 4.44922C61.407 4.44922 61.1684 4.55135 60.9866 4.76695C60.8048 4.98255 60.7139 5.30028 60.7026 5.72013H60.7139ZM51.9426 8.4095L48.3522 8.37544V6.65063H49.0908L49.1249 2.22511H48.3863L48.3977 0.488948L51.9994 0.522989L51.9767 3.25773C52.4652 2.9627 53.056 2.81518 53.7491 2.82652C54.624 2.82652 55.3511 3.08753 55.9192 3.59816C56.4873 4.09745 56.7714 4.77829 56.76 5.62935C56.76 6.04921 56.6805 6.43503 56.5441 6.77546C56.3964 7.11588 56.1919 7.42226 55.9079 7.6946C55.3511 8.25063 54.6581 8.52297 53.8287 8.51162C53.0901 8.51162 52.4652 8.3414 51.9312 8.02367V8.39814L51.9426 8.4095ZM51.9426 5.64071C51.9426 6.46908 52.2607 6.87757 52.9197 6.88892C53.5787 6.90027 53.8627 6.49176 53.8741 5.66339C53.8741 5.26623 53.7946 4.9712 53.6241 4.76695C53.4537 4.5627 53.2265 4.46056 52.9197 4.46056C52.6016 4.46056 52.363 4.5627 52.1925 4.78965C52.0221 5.0166 51.9426 5.31163 51.9312 5.65205L51.9426 5.64071ZM40.558 8.31871L36.1837 8.28467V6.55985H36.9109L36.9336 4.52865H36.2178L36.2292 2.79248L39.7968 2.82652V3.51872C40.5012 2.98539 41.2511 2.72441 42.0578 2.73576C42.7622 2.73576 43.2962 2.94 43.6484 3.32582C44.0007 3.71163 44.1711 4.3471 44.1597 5.19816V6.60523H44.8074V8.33005L41.2738 8.29601L41.2965 5.85631C41.2965 5.32298 41.2625 4.9712 41.1716 4.80099C41.0693 4.63078 40.8875 4.55134 40.6148 4.55134C40.3649 4.55134 40.0922 4.64212 39.7968 4.83503V6.55985H40.5807V8.28467L40.558 8.31871ZM28.6735 8.28467L26.4012 8.26197L24.7423 4.41518H24.1515L24.1629 2.67902L27.8896 2.71306V4.43788H27.3215L27.9577 6.26481L29.3553 2.7244L31.4799 2.7471L32.6956 6.31021L33.4228 4.4946H32.9001L32.9115 2.75844L35.6043 2.78114V4.50596H35.0475L33.4114 8.33005L31.1391 8.30736L29.9006 5.48185L28.6963 8.28467H28.6735ZM16.0051 5.33432C16.0051 4.52865 16.3573 3.84781 17.0504 3.30313C17.7435 2.75845 18.6638 2.48611 19.8227 2.49746C20.9816 2.49746 21.9473 2.78114 22.6631 3.32582C23.3903 3.87049 23.7539 4.57404 23.7425 5.42511C23.7311 6.27617 23.3789 6.94566 22.6745 7.49034C21.9701 8.03501 21.0498 8.30736 19.9022 8.29601C18.6638 8.29601 17.7094 8.00098 17.0163 7.44495C16.3346 6.88893 15.9937 6.18538 15.9937 5.33432H16.0051ZM18.9024 5.36836C18.9024 6.24212 19.2091 6.68467 19.834 6.69602C20.5044 6.69602 20.8452 6.26481 20.8452 5.37971C20.8452 4.9712 20.7657 4.66483 20.6066 4.43788C20.4362 4.21093 20.209 4.09745 19.9022 4.09745C19.5954 4.09745 19.3568 4.19958 19.1751 4.41518C18.9933 4.63078 18.9024 4.94851 18.891 5.36836H18.9024ZM13.994 8.09175L9.54021 8.05771V6.33291H10.3128L10.3355 4.3017H9.58566L9.59702 2.56554L13.0283 2.59958V3.97263C13.1419 3.63221 13.3578 3.33717 13.6191 3.08753C13.8804 2.83788 14.1418 2.69037 14.4031 2.61094C14.653 2.54285 15.028 2.5088 15.5279 2.5088L15.5052 4.92581H15.2666C14.6758 4.92581 14.244 4.9712 13.96 5.08468C13.6646 5.19815 13.46 5.35702 13.3578 5.54993C13.2442 5.75418 13.1874 6.02652 13.1874 6.34425H14.0281L14.0168 8.06907L13.994 8.09175ZM3.82521 8.01233L0.234863 7.97829V6.25347H0.973384L1.00747 1.82796H0.268956L0.280312 0.0917969L3.88201 0.125838L3.85929 2.86057C4.34785 2.56553 4.93866 2.41803 5.63174 2.42937C6.5066 2.42937 7.23376 2.69036 7.80185 3.20099C8.36994 3.70028 8.65399 4.38114 8.64262 5.2322C8.64262 5.65206 8.56309 6.03786 8.42675 6.37829C8.27904 6.71871 8.07453 7.02509 7.79049 7.29743C7.23376 7.85346 6.54068 8.1258 5.71127 8.11445C4.97275 8.11445 4.34785 7.94425 3.81384 7.62652V8.00099L3.82521 8.01233ZM3.82521 5.24354C3.82521 6.07191 4.14334 6.48042 4.80233 6.49177C5.46131 6.50312 5.74535 6.09461 5.75672 5.26624C5.75672 4.86908 5.67718 4.57404 5.50675 4.36978C5.33633 4.16553 5.1091 4.06341 4.80233 4.06341C4.48419 4.06341 4.2456 4.16553 4.07517 4.39248C3.90474 4.61943 3.82521 4.91446 3.81384 5.25488L3.82521 5.24354Z" fill="#565656"/>
</svg>
