<svg width="9" height="10" viewBox="0 0 9 10" fill="none" xmlns="http://www.w3.org/2000/svg">
<path d="M1.68027 2.88846C1.94265 2.65175 2.20502 2.41504 2.45599 2.1896C2.71837 1.95289 2.98075 1.71618 3.23172 1.4682C3.52832 1.16385 3.82492 0.848238 4.11011 0.532624C4.2356 0.386089 4.34967 0.217012 4.46375 0.0592051C4.46375 0.0592051 4.47516 0.0366626 4.48656 0.0253906C4.57783 0.13811 4.64627 0.2621 4.74894 0.363548C4.96569 0.622802 5.17103 0.870783 5.41059 1.11877C5.69578 1.41184 5.98097 1.69363 6.28898 1.96416C6.77951 2.41504 7.28145 2.84337 7.76058 3.29425C7.96592 3.48587 8.17126 3.68877 8.33096 3.9142C8.66179 4.35381 8.84431 4.86105 8.82149 5.4021C8.82149 5.65008 8.76446 5.89807 8.66179 6.12351C8.59334 6.27004 8.5249 6.41658 8.43363 6.54057C8.30815 6.73219 8.14844 6.90127 7.95451 7.04781C7.81762 7.14925 7.66932 7.23943 7.50961 7.31833C7.23582 7.44232 6.93922 7.49868 6.64262 7.50995C6.39165 7.50995 6.14068 7.47614 5.91253 7.39723C5.74141 7.34087 5.5703 7.26197 5.4334 7.14925C5.2851 7.03653 5.14821 6.92381 5.02273 6.79982C4.93146 6.72092 4.86302 6.61947 4.79457 6.52929C4.8402 7.72412 5.30792 8.73859 6.22054 9.59526H2.79822C3.69943 8.74987 4.18997 7.73539 4.22419 6.51802C4.16715 6.59693 4.11011 6.66456 4.05307 6.73219C3.97322 6.82236 3.90477 6.91254 3.81351 6.99144C3.71084 7.07035 3.60817 7.14925 3.5055 7.21688C3.41424 7.27324 3.31157 7.31833 3.2089 7.36342C3.0606 7.43105 2.90089 7.47614 2.74118 7.49868C2.36473 7.56631 1.99968 7.5325 1.65745 7.39723C1.25818 7.2507 0.927359 7.00272 0.664982 6.67583C0.356973 6.28131 0.208673 5.84171 0.197266 5.36829C0.197266 5.08649 0.242898 4.82723 0.345567 4.5567C0.414013 4.35381 0.528089 4.16219 0.653574 3.99311C0.904543 3.63241 1.22396 3.35061 1.54338 3.05754C1.60041 3.01245 1.65745 2.95609 1.71449 2.911" fill="white"/>
</svg>
