<svg width="11" height="9" viewBox="0 0 11 9" fill="none" xmlns="http://www.w3.org/2000/svg">
<path d="M10.3153 6.43836C10.3267 7.85863 9.2772 8.61385 8.03376 8.61385H0.675781V0.498047H7.509C8.75244 0.498047 9.80195 1.26454 9.79054 2.67353C9.79054 3.45129 9.47113 4.04871 8.95778 4.42068C9.76773 4.71376 10.3153 5.41262 10.3153 6.43836ZM3.48208 2.43682V3.5302H6.72187C6.96143 3.5302 7.15536 3.2484 7.15536 2.97788C7.15536 2.70735 6.96143 2.43682 6.72187 2.43682H3.48208ZM7.24662 6.68635C7.48619 6.68635 7.68012 6.41582 7.68012 6.14529C7.68012 5.87476 7.48619 5.60424 7.24662 5.60424H3.48208V6.68635H7.24662Z" fill="#565656"/>
</svg>
