<svg width="11" height="12" viewBox="0 0 11 12" fill="none" xmlns="http://www.w3.org/2000/svg">
<path d="M0.900153 1.80305C1.72839 2.16033 2.36175 2.79369 2.96263 3.45953C3.62847 4.19033 4.22935 4.96985 4.87895 5.70064C5.60975 6.52888 6.38927 7.32464 7.12007 8.16912C7.91583 9.0948 8.72782 10.0042 9.60478 10.8487C10.3518 11.5795 11.5049 10.4265 10.7578 9.69568C9.88086 8.8512 9.06886 7.92552 8.27311 7.01608C7.50983 6.13913 6.69783 5.32713 5.95079 4.45017C4.70031 3.03729 3.51479 1.16969 1.72839 0.406411C1.32239 0.227771 0.851433 0.29273 0.624073 0.69873C0.429193 1.03977 0.510394 1.64065 0.916393 1.80305H0.900153Z" fill="#2D2D2D"/>
</svg>
