<svg viewBox="0 0 24.3744 24.3841" x="0" y="0" fill="none" xmlns="http://www.w3.org/2000/svg"><g id="Group_32" xmlns="http://www.w3.org/2000/svg">
<path id="Vector_979" d="M11.9256,0.0054c6.933,-0.17 12.642,5.56 12.444,12.5c-0.184,6.52 -5.335,11.68 -11.863,11.87c-6.528,0.19 -12.077,-4.88 -12.482,-11.39c-0.436,-6.94 4.968,-12.81 11.901,-12.97zM12.0706,1.3154c-5.557,0.04 -10.211,4.35 -10.716,9.88c-0.566,6.19 4.158,11.59 10.349,11.88c5.901,0.27 11.015,-4.31 11.351,-10.22c0.336,-5.9 -4.28,-11.25 -10.349,-11.54h-0.635z" fill="currentColor"/>
<path id="Vector_980" d="M3.1216,9.4854h2.568c0.986,0.07 1.872,0.7 2.239,1.62l2.767,-2.16l0.994,0.8l-2.492,1.95v0.03l0.459,0.37h0.03l2.5,-1.97l1.016,0.79l-2.514,1.98l0.481,0.39l2.538,-1.99v-1.81h1.811v3.71h1.835v1.54h-3.646v-1.82l-3.012,2.36l-2.759,-2.15c-0.398,0.91 -1.292,1.54 -2.293,1.6h-2.522v-5.23zM4.8716,13.2154c0.382,0 0.741,0.04 1.078,-0.16c0.688,-0.4 0.642,-1.6 -0.077,-1.95c-0.237,-0.12 -0.703,-0.16 -0.963,-0.13c-0.015,0 -0.03,0 -0.038,0.01z" fill="currentColor"/>
<path id="Vector_981" d="M19.6586,9.4854v3.7h1.82v1.53h-3.639v-5.23z" fill="currentColor"/>
</g></svg>