<svg viewBox="0 0 94.1915 39.3415" x="0" y="0" fill="none" xmlns="http://www.w3.org/2000/svg"><g id="Group_17" xmlns="http://www.w3.org/2000/svg">
<path id="Vector_920" d="M30.2228,7.25h-28.205v-5.23h28.205zM32.2328,0h-32.233v9.26h32.233z" fill="#ADADAD"/>
<path id="Vector_921" d="M2.0178,24.55h-2.018v-9.26h2.018v3.67h3.6v-3.67h2.018v9.26h-2.018v-3.84h-3.6zM10.6858,20.5h2.4c-0.046,-0.68 -0.329,-1.15 -1.108,-1.15c-0.597,0 -1.109,0.25 -1.292,1.15zM12.2068,24.7c-2.041,0 -3.44,-1.29 -3.44,-3.4c0,-2.12 1.361,-3.48 3.172,-3.48c1.972,0 2.951,1.31 2.951,3.28v0.75h-4.204c0.237,1.02 1.039,1.28 1.834,1.28c0.696,0 1.2,-0.15 1.819,-0.54h0.077v1.53c-0.535,0.39 -1.292,0.58 -2.209,0.58zM20.1488,20.68l-1.04,3.88h-1.766l-2.017,-6.52v-0.08h1.926l1.093,3.9l1.039,-3.9h1.567l1.055,3.9l1.108,-3.9h1.85v0.08l-2.018,6.52h-1.766l-1.054,-3.88M28.2508,24.7c-1.598,0 -2.255,-0.63 -2.255,-2.13v-7.27h1.957v7.14c0,0.46 0.175,0.62 0.565,0.62c0.13,0 0.329,-0.05 0.444,-0.09h0.03v1.61c-0.16,0.06 -0.443,0.12 -0.741,0.12M31.4528,20.5h2.4c-0.045,-0.68 -0.328,-1.15 -1.108,-1.15c-0.588,0 -1.108,0.25 -1.292,1.15zM32.9738,24.7c-2.04,0 -3.439,-1.29 -3.439,-3.4c0,-2.12 1.36,-3.48 3.172,-3.48c1.972,0 2.95,1.31 2.95,3.28v0.75h-4.204c0.237,1.02 1.04,1.28 1.835,1.28c0.695,0 1.2,-0.15 1.819,-0.54h0.076v1.53c-0.535,0.39 -1.291,0.58 -2.209,0.58zM43.6828,17.96h1.452v1.57h-1.452v2.68c0,0.58 0.222,0.85 0.818,0.85c0.16,0 0.367,-0.01 0.596,-0.09h0.046v1.54c-0.252,0.09 -0.634,0.19 -1.2,0.19c-1.582,0 -2.209,-0.73 -2.209,-2.4v-2.77h-2.499v2.68c0,0.58 0.221,0.85 0.817,0.85c0.161,0 0.375,-0.01 0.597,-0.09h0.045v1.54c-0.252,0.09 -0.634,0.19 -1.2,0.19c-1.582,0 -2.209,-0.73 -2.209,-2.4v-2.77h-1.009v-1.57h1.009v-1.8h1.957v1.8h2.5v-1.8h1.956v1.8M51.7238,19.84c1.024,0 1.514,-0.58 1.514,-1.4c0,-0.83 -0.49,-1.44 -1.514,-1.44h-1.276v2.84zM55.2778,18.44c0,2.01 -1.345,3.11 -3.393,3.11h-1.437v3h-2.011v-9.26h3.448c2.048,0 3.393,1.1 3.393,3.15zM59.5738,22.48v-0.57c-0.298,-0.16 -0.68,-0.22 -1.078,-0.22c-0.634,0 -1.024,0.24 -1.024,0.77c0,0.54 0.382,0.79 0.963,0.79c0.581,0 0.963,-0.28 1.139,-0.77zM59.6348,23.9c-0.428,0.52 -1.062,0.77 -1.75,0.77c-1.292,0 -2.339,-0.78 -2.339,-2.17c0,-1.3 1.055,-2.15 2.56,-2.15c0.474,0 0.964,0.07 1.468,0.22v-0.12c0,-0.71 -0.397,-1.02 -1.452,-1.02c-0.665,0 -1.307,0.19 -1.85,0.5h-0.076v-1.56c0.504,-0.3 1.391,-0.55 2.262,-0.55c1.987,0 3.065,0.95 3.065,2.6v4.14h-1.895v-0.65M62.5238,21.26c0,-2.11 1.499,-3.44 3.455,-3.44c0.696,0 1.346,0.14 1.835,0.5v1.68h-0.077c-0.428,-0.33 -0.932,-0.52 -1.513,-0.52c-0.978,0 -1.72,0.66 -1.72,1.79c0,1.13 0.742,1.78 1.72,1.78c0.581,0 1.078,-0.19 1.513,-0.52h0.077v1.68c-0.489,0.36 -1.139,0.5 -1.835,0.5c-1.956,0 -3.455,-1.31 -3.455,-3.43M70.9938,21.56v2.99h-1.957v-9.26h1.957v5.28l1.972,-2.61h2.224v0.08l-2.37,2.99l2.37,3.44v0.08h-2.24zM79.5698,22.48v-0.57c-0.299,-0.16 -0.681,-0.22 -1.078,-0.22c-0.635,0 -1.024,0.24 -1.024,0.77c0,0.54 0.382,0.79 0.963,0.79c0.581,0 0.963,-0.28 1.139,-0.77zM79.6308,23.9c-0.428,0.52 -1.07,0.77 -1.751,0.77c-1.291,0 -2.339,-0.78 -2.339,-2.17c0,-1.3 1.055,-2.15 2.561,-2.15c0.474,0 0.963,0.07 1.468,0.22v-0.12c0,-0.71 -0.398,-1.02 -1.453,-1.02c-0.665,0 -1.307,0.19 -1.849,0.5h-0.077v-1.56c0.505,-0.3 1.391,-0.55 2.27,-0.55c1.988,0 3.065,0.95 3.065,2.6v4.14h-1.895v-0.65M84.8208,19.03c0.351,-0.72 0.871,-1.14 1.597,-1.14c0.268,0 0.535,0.06 0.635,0.13v1.86h-0.077c-0.221,-0.09 -0.489,-0.14 -0.856,-0.14c-0.604,0 -1.078,0.36 -1.246,1.04v3.79h-1.957v-6.59h1.896v1.07M92.2348,22.32v-2.12c-0.329,-0.47 -0.757,-0.68 -1.246,-0.68c-0.856,0 -1.437,0.62 -1.437,1.75c0,1.13 0.581,1.74 1.437,1.74c0.489,0 0.917,-0.21 1.246,-0.68zM92.2958,23.87c-0.413,0.54 -1.07,0.83 -1.957,0.83c-1.689,0 -2.767,-1.54 -2.767,-3.44c0,-1.89 1.078,-3.44 2.767,-3.44c0.856,0 1.483,0.26 1.896,0.75v-3.27h1.957v9.26h-1.896v-0.68M-0.0002,27.58h5.718v1.12h-4.426v2.83h4.013v1.09h-4.013v3.08h4.426v1.13h-5.718v-9.26M10.4488,30.18c1.467,0 2.278,0.97 2.278,2.55v4.1h-1.231v-4.07c0,-0.84 -0.428,-1.45 -1.36,-1.45c-0.772,0 -1.422,0.49 -1.644,1.18v4.34h-1.23v-6.51h1.23v0.95c0.382,-0.6 1.04,-1.08 1.957,-1.08M16.0288,30.31h1.674v1.06h-1.674v3.51c0,0.74 0.382,0.99 1.077,0.99c0.192,0 0.398,-0.03 0.551,-0.09h0.046v1.05c-0.176,0.08 -0.428,0.13 -0.772,0.13c-1.529,0 -2.133,-0.69 -2.133,-1.97v-3.63h-1.124v-1.05h1.124v-1.74h1.231v1.74M19.7658,32.94h3.241c-0.046,-0.97 -0.519,-1.71 -1.528,-1.71c-0.933,0 -1.544,0.7 -1.72,1.71zM21.7078,36.96c-1.911,0 -3.218,-1.27 -3.218,-3.31c0,-2.04 1.215,-3.47 2.981,-3.47c1.766,0 2.729,1.3 2.729,3.2v0.57h-4.472c0.13,1.31 0.979,1.95 2.148,1.95c0.726,0 1.246,-0.16 1.819,-0.59h0.046v1.08c-0.535,0.41 -1.231,0.58 -2.033,0.58M26.8748,31.32c0.283,-0.69 0.902,-1.1 1.613,-1.1c0.283,0 0.535,0.04 0.634,0.1v1.22h-0.046c-0.176,-0.09 -0.474,-0.13 -0.772,-0.13c-0.665,0 -1.23,0.44 -1.437,1.18v4.25h-1.23v-6.51h1.23v1.01M33.0968,35.86c1.215,0 1.926,-0.97 1.926,-2.28c0,-1.32 -0.711,-2.28 -1.926,-2.28c-0.665,0 -1.292,0.4 -1.613,1.04v2.51c0.329,0.63 0.948,1.02 1.613,1.02zM33.3028,30.18c1.942,0 2.973,1.59 2.973,3.4c0,1.81 -1.039,3.39 -2.973,3.39c-0.802,0 -1.483,-0.41 -1.819,-0.85v3.22h-1.231v-9.02h1.231v0.74c0.344,-0.46 1.024,-0.87 1.819,-0.87M38.9588,31.32c0.283,-0.69 0.902,-1.1 1.613,-1.1c0.283,0 0.535,0.04 0.635,0.1v1.22h-0.046c-0.176,-0.09 -0.474,-0.13 -0.772,-0.13c-0.665,0 -1.231,0.44 -1.437,1.18v4.25h-1.231v-6.51h1.231v1.01M42.9878,27.68c0.428,0 0.787,0.34 0.787,0.77c0,0.43 -0.352,0.77 -0.787,0.77c-0.436,0 -0.788,-0.34 -0.788,-0.77c0,-0.43 0.375,-0.77 0.788,-0.77zM42.3838,36.83h1.23v-6.51h-1.23zM47.9938,33.03c0.933,0.3 1.972,0.68 1.972,1.92c0,1.33 -1.093,2.02 -2.499,2.02c-0.856,0 -1.72,-0.2 -2.209,-0.59v-1.17h0.061c0.55,0.5 1.36,0.72 2.132,0.72c0.696,0 1.323,-0.27 1.323,-0.83c0,-0.57 -0.52,-0.71 -1.544,-1.06c-0.918,-0.29 -1.942,-0.63 -1.942,-1.86c0,-1.23 1.04,-2 2.354,-2c0.772,0 1.453,0.16 2.003,0.53v1.19h-0.046c-0.535,-0.43 -1.154,-0.68 -1.926,-0.68c-0.772,0 -1.2,0.34 -1.2,0.8c0,0.52 0.474,0.66 1.529,1.01M52.3048,32.94h3.241c-0.046,-0.97 -0.52,-1.71 -1.529,-1.71c-0.932,0 -1.544,0.7 -1.72,1.71zM54.2458,36.96c-1.91,0 -3.21,-1.27 -3.21,-3.31c0,-2.04 1.216,-3.47 2.974,-3.47c1.758,0 2.728,1.3 2.728,3.2v0.57h-4.471c0.13,1.31 0.978,1.95 2.148,1.95c0.726,0 1.246,-0.16 1.819,-0.59h0.046v1.08c-0.535,0.41 -1.231,0.58 -2.026,0.58" fill="#808080"/>
</g></svg>