<svg viewBox="0 0 27 15" x="0" y="0" fill="none" xmlns="http://www.w3.org/2000/svg"><path id="Vector_958" d="M9.296,7.3245l0.145,-1.67c0.687,-0.48 0.909,-1.5 1.344,-2c0.435,-0.5 0.985,-0.37 1.428,-0.65c0.191,-0.12 0.206,-0.29 0.328,-0.38c0.672,-0.5 2.474,-0.51 3.101,0.04c0.282,0.25 0.969,0.94 1.237,1.23c0.801,0.85 0.419,2.09 0.893,3.13c0.237,-0.04 0.725,0.1 0.886,-0.09c0.297,-0.36 0.282,-0.92 0.366,-1.3c0.13,-0.58 0.413,-0.52 0.726,-0.85c0.45,-0.49 0.465,-1.05 1.145,-1.52c0.725,-0.51 1.069,-0.26 1.817,-0.35c0.604,-0.08 0.749,-0.43 1.489,-0.19c0.848,0.28 0.894,0.81 1.39,1.28c0.542,0.51 0.786,0.34 1.122,1.24c0.336,0.92 0.138,1.35 0.161,2.21c0.015,0.58 0.45,1.91 -0.39,2.02c-0.359,0.04 -1.122,0.11 -1.481,0.11c-0.542,0 -1.206,-0.41 -1.886,-0.4c-0.267,0 -0.512,0.18 -0.794,0.21c-0.489,0.03 -1.489,-0.38 -1.336,0.52c0.381,0.45 0.389,1.12 0.74,1.53c0.397,0.47 1.329,1.04 1.963,0.95c0.901,-0.13 2.13,-2.48 2.97,-1.13c0.649,1.06 0.099,1.94 -0.764,2.61c-1.145,0.89 -2.916,1.48 -4.276,0.71c-1.137,-0.63 -2.771,-2.91 -2.901,-4.18c-0.038,-0.36 0.023,-0.76 0,-1.12c-0.565,-0.02 -1.069,0.11 -1.642,0.11c-0.573,0 -1.153,-0.18 -1.779,-0.11c-0.703,0.08 -0.985,0.38 -1.871,0.29c-0.504,-0.06 -1.115,-0.48 -1.55,-0.12c-0.03,0.13 0.168,1.13 0.237,1.32c0.069,0.19 0.45,0.96 0.565,1.11c0.313,0.42 1.313,0.52 1.787,0.39c0.61,-0.15 1.595,-1.97 2.283,-1.28c0.473,0.49 0.343,2.01 0.015,2.57c-0.519,0.91 -1.657,0.84 -2.505,1.06c-0.549,0.14 -0.488,0.48 -1.282,0.2c-0.176,-0.06 -1.734,-0.79 -1.818,-0.85c-0.717,-0.53 -0.588,-1.42 -0.954,-1.97c-0.069,-0.1 -0.229,-0.11 -0.329,-0.28c-0.297,-0.55 -0.053,-1.26 -0.29,-1.83l-0.534,0.08c0.023,0.6 -0.451,1.08 -0.573,1.6c-0.275,1.11 0.397,3.21 -1.405,3.22c-1.138,0 -2.558,-0.16 -3.665,-0.12c-0.848,0.04 -1.833,0.79 -2.627,-0.13c-0.595,-0.7 0.237,-1.42 0.298,-2.16c0.046,-0.53 -0.198,-0.94 -0.206,-1.37c-0.008,-0.61 -0.054,-1.71 0,-2.25c0.076,-0.66 0.427,-1.21 0.405,-1.96c-0.016,-0.39 -0.199,-0.68 -0.207,-0.98c-0.007,-0.3 0.138,-0.52 0.1,-0.87c-0.023,-0.25 -0.458,-2.07 -0.542,-2.21c-0.115,-0.18 -0.375,-0.31 -0.482,-0.5c-0.305,-0.53 -0.114,-1.21 0.344,-1.6c0.42,-0.35 2.26,-0.74 2.795,-0.62c0.351,0.07 1.076,1.1 1.138,1.42c0.19,0.94 -0.94,1.09 -0.978,1.84c0.199,0.83 0.222,1.68 0.328,2.52c0.046,0.36 0.26,0.85 0.26,1.21c0,0.57 -0.435,1.19 -0.489,1.85c-0.053,0.65 -0.007,1.84 0,2.54c0.016,1.46 1.062,0.71 2.039,1.12c0.519,-0.03 0.466,-1.08 0.588,-1.55c0.13,-0.51 0.542,-1.07 0.619,-1.44c0.061,-0.32 -0.016,-0.63 0.03,-0.95c0.176,-1.28 1.451,-1.16 2.467,-1.23zM15.328,7.0145c0.214,-0.35 -0.282,-0.75 -0.389,-1c-0.107,-0.26 -0.061,-0.56 -0.199,-0.78c-0.045,-0.08 -0.87,-0.65 -0.939,-0.65c-0.152,-0.02 -1.008,0.69 -1.137,0.84c-0.153,0.18 -0.161,0.4 -0.291,0.59c-0.175,0.24 -1.069,0.94 -0.252,1.03c0.596,0.07 1.604,0.17 2.184,0.2c0.214,0 0.924,-0.05 1.031,-0.22zM21.399,6.9245c1.031,0.18 1.947,0.5 3.001,0.29l0.122,-0.08c0.168,-0.96 -1,-2.2 -2.016,-1.8c-0.267,0.12 -1.26,1.35 -1.107,1.59z" fill="currentColor" xmlns="http://www.w3.org/2000/svg"/></svg>