<svg viewBox="0 0 53.6563 16.2457" x="0" y="0" fill="none" xmlns="http://www.w3.org/2000/svg"><g id="Group_31" xmlns="http://www.w3.org/2000/svg">
<path id="Vector_966" d="M53.6602,9.8565c0,0 -0.015,0.02 -0.031,0c-0.084,-0.52 -0.084,-1.06 0,-1.58c0.008,-0.03 0.015,-0.03 0.031,0z" fill="#838383"/>
<path id="Vector_967" d="M16.7322,1.1365c0.084,-0.2 0.436,-0.32 0.642,-0.34c0.444,-0.04 0.91,0.4 1.208,0.7c1.269,1.29 2.217,2.88 3.065,4.48c1.101,2.07 2.056,4.33 2.515,6.65c-0.031,0.15 -0.023,0.16 0.03,0.05c0.138,1.05 0.268,3 -0.978,3.47c-1.552,0.58 -2.866,-1.51 -3.47,-2.63c-1.07,-1.98 -1.651,-4.01 -2.247,-6.16c-0.023,-0.08 -0.031,-0.19 -0.1,-0.23c-0.053,-0.05 -0.076,-0.12 -0.076,-0.23c-0.398,-1.77 -0.78,-3.7 -0.657,-5.55c0,-0.04 0.015,-0.07 0.022,-0.11c0.008,-0.03 0.031,-0.06 0.046,-0.1z" fill="#727272"/>
<path id="Vector_968" d="M17.4002,7.1165c-0.023,0.28 -0.161,0.7 -0.237,0.99c-0.436,1.62 -1.017,3.33 -1.758,4.84c-0.658,1.33 -2.217,4.11 -4.067,3.06c-0.099,-0.05 -0.344,-0.22 -0.397,-0.31l-0.145,-0.18c-0.558,-1.56 -0.207,-3.25 0.221,-4.81c0.268,-0.99 0.612,-2.05 1.032,-2.98c0.008,-0.01 0.023,-0.04 0.046,-0.05c0.023,-0.02 0.038,-0.03 0.061,-0.04c0.031,-0.06 0.13,-0.19 0.176,-0.29c0.03,0 0.023,0.03 0.023,0.03v-0.01c0.114,-0.2 0.229,-0.39 0.336,-0.59c0.833,-1.54 1.697,-3.11 2.821,-4.5c0.175,-0.21 0.955,-1.12 1.169,-1.14c0.023,0 0.038,0 0.061,0c-0.03,0.42 -0.046,0.85 -0.03,1.28c0.038,1.32 0.305,2.69 0.558,3.99c0.046,0.23 0.153,0.48 0.137,0.71z" fill="#5E5E5E"/>
<path id="Vector_969" d="M6.8732,7.0065c-0.015,0.24 -0.168,0.72 -0.237,0.98c-0.573,2.21 -1.949,6.3 -3.753,7.74c-1.2,0.95 -2.499,0.55 -2.797,-0.97c-0.176,-0.89 -0.054,-1.72 0.107,-2.57c0.772,-3.08 2.255,-6.19 4.051,-8.88c0.29,-0.42 0.596,-0.85 0.933,-1.25c0.16,-0.19 0.779,-0.89 0.97,-0.92c0.023,0 0.046,0 0.069,0c0.023,0.07 0.046,0.15 0.046,0.23c0.008,0.81 0.023,1.54 0.115,2.34c0.114,1.04 0.305,2.04 0.542,3.02c0.038,0.14 0.031,0.23 -0.038,0.28z" fill="#727272"/>
<path id="Vector_970" d="M12.0602,7.4965c0.054,0.03 0.031,0.11 0.084,0.14c-0.688,1.54 -1.505,4.14 -1.582,5.8c-0.03,0.63 0.061,1.71 0.375,2.26c-0.413,-0.26 -0.749,-0.68 -1.032,-1.08c-1.529,-2.18 -2.263,-4.95 -2.974,-7.48c-0.015,-0.05 -0.015,-0.1 -0.061,-0.13c0.016,-0.33 -0.214,-1.06 -0.283,-1.43c-0.259,-1.46 -0.45,-2.95 -0.382,-4.44c0.039,-0.16 0.291,-0.25 0.444,-0.29c0.519,-0.17 0.986,0.16 1.345,0.52c1.529,1.55 2.606,3.5 3.623,5.4c0.138,0.25 0.29,0.5 0.443,0.73z" fill="#878787"/>
<path id="Vector_971" d="M27.4722,10.7165c0,0 -0.031,-0.03 -0.039,-0.04c0.084,-1.98 0.298,-3.96 0.428,-5.94h1.468l1.544,4.37l1.483,-4.36c0.283,-0.01 0.565,-0.05 0.856,-0.04c0.076,0 0.137,0.02 0.199,0.03c0.091,0 0.389,-0.04 0.412,0.04l0.39,5.94h-1.078l-0.359,-4.23l-1.46,4.18l-0.023,0.04c-0.038,0.03 -0.863,0.03 -0.97,0.01c-0.031,0 -0.062,0 -0.084,-0.03c-0.36,-1.04 -0.673,-2.09 -1.055,-3.13c-0.115,-0.3 -0.245,-0.71 -0.39,-0.99c-0.015,-0.03 -0.031,-0.08 -0.069,-0.08l-0.229,3.61c-0.054,0.2 0,0.45 -0.1,0.62z" fill="#808080"/>
<path id="Vector_972" d="M35.7122,11.4065c0.352,-0.04 0.65,-0.37 0.642,-0.73c-0.451,-1.37 -1.039,-2.69 -1.46,-4.08c0.344,-0.08 0.703,-0.1 1.055,-0.14l0.023,0.03l0.955,2.85l0.948,-2.82h0.994c-0.122,0.42 -0.26,0.84 -0.405,1.25c-0.359,1.03 -0.734,2.13 -1.131,3.13c-0.207,0.53 -0.459,1.1 -1.032,1.3c-0.184,0.07 -0.864,0.13 -1.017,0.04c-0.069,-0.04 -0.122,-0.71 -0.168,-0.83c0.191,-0.02 0.405,0.02 0.589,0z" fill="#808080"/>
<path id="Vector_973" d="M40.4572,6.5165c0.03,0.15 0.046,0.32 0.084,0.47c0.008,0.03 -0.023,0.06 0.046,0.05c0.038,0 0.481,-0.35 0.604,-0.41c0.649,-0.33 1.528,-0.32 1.857,0.43c0.122,0.27 0.076,0.38 0.092,0.66c0.053,0.85 0.084,1.92 0.03,2.76c0,0.07 -0.03,0.14 -0.03,0.22c-0.13,0.01 -0.94,0.07 -0.979,0.01l-0.053,-0.62c-0.046,-0.75 0.115,-1.59 0,-2.33c-0.069,-0.42 -0.566,-0.45 -0.894,-0.3c-0.138,0.06 -0.566,0.33 -0.566,0.49v2.76c-0.359,0.05 -0.711,0 -1.07,0v-4.18h0.894z" fill="#808080"/>
<path id="Vector_974" d="M24.1982,12.6765l-0.03,0.07c-0.314,-1.57 -0.887,-3.12 -1.521,-4.58c-0.902,-2.07 -2.66,-5.39 -4.342,-6.87c-0.573,-0.49 -0.909,-0.63 -1.574,-0.16c-1.292,0.91 -2.775,3.47 -3.577,4.87c-0.237,0.42 -0.474,1 -0.773,1.36c-0.038,0.05 -0.068,0.08 -0.053,-0.01c0.948,-2.13 2.224,-4.73 3.791,-6.45c0.314,-0.35 0.917,-0.96 1.414,-0.89c0.604,0.08 1.552,1.28 1.911,1.77c2.003,2.71 4.319,7.56 4.762,10.9z" fill="#3E3E3E"/>
<path id="Vector_975" d="M45.4432,5.0465l0.03,1.44l0.833,0.03l0.146,0.82l-0.979,0.04c0,0.28 0,0.57 0,0.85c0,0.4 -0.038,0.8 0,1.21c0.054,0.53 0.489,0.35 0.864,0.46c0.03,0.11 0.145,0.81 0.115,0.85c-0.383,0.01 -0.75,0.07 -1.132,-0.01c-0.802,-0.16 -0.886,-0.72 -0.917,-1.44c-0.031,-0.63 0.023,-1.28 0,-1.92c-0.084,0 -0.566,-0.01 -0.581,-0.07c-0.015,-0.07 0,-0.76 0.031,-0.79l0.55,-0.03l0.031,-1.29l1.001,-0.15z" fill="#808080"/>
<path id="Vector_976" d="M12.0612,7.4965c0,0 -0.015,0.03 -0.053,-0.02c-0.421,-0.54 -0.864,-1.54 -1.239,-2.16c-0.733,-1.23 -1.643,-2.74 -2.644,-3.76c-0.612,-0.61 -1.124,-1.01 -1.919,-0.42c-0.894,0.65 -1.781,1.97 -2.377,2.91c-1.521,2.39 -2.874,5.34 -3.608,8.09c-0.007,0.03 0,0.12 -0.045,0.06c0.481,-2.55 1.589,-5.13 2.812,-7.4c0.673,-1.26 2.171,-3.85 3.341,-4.58c0.397,-0.25 0.588,-0.3 1.016,-0.06c1.093,0.6 2.561,3.06 3.188,4.19c0.565,1.01 1.1,2.08 1.521,3.15z" fill="#3E3E3E"/>
<path id="Vector_977" d="M48.1562,6.5165l0.13,0.69c0.374,-0.36 0.779,-0.79 1.337,-0.78l0.146,0.99c-0.421,0.14 -0.895,0.25 -1.216,0.58c-0.229,0.24 -0.244,0.44 -0.26,0.75c-0.03,0.65 0.069,1.3 -0.007,1.95c-0.061,0.08 -0.872,-0.02 -1.025,0v-4.17h0.895z" fill="#808080"/>
<path id="Vector_978" d="M53.6262,8.2765c0,-0.23 0.015,-0.47 0,-0.69c-0.092,-1.57 -2.262,-1.22 -3.256,-0.85l0.092,0.82c0.328,-0.05 0.634,-0.2 0.978,-0.26c0.604,-0.09 1.177,-0.07 1.185,0.68c-1.047,0.14 -2.714,0.36 -2.561,1.79c0.107,0.97 1.002,1.19 1.812,0.91c0.298,-0.1 0.527,-0.28 0.802,-0.43c0.016,0.07 0.062,0.46 0.13,0.46h0.78c0.061,0 0.046,-0.28 0.046,-0.34c0,-0.18 0,-0.34 0,-0.52c0,-0.53 0,-1.06 0,-1.58zM52.5872,9.5765c-0.314,0.22 -0.65,0.46 -1.048,0.42c-0.191,-0.03 -0.389,-0.17 -0.42,-0.36c-0.115,-0.81 0.887,-0.94 1.468,-1.02z" fill="#808080"/>
</g></svg>