<svg viewBox="0 0 84.5026 19.5208" x="0" y="0" fill="none" xmlns="http://www.w3.org/2000/svg"><g id="Group_22" xmlns="http://www.w3.org/2000/svg">
<path id="Vector_926" d="M21.6872,12.6859h1.957c0.764,0 1.054,0.26 1.054,0.91c0,0.65 -0.29,0.89 -1.054,0.89h-1.957v-1.79zM18.6602,19.2059h3.027v-2.65h3.248c2.148,0 2.92,-1.27 2.92,-2.9c0,-1.9 -0.795,-2.98 -2.943,-2.98h-6.252v8.52z" fill="currentColor"/>
<path id="Vector_927" d="M28.8552,10.6859h8.156v2.07h-5.129v1.15h4.762v2.08h-4.762v1.14h5.129v2.08h-8.156z" fill="currentColor"/>
<path id="Vector_928" d="M41.3082,12.6859h1.956c0.765,0 1.055,0.26 1.055,0.91c0,0.65 -0.29,0.89 -1.055,0.89h-1.956v-1.79zM38.2812,19.2059h3.027v-2.65h3.241c2.147,0 2.919,-1.27 2.919,-2.9c0,-1.9 -0.795,-2.98 -2.942,-2.98h-6.253v8.52z" fill="currentColor"/>
<path id="Vector_929" d="M50.4122,15.5959c-1.483,-0.26 -2.094,-1.21 -2.094,-2.4c0,-2.21 1.941,-2.81 4.441,-2.81c3.416,0 4.823,0.99 4.93,2.8h-3.524c0,-0.35 -0.183,-0.56 -0.459,-0.68c-0.267,-0.13 -0.611,-0.18 -0.947,-0.18c-0.902,0 -1.216,0.25 -1.216,0.61c0,0.24 0.1,0.4 0.398,0.45l3.623,0.59c1.528,0.26 2.469,1.04 2.469,2.49c0,2.08 -1.529,3.05 -4.93,3.05c-2.332,0 -4.877,-0.35 -4.892,-2.86h3.653c0.008,0.28 0.107,0.47 0.321,0.61c0.222,0.12 0.558,0.18 1.032,0.18c0.948,0 1.2,-0.29 1.2,-0.7c0,-0.25 -0.137,-0.5 -0.55,-0.57l-3.463,-0.58z" fill="currentColor"/>
<path id="Vector_930" d="M62.0462,10.6859h-3.027v8.52h3.027z" fill="currentColor"/>
<path id="Vector_931" d="M73.2722,15.8859c-0.191,1.13 -0.535,2.03 -1.291,2.66c-0.742,0.62 -1.904,0.97 -3.753,0.97c-1.85,0 -5.244,-0.15 -5.244,-4.57c0,-4.41 3.409,-4.56 5.244,-4.56c1.834,0 4.639,0.26 5.037,3.64h-3.417c-0.084,-0.61 -0.451,-1.49 -1.62,-1.49c-1.239,0 -2.018,0.68 -2.018,2.41c0,1.74 0.764,2.41 1.872,2.41c0.956,0 1.529,-0.44 1.774,-1.47z" fill="currentColor"/>
<path id="Vector_932" d="M77.2412,14.9459c0,-1.73 0.787,-2.42 2.018,-2.42c1.23,0 2.018,0.68 2.018,2.42c0,1.73 -0.788,2.4 -2.018,2.4c-1.231,0 -2.018,-0.68 -2.018,-2.4zM74.0152,14.9459c0,4.41 3.409,4.56 5.244,4.56c1.834,0 5.243,-0.15 5.243,-4.56c0,-4.42 -3.409,-4.57 -5.243,-4.57c-1.835,0 -5.244,0.15 -5.244,4.57z" fill="currentColor"/>
<path id="Vector_933" d="M14.0792,10.7659c0.199,-4.09 -3.333,-8.7 -8.148,-9.26v-0.05c4.754,0 8.385,4.38 8.385,7.85c0,0.71 -0.061,1.16 -0.161,1.49zM13.7882,11.2859c-0.313,0.38 -0.71,0.77 -1.177,1.14c-0.856,-4.91 -4.471,-9.22 -7.024,-10.47l-0.054,0.04c2.569,2.11 5.634,6.2 6.826,10.62c-0.573,0.42 -1.231,0.81 -1.957,1.13c-2.423,-2.77 -4.685,-8.1 -5.419,-11.48l-0.076,0.02c0.015,3.29 2.346,8.86 5.197,11.58c-0.634,0.25 -1.307,0.44 -2.025,0.56c-2.729,-1.08 -4.671,-4.54 -4.671,-8.08c0,-2.32 0.704,-3.75 0.841,-4.04l-0.061,-0.02c-0.168,0.25 -1.2,1.68 -1.2,4.17c0,4.01 1.98,7.06 4.601,8.03c-0.894,0.1 -1.842,0.07 -2.812,-0.13l-0.016,0.06c0.283,0.1 1.231,0.5 2.683,0.5c3.287,0 5.504,-2.04 6.398,-3.59l-0.061,-0.05z" fill="currentColor"/>
<path id="Vector_934" d="M7.1262,-0.0041c-2.492,0 -5.411,1.8 -5.411,3.44c0,0.64 0.581,1.17 1.788,1.17c2.79,0 5.389,-1.92 5.389,-3.41c0,-0.78 -0.757,-1.2 -1.766,-1.2zM8.1202,1.1559c0,1.25 -2.415,2.79 -4.433,2.79c-0.895,0 -1.376,-0.35 -1.376,-0.93c0,-1.28 2.446,-2.79 4.334,-2.79c1.238,0 1.475,0.63 1.475,0.93z" fill="currentColor"/>
<path id="Vector_935" d="M0.7222,4.2059c-0.068,0.12 -0.351,0.67 -0.351,1.23c0,1.04 1.055,2.01 2.996,2.01c3.73,0 8.041,-2.75 8.041,-5.29c0,-1.15 -1.085,-1.77 -1.834,-1.9l-0.016,0.05c0.237,0.08 1.093,0.47 1.093,1.49c0,2.03 -3.806,4.79 -7.597,4.79c-1.453,0 -2.362,-0.72 -2.362,-1.76c0,-0.32 0.069,-0.55 0.084,-0.61l-0.054,-0.02z" fill="currentColor"/>
<path id="Vector_936" d="M12.9422,2.3459c0.099,0.08 0.718,0.59 0.718,1.56c0,3.3 -5.174,6.54 -9.745,6.54c-2.729,0 -3.967,-1.34 -3.914,-2.54h0.046c0.107,0.62 0.994,1.73 3.379,1.73c4.578,0 9.692,-3.35 9.692,-6.3c0,-0.5 -0.138,-0.81 -0.214,-0.95l0.038,-0.03z" fill="currentColor"/>
<path id="Vector_937" d="M14.6712,5.4259c0.023,0.07 0.13,0.38 0.13,0.88c0,3.67 -5.236,6.81 -9.784,6.81c-2.347,0 -3.57,-1.14 -3.822,-1.6l0.038,-0.03c0.65,0.57 1.926,1 3.417,1c4.02,0 10.021,-3.06 9.967,-7.05l0.054,-0.02z" fill="currentColor"/>
</g></svg>