<svg viewBox="0 0 105.084 10.1501" x="0" y="0" fill="none" xmlns="http://www.w3.org/2000/svg"><g id="Group_23" xmlns="http://www.w3.org/2000/svg">
<path id="Vector_938" d="M0.0077,9.2041c1.0624,0.6 2.0331,0.87 3.1415,0.87c2.0484,0 3.2711,-1.13 3.2711,-3.03c0,-1.8 -1.3755,-2.44 -2.4839,-2.96c-0.7643,-0.36 -1.4217,-0.67 -1.4217,-1.26c0,-0.49 0.3134,-0.99 1.0243,-0.99c0.5121,0 1.1236,0.17 1.9185,0.54l0.7878,-1.58c-0.9177,-0.53 -1.8579,-0.79 -2.8745,-0.79c-1.972,0 -3.1491,1.06 -3.1491,2.82c0,1.77 1.3758,2.46 2.4841,3.01c0.8026,0.4 1.4982,0.74 1.4982,1.39c0,0.56 -0.4969,0.93 -1.2459,0.93c-0.5962,0 -1.3224,-0.22 -2.1632,-0.65l-0.7949,1.69z" fill="currentColor"/>
<path id="Vector_939" d="M10.4763,5.5841c-0.275,0 -0.451,0 -0.619,-0.02h-0.03v-2.78h0.03c0.191,-0.02 0.443,-0.02 0.65,-0.02c1.009,0 1.208,0.58 1.208,1.52c0,0.93 -0.383,1.3 -1.239,1.3zM10.5453,1.1341c-0.856,0 -2.148,0 -2.897,0.02v8.73h2.179v-2.66h0.657c0.994,0 3.294,-0.32 3.294,-3.28c0,-1.81 -1.154,-2.81 -3.241,-2.81z" fill="currentColor"/>
<path id="Vector_940" d="M17.7073,5.5841c-0.275,0 -0.451,0 -0.619,-0.02h-0.031v-2.78h0.031c0.191,-0.02 0.443,-0.02 0.649,-0.02c1.009,0 1.208,0.58 1.208,1.52c0,0.93 -0.382,1.3 -1.238,1.3zM20.1223,6.5241l-0.015,-0.02l0.023,-0.02c0.726,-0.57 1.124,-1.46 1.124,-2.51c0,-2.09 -1.797,-2.84 -3.478,-2.84c-0.856,0 -2.148,0 -2.89,0.02v8.73h2.179v-2.66h0.665c0.13,0 0.26,0 0.374,-0.02h0.016l0.007,0.02c0.36,0.57 0.826,1.5 0.971,2.66c0.474,0 2.385,0 2.385,0c-0.199,-1.34 -0.933,-2.68 -1.353,-3.36z" fill="currentColor"/>
<path id="Vector_941" d="M22.8553,1.1441v0.48v0.69v0.89v1.04v1.5v1.23v1.26v1.65h2.171v-0.86v-1.72v-1.37v-1.34v-1.21v-0.67v-0.93v-0.64z" fill="currentColor"/>
<path id="Vector_942" d="M31.5583,9.8841h2.293v-8.74h-1.926v5.72l-2.607,-5.72h-2.377v8.74h1.911v-5.51z" fill="currentColor"/>
<path id="Vector_943" d="M64.9793,9.8841h2.576v-9.8h-2.01v6.83l-3.203,-6.83h-2.538v9.8h2.003v-6.77z" fill="currentColor"/>
<path id="Vector_944" d="M39.1023,0.9441c-1.322,0 -2.27,0.37 -2.904,1.13c-0.635,0.76 -0.94,1.88 -0.94,3.43c0,3.38 0.986,4.65 3.646,4.65c0.848,0 2.117,-0.23 3.065,-0.71v-4.34h-2.874v1.49h0.909v1.78h-0.023c-0.221,0.09 -0.741,0.13 -0.955,0.13c-1.147,0 -1.598,-0.85 -1.598,-3.02c0,-1.91 0.665,-2.84 2.026,-2.84c0.451,0 1.116,0.2 1.827,0.56l0.588,-1.46c-0.787,-0.5 -1.819,-0.8 -2.759,-0.8" fill="currentColor"/>
<path id="Vector_945" d="M78.4683,9.8841h2.27v-6.96h1.674v-1.78h-5.901v1.78h1.957z" fill="currentColor"/>
<path id="Vector_946" d="M83.7183,1.1441v5.93c0,2.08 1.009,3.01 3.279,3.01c2.271,0 3.402,-1.06 3.402,-3.33v-5.61h-2.255v5.82c0,0.89 -0.054,1.44 -1.055,1.44c-1.001,0 -1.123,-0.45 -1.123,-1.45v-5.8h-2.255z" fill="currentColor"/>
<path id="Vector_947" d="M43.4533,1.1441v7.2c0,0 -0.016,0.68 0.443,1.16c0.283,0.29 0.688,0.44 1.2,0.44c1.582,0.01 3.317,-0.05 3.562,-0.06v-1.71h-3.126v-1.91h2.82v-1.69h-2.82v-1.72h3.08v-1.71h-5.167z" fill="currentColor"/>
<path id="Vector_948" d="M99.8783,1.1441v7.2c0,0 -0.015,0.68 0.444,1.16c0.283,0.29 0.688,0.44 1.2,0.44c1.582,0.01 3.317,-0.05 3.562,-0.06v-1.71h-3.127v-1.91h2.821v-1.69h-2.821v-1.72h3.081v-1.71h-5.167z" fill="currentColor"/>
<path id="Vector_949" d="M71.5943,6.8441l0.902,-3.8h0.092l0.925,3.8zM74.3233,1.1441h-3.394l-2.125,8.74h2.225l0.313,-1.39h2.431l0.313,1.39h2.339z" fill="currentColor"/>
<path id="Vector_950" d="M53.0823,5.5841c-0.275,0 -0.451,0 -0.619,-0.02h-0.031v-2.78h0.031c0.191,-0.02 0.443,-0.02 0.649,-0.02c1.009,0 1.208,0.58 1.208,1.52c0,0.93 -0.382,1.3 -1.238,1.3zM55.4973,6.5241l-0.015,-0.02l0.023,-0.02c0.726,-0.57 1.123,-1.46 1.123,-2.51c0,-2.09 -1.796,-2.84 -3.477,-2.84c-0.857,0 -2.148,0 -2.897,0.02v8.73h2.178v-2.66h0.657c0.13,0 0.26,0 0.375,-0.02h0.015l0.008,0.02c0.359,0.57 0.825,1.5 0.971,2.66c0.473,0 2.384,0 2.384,0c-0.198,-1.34 -0.932,-2.68 -1.353,-3.36z" fill="currentColor"/>
<path id="Vector_951" d="M94.8403,5.5841c-0.275,0 -0.451,0 -0.619,-0.02h-0.031v-2.78h0.031c0.191,-0.02 0.443,-0.02 0.649,-0.02c1.009,0 1.208,0.58 1.208,1.52c0,0.93 -0.382,1.3 -1.238,1.3zM97.2553,6.5241l-0.015,-0.02l0.023,-0.02c0.726,-0.57 1.123,-1.46 1.123,-2.51c0,-2.09 -1.796,-2.84 -3.477,-2.84c-0.857,0 -2.148,0 -2.89,0.02v8.73h2.179v-2.66h0.665c0.13,0 0.26,0 0.374,-0.02h0.015l0.008,0.02c0.359,0.57 0.826,1.5 0.971,2.66c0.474,0 2.385,0 2.385,0c-0.199,-1.34 -0.933,-2.68 -1.353,-3.36z" fill="currentColor"/>
</g></svg>