<svg viewBox="0 0 64.0127 18.4609" x="0" y="0" fill="none" xmlns="http://www.w3.org/2000/svg"><g id="Group_30" xmlns="http://www.w3.org/2000/svg">
<path id="Vector_959" d="M2.7821,0.0011l2.553,5.88l2.782,-5.72l3.088,5.56l2.4,-5.72h2.783l-4.946,12.76l-3.325,-6.58l-3.088,6.65l-5.029,-12.83z" fill="currentColor"/>
<path id="Vector_960" d="M48.5511,0.0011v12.37c-0.726,-0.27 -1.651,-0.22 -2.4,-0.04l-0.206,-0.22l-0.023,-12.11z" fill="currentColor"/>
<path id="Vector_961" d="M45.6131,2.3211l-0.481,2.3l-0.757,0.01c0.405,1.7 0.535,3.14 -0.596,4.59c1.895,2.25 2.652,4.94 0.604,7.4c-2.102,2.52 -5.756,2.39 -7.888,0l1.773,-1.78c1.062,1.41 3.21,1.63 4.318,0.15c2.133,-2.87 -2.155,-6.19 -4.318,-3.12l-2.087,-1.51v1.86h-2.629v-6.26c0,-0.1 -0.482,-0.71 -0.619,-0.77c-0.696,-0.31 -2.316,0.15 -2.316,0.92v6.11h-2.63c-0.038,-0.11 0.153,-0.18 0.153,-0.23v-9.12c0,-0.05 -0.199,-0.13 -0.153,-0.23h2.63l-0.153,0.46c1.437,-0.46 2.537,-0.98 4.02,-0.23c0.497,0.26 1.697,1.49 1.697,2.01v5.34l1.055,-0.87c-1.124,-1.91 -1.177,-4.5 0.657,-6c0.436,-0.35 1.705,-1.01 2.232,-1.01h5.488zM40.3161,4.9811c-1.765,0.26 -1.834,2.95 -0.03,3.21c2.545,0.35 2.438,-3.57 0.03,-3.21z" fill="currentColor"/>
<path id="Vector_962" d="M52.1021,9.4311c1.261,1.66 3.562,0.97 4.716,-0.47l0.94,2.01c-2.759,2.35 -6.795,2.15 -8.308,-1.43c-2.454,-5.8 4.716,-9.75 8.37,-5.13c0.152,0.2 0.535,0.6 0.405,0.85zM54.8841,4.9511c-2.056,-1.03 -3.783,0.46 -3.554,2.62l3.318,-2.16z" fill="currentColor"/>
<path id="Vector_963" d="M27.5221,2.6311v9.58h-2.079l-0.16,-0.46c-6.941,2.73 -7.224,-8.27 -0.077,-5.87v-1.24h-3.707l0.466,-2.01h5.565zM24.6861,9.6911c1.636,-1.75 -2.942,-3.1 -2.392,-0.53c0.214,1 1.773,1.2 2.392,0.53z" fill="currentColor"/>
<path id="Vector_964" d="M61.2301,2.6311l0.077,0.62c0.841,-0.7 1.658,-0.68 2.706,-0.62v2.31c-0.65,-0.23 -2.783,0.42 -2.783,1.17v6.26h-2.476v-9.74z" fill="currentColor"/>
<path id="Vector_965" d="M21.0281,2.4811v2.16c-0.642,-0.05 -2.782,0.79 -2.782,1.47v6.1h-2.477v-9.58h2.477l0.076,0.46c0.956,-0.4 1.59,-0.81 2.706,-0.61z" fill="currentColor"/>
</g></svg>